<svg id="Group_1353" data-name="Group 1353" xmlns="http://www.w3.org/2000/svg" width="32.07" height="32.07" viewBox="0 0 32.07 32.07">
  <g id="wikipedia" transform="translate(0)">
    <g id="Group_1346" data-name="Group 1346">
      <g id="Group_1345" data-name="Group 1345">
        <path id="Path_3564" data-name="Path 3564" d="M29.251,0H2.819A2.822,2.822,0,0,0,0,2.819V29.251A2.822,2.822,0,0,0,2.819,32.07H29.251a2.822,2.822,0,0,0,2.819-2.819V2.819A2.822,2.822,0,0,0,29.251,0ZM1.879,2.819a.941.941,0,0,1,.94-.94H20.733V7.516H1.879ZM30.191,29.251a.941.941,0,0,1-.94.94H2.819a.941.941,0,0,1-.94-.94V9.4H30.191Zm0-21.735H22.612V1.879h6.639a.941.941,0,0,1,.94.94Z"/>
      </g>
    </g>
    <g id="Group_1348" data-name="Group 1348" transform="translate(3.758 3.758)">
      <g id="Group_1347" data-name="Group 1347">
        <path id="Path_3565" data-name="Path 3565" d="M62.881,60H60.94a.94.94,0,0,0,0,1.879h1.942a.94.94,0,1,0,0-1.879Z" transform="translate(-60 -60)"/>
      </g>
    </g>
    <g id="Group_1350" data-name="Group 1350" transform="translate(9.458 3.758)">
      <g id="Group_1349" data-name="Group 1349">
        <path id="Path_3566" data-name="Path 3566" d="M153.819,60H151.94a.94.94,0,0,0,0,1.879h1.879a.94.94,0,0,0,0-1.879Z" transform="translate(-151 -60)"/>
      </g>
    </g>
    <g id="Group_1352" data-name="Group 1352" transform="translate(15.095 3.758)">
      <g id="Group_1351" data-name="Group 1351">
        <path id="Path_3567" data-name="Path 3567" d="M243.819,60H241.94a.94.94,0,1,0,0,1.879h1.879a.94.94,0,0,0,0-1.879Z" transform="translate(-241 -60)"/>
      </g>
    </g>
  </g>
  <g id="security" transform="translate(8.204 11.825)">
    <path id="Path_3568" data-name="Path 3568" d="M14.007,2.654A2.859,2.859,0,0,1,12.243.88,1.3,1.3,0,0,0,11.016,0H3.868A1.3,1.3,0,0,0,2.641.88,2.859,2.859,0,0,1,.876,2.654,1.3,1.3,0,0,0,0,3.885V5.693A11.533,11.533,0,0,0,6.924,16.279a1.307,1.307,0,0,0,1.036,0,11.461,11.461,0,0,0,4.878-4.015,11.52,11.52,0,0,0,2.045-6.571V3.885a1.3,1.3,0,0,0-.876-1.23Zm-.084,3.039a10.564,10.564,0,0,1-1.875,6.026A10.5,10.5,0,0,1,7.578,15.4a.343.343,0,0,1-.272,0A10.573,10.573,0,0,1,.961,5.693V3.885a.34.34,0,0,1,.228-.322A3.826,3.826,0,0,0,3.55,1.189.336.336,0,0,1,3.868.96h7.149a.337.337,0,0,1,.318.229A3.826,3.826,0,0,0,13.7,3.563a.34.34,0,0,1,.228.322Zm0,0" transform="translate(-0.001 0)"/>
    <path id="Path_3569" data-name="Path 3569" d="M137.876,92.421h-.033V91.054a2.007,2.007,0,1,0-4.015,0v1.367H133.8a1.157,1.157,0,0,0-1.156,1.156V96.34a2.156,2.156,0,0,0,2.153,2.153h2.086a2.156,2.156,0,0,0,2.153-2.153V93.577a1.157,1.157,0,0,0-1.156-1.156Zm-3.087-1.367a1.047,1.047,0,1,1,2.094,0v1.367h-2.094Zm3.283,5.286a1.194,1.194,0,0,1-1.193,1.193h-2.086A1.194,1.194,0,0,1,133.6,96.34V93.577a.2.2,0,0,1,.2-.2h4.08a.2.2,0,0,1,.2.2Zm0,0" transform="translate(-128.395 -86.196)"/>
    <path id="Path_3570" data-name="Path 3570" d="M217.98,260.18a.48.48,0,0,0-.48.48v.907a.48.48,0,1,0,.96,0v-.907A.48.48,0,0,0,217.98,260.18Zm0,0" transform="translate(-210.539 -251.853)"/>
  </g>
</svg>
