<svg id="exchange" xmlns="http://www.w3.org/2000/svg" width="31.264" height="31.264" viewBox="0 0 31.264 31.264">
  <path id="XMLID_17_" d="M29.843,7.105H4.851l4.679-4.68A1.421,1.421,0,1,0,7.521.416L.416,7.521a1.421,1.421,0,0,0,0,2.01l7.105,7.105a1.421,1.421,0,1,0,2.01-2.01L4.851,9.947H29.843a1.421,1.421,0,1,0,0-2.842Z" transform="translate(0 0.001)"/>
  <path id="XMLID_18_" d="M23.742,150.416a1.421,1.421,0,1,0-2.01,2.01l4.68,4.68H1.421a1.421,1.421,0,1,0,0,2.842H26.412l-4.679,4.68a1.421,1.421,0,1,0,2.01,2.01l7.105-7.105a1.421,1.421,0,0,0,0-2.01Z" transform="translate(0 -135.789)"/>
</svg>
