<svg xmlns="http://www.w3.org/2000/svg" width="33.905" height="34.719" viewBox="0 0 33.905 34.719">
  <path id="Path_3571" data-name="Path 3571" d="M30.454,12.408A13.313,13.313,0,0,0,25.584,7.8a6.427,6.427,0,0,1-3.306-5.65V1.018a1.018,1.018,0,0,0-1.289-.98L16.92,1.167a1.017,1.017,0,0,0-.745.98A6.427,6.427,0,0,1,12.869,7.8a13.226,13.226,0,0,0,2.455,24.232l-.886.886a1.017,1.017,0,1,0,1.438,1.438L17.7,32.529c.168.019.337.037.507.05V33.7a1.017,1.017,0,0,0,2.034,0V32.577a13.249,13.249,0,0,0,1.676-.236,11.187,11.187,0,1,0,8.534-19.933ZM18.21,8.459V19.625a11.2,11.2,0,0,0,0,7.675v3.029c-2.158-1.067-4.069-5.381-4.069-10.935S16.051,9.526,18.21,8.459Zm2.034,0a4.443,4.443,0,0,1,1.427,1.225,11.338,11.338,0,0,1,1.859,3.872,11.262,11.262,0,0,0-3.286,2.614Zm5.175,4.315a14.292,14.292,0,0,0-1.615-3.6,7.279,7.279,0,0,1,.8.409,11.236,11.236,0,0,1,3.281,2.725,11.117,11.117,0,0,0-2.467.466ZM18.174,2.93l2.072-.575a8.542,8.542,0,0,0,1.093,3.986,13.225,13.225,0,0,0-4.224,0,8.534,8.534,0,0,0,1.059-3.41ZM8.038,19.394a11.2,11.2,0,0,1,6.6-10.2c-3.388,5.262-3.355,15.2,0,20.405A11.2,11.2,0,0,1,8.038,19.394ZM28.72,32.617a9.154,9.154,0,1,1,9.154-9.154A9.165,9.165,0,0,1,28.72,32.617Z" transform="translate(-6.004 0)"/>
</svg>
