<svg id="ip" xmlns="http://www.w3.org/2000/svg" width="27.02" height="32.152" viewBox="0 0 27.02 32.152">
  <path id="Path_3555" data-name="Path 3555" d="M23.063,3.957a13.51,13.51,0,0,0-19.933,18.2h0a13.638,13.638,0,0,0,1.7,1.7l8.013,8.014a.943.943,0,0,0,1.334,0l8.014-8.014A13.513,13.513,0,0,0,27.02,13.51a13.422,13.422,0,0,0-3.957-9.553ZM20.887,22.5,13.51,29.875,6.134,22.5c-.02-.02-.041-.039-.063-.057a11.624,11.624,0,1,1,16.37-1.492,11.727,11.727,0,0,1-1.492,1.492c-.022.018-.043.038-.063.057Zm0,0" transform="translate(0)"/>
  <path id="Path_3556" data-name="Path 3556" d="M198.089,165.875h-3.35a.943.943,0,0,0-.943.943v5.839a.943.943,0,1,0,1.886,0v-1.977h2.406a2.4,2.4,0,1,0,0-4.806Zm0,2.92h-2.406v-1.033h2.406a.517.517,0,1,1,0,1.033Zm0,0" transform="translate(-181.627 -155.459)"/>
  <path id="Path_3557" data-name="Path 3557" d="M150.311,165.875a.943.943,0,0,0-.943.943v5.839a.943.943,0,1,0,1.886,0v-5.839A.943.943,0,0,0,150.311,165.875Zm0,0" transform="translate(-139.988 -155.459)"/>
</svg>
