<svg xmlns="http://www.w3.org/2000/svg" width="32.07" height="32.07" viewBox="0 0 32.07 32.07">
  <g id="Group_1330" data-name="Group 1330" transform="translate(0)">
    <g id="Group_1329" data-name="Group 1329">
      <path id="Path_3558" data-name="Path 3558" d="M32.07,10.335a2.8,2.8,0,0,0-.216-1.084h0L28.721,1.734A2.811,2.811,0,0,0,26.12,0H5.95a2.811,2.811,0,0,0-2.6,1.734L.216,9.251A2.8,2.8,0,0,0,0,10.335v3.883A2.807,2.807,0,0,0,.72,16.1,2.807,2.807,0,0,0,0,17.977v3.758a2.807,2.807,0,0,0,.72,1.879A2.807,2.807,0,0,0,0,25.493v3.758A2.822,2.822,0,0,0,2.819,32.07H29.251a2.822,2.822,0,0,0,2.819-2.819V25.493a2.807,2.807,0,0,0-.72-1.879,2.807,2.807,0,0,0,.72-1.879V17.977a2.807,2.807,0,0,0-.72-1.879,2.807,2.807,0,0,0,.72-1.879ZM5.083,2.457a.937.937,0,0,1,.867-.578H26.12a.937.937,0,0,1,.867.578L29.1,7.516H2.975ZM30.191,29.251a.941.941,0,0,1-.94.94H2.819a.941.941,0,0,1-.94-.94V25.493a.941.941,0,0,1,.94-.94H29.251a.941.941,0,0,1,.94.94Zm0-7.516a.941.941,0,0,1-.94.94H2.819a.941.941,0,0,1-.94-.94V17.977a.941.941,0,0,1,.94-.94H29.251a.941.941,0,0,1,.94.94Zm0-7.516a.941.941,0,0,1-.94.94H2.819a.941.941,0,0,1-.94-.94V10.335a.938.938,0,0,1,.94-.94H29.251a.938.938,0,0,1,.94.94Z" transform="translate(0)"/>
    </g>
  </g>
</svg>
