<svg id="padlock" xmlns="http://www.w3.org/2000/svg" width="34.149" height="34.787" viewBox="0 0 34.149 34.787">
  <path id="Path_3574" data-name="Path 3574" d="M24,15.23V3.6C24,.4,15.2,0,12,0S0,.4,0,3.6V27.565c0,3.858,12.435,3.8,16.581,3.371A9.784,9.784,0,1,0,24,15.23Zm.365,17.455a7.679,7.679,0,1,1,7.68-7.679A7.67,7.67,0,0,1,24.367,32.685ZM2.1,27.425v-5.41c3.175,1.3,8.954,1.5,12.632,1.281a9.848,9.848,0,0,0,.665,5.635c-6.307.489-12.2-.491-13.3-1.506ZM21.706,3.6c-3.23,1.986-16.218,1.96-19.411,0C5.6,1.571,18.6,1.689,21.706,3.6ZM21.9,15.539a9.829,9.829,0,0,0-6.52,5.606c-4.692.363-11.852-.2-13.276-1.507V13.8c4.454,1.816,15.379,1.806,19.8,0ZM2.1,5.835c4.422,1.808,15.357,1.815,19.8,0v5.59c-2.473,2.273-17.6,2.034-19.8,0V5.835Zm0,0" transform="translate(0 -0.001)"/>
  <path id="Path_3575" data-name="Path 3575" d="M294.152,274.165v-1.671a3.343,3.343,0,1,0-6.685,0v1.671A1.754,1.754,0,0,0,286,275.894v3.836a1.755,1.755,0,0,0,1.752,1.752h6.115a1.755,1.755,0,0,0,1.752-1.752v-3.836A1.754,1.754,0,0,0,294.152,274.165Zm-6.05,5.214v-3.135h5.414v3.135Zm3.947-6.885v1.647h-2.48v-1.647A1.24,1.24,0,0,1,292.049,272.495Zm0,0" transform="translate(-266.568 -250.865)"/>
</svg>
