<svg xmlns="http://www.w3.org/2000/svg" width="37.513" height="43.923" viewBox="0 0 37.513 43.923">
  <g id="XMLID_91_" transform="translate(-22.257)">
    <path id="XMLID_92_" d="M58.606,35.267c-1.288-.528-1.839-1.228-1.786-2.272a3.483,3.483,0,0,0-.965-2.465,10.685,10.685,0,0,0,0-5.658c-.836-2.438-3.388-6.162-6.021-9.822-1.078-1.5-1.129-3.137-1.188-5.029A15.29,15.29,0,0,0,47.52,3.9,6.334,6.334,0,0,0,41.5,0a8.245,8.245,0,0,0-4.581,1.395c-2.631,1.816-2.283,5.775-2.053,8.395.032.359.061.7.078.987a12.982,12.982,0,0,1-.168,4.329,17.772,17.772,0,0,1-1.313,1.842c-.636.837-1.356,1.786-1.947,2.67a20.913,20.913,0,0,0-1.824,4.262,20.437,20.437,0,0,1-1.153,2.887,3.931,3.931,0,0,0-.381,2.953,3.034,3.034,0,0,0-.973,1.232c-.391.835-1.186,1.284-2.837,1.6a2.187,2.187,0,0,0-1.556.948,2.69,2.69,0,0,0,.017,2.149,3.344,3.344,0,0,1-.221,2.423c-.076.231-.163.493-.251.781a1.408,1.408,0,0,0,.148,1.23c.624.953,2.444,1.29,4.317,1.511a16.64,16.64,0,0,1,3.527,1.013,16.558,16.558,0,0,0,3.451,1,3.922,3.922,0,0,0,.488.031A2.871,2.871,0,0,0,36.891,42.1a29.191,29.191,0,0,1,4.734-.559,20.56,20.56,0,0,1,4.705.483,3.785,3.785,0,0,0,1.418,1.544,3.44,3.44,0,0,0,1.595.359h0a3.846,3.846,0,0,0,2.8-1.158,25.117,25.117,0,0,1,5.084-3.248c.389-.211.753-.408,1.072-.585a2.4,2.4,0,0,0,1.465-2.127A1.8,1.8,0,0,0,58.606,35.267Zm-21.669-.195c-.122-.858-1.226-1.71-2.5-2.7a8.859,8.859,0,0,1-2.557-2.493c-.675-1.6-.143-4.4.784-5.847a14.848,14.848,0,0,0,1.195-2.882A10.358,10.358,0,0,1,35.1,18.306,7.269,7.269,0,0,0,36.6,14.679a4.526,4.526,0,0,0,2.671,1.452,1.574,1.574,0,0,0,.429-.058,14.43,14.43,0,0,0,2.559-1.288,10.93,10.93,0,0,1,2.174-1.092c.641.921,4.368,9.167,4.748,11.815A12.522,12.522,0,0,1,49,30.014a3.315,3.315,0,0,0-.444-.032c-1.038,0-1.313.567-1.384.9a36.634,36.634,0,0,0-.206,4.321,8.587,8.587,0,0,1-5,3.126,21.639,21.639,0,0,1-3.08.243,10.407,10.407,0,0,1-1.519-.094L36,36.916A1.663,1.663,0,0,0,36.936,35.072ZM38.674,9.238q-.064.028-.126.059a2.55,2.55,0,0,0-.029-.281,1.6,1.6,0,0,0-1.356-1.485.958.958,0,0,0-.146.012,1.135,1.135,0,0,0-.838.751c.143-.885.644-1.54,1.239-1.54.7,0,1.288.941,1.288,2.055A3.041,3.041,0,0,1,38.674,9.238ZM44.1,9.9a2.181,2.181,0,0,0,.1-.653,1.64,1.64,0,0,0-1.459-1.8,1.657,1.657,0,0,0-1.45,1.8q0,.1.01.2L41.176,9.4a2.754,2.754,0,0,1-.139-.866,2,2,0,0,1,1.721-2.191,2,2,0,0,1,1.721,2.191A2.579,2.579,0,0,1,44.1,9.9Zm-.7,2.351c-.014.061-.043.088-.364.255-.162.085-.365.19-.618.344l-.169.1a15.659,15.659,0,0,1-2.7,1.433c-.293.039-.475-.074-.883-.352-.092-.063-.19-.129-.294-.2a3.46,3.46,0,0,1-1.262-1.222c.24-.185.834-.649,1.138-.924a3.288,3.288,0,0,1,1.547-.96.243.243,0,0,1,.046,0,15.391,15.391,0,0,1,1.9.679c.3.12.561.224.744.289A1.782,1.782,0,0,1,43.4,12.252Zm5.177,26.839a21.326,21.326,0,0,0,.639-4.637c-.014-.267-.038-.558-.06-.839a7.715,7.715,0,0,1-.041-1.539.281.281,0,0,1,.043-.016,2.611,2.611,0,0,0,1.221,2.481,2.7,2.7,0,0,0,1.085.21,4.432,4.432,0,0,0,2.754-1.015,5.011,5.011,0,0,0,.7-.918,1.108,1.108,0,0,1,.048.433A3.1,3.1,0,0,0,56.3,36.044l.133.07c.327.171,1.194.627,1.208.843a.192.192,0,0,1-.056.07,12.522,12.522,0,0,1-1.722.967A15.049,15.049,0,0,0,52.4,40.126a4.737,4.737,0,0,1-2.646,1.654.7.7,0,0,1-.21-.03C48.844,41.534,48.269,40.527,48.578,39.092ZM24.8,35.351a1.954,1.954,0,0,1-.067-.85c.044-.189.975-.391,1.373-.477a5.351,5.351,0,0,0,1.516-.476,3.074,3.074,0,0,0,1.033-1.385,2.152,2.152,0,0,1,.577-.865.122.122,0,0,1,.067-.016c.407,0,1.261.856,1.754,1.622.125.193.356.58.624,1.028a32.864,32.864,0,0,0,2.468,3.788c.516.553,1.351,1.615,1.145,2.526a2.767,2.767,0,0,1-1.14,1.409,1.167,1.167,0,0,1-.253.023,16.194,16.194,0,0,1-4.428-1.4l-.172-.072a14.038,14.038,0,0,0-2.739-.611,8.947,8.947,0,0,1-2.122-.477c-.15-.169.024-.717.178-1.2a7.788,7.788,0,0,0,.288-1.083A3.944,3.944,0,0,0,24.8,35.351Z" transform="translate(0 0)" fill="#a39ac8"/>
  </g>
</svg>
