<svg xmlns="http://www.w3.org/2000/svg" width="52" height="50.7" viewBox="0 0 52 50.7">
  <g id="firefox-logotype" transform="translate(0 -0.273)">
    <g id="Group_1417" data-name="Group 1417" transform="translate(0 0.273)">
      <g id="Group_1416" data-name="Group 1416">
        <g id="Group_1415" data-name="Group 1415">
          <path id="Path_3616" data-name="Path 3616" d="M.026,9.13V9.116C0,9.328-.014,9.411.026,9.13Z" transform="translate(0 11.957)" fill="#fff"/>
          <path id="Path_3617" data-name="Path 3617" d="M.011,9.117v0l0,0Z" transform="translate(0.015 11.955)" fill="#fff"/>
          <path id="Path_3618" data-name="Path 3618" d="M51.553,19.313c-.234,1.787-.489,2.707-.746,2.769,0,0-.091-9.561-3.262-12.732.541,5.576.007,3.329.007,3.355A24.837,24.837,0,0,0,6.941,9.226c-.036-.031-.076-.069-.124-.114C6.1,8.459,5.692,5.323,5.692,5.323a.188.188,0,0,1-.007-.031c0-.01,0-.019,0-.033a.032.032,0,0,0,0-.019c-.007,0-.01.014-.019.019a.3.3,0,0,1-.024.029c-.01.007-.014.021-.024.029a.312.312,0,0,1-.026.029.09.09,0,0,1-.024.029c-.01.01-.017.021-.024.029a.162.162,0,0,1-.029.029.3.3,0,0,1-.024.029.164.164,0,0,1-.026.031.252.252,0,0,1-.024.029l-.024.029-.026.029a.151.151,0,0,1-.026.031A11.661,11.661,0,0,0,3.55,9.269c-.315,1.513,0,.019-.01.026s0,.024,0,.033l-.007.029h0a22.25,22.25,0,0,0-.565,5.633c-.017.019-.036.033-.05.052a11.753,11.753,0,0,0-2.74,5.276c-.076.541-.124.865-.15,1.041v.014c0,.081-.014.162-.017.243.007-.012.017-.024.024-.036a2.409,2.409,0,0,0,.079.593l1.411-1.149c-.019.136-.048.267-.067.405a17.358,17.358,0,0,0-.927,3.915A20.775,20.775,0,0,0,3.195,37.769s.9,1.611,1.442,2.376c.069.11.131.217.207.326l.017,0a25.415,25.415,0,0,0,39.446,2.111l.091,0c.31-.379.593-.765.886-1.149a26.291,26.291,0,0,0,2.138-3.057l-.06,0a28.726,28.726,0,0,0,3.91-10.161A17.839,17.839,0,0,0,51.553,19.313ZM6.91,9.266a.16.16,0,0,1-.017-.026.238.238,0,0,1-.019-.033.224.224,0,0,1-.021-.029c0-.012-.012-.024-.017-.036l.1.088A.2.2,0,0,1,6.91,9.266Zm37.475,8.91a3.737,3.737,0,0,0-2.118-1.63q1.655,6.427.319,10.609c-.612-1.859-1.175-2.974-1.678-3.365q1.047,8.607-2.829,12.751a11.342,11.342,0,0,0,.574-4.161Q34.1,39.194,28.3,39.421a14.529,14.529,0,0,1-4.332-.686c-.026,0-.057,0-.083,0-.133-.043-.265-.093-.4-.143l0,0c-.114-.043-.229-.086-.341-.136s-.222-.1-.331-.148-.217-.093-.326-.148-.2-.107-.31-.16-.21-.1-.307-.155-.2-.114-.291-.172-.2-.112-.291-.172-.188-.114-.281-.176-.181-.122-.272-.183l-.272-.183c-.086-.064-.169-.131-.255-.2s-.172-.129-.253-.2-.167-.133-.248-.2-.16-.138-.241-.2-.16-.133-.238-.207-.15-.143-.226-.214-.153-.141-.224-.212-.119-.112-.176-.169a.361.361,0,0,0,.071,0l.176.012.176.007c.057,0,.114.007.172.01s.119.01.174.01.119.01.176.01.124,0,.183,0,.119-.007.181-.007H20.1c.057,0,.119,0,.181,0l.179,0,.186-.014c.062,0,.129-.012.191-.014s.122-.01.181-.017l.188-.012c.064-.01.126-.014.191-.021s.129-.021.193-.031.126-.017.191-.029.126-.019.191-.026.131-.019.193-.031.133-.029.2-.043.131-.031.2-.043.136-.031.2-.048.136-.026.2-.043l.2-.055c.064-.019.138-.043.2-.062s.141-.038.21-.06.138-.038.2-.06.143-.05.212-.074.148-.052.217-.081l.217-.081c.069-.029.143-.05.214-.081s.15-.069.224-.1.15-.069.229-.1.15-.067.226-.1c.033-.019.071-.031.1-.05l.141-.091.253-.164.253-.162.255-.164.255-.164.253-.162.253-.164.255-.162.253-.164.25-.164.255-.164.253-.162.253-.164.117-.074-.01-.012A1.509,1.509,0,0,1,29.932,32c.805-.112,1.089-.541.82-1.261a5.382,5.382,0,0,0-1.737-1.454,4.9,4.9,0,0,0-5.178.415,4.5,4.5,0,0,1-4.966-.1,14.444,14.444,0,0,1-3.045-2.9l-.393-.572a.337.337,0,0,0,0,.069.385.385,0,0,1,0-.074v-.012c0-.017,0-.031,0-.05a3.269,3.269,0,0,1,.041-.393,2.71,2.71,0,0,1,.11-.441,1.737,1.737,0,0,1,.317-.579,1.524,1.524,0,0,1,.691-.462,2.456,2.456,0,0,1,.341-.079c-.069-.007-.126-.01-.193-.017-.181-.014-.338-.031-.486-.043-.188-.017-.357-.031-.486-.041-.1-.007-.176-.012-.241-.014-.088-.007-.174-.01-.26-.017-.138,0-.269-.014-.4-.024-.038,0-.062,0-.1-.007-.153-.01-.284-.021-.4-.038.15,0,.3,0,.45,0,.219.012.438.024.66.038.248.012.722.05,1.4.11a20.4,20.4,0,0,1,3.71.746,6.043,6.043,0,0,0-.917-4.161v-.024a2,2,0,0,0-.307-.477,1.33,1.33,0,0,1,.136.153,2.078,2.078,0,0,1,.167.276.946.946,0,0,1,.052.1c.038-.036.074-.062.112-.1.055-.05.107-.1.164-.148s.11-.1.167-.145.112-.1.167-.148.11-.1.162-.15.11-.1.164-.148.11-.086.167-.136.11-.088.167-.131.11-.091.164-.136.11-.091.162-.133l.167-.133c.055-.045.112-.086.167-.129s.11-.076.164-.119.112-.079.164-.119.112-.081.169-.122.11-.081.164-.114.112-.079.164-.114l.167-.1c.057-.033.11-.067.167-.1s.11-.067.164-.1.112-.071.164-.1A.258.258,0,0,0,23.186,18c.045-.026.081-.055.126-.083a1.971,1.971,0,0,0,.164-.11,1.277,1.277,0,0,0,.167-.174,1.356,1.356,0,0,0,.164-.248,1.629,1.629,0,0,0,.164-.45c.012-.012.021-.024.036-.024l.012-.012.048-.048c.257-.379.172-.686-.269-.953a24.168,24.168,0,0,1-2.764-.162L21,15.722a8.046,8.046,0,0,1-3.367-2.812c0,.012-.05-.055-.05-.055l-.069-.088s0-.007.012-.01l.029-.019a.206.206,0,0,1,.024-.017L17.6,12.7a.25.25,0,0,0,.026-.019h0a.152.152,0,0,1,0-.021.1.1,0,0,0,0-.026.063.063,0,0,1,.007-.029c0-.007-.036.033,0-.026-.41-3.315,3.944-5.5,3.944-5.5s-5.235,1.466-6.865,3.367l-.241.017.217,0a.083.083,0,0,1-.021.014l-.019.024a.167.167,0,0,1-.024.019l-.01.007c-.01,0-.024-.007-.036-.012l-.1-.029a9.815,9.815,0,0,0-5.75.379.251.251,0,0,0-.05.014c-.021.007-.036.014-.05.019l-.052.017c-.017.007-.031.012-.045.017A3.47,3.47,0,0,1,7.32,9.891,24.106,24.106,0,0,1,41.4,6.521a13.452,13.452,0,0,0-2.123-.844,29.824,29.824,0,0,0-7.585-1.087,14.97,14.97,0,0,1,3.25.977c.052.014.107.038.157.05A4.785,4.785,0,0,1,37.562,7.81a6.182,6.182,0,0,0-3.4.245Q44.958,12.313,44.385,18.176Z" transform="translate(0.005 -0.273)" fill="#fff"/>
          <path id="Path_3619" data-name="Path 3619" d="M.132,8.757a6.27,6.27,0,0,0-.117.875c.048-.348.131-.934.131-.925A.2.2,0,0,0,.132,8.757Z" transform="translate(0.021 11.391)" fill="#fff"/>
          <path id="Path_3620" data-name="Path 3620" d="M.019,9.1a.329.329,0,0,1-.007.048v0A.269.269,0,0,1,.019,9.1Z" transform="translate(0.016 11.928)" fill="#fff"/>
        </g>
      </g>
    </g>
  </g>
</svg>
