<svg xmlns="http://www.w3.org/2000/svg" width="37.928" height="44.824" viewBox="0 0 37.928 44.824">
  <g id="android-logo" transform="translate(-42.544 0)">
    <g id="Group_1402" data-name="Group 1402" transform="translate(42.544 0)">
      <path id="Path_3605" data-name="Path 3605" d="M45.318,179.141a2.676,2.676,0,0,0-1.966.808,2.645,2.645,0,0,0-.808,1.939v11.583a2.759,2.759,0,0,0,2.774,2.775,2.635,2.635,0,0,0,1.953-.808,2.7,2.7,0,0,0,.795-1.967V181.888a2.759,2.759,0,0,0-2.748-2.747Z" transform="translate(-42.544 -164.622)" fill="#a39ac8"/>
      <path id="Path_3606" data-name="Path 3606" d="M141.237,4.121,143.15.593a.355.355,0,0,0-.134-.539.373.373,0,0,0-.539.161l-1.939,3.556a13.511,13.511,0,0,0-10.829,0L127.769.216a.374.374,0,0,0-.539-.161.354.354,0,0,0-.134.539l1.913,3.528a11.811,11.811,0,0,0-4.633,4.135,10.444,10.444,0,0,0-1.724,5.805h24.917a10.447,10.447,0,0,0-1.724-5.805A11.861,11.861,0,0,0,141.237,4.121ZM130.179,9.253a1.01,1.01,0,0,1-.741.31.964.964,0,0,1-.727-.31,1.074,1.074,0,0,1,0-1.481.967.967,0,0,1,.727-.31,1.047,1.047,0,0,1,.741,1.791Zm11.354,0a.966.966,0,0,1-.727.31,1.051,1.051,0,0,1,0-2.1.968.968,0,0,1,.727.31,1.074,1.074,0,0,1,0,1.481Z" transform="translate(-116.158 0)" fill="#a39ac8"/>
      <path id="Path_3607" data-name="Path 3607" d="M123.971,203.391a2.942,2.942,0,0,0,2.963,2.963h1.994l.027,6.115a2.677,2.677,0,0,0,.808,1.967,2.645,2.645,0,0,0,1.939.808,2.759,2.759,0,0,0,2.774-2.775v-6.115h3.717v6.115a2.774,2.774,0,1,0,5.548,0v-6.115h2.02a2.942,2.942,0,0,0,2.936-2.963V185.45H123.971Z" transform="translate(-117.371 -170.419)" fill="#a39ac8"/>
      <path id="Path_3608" data-name="Path 3608" d="M445.123,179.141a2.669,2.669,0,0,0-1.94.795,2.634,2.634,0,0,0-.808,1.953v11.583a2.675,2.675,0,0,0,.808,1.967,2.646,2.646,0,0,0,1.94.808,2.759,2.759,0,0,0,2.774-2.775V181.888a2.634,2.634,0,0,0-.808-1.953A2.7,2.7,0,0,0,445.123,179.141Z" transform="translate(-409.97 -164.622)" fill="#a39ac8"/>
    </g>
  </g>
</svg>
