<svg xmlns="http://www.w3.org/2000/svg" width="32.814" height="38.417" viewBox="0 0 32.814 38.417">
  <g id="apple" transform="translate(-37.336)">
    <g id="Group_1404" data-name="Group 1404" transform="translate(53.107)">
      <g id="Group_1403" data-name="Group 1403">
        <path id="Path_3609" data-name="Path 3609" d="M255.359,0a9.015,9.015,0,0,0-5.837,3.16,7.83,7.83,0,0,0-1.911,6.084,7.609,7.609,0,0,0,5.89-3.009A8.453,8.453,0,0,0,255.359,0Z" transform="translate(-247.522)" fill="#a39ac8"/>
      </g>
    </g>
    <g id="Group_1406" data-name="Group 1406" transform="translate(37.336 8.992)">
      <g id="Group_1405" data-name="Group 1405" transform="translate(0)">
        <path id="Path_3610" data-name="Path 3610" d="M69.039,123.737a9.725,9.725,0,0,0-7.34-3.9c-3.446,0-4.9,1.65-7.3,1.65-2.468,0-4.344-1.645-7.323-1.645a9.964,9.964,0,0,0-8.02,4.848c-2.778,4.308-2.3,12.406,2.2,19.3,1.611,2.468,3.762,5.244,6.577,5.268,2.5.024,3.21-1.606,6.6-1.623s4.036,1.645,6.536,1.618c2.816-.022,5.085-3.1,6.7-5.566a27.681,27.681,0,0,0,2.48-4.658A8.47,8.47,0,0,1,69.039,123.737Z" transform="translate(-37.336 -119.84)" fill="#a39ac8"/>
      </g>
    </g>
  </g>
</svg>
