<svg xmlns="http://www.w3.org/2000/svg" width="48.963" height="48.96" viewBox="0 0 48.963 48.96">
  <g id="chrome" transform="translate(0 -0.019)">
    <g id="Group_1408" data-name="Group 1408" transform="translate(5.912 0.019)">
      <g id="Group_1407" data-name="Group 1407" transform="translate(0 0)">
        <path id="Path_3612" data-name="Path 3612" d="M61.818,8.548l7.739,13.459a11.29,11.29,0,0,1,5.664-7.436c2.387-1.258,4.593-1.181,8.009-1.181,4.71,0,13.4,0,18.958,0A24.473,24.473,0,0,0,61.818,8.548Z" transform="translate(-61.818 -0.019)" fill="#fff"/>
      </g>
    </g>
    <g id="Group_1410" data-name="Group 1410" transform="translate(16.338 16.361)">
      <g id="Group_1409" data-name="Group 1409">
        <path id="Path_3613" data-name="Path 3613" d="M178.979,170.9a8.14,8.14,0,1,0,8.137,8.14A8.144,8.144,0,0,0,178.979,170.9Z" transform="translate(-170.842 -170.9)" fill="#fff"/>
      </g>
    </g>
    <g id="Group_1412" data-name="Group 1412" transform="translate(0 11.134)">
      <g id="Group_1411" data-name="Group 1411" transform="translate(0)">
        <path id="Path_3614" data-name="Path 3614" d="M14.793,135.064c-2.234-3.856-8.14-14.141-10.821-18.82a24.513,24.513,0,0,0,15.763,37.39l7.9-13.367A10.965,10.965,0,0,1,14.793,135.064Z" transform="translate(0 -116.244)" fill="#fff"/>
      </g>
    </g>
    <g id="Group_1414" data-name="Group 1414" transform="translate(22.948 16.355)">
      <g id="Group_1413" data-name="Group 1413">
        <path id="Path_3615" data-name="Path 3615" d="M264.568,170.836l-15.524,0a11.145,11.145,0,0,1,2.056,13.707c-1.94,3.348-8.137,13.8-11.139,18.866A24.5,24.5,0,0,0,264.568,170.836Z" transform="translate(-239.961 -170.836)" fill="#fff"/>
      </g>
    </g>
  </g>
</svg>
