<svg xmlns="http://www.w3.org/2000/svg" width="140" height="156.504" viewBox="0 0 140 156.504">
  <g id="anonymous_1_" data-name="anonymous (1)" transform="translate(-6.748)" opacity="0.81">
    <path id="Path_135" data-name="Path 135" d="M125,87.949c-6.513-1.783-13.47-1.58-20.141-2.315a2.148,2.148,0,0,0-1.173.2L76.749,98.974,49.813,85.84a2.141,2.141,0,0,0-1.173-.2c-1.526,0-3.113.289-4.639.4-1.7.122-3.408.269-5.111.41a56.779,56.779,0,0,0-10.393,1.5A29.609,29.609,0,0,0,6.748,116.44v18.851a2.141,2.141,0,0,0,2.142,2.146H144.608a2.141,2.141,0,0,0,2.14-2.14V116.442A29.609,29.609,0,0,0,125,87.949Zm-11.447,2.706-20.574,20.6-12.2-9.479,24.234-11.82C106.48,90.1,112.168,90.541,113.552,90.655ZM79.439,113.519a3.96,3.96,0,0,1-5.38,0l-4.345-3.987,7.035-5.467,7.037,5.465Zm-18.92-2.266-20.573-20.6c2.846-.234,5.7-.411,8.543-.7l24.235,11.82ZM11.03,116.442a25.319,25.319,0,0,1,18.6-24.367,33.993,33.993,0,0,1,4.784-.906l24.413,24.441a2.137,2.137,0,0,0,2.827.177l4.63-3.6,3.761,3.449L62.5,133.158H33.548V124.8a2.14,2.14,0,1,0-4.279,0v8.355H11.03Zm56.132,16.715,6.43-14.927a8.258,8.258,0,0,0,6.314,0l6.43,14.927Zm75.306,0H124.23V124.8a2.14,2.14,0,1,0-4.279,0v8.355H91l-7.543-17.511,3.761-3.449,4.63,3.6a2.137,2.137,0,0,0,2.827-.177l24.413-24.445a33.988,33.988,0,0,1,4.784.906h0a25.319,25.319,0,0,1,18.6,24.366Z" transform="translate(0 19.067)" fill="#fff"/>
    <path id="Path_136" data-name="Path 136" d="M41.786,39.839h3.771A10.047,10.047,0,0,0,55.592,29.8a5.963,5.963,0,0,1,5.957-5.961H80.814a5.967,5.967,0,0,1,5.907,6.743,6.321,6.321,0,0,1-2.1,3.809l-8.21,7.48A52.622,52.622,0,0,0,59.26,80.7a2.141,2.141,0,0,0,2.14,2.137H80.963A2.141,2.141,0,0,0,83.1,80.7a28.733,28.733,0,0,1,9.363-21.2l7.947-7.24A30.506,30.506,0,0,0,110.607,29.1,29.974,29.974,0,0,0,80.814,0H61.549a29.834,29.834,0,0,0-29.8,29.8A10.047,10.047,0,0,0,41.786,39.839ZM61.549,4.279H80.814a25.669,25.669,0,0,1,25.513,24.913,26.229,26.229,0,0,1-8.8,19.9l-7.947,7.24a33.036,33.036,0,0,0-10.691,22.22h-15.3a48.346,48.346,0,0,1,15.7-33.519l8.21-7.479a10.593,10.593,0,0,0,3.464-6.429A10.245,10.245,0,0,0,80.814,19.563H61.549A10.247,10.247,0,0,0,51.313,29.8a5.763,5.763,0,0,1-5.756,5.756H41.786A5.763,5.763,0,0,1,36.029,29.8a25.554,25.554,0,0,1,25.52-25.52Z" transform="translate(5.568)" fill="#fff"/>
    <path id="Path_137" data-name="Path 137" d="M69.687,74.013h-7.03a8.407,8.407,0,1,0,0,16.814h7.03a8.407,8.407,0,1,0,0-16.814Zm0,12.534h-7.03a4.127,4.127,0,1,1,0-8.255h7.03a4.127,4.127,0,1,1,0,8.255Z" transform="translate(10.578 16.482)" fill="#fff"/>
  </g>
</svg>
