<svg xmlns="http://www.w3.org/2000/svg" width="162.467" height="165.834" viewBox="0 0 162.467 165.834">
  <g id="key" transform="translate(-4 -2.777)">
    <path id="Path_107" data-name="Path 107" d="M128.394,29H29.261A8.261,8.261,0,0,0,21,37.261v77.1a8.261,8.261,0,0,0,8.261,8.261h99.133a8.261,8.261,0,0,0,8.261-8.261v-77.1A8.261,8.261,0,0,0,128.394,29ZM86.042,76.741l2.9,20.322a5.507,5.507,0,0,1-5.452,6.287H74.163a5.507,5.507,0,0,1-5.452-6.287l2.9-20.322a15.145,15.145,0,1,1,14.429,0Z" transform="translate(29.813 45.986)" fill="#c4a2fc"/>
    <path id="Path_108" data-name="Path 108" d="M48.276,48.8a16.522,16.522,0,0,1,33.044,0v2.754H100.6V48.8a35.8,35.8,0,1,0-71.6,0v2.754H48.276Z" transform="translate(43.842 17.927)" fill="#c4a2fc"/>
    <g id="verified" transform="translate(4 2.777)" opacity="0.74">
      <path id="Path_109" data-name="Path 109" d="M153.357,22.394,100.415.413a5.4,5.4,0,0,0-4.143,0L43.331,22.394A5.4,5.4,0,0,0,40,27.383V54.1A90.469,90.469,0,0,0,96.3,137.9a5.4,5.4,0,0,0,4.083,0,90.469,90.469,0,0,0,56.3-83.793V27.383A5.4,5.4,0,0,0,153.357,22.394ZM145.884,54.1a79.683,79.683,0,0,1-47.54,72.923A79.685,79.685,0,0,1,50.8,54.1V30.99l47.54-19.738,47.54,19.738ZM92.373,72.313l23.22-23.22a5.4,5.4,0,1,1,7.64,7.64L96.193,83.773a5.4,5.4,0,0,1-7.64,0l-15.1-15.1a5.4,5.4,0,0,1,7.64-7.64Z" transform="translate(-40 0)" fill="#2d2e2d"/>
    </g>
  </g>
</svg>
