<svg xmlns="http://www.w3.org/2000/svg" width="641.731" height="447.818" viewBox="0 0 641.731 447.818">
  <g id="Group_13" data-name="Group 13" transform="translate(0 21.89) rotate(-2)" opacity="0.03">
    <path id="Fill_327" data-name="Fill 327" d="M4.711,9.424A4.712,4.712,0,1,1,9.424,4.712,4.712,4.712,0,0,1,4.711,9.424" transform="translate(113.092 416.763)"/>
    <path id="Fill_328" data-name="Fill 328" d="M4.713,9.424A4.712,4.712,0,1,1,9.424,4.712,4.713,4.713,0,0,1,4.713,9.424" transform="translate(141.364 416.763)"/>
    <path id="Fill_330" data-name="Fill 330" d="M4.712,9.424A4.712,4.712,0,1,1,9.424,4.712,4.712,4.712,0,0,1,4.712,9.424" transform="translate(84.819 416.763)"/>
    <path id="Fill_331" data-name="Fill 331" d="M4.712,9.424A4.712,4.712,0,1,1,9.424,4.712,4.712,4.712,0,0,1,4.712,9.424" transform="translate(56.546 416.763)"/>
    <path id="Fill_335" data-name="Fill 335" d="M4.713,9.424A4.712,4.712,0,1,1,9.424,4.712,4.713,4.713,0,0,1,4.713,9.424" transform="translate(28.273 416.763)"/>
    <path id="Fill_336" data-name="Fill 336" d="M4.712,9.424A4.712,4.712,0,1,1,9.424,4.712,4.712,4.712,0,0,1,4.712,9.424" transform="translate(0 416.763)"/>
    <path id="Fill_327-2" data-name="Fill 327" d="M4.711,9.424A4.712,4.712,0,1,1,9.424,4.712,4.712,4.712,0,0,1,4.711,9.424" transform="translate(281.682 416.763)"/>
    <path id="Fill_328-2" data-name="Fill 328" d="M4.713,9.424A4.712,4.712,0,1,1,9.424,4.712,4.713,4.713,0,0,1,4.713,9.424" transform="translate(309.955 416.763)"/>
    <path id="Fill_330-2" data-name="Fill 330" d="M4.712,9.424A4.712,4.712,0,1,1,9.424,4.712,4.712,4.712,0,0,1,4.712,9.424" transform="translate(253.409 416.763)"/>
    <path id="Fill_331-2" data-name="Fill 331" d="M4.712,9.424A4.712,4.712,0,1,1,9.424,4.712,4.712,4.712,0,0,1,4.712,9.424" transform="translate(225.136 416.763)"/>
    <path id="Fill_335-2" data-name="Fill 335" d="M4.713,9.424A4.712,4.712,0,1,1,9.424,4.712,4.713,4.713,0,0,1,4.713,9.424" transform="translate(196.863 416.763)"/>
    <path id="Fill_336-2" data-name="Fill 336" d="M4.712,9.424A4.712,4.712,0,1,1,9.424,4.712,4.712,4.712,0,0,1,4.712,9.424" transform="translate(168.59 416.763)"/>
    <path id="Fill_327-3" data-name="Fill 327" d="M4.711,9.424A4.712,4.712,0,1,1,9.424,4.712,4.712,4.712,0,0,1,4.711,9.424" transform="translate(449.225 416.763)"/>
    <path id="Fill_328-3" data-name="Fill 328" d="M4.713,9.424A4.712,4.712,0,1,1,9.424,4.712,4.713,4.713,0,0,1,4.713,9.424" transform="translate(477.498 416.763)"/>
    <path id="Fill_330-3" data-name="Fill 330" d="M4.712,9.424A4.712,4.712,0,1,1,9.424,4.712,4.712,4.712,0,0,1,4.712,9.424" transform="translate(420.952 416.763)"/>
    <path id="Fill_331-3" data-name="Fill 331" d="M4.712,9.424A4.712,4.712,0,1,1,9.424,4.712,4.712,4.712,0,0,1,4.712,9.424" transform="translate(392.679 416.763)"/>
    <path id="Fill_335-3" data-name="Fill 335" d="M4.713,9.424A4.712,4.712,0,1,1,9.424,4.712,4.713,4.713,0,0,1,4.713,9.424" transform="translate(364.406 416.763)"/>
    <path id="Fill_336-3" data-name="Fill 336" d="M4.712,9.424A4.712,4.712,0,1,1,9.424,4.712,4.712,4.712,0,0,1,4.712,9.424" transform="translate(336.133 416.763)"/>
    <path id="Fill_327-4" data-name="Fill 327" d="M4.711,9.424A4.712,4.712,0,1,1,9.424,4.712,4.712,4.712,0,0,1,4.711,9.424" transform="translate(617.815 416.763)"/>
    <path id="Fill_330-4" data-name="Fill 330" d="M4.712,9.424A4.712,4.712,0,1,1,9.424,4.712,4.712,4.712,0,0,1,4.712,9.424" transform="translate(589.542 416.763)"/>
    <path id="Fill_331-4" data-name="Fill 331" d="M4.712,9.424A4.712,4.712,0,1,1,9.424,4.712,4.712,4.712,0,0,1,4.712,9.424" transform="translate(561.269 416.763)"/>
    <path id="Fill_335-4" data-name="Fill 335" d="M4.713,9.424A4.712,4.712,0,1,1,9.424,4.712,4.713,4.713,0,0,1,4.713,9.424" transform="translate(532.996 416.763)"/>
    <path id="Fill_336-4" data-name="Fill 336" d="M4.712,9.424A4.712,4.712,0,1,1,9.424,4.712,4.712,4.712,0,0,1,4.712,9.424" transform="translate(504.723 416.763)"/>
    <path id="Fill_301" data-name="Fill 301" d="M4.712,9.424A4.712,4.712,0,1,1,9.424,4.712,4.712,4.712,0,0,1,4.712,9.424" transform="translate(141.364 390.585)"/>
    <path id="Fill_302" data-name="Fill 302" d="M4.711,9.424A4.712,4.712,0,1,1,9.424,4.712,4.712,4.712,0,0,1,4.711,9.424" transform="translate(113.092 390.585)"/>
    <path id="Fill_303" data-name="Fill 303" d="M4.712,9.424A4.712,4.712,0,1,1,9.424,4.712,4.712,4.712,0,0,1,4.712,9.424" transform="translate(84.819 390.585)"/>
    <path id="Fill_304" data-name="Fill 304" d="M4.712,9.424A4.712,4.712,0,1,1,9.424,4.712,4.712,4.712,0,0,1,4.712,9.424" transform="translate(56.546 390.585)"/>
    <path id="Fill_305" data-name="Fill 305" d="M4.713,9.424A4.712,4.712,0,1,1,9.424,4.712,4.712,4.712,0,0,1,4.713,9.424" transform="translate(28.273 390.585)"/>
    <path id="Fill_306" data-name="Fill 306" d="M4.712,9.424A4.712,4.712,0,1,1,9.424,4.712,4.712,4.712,0,0,1,4.712,9.424" transform="translate(0 390.585)"/>
    <path id="Fill_307" data-name="Fill 307" d="M4.712,9.424A4.712,4.712,0,1,1,9.424,4.711,4.712,4.712,0,0,1,4.712,9.424" transform="translate(0 362.312)"/>
    <path id="Fill_308" data-name="Fill 308" d="M4.713,9.424A4.712,4.712,0,1,1,9.424,4.711,4.713,4.713,0,0,1,4.713,9.424" transform="translate(28.273 362.312)"/>
    <path id="Fill_309" data-name="Fill 309" d="M4.712,9.424A4.712,4.712,0,1,1,9.424,4.711,4.713,4.713,0,0,1,4.712,9.424" transform="translate(56.546 362.312)"/>
    <path id="Fill_310" data-name="Fill 310" d="M4.712,9.424A4.712,4.712,0,1,1,9.424,4.711,4.712,4.712,0,0,1,4.712,9.424" transform="translate(84.819 362.312)"/>
    <path id="Fill_311" data-name="Fill 311" d="M4.711,9.424A4.712,4.712,0,1,1,9.424,4.711,4.713,4.713,0,0,1,4.711,9.424" transform="translate(113.092 362.312)"/>
    <path id="Fill_312" data-name="Fill 312" d="M4.713,9.424A4.712,4.712,0,1,1,9.424,4.711,4.713,4.713,0,0,1,4.713,9.424" transform="translate(141.364 362.312)"/>
    <path id="Fill_313" data-name="Fill 313" d="M4.713,9.424A4.712,4.712,0,1,1,9.424,4.713,4.712,4.712,0,0,1,4.713,9.424" transform="translate(141.364 334.039)"/>
    <path id="Fill_314" data-name="Fill 314" d="M4.711,9.424A4.712,4.712,0,1,1,9.424,4.713,4.712,4.712,0,0,1,4.711,9.424" transform="translate(113.092 334.039)"/>
    <path id="Fill_315" data-name="Fill 315" d="M4.712,9.424A4.712,4.712,0,1,1,9.424,4.713,4.712,4.712,0,0,1,4.712,9.424" transform="translate(84.819 334.039)"/>
    <path id="Fill_316" data-name="Fill 316" d="M4.712,9.424A4.712,4.712,0,1,1,9.424,4.713,4.712,4.712,0,0,1,4.712,9.424" transform="translate(56.546 334.039)"/>
    <path id="Fill_317" data-name="Fill 317" d="M4.713,9.424A4.712,4.712,0,1,1,9.424,4.713,4.712,4.712,0,0,1,4.713,9.424" transform="translate(28.273 334.039)"/>
    <path id="Fill_318" data-name="Fill 318" d="M4.712,9.424A4.712,4.712,0,1,1,9.424,4.713,4.711,4.711,0,0,1,4.712,9.424" transform="translate(0 334.039)"/>
    <path id="Fill_319" data-name="Fill 319" d="M4.712,9.424A4.712,4.712,0,1,1,9.424,4.712,4.712,4.712,0,0,1,4.712,9.424" transform="translate(0 305.766)"/>
    <path id="Fill_320" data-name="Fill 320" d="M4.713,9.424A4.712,4.712,0,1,1,9.424,4.712,4.712,4.712,0,0,1,4.713,9.424" transform="translate(28.273 305.766)"/>
    <path id="Fill_321" data-name="Fill 321" d="M4.712,9.424A4.712,4.712,0,1,1,9.424,4.712,4.712,4.712,0,0,1,4.712,9.424" transform="translate(56.546 305.766)"/>
    <path id="Fill_322" data-name="Fill 322" d="M4.712,9.424A4.712,4.712,0,1,1,9.424,4.712,4.712,4.712,0,0,1,4.712,9.424" transform="translate(84.819 305.766)"/>
    <path id="Fill_323" data-name="Fill 323" d="M4.711,9.424A4.712,4.712,0,1,1,9.424,4.712,4.712,4.712,0,0,1,4.711,9.424" transform="translate(113.092 305.766)"/>
    <path id="Fill_324" data-name="Fill 324" d="M4.713,9.424A4.712,4.712,0,1,1,9.424,4.712,4.712,4.712,0,0,1,4.713,9.424" transform="translate(141.364 305.766)"/>
    <path id="Fill_325" data-name="Fill 325" d="M4.713,9.424A4.712,4.712,0,1,1,9.424,4.712,4.713,4.713,0,0,1,4.713,9.424" transform="translate(141.364 277.493)"/>
    <path id="Fill_326" data-name="Fill 326" d="M4.711,9.424A4.712,4.712,0,1,1,9.424,4.712,4.712,4.712,0,0,1,4.711,9.424" transform="translate(113.092 277.493)"/>
    <path id="Fill_327-5" data-name="Fill 327" d="M4.711,9.424A4.712,4.712,0,1,1,9.424,4.712,4.712,4.712,0,0,1,4.711,9.424" transform="translate(113.092 249.22)"/>
    <path id="Fill_328-4" data-name="Fill 328" d="M0,4.712A4.712,4.712,0,1,1,4.713,9.424,4.712,4.712,0,0,1,0,4.712Z" transform="translate(141.364 249.22)"/>
    <path id="Fill_329" data-name="Fill 329" d="M4.712,9.424A4.712,4.712,0,1,1,9.424,4.712,4.712,4.712,0,0,1,4.712,9.424" transform="translate(84.819 277.493)"/>
    <path id="Fill_330-5" data-name="Fill 330" d="M4.712,9.424A4.712,4.712,0,1,1,9.424,4.712,4.712,4.712,0,0,1,4.712,9.424" transform="translate(84.819 249.22)"/>
    <path id="Fill_331-5" data-name="Fill 331" d="M4.712,9.424A4.712,4.712,0,1,1,9.424,4.712,4.712,4.712,0,0,1,4.712,9.424" transform="translate(56.546 249.22)"/>
    <path id="Fill_332" data-name="Fill 332" d="M4.712,9.424A4.712,4.712,0,1,1,9.424,4.712,4.712,4.712,0,0,1,4.712,9.424" transform="translate(56.546 277.493)"/>
    <path id="Fill_333" data-name="Fill 333" d="M4.712,9.424A4.712,4.712,0,1,1,9.424,4.712,4.712,4.712,0,0,1,4.712,9.424" transform="translate(0 277.493)"/>
    <path id="Fill_334" data-name="Fill 334" d="M4.713,9.424A4.712,4.712,0,1,1,9.424,4.712,4.713,4.713,0,0,1,4.713,9.424" transform="translate(28.273 277.493)"/>
    <path id="Fill_335-5" data-name="Fill 335" d="M4.713,9.424A4.712,4.712,0,1,1,9.424,4.712,4.713,4.713,0,0,1,4.713,9.424" transform="translate(28.273 249.22)"/>
    <path id="Fill_336-5" data-name="Fill 336" d="M4.712,9.424A4.712,4.712,0,1,1,9.424,4.712,4.712,4.712,0,0,1,4.712,9.424" transform="translate(0 249.22)"/>
    <path id="Fill_301-2" data-name="Fill 301" d="M4.712,9.424A4.712,4.712,0,1,1,9.424,4.712,4.712,4.712,0,0,1,4.712,9.424" transform="translate(309.955 390.585)"/>
    <path id="Fill_302-2" data-name="Fill 302" d="M4.711,9.424A4.712,4.712,0,1,1,9.424,4.712,4.712,4.712,0,0,1,4.711,9.424" transform="translate(281.682 390.585)"/>
    <path id="Fill_303-2" data-name="Fill 303" d="M4.712,9.424A4.712,4.712,0,1,1,9.424,4.712,4.712,4.712,0,0,1,4.712,9.424" transform="translate(253.409 390.585)"/>
    <path id="Fill_304-2" data-name="Fill 304" d="M4.712,9.424A4.712,4.712,0,1,1,9.424,4.712,4.712,4.712,0,0,1,4.712,9.424" transform="translate(225.136 390.585)"/>
    <path id="Fill_305-2" data-name="Fill 305" d="M4.713,9.424A4.712,4.712,0,1,1,9.424,4.712,4.712,4.712,0,0,1,4.713,9.424" transform="translate(196.863 390.585)"/>
    <path id="Fill_306-2" data-name="Fill 306" d="M4.712,9.424A4.712,4.712,0,1,1,9.424,4.712,4.712,4.712,0,0,1,4.712,9.424" transform="translate(168.59 390.585)"/>
    <path id="Fill_307-2" data-name="Fill 307" d="M4.712,9.424A4.712,4.712,0,1,1,9.424,4.711,4.712,4.712,0,0,1,4.712,9.424" transform="translate(168.59 362.312)"/>
    <path id="Fill_308-2" data-name="Fill 308" d="M4.713,9.424A4.712,4.712,0,1,1,9.424,4.711,4.713,4.713,0,0,1,4.713,9.424" transform="translate(196.863 362.312)"/>
    <path id="Fill_309-2" data-name="Fill 309" d="M4.712,9.424A4.712,4.712,0,1,1,9.424,4.711,4.713,4.713,0,0,1,4.712,9.424" transform="translate(225.136 362.312)"/>
    <path id="Fill_310-2" data-name="Fill 310" d="M4.712,9.424A4.712,4.712,0,1,1,9.424,4.711,4.712,4.712,0,0,1,4.712,9.424" transform="translate(253.409 362.312)"/>
    <path id="Fill_311-2" data-name="Fill 311" d="M4.711,9.424A4.712,4.712,0,1,1,9.424,4.711,4.713,4.713,0,0,1,4.711,9.424" transform="translate(281.682 362.312)"/>
    <path id="Fill_312-2" data-name="Fill 312" d="M4.713,9.424A4.712,4.712,0,1,1,9.424,4.711,4.713,4.713,0,0,1,4.713,9.424" transform="translate(309.955 362.312)"/>
    <path id="Fill_313-2" data-name="Fill 313" d="M4.713,9.424A4.712,4.712,0,1,1,9.424,4.713,4.712,4.712,0,0,1,4.713,9.424" transform="translate(309.955 334.039)"/>
    <path id="Fill_314-2" data-name="Fill 314" d="M4.711,9.424A4.712,4.712,0,1,1,9.424,4.713,4.712,4.712,0,0,1,4.711,9.424" transform="translate(281.682 334.039)"/>
    <path id="Fill_315-2" data-name="Fill 315" d="M4.712,9.424A4.712,4.712,0,1,1,9.424,4.713,4.712,4.712,0,0,1,4.712,9.424" transform="translate(253.409 334.039)"/>
    <path id="Fill_316-2" data-name="Fill 316" d="M4.712,9.424A4.712,4.712,0,1,1,9.424,4.713,4.712,4.712,0,0,1,4.712,9.424" transform="translate(225.136 334.039)"/>
    <path id="Fill_317-2" data-name="Fill 317" d="M4.713,9.424A4.712,4.712,0,1,1,9.424,4.713,4.712,4.712,0,0,1,4.713,9.424" transform="translate(196.863 334.039)"/>
    <path id="Fill_318-2" data-name="Fill 318" d="M4.712,9.424A4.712,4.712,0,1,1,9.424,4.713,4.711,4.711,0,0,1,4.712,9.424" transform="translate(168.59 334.039)"/>
    <path id="Fill_319-2" data-name="Fill 319" d="M4.712,9.424A4.712,4.712,0,1,1,9.424,4.712,4.712,4.712,0,0,1,4.712,9.424" transform="translate(168.59 305.766)"/>
    <path id="Fill_320-2" data-name="Fill 320" d="M4.713,9.424A4.712,4.712,0,1,1,9.424,4.712,4.712,4.712,0,0,1,4.713,9.424" transform="translate(196.863 305.766)"/>
    <path id="Fill_321-2" data-name="Fill 321" d="M4.712,9.424A4.712,4.712,0,1,1,9.424,4.712,4.712,4.712,0,0,1,4.712,9.424" transform="translate(225.136 305.766)"/>
    <path id="Fill_322-2" data-name="Fill 322" d="M4.712,9.424A4.712,4.712,0,1,1,9.424,4.712,4.712,4.712,0,0,1,4.712,9.424" transform="translate(253.409 305.766)"/>
    <path id="Fill_323-2" data-name="Fill 323" d="M4.711,9.424A4.712,4.712,0,1,1,9.424,4.712,4.712,4.712,0,0,1,4.711,9.424" transform="translate(281.682 305.766)"/>
    <path id="Fill_324-2" data-name="Fill 324" d="M4.713,9.424A4.712,4.712,0,1,1,9.424,4.712,4.712,4.712,0,0,1,4.713,9.424" transform="translate(309.955 305.766)"/>
    <path id="Fill_325-2" data-name="Fill 325" d="M4.713,9.424A4.712,4.712,0,1,1,9.424,4.712,4.713,4.713,0,0,1,4.713,9.424" transform="translate(309.955 277.493)"/>
    <path id="Fill_326-2" data-name="Fill 326" d="M4.711,9.424A4.712,4.712,0,1,1,9.424,4.712,4.712,4.712,0,0,1,4.711,9.424" transform="translate(281.682 277.493)"/>
    <path id="Fill_327-6" data-name="Fill 327" d="M4.711,9.424A4.712,4.712,0,1,1,9.424,4.712,4.712,4.712,0,0,1,4.711,9.424" transform="translate(281.682 249.22)"/>
    <path id="Fill_328-5" data-name="Fill 328" d="M4.713,9.424A4.712,4.712,0,1,1,9.424,4.712,4.713,4.713,0,0,1,4.713,9.424" transform="translate(309.955 249.22)"/>
    <path id="Fill_329-2" data-name="Fill 329" d="M4.712,9.424A4.712,4.712,0,1,1,9.424,4.712,4.712,4.712,0,0,1,4.712,9.424" transform="translate(253.409 277.493)"/>
    <path id="Fill_330-6" data-name="Fill 330" d="M4.712,9.424A4.712,4.712,0,1,1,9.424,4.712,4.712,4.712,0,0,1,4.712,9.424" transform="translate(253.409 249.22)"/>
    <path id="Fill_331-6" data-name="Fill 331" d="M4.712,9.424A4.712,4.712,0,1,1,9.424,4.712,4.712,4.712,0,0,1,4.712,9.424" transform="translate(225.136 249.22)"/>
    <path id="Fill_332-2" data-name="Fill 332" d="M4.712,9.424A4.712,4.712,0,1,1,9.424,4.712,4.712,4.712,0,0,1,4.712,9.424" transform="translate(225.136 277.493)"/>
    <path id="Fill_333-2" data-name="Fill 333" d="M4.712,9.424A4.712,4.712,0,1,1,9.424,4.712,4.712,4.712,0,0,1,4.712,9.424" transform="translate(168.59 277.493)"/>
    <path id="Fill_334-2" data-name="Fill 334" d="M4.713,9.424A4.712,4.712,0,1,1,9.424,4.712,4.713,4.713,0,0,1,4.713,9.424" transform="translate(196.863 277.493)"/>
    <path id="Fill_335-6" data-name="Fill 335" d="M4.713,9.424A4.712,4.712,0,1,1,9.424,4.712,4.713,4.713,0,0,1,4.713,9.424" transform="translate(196.863 249.22)"/>
    <path id="Fill_336-6" data-name="Fill 336" d="M4.712,9.424A4.712,4.712,0,1,1,9.424,4.712,4.712,4.712,0,0,1,4.712,9.424" transform="translate(168.59 249.22)"/>
    <path id="Fill_301-3" data-name="Fill 301" d="M4.712,9.424A4.712,4.712,0,1,1,9.424,4.712,4.712,4.712,0,0,1,4.712,9.424" transform="translate(477.498 390.585)"/>
    <path id="Fill_302-3" data-name="Fill 302" d="M4.711,9.424A4.712,4.712,0,1,1,9.424,4.712,4.712,4.712,0,0,1,4.711,9.424" transform="translate(449.225 390.585)"/>
    <path id="Fill_303-3" data-name="Fill 303" d="M4.712,9.424A4.712,4.712,0,1,1,9.424,4.712,4.712,4.712,0,0,1,4.712,9.424" transform="translate(420.952 390.585)"/>
    <path id="Fill_304-3" data-name="Fill 304" d="M4.712,9.424A4.712,4.712,0,1,1,9.424,4.712,4.712,4.712,0,0,1,4.712,9.424" transform="translate(392.679 390.585)"/>
    <path id="Fill_305-3" data-name="Fill 305" d="M4.713,9.424A4.712,4.712,0,1,1,9.424,4.712,4.712,4.712,0,0,1,4.713,9.424" transform="translate(364.406 390.585)"/>
    <path id="Fill_306-3" data-name="Fill 306" d="M4.712,9.424A4.712,4.712,0,1,1,9.424,4.712,4.712,4.712,0,0,1,4.712,9.424" transform="translate(336.133 390.585)"/>
    <path id="Fill_307-3" data-name="Fill 307" d="M4.712,9.424A4.712,4.712,0,1,1,9.424,4.711,4.712,4.712,0,0,1,4.712,9.424" transform="translate(336.133 362.312)"/>
    <path id="Fill_308-3" data-name="Fill 308" d="M4.713,9.424A4.712,4.712,0,1,1,9.424,4.711,4.713,4.713,0,0,1,4.713,9.424" transform="translate(364.406 362.312)"/>
    <path id="Fill_309-3" data-name="Fill 309" d="M4.712,9.424A4.712,4.712,0,1,1,9.424,4.711,4.713,4.713,0,0,1,4.712,9.424" transform="translate(392.679 362.312)"/>
    <path id="Fill_310-3" data-name="Fill 310" d="M4.712,9.424A4.712,4.712,0,1,1,9.424,4.711,4.712,4.712,0,0,1,4.712,9.424" transform="translate(420.952 362.312)"/>
    <path id="Fill_311-3" data-name="Fill 311" d="M4.711,9.424A4.712,4.712,0,1,1,9.424,4.711,4.713,4.713,0,0,1,4.711,9.424" transform="translate(449.225 362.312)"/>
    <path id="Fill_312-3" data-name="Fill 312" d="M4.713,9.424A4.712,4.712,0,1,1,9.424,4.711,4.713,4.713,0,0,1,4.713,9.424" transform="translate(477.498 362.312)"/>
    <path id="Fill_313-3" data-name="Fill 313" d="M4.713,9.424A4.712,4.712,0,1,1,9.424,4.713,4.712,4.712,0,0,1,4.713,9.424" transform="translate(477.498 334.039)"/>
    <path id="Fill_314-3" data-name="Fill 314" d="M4.711,9.424A4.712,4.712,0,1,1,9.424,4.713,4.712,4.712,0,0,1,4.711,9.424" transform="translate(449.225 334.039)"/>
    <path id="Fill_315-3" data-name="Fill 315" d="M4.712,9.424A4.712,4.712,0,1,1,9.424,4.713,4.712,4.712,0,0,1,4.712,9.424" transform="translate(420.952 334.039)"/>
    <path id="Fill_316-3" data-name="Fill 316" d="M4.712,9.424A4.712,4.712,0,1,1,9.424,4.713,4.712,4.712,0,0,1,4.712,9.424" transform="translate(392.679 334.039)"/>
    <path id="Fill_317-3" data-name="Fill 317" d="M4.713,9.424A4.712,4.712,0,1,1,9.424,4.713,4.712,4.712,0,0,1,4.713,9.424" transform="translate(364.406 334.039)"/>
    <path id="Fill_318-3" data-name="Fill 318" d="M4.712,9.424A4.712,4.712,0,1,1,9.424,4.713,4.711,4.711,0,0,1,4.712,9.424" transform="translate(336.133 334.039)"/>
    <path id="Fill_319-3" data-name="Fill 319" d="M4.712,9.424A4.712,4.712,0,1,1,9.424,4.712,4.712,4.712,0,0,1,4.712,9.424" transform="translate(336.133 305.766)"/>
    <path id="Fill_320-3" data-name="Fill 320" d="M4.713,9.424A4.712,4.712,0,1,1,9.424,4.712,4.712,4.712,0,0,1,4.713,9.424" transform="translate(364.406 305.766)"/>
    <path id="Fill_321-3" data-name="Fill 321" d="M4.712,9.424A4.712,4.712,0,1,1,9.424,4.712,4.712,4.712,0,0,1,4.712,9.424" transform="translate(392.679 305.766)"/>
    <path id="Fill_322-3" data-name="Fill 322" d="M4.712,9.424A4.712,4.712,0,1,1,9.424,4.712,4.712,4.712,0,0,1,4.712,9.424" transform="translate(420.952 305.766)"/>
    <path id="Fill_323-3" data-name="Fill 323" d="M4.711,9.424A4.712,4.712,0,1,1,9.424,4.712,4.712,4.712,0,0,1,4.711,9.424" transform="translate(449.225 305.766)"/>
    <path id="Fill_324-3" data-name="Fill 324" d="M4.713,9.424A4.712,4.712,0,1,1,9.424,4.712,4.712,4.712,0,0,1,4.713,9.424" transform="translate(477.498 305.766)"/>
    <path id="Fill_325-3" data-name="Fill 325" d="M4.713,9.424A4.712,4.712,0,1,1,9.424,4.712,4.713,4.713,0,0,1,4.713,9.424" transform="translate(477.498 277.493)"/>
    <path id="Fill_326-3" data-name="Fill 326" d="M4.711,9.424A4.712,4.712,0,1,1,9.424,4.712,4.712,4.712,0,0,1,4.711,9.424" transform="translate(449.225 277.493)"/>
    <path id="Fill_327-7" data-name="Fill 327" d="M4.711,9.424A4.712,4.712,0,1,1,9.424,4.712,4.712,4.712,0,0,1,4.711,9.424" transform="translate(449.225 249.22)"/>
    <path id="Fill_328-6" data-name="Fill 328" d="M4.713,9.424A4.712,4.712,0,1,1,9.424,4.712,4.713,4.713,0,0,1,4.713,9.424" transform="translate(477.498 249.22)"/>
    <path id="Fill_329-3" data-name="Fill 329" d="M4.712,9.424A4.712,4.712,0,1,1,9.424,4.712,4.712,4.712,0,0,1,4.712,9.424" transform="translate(420.952 277.493)"/>
    <path id="Fill_330-7" data-name="Fill 330" d="M4.712,9.424A4.712,4.712,0,1,1,9.424,4.712,4.712,4.712,0,0,1,4.712,9.424" transform="translate(420.952 249.22)"/>
    <path id="Fill_331-7" data-name="Fill 331" d="M4.712,9.424A4.712,4.712,0,1,1,9.424,4.712,4.712,4.712,0,0,1,4.712,9.424" transform="translate(392.679 249.22)"/>
    <path id="Fill_332-3" data-name="Fill 332" d="M4.712,9.424A4.712,4.712,0,1,1,9.424,4.712,4.712,4.712,0,0,1,4.712,9.424" transform="translate(392.679 277.493)"/>
    <path id="Fill_333-3" data-name="Fill 333" d="M4.712,9.424A4.712,4.712,0,1,1,9.424,4.712,4.712,4.712,0,0,1,4.712,9.424" transform="translate(336.133 277.493)"/>
    <path id="Fill_334-3" data-name="Fill 334" d="M4.713,9.424A4.712,4.712,0,1,1,9.424,4.712,4.713,4.713,0,0,1,4.713,9.424" transform="translate(364.406 277.493)"/>
    <path id="Fill_335-7" data-name="Fill 335" d="M4.713,9.424A4.712,4.712,0,1,1,9.424,4.712,4.713,4.713,0,0,1,4.713,9.424" transform="translate(364.406 249.22)"/>
    <path id="Fill_336-7" data-name="Fill 336" d="M4.712,9.424A4.712,4.712,0,1,1,9.424,4.712,4.712,4.712,0,0,1,4.712,9.424" transform="translate(336.133 249.22)"/>
    <path id="Fill_302-4" data-name="Fill 302" d="M4.711,9.424A4.712,4.712,0,1,1,9.424,4.712,4.712,4.712,0,0,1,4.711,9.424" transform="translate(617.815 390.585)"/>
    <path id="Fill_303-4" data-name="Fill 303" d="M4.712,9.424A4.712,4.712,0,1,1,9.424,4.712,4.712,4.712,0,0,1,4.712,9.424" transform="translate(589.542 390.585)"/>
    <path id="Fill_304-4" data-name="Fill 304" d="M4.712,9.424A4.712,4.712,0,1,1,9.424,4.712,4.712,4.712,0,0,1,4.712,9.424" transform="translate(561.269 390.585)"/>
    <path id="Fill_305-4" data-name="Fill 305" d="M4.713,9.424A4.712,4.712,0,1,1,9.424,4.712,4.712,4.712,0,0,1,4.713,9.424" transform="translate(532.996 390.585)"/>
    <path id="Fill_306-4" data-name="Fill 306" d="M4.712,9.424A4.712,4.712,0,1,1,9.424,4.712,4.712,4.712,0,0,1,4.712,9.424" transform="translate(504.723 390.585)"/>
    <path id="Fill_307-4" data-name="Fill 307" d="M4.712,9.424A4.712,4.712,0,1,1,9.424,4.711,4.712,4.712,0,0,1,4.712,9.424" transform="translate(504.723 362.312)"/>
    <path id="Fill_308-4" data-name="Fill 308" d="M4.713,9.424A4.712,4.712,0,1,1,9.424,4.711,4.713,4.713,0,0,1,4.713,9.424" transform="translate(532.996 362.312)"/>
    <path id="Fill_309-4" data-name="Fill 309" d="M4.712,9.424A4.712,4.712,0,1,1,9.424,4.711,4.713,4.713,0,0,1,4.712,9.424" transform="translate(561.269 362.312)"/>
    <path id="Fill_310-4" data-name="Fill 310" d="M4.712,9.424A4.712,4.712,0,1,1,9.424,4.711,4.712,4.712,0,0,1,4.712,9.424" transform="translate(589.542 362.312)"/>
    <path id="Fill_311-4" data-name="Fill 311" d="M4.711,9.424A4.712,4.712,0,1,1,9.424,4.711,4.713,4.713,0,0,1,4.711,9.424" transform="translate(617.815 362.312)"/>
    <path id="Fill_314-4" data-name="Fill 314" d="M4.711,9.424A4.712,4.712,0,1,1,9.424,4.713,4.712,4.712,0,0,1,4.711,9.424" transform="translate(617.815 334.039)"/>
    <path id="Fill_315-4" data-name="Fill 315" d="M4.712,9.424A4.712,4.712,0,1,1,9.424,4.713,4.712,4.712,0,0,1,4.712,9.424" transform="translate(589.542 334.039)"/>
    <path id="Fill_316-4" data-name="Fill 316" d="M4.712,9.424A4.712,4.712,0,1,1,9.424,4.713,4.712,4.712,0,0,1,4.712,9.424" transform="translate(561.269 334.039)"/>
    <path id="Fill_317-4" data-name="Fill 317" d="M4.713,9.424A4.712,4.712,0,1,1,9.424,4.713,4.712,4.712,0,0,1,4.713,9.424" transform="translate(532.996 334.039)"/>
    <path id="Fill_318-4" data-name="Fill 318" d="M4.712,9.424A4.712,4.712,0,1,1,9.424,4.713,4.711,4.711,0,0,1,4.712,9.424" transform="translate(504.723 334.039)"/>
    <path id="Fill_319-4" data-name="Fill 319" d="M4.712,9.424A4.712,4.712,0,1,1,9.424,4.712,4.712,4.712,0,0,1,4.712,9.424" transform="translate(504.723 305.766)"/>
    <path id="Fill_320-4" data-name="Fill 320" d="M4.713,9.424A4.712,4.712,0,1,1,9.424,4.712,4.712,4.712,0,0,1,4.713,9.424" transform="translate(532.996 305.766)"/>
    <path id="Fill_321-4" data-name="Fill 321" d="M4.712,9.424A4.712,4.712,0,1,1,9.424,4.712,4.712,4.712,0,0,1,4.712,9.424" transform="translate(561.269 305.766)"/>
    <path id="Fill_322-4" data-name="Fill 322" d="M4.712,9.424A4.712,4.712,0,1,1,9.424,4.712,4.712,4.712,0,0,1,4.712,9.424" transform="translate(589.542 305.766)"/>
    <path id="Fill_323-4" data-name="Fill 323" d="M4.711,9.424A4.712,4.712,0,1,1,9.424,4.712,4.712,4.712,0,0,1,4.711,9.424" transform="translate(617.815 305.766)"/>
    <path id="Fill_326-4" data-name="Fill 326" d="M4.711,9.424A4.712,4.712,0,1,1,9.424,4.712,4.712,4.712,0,0,1,4.711,9.424" transform="translate(617.815 277.493)"/>
    <path id="Fill_327-8" data-name="Fill 327" d="M4.711,9.424A4.712,4.712,0,1,1,9.424,4.712,4.712,4.712,0,0,1,4.711,9.424" transform="translate(617.815 249.22)"/>
    <path id="Fill_329-4" data-name="Fill 329" d="M4.712,9.424A4.712,4.712,0,1,1,9.424,4.712,4.712,4.712,0,0,1,4.712,9.424" transform="translate(589.542 277.493)"/>
    <path id="Fill_330-8" data-name="Fill 330" d="M4.712,9.424A4.712,4.712,0,1,1,9.424,4.712,4.712,4.712,0,0,1,4.712,9.424" transform="translate(589.542 249.22)"/>
    <path id="Fill_331-8" data-name="Fill 331" d="M4.712,9.424A4.712,4.712,0,1,1,9.424,4.712,4.712,4.712,0,0,1,4.712,9.424" transform="translate(561.269 249.22)"/>
    <path id="Fill_332-4" data-name="Fill 332" d="M4.712,9.424A4.712,4.712,0,1,1,9.424,4.712,4.712,4.712,0,0,1,4.712,9.424" transform="translate(561.269 277.493)"/>
    <path id="Fill_333-4" data-name="Fill 333" d="M4.712,9.424A4.712,4.712,0,1,1,9.424,4.712,4.712,4.712,0,0,1,4.712,9.424" transform="translate(504.723 277.493)"/>
    <path id="Fill_334-4" data-name="Fill 334" d="M4.713,9.424A4.712,4.712,0,1,1,9.424,4.712,4.713,4.713,0,0,1,4.713,9.424" transform="translate(532.996 277.493)"/>
    <path id="Fill_335-8" data-name="Fill 335" d="M4.713,9.424A4.712,4.712,0,1,1,9.424,4.712,4.713,4.713,0,0,1,4.713,9.424" transform="translate(532.996 249.22)"/>
    <path id="Fill_336-8" data-name="Fill 336" d="M4.712,9.424A4.712,4.712,0,1,1,9.424,4.712,4.712,4.712,0,0,1,4.712,9.424" transform="translate(504.723 249.22)"/>
    <path id="Fill_301-4" data-name="Fill 301" d="M4.712,9.424A4.712,4.712,0,1,1,9.424,4.712,4.712,4.712,0,0,1,4.712,9.424" transform="translate(141.364 223.042)"/>
    <path id="Fill_302-5" data-name="Fill 302" d="M4.711,9.424A4.712,4.712,0,1,1,9.424,4.712,4.712,4.712,0,0,1,4.711,9.424" transform="translate(113.092 223.042)"/>
    <path id="Fill_303-5" data-name="Fill 303" d="M4.712,9.424A4.712,4.712,0,1,1,9.424,4.712,4.712,4.712,0,0,1,4.712,9.424" transform="translate(84.819 223.042)"/>
    <path id="Fill_304-5" data-name="Fill 304" d="M4.712,9.424A4.712,4.712,0,1,1,9.424,4.712,4.712,4.712,0,0,1,4.712,9.424" transform="translate(56.546 223.042)"/>
    <path id="Fill_305-5" data-name="Fill 305" d="M4.713,9.424A4.712,4.712,0,1,1,9.424,4.712,4.712,4.712,0,0,1,4.713,9.424" transform="translate(28.273 223.042)"/>
    <path id="Fill_306-5" data-name="Fill 306" d="M4.712,9.424A4.712,4.712,0,1,1,9.424,4.712,4.712,4.712,0,0,1,4.712,9.424" transform="translate(0 223.042)"/>
    <path id="Fill_307-5" data-name="Fill 307" d="M4.712,9.424A4.712,4.712,0,1,1,9.424,4.711,4.712,4.712,0,0,1,4.712,9.424" transform="translate(0 194.769)"/>
    <path id="Fill_308-5" data-name="Fill 308" d="M4.713,9.424A4.712,4.712,0,1,1,9.424,4.711,4.713,4.713,0,0,1,4.713,9.424" transform="translate(28.273 194.769)"/>
    <path id="Fill_309-5" data-name="Fill 309" d="M4.712,9.424A4.712,4.712,0,1,1,9.424,4.711,4.713,4.713,0,0,1,4.712,9.424" transform="translate(56.546 194.769)"/>
    <path id="Fill_310-5" data-name="Fill 310" d="M4.712,9.424A4.712,4.712,0,1,1,9.424,4.711,4.712,4.712,0,0,1,4.712,9.424" transform="translate(84.819 194.769)"/>
    <path id="Fill_311-5" data-name="Fill 311" d="M4.711,9.424A4.712,4.712,0,1,1,9.424,4.711,4.713,4.713,0,0,1,4.711,9.424" transform="translate(113.092 194.769)"/>
    <path id="Fill_312-4" data-name="Fill 312" d="M4.713,9.424A4.712,4.712,0,1,1,9.424,4.711,4.713,4.713,0,0,1,4.713,9.424" transform="translate(141.364 194.769)"/>
    <path id="Fill_313-4" data-name="Fill 313" d="M4.713,9.424A4.712,4.712,0,1,1,9.424,4.713,4.712,4.712,0,0,1,4.713,9.424" transform="translate(141.364 166.496)"/>
    <path id="Fill_314-5" data-name="Fill 314" d="M4.711,9.424A4.712,4.712,0,1,1,9.424,4.713,4.712,4.712,0,0,1,4.711,9.424" transform="translate(113.092 166.496)"/>
    <path id="Fill_315-5" data-name="Fill 315" d="M4.712,9.424A4.712,4.712,0,1,1,9.424,4.713,4.712,4.712,0,0,1,4.712,9.424" transform="translate(84.819 166.496)"/>
    <path id="Fill_316-5" data-name="Fill 316" d="M4.712,9.424A4.712,4.712,0,1,1,9.424,4.713,4.712,4.712,0,0,1,4.712,9.424" transform="translate(56.546 166.496)"/>
    <path id="Fill_317-5" data-name="Fill 317" d="M4.713,9.424A4.712,4.712,0,1,1,9.424,4.713,4.712,4.712,0,0,1,4.713,9.424" transform="translate(28.273 166.496)"/>
    <path id="Fill_318-5" data-name="Fill 318" d="M4.712,9.424A4.712,4.712,0,1,1,9.424,4.713,4.711,4.711,0,0,1,4.712,9.424" transform="translate(0 166.496)"/>
    <path id="Fill_319-5" data-name="Fill 319" d="M4.712,9.424A4.712,4.712,0,1,1,9.424,4.712,4.712,4.712,0,0,1,4.712,9.424" transform="translate(0 138.223)"/>
    <path id="Fill_320-5" data-name="Fill 320" d="M4.713,9.424A4.712,4.712,0,1,1,9.424,4.712,4.712,4.712,0,0,1,4.713,9.424" transform="translate(28.273 138.223)"/>
    <path id="Fill_321-5" data-name="Fill 321" d="M4.712,9.424A4.712,4.712,0,1,1,9.424,4.712,4.712,4.712,0,0,1,4.712,9.424" transform="translate(56.546 138.223)"/>
    <path id="Fill_322-5" data-name="Fill 322" d="M4.712,9.424A4.712,4.712,0,1,1,9.424,4.712,4.712,4.712,0,0,1,4.712,9.424" transform="translate(84.819 138.223)"/>
    <path id="Fill_323-5" data-name="Fill 323" d="M4.711,9.424A4.712,4.712,0,1,1,9.424,4.712,4.712,4.712,0,0,1,4.711,9.424" transform="translate(113.092 138.223)"/>
    <path id="Fill_324-4" data-name="Fill 324" d="M4.713,9.424A4.712,4.712,0,1,1,9.424,4.712,4.712,4.712,0,0,1,4.713,9.424" transform="translate(141.364 138.223)"/>
    <path id="Fill_325-4" data-name="Fill 325" d="M4.713,9.424A4.712,4.712,0,1,1,9.424,4.712,4.713,4.713,0,0,1,4.713,9.424" transform="translate(141.364 109.95)"/>
    <path id="Fill_326-5" data-name="Fill 326" d="M4.711,9.424A4.712,4.712,0,1,1,9.424,4.712,4.712,4.712,0,0,1,4.711,9.424" transform="translate(113.092 109.95)"/>
    <path id="Fill_327-9" data-name="Fill 327" d="M4.711,9.424A4.712,4.712,0,1,1,9.424,4.712,4.712,4.712,0,0,1,4.711,9.424" transform="translate(113.092 81.677)"/>
    <path id="Fill_328-7" data-name="Fill 328" d="M4.713,9.424A4.712,4.712,0,1,1,9.424,4.712,4.713,4.713,0,0,1,4.713,9.424" transform="translate(141.364 81.677)"/>
    <path id="Fill_329-5" data-name="Fill 329" d="M4.712,9.424A4.712,4.712,0,1,1,9.424,4.712,4.712,4.712,0,0,1,4.712,9.424" transform="translate(84.819 109.95)"/>
    <path id="Fill_330-9" data-name="Fill 330" d="M4.712,9.424A4.712,4.712,0,1,1,9.424,4.712,4.712,4.712,0,0,1,4.712,9.424" transform="translate(84.819 81.677)"/>
    <path id="Fill_331-9" data-name="Fill 331" d="M4.712,9.424A4.712,4.712,0,1,1,9.424,4.712,4.712,4.712,0,0,1,4.712,9.424" transform="translate(56.546 81.677)"/>
    <path id="Fill_332-5" data-name="Fill 332" d="M4.712,9.424A4.712,4.712,0,1,1,9.424,4.712,4.712,4.712,0,0,1,4.712,9.424" transform="translate(56.546 109.95)"/>
    <path id="Fill_333-5" data-name="Fill 333" d="M4.712,9.424A4.712,4.712,0,1,1,9.424,4.712,4.712,4.712,0,0,1,4.712,9.424" transform="translate(0 109.95)"/>
    <path id="Fill_334-5" data-name="Fill 334" d="M4.713,9.424A4.712,4.712,0,1,1,9.424,4.712,4.713,4.713,0,0,1,4.713,9.424" transform="translate(28.273 109.95)"/>
    <path id="Fill_335-9" data-name="Fill 335" d="M4.713,9.424A4.712,4.712,0,1,1,9.424,4.712,4.713,4.713,0,0,1,4.713,9.424" transform="translate(28.273 81.677)"/>
    <path id="Fill_336-9" data-name="Fill 336" d="M4.712,9.424A4.712,4.712,0,1,1,9.424,4.712,4.712,4.712,0,0,1,4.712,9.424" transform="translate(0 81.677)"/>
    <path id="Fill_301-5" data-name="Fill 301" d="M4.712,9.424A4.712,4.712,0,1,1,9.424,4.712,4.712,4.712,0,0,1,4.712,9.424" transform="translate(309.955 223.042)"/>
    <path id="Fill_302-6" data-name="Fill 302" d="M4.711,9.424A4.712,4.712,0,1,1,9.424,4.712,4.712,4.712,0,0,1,4.711,9.424" transform="translate(281.682 223.042)"/>
    <path id="Fill_303-6" data-name="Fill 303" d="M4.712,9.424A4.712,4.712,0,1,1,9.424,4.712,4.712,4.712,0,0,1,4.712,9.424" transform="translate(253.409 223.042)"/>
    <path id="Fill_304-6" data-name="Fill 304" d="M4.712,9.424A4.712,4.712,0,1,1,9.424,4.712,4.712,4.712,0,0,1,4.712,9.424" transform="translate(225.136 223.042)"/>
    <path id="Fill_305-6" data-name="Fill 305" d="M4.713,9.424A4.712,4.712,0,1,1,9.424,4.712,4.712,4.712,0,0,1,4.713,9.424" transform="translate(196.863 223.042)"/>
    <path id="Fill_306-6" data-name="Fill 306" d="M4.712,9.424A4.712,4.712,0,1,1,9.424,4.712,4.712,4.712,0,0,1,4.712,9.424" transform="translate(168.59 223.042)"/>
    <path id="Fill_307-6" data-name="Fill 307" d="M4.712,9.424A4.712,4.712,0,1,1,9.424,4.711,4.712,4.712,0,0,1,4.712,9.424" transform="translate(168.59 194.769)"/>
    <path id="Fill_308-6" data-name="Fill 308" d="M4.713,9.424A4.712,4.712,0,1,1,9.424,4.711,4.713,4.713,0,0,1,4.713,9.424" transform="translate(196.863 194.769)"/>
    <path id="Fill_309-6" data-name="Fill 309" d="M4.712,9.424A4.712,4.712,0,1,1,9.424,4.711,4.713,4.713,0,0,1,4.712,9.424" transform="translate(225.136 194.769)"/>
    <path id="Fill_310-6" data-name="Fill 310" d="M4.712,9.424A4.712,4.712,0,1,1,9.424,4.711,4.712,4.712,0,0,1,4.712,9.424" transform="translate(253.409 194.769)"/>
    <path id="Fill_311-6" data-name="Fill 311" d="M4.711,9.424A4.712,4.712,0,1,1,9.424,4.711,4.713,4.713,0,0,1,4.711,9.424" transform="translate(281.682 194.769)"/>
    <path id="Fill_312-5" data-name="Fill 312" d="M4.713,9.424A4.712,4.712,0,1,1,9.424,4.711,4.713,4.713,0,0,1,4.713,9.424" transform="translate(309.955 194.769)"/>
    <path id="Fill_313-5" data-name="Fill 313" d="M4.713,9.424A4.712,4.712,0,1,1,9.424,4.713,4.712,4.712,0,0,1,4.713,9.424" transform="translate(309.955 166.496)"/>
    <path id="Fill_314-6" data-name="Fill 314" d="M4.711,9.424A4.712,4.712,0,1,1,9.424,4.713,4.712,4.712,0,0,1,4.711,9.424" transform="translate(281.682 166.496)"/>
    <path id="Fill_315-6" data-name="Fill 315" d="M4.712,9.424A4.712,4.712,0,1,1,9.424,4.713,4.712,4.712,0,0,1,4.712,9.424" transform="translate(253.409 166.496)"/>
    <path id="Fill_316-6" data-name="Fill 316" d="M4.712,9.424A4.712,4.712,0,1,1,9.424,4.713,4.712,4.712,0,0,1,4.712,9.424" transform="translate(225.136 166.496)"/>
    <path id="Fill_317-6" data-name="Fill 317" d="M4.713,9.424A4.712,4.712,0,1,1,9.424,4.713,4.712,4.712,0,0,1,4.713,9.424" transform="translate(196.863 166.496)"/>
    <path id="Fill_318-6" data-name="Fill 318" d="M4.712,9.424A4.712,4.712,0,1,1,9.424,4.713,4.711,4.711,0,0,1,4.712,9.424" transform="translate(168.59 166.496)"/>
    <path id="Fill_319-6" data-name="Fill 319" d="M4.712,9.424A4.712,4.712,0,1,1,9.424,4.712,4.712,4.712,0,0,1,4.712,9.424" transform="translate(168.59 138.223)"/>
    <path id="Fill_320-6" data-name="Fill 320" d="M4.713,9.424A4.712,4.712,0,1,1,9.424,4.712,4.712,4.712,0,0,1,4.713,9.424" transform="translate(196.863 138.223)"/>
    <path id="Fill_321-6" data-name="Fill 321" d="M4.712,9.424A4.712,4.712,0,1,1,9.424,4.712,4.712,4.712,0,0,1,4.712,9.424" transform="translate(225.136 138.223)"/>
    <path id="Fill_322-6" data-name="Fill 322" d="M4.712,9.424A4.712,4.712,0,1,1,9.424,4.712,4.712,4.712,0,0,1,4.712,9.424" transform="translate(253.409 138.223)"/>
    <path id="Fill_323-6" data-name="Fill 323" d="M4.711,9.424A4.712,4.712,0,1,1,9.424,4.712,4.712,4.712,0,0,1,4.711,9.424" transform="translate(281.682 138.223)"/>
    <path id="Fill_324-5" data-name="Fill 324" d="M4.713,9.424A4.712,4.712,0,1,1,9.424,4.712,4.712,4.712,0,0,1,4.713,9.424" transform="translate(309.955 138.223)"/>
    <path id="Fill_325-5" data-name="Fill 325" d="M4.713,9.424A4.712,4.712,0,1,1,9.424,4.712,4.713,4.713,0,0,1,4.713,9.424" transform="translate(309.955 109.95)"/>
    <path id="Fill_326-6" data-name="Fill 326" d="M4.711,9.424A4.712,4.712,0,1,1,9.424,4.712,4.712,4.712,0,0,1,4.711,9.424" transform="translate(281.682 109.95)"/>
    <path id="Fill_327-10" data-name="Fill 327" d="M4.711,9.424A4.712,4.712,0,1,1,9.424,4.712,4.712,4.712,0,0,1,4.711,9.424" transform="translate(281.682 81.677)"/>
    <path id="Fill_328-8" data-name="Fill 328" d="M4.713,9.424A4.712,4.712,0,1,1,9.424,4.712,4.713,4.713,0,0,1,4.713,9.424" transform="translate(309.955 81.677)"/>
    <path id="Fill_329-6" data-name="Fill 329" d="M4.712,9.424A4.712,4.712,0,1,1,9.424,4.712,4.712,4.712,0,0,1,4.712,9.424" transform="translate(253.409 109.95)"/>
    <path id="Fill_330-10" data-name="Fill 330" d="M4.712,9.424A4.712,4.712,0,1,1,9.424,4.712,4.712,4.712,0,0,1,4.712,9.424" transform="translate(253.409 81.677)"/>
    <path id="Fill_331-10" data-name="Fill 331" d="M4.712,9.424A4.712,4.712,0,1,1,9.424,4.712,4.712,4.712,0,0,1,4.712,9.424" transform="translate(225.136 81.677)"/>
    <path id="Fill_332-6" data-name="Fill 332" d="M4.712,9.424A4.712,4.712,0,1,1,9.424,4.712,4.712,4.712,0,0,1,4.712,9.424" transform="translate(225.136 109.95)"/>
    <path id="Fill_333-6" data-name="Fill 333" d="M4.712,9.424A4.712,4.712,0,1,1,9.424,4.712,4.712,4.712,0,0,1,4.712,9.424" transform="translate(168.59 109.95)"/>
    <path id="Fill_334-6" data-name="Fill 334" d="M4.713,9.424A4.712,4.712,0,1,1,9.424,4.712,4.713,4.713,0,0,1,4.713,9.424" transform="translate(196.863 109.95)"/>
    <path id="Fill_335-10" data-name="Fill 335" d="M4.713,9.424A4.712,4.712,0,1,1,9.424,4.712,4.713,4.713,0,0,1,4.713,9.424" transform="translate(196.863 81.677)"/>
    <path id="Fill_336-10" data-name="Fill 336" d="M4.712,9.424A4.712,4.712,0,1,1,9.424,4.712,4.712,4.712,0,0,1,4.712,9.424" transform="translate(168.59 81.677)"/>
    <path id="Fill_301-6" data-name="Fill 301" d="M4.712,9.424A4.712,4.712,0,1,1,9.424,4.712,4.712,4.712,0,0,1,4.712,9.424" transform="translate(477.498 223.042)"/>
    <path id="Fill_302-7" data-name="Fill 302" d="M4.711,9.424A4.712,4.712,0,1,1,9.424,4.712,4.712,4.712,0,0,1,4.711,9.424" transform="translate(449.225 223.042)"/>
    <path id="Fill_303-7" data-name="Fill 303" d="M4.712,9.424A4.712,4.712,0,1,1,9.424,4.712,4.712,4.712,0,0,1,4.712,9.424" transform="translate(420.952 223.042)"/>
    <path id="Fill_304-7" data-name="Fill 304" d="M4.712,9.424A4.712,4.712,0,1,1,9.424,4.712,4.712,4.712,0,0,1,4.712,9.424" transform="translate(392.679 223.042)"/>
    <path id="Fill_305-7" data-name="Fill 305" d="M4.713,9.424A4.712,4.712,0,1,1,9.424,4.712,4.712,4.712,0,0,1,4.713,9.424" transform="translate(364.406 223.042)"/>
    <path id="Fill_306-7" data-name="Fill 306" d="M4.712,9.424A4.712,4.712,0,1,1,9.424,4.712,4.712,4.712,0,0,1,4.712,9.424" transform="translate(336.133 223.042)"/>
    <path id="Fill_307-7" data-name="Fill 307" d="M4.712,9.424A4.712,4.712,0,1,1,9.424,4.711,4.712,4.712,0,0,1,4.712,9.424" transform="translate(336.133 194.769)"/>
    <path id="Fill_308-7" data-name="Fill 308" d="M4.713,9.424A4.712,4.712,0,1,1,9.424,4.711,4.713,4.713,0,0,1,4.713,9.424" transform="translate(364.406 194.769)"/>
    <path id="Fill_309-7" data-name="Fill 309" d="M4.712,9.424A4.712,4.712,0,1,1,9.424,4.711,4.713,4.713,0,0,1,4.712,9.424" transform="translate(392.679 194.769)"/>
    <path id="Fill_310-7" data-name="Fill 310" d="M4.712,9.424A4.712,4.712,0,1,1,9.424,4.711,4.712,4.712,0,0,1,4.712,9.424" transform="translate(420.952 194.769)"/>
    <path id="Fill_311-7" data-name="Fill 311" d="M4.711,9.424A4.712,4.712,0,1,1,9.424,4.711,4.713,4.713,0,0,1,4.711,9.424" transform="translate(449.225 194.769)"/>
    <path id="Fill_312-6" data-name="Fill 312" d="M4.713,9.424A4.712,4.712,0,1,1,9.424,4.711,4.713,4.713,0,0,1,4.713,9.424" transform="translate(477.498 194.769)"/>
    <path id="Fill_313-6" data-name="Fill 313" d="M4.713,9.424A4.712,4.712,0,1,1,9.424,4.713,4.712,4.712,0,0,1,4.713,9.424" transform="translate(477.498 166.496)"/>
    <path id="Fill_314-7" data-name="Fill 314" d="M4.711,9.424A4.712,4.712,0,1,1,9.424,4.713,4.712,4.712,0,0,1,4.711,9.424" transform="translate(449.225 166.496)"/>
    <path id="Fill_315-7" data-name="Fill 315" d="M4.712,9.424A4.712,4.712,0,1,1,9.424,4.713,4.712,4.712,0,0,1,4.712,9.424" transform="translate(420.952 166.496)"/>
    <path id="Fill_316-7" data-name="Fill 316" d="M4.712,9.424A4.712,4.712,0,1,1,9.424,4.713,4.712,4.712,0,0,1,4.712,9.424" transform="translate(392.679 166.496)"/>
    <path id="Fill_317-7" data-name="Fill 317" d="M4.713,9.424A4.712,4.712,0,1,1,9.424,4.713,4.712,4.712,0,0,1,4.713,9.424" transform="translate(364.406 166.496)"/>
    <path id="Fill_318-7" data-name="Fill 318" d="M4.712,9.424A4.712,4.712,0,1,1,9.424,4.713,4.711,4.711,0,0,1,4.712,9.424" transform="translate(336.133 166.496)"/>
    <path id="Fill_319-7" data-name="Fill 319" d="M4.712,9.424A4.712,4.712,0,1,1,9.424,4.712,4.712,4.712,0,0,1,4.712,9.424" transform="translate(336.133 138.223)"/>
    <path id="Fill_320-7" data-name="Fill 320" d="M4.713,9.424A4.712,4.712,0,1,1,9.424,4.712,4.712,4.712,0,0,1,4.713,9.424" transform="translate(364.406 138.223)"/>
    <path id="Fill_321-7" data-name="Fill 321" d="M4.712,9.424A4.712,4.712,0,1,1,9.424,4.712,4.712,4.712,0,0,1,4.712,9.424" transform="translate(392.679 138.223)"/>
    <path id="Fill_322-7" data-name="Fill 322" d="M4.712,9.424A4.712,4.712,0,1,1,9.424,4.712,4.712,4.712,0,0,1,4.712,9.424" transform="translate(420.952 138.223)"/>
    <path id="Fill_323-7" data-name="Fill 323" d="M4.711,9.424A4.712,4.712,0,1,1,9.424,4.712,4.712,4.712,0,0,1,4.711,9.424" transform="translate(449.225 138.223)"/>
    <path id="Fill_324-6" data-name="Fill 324" d="M4.713,9.424A4.712,4.712,0,1,1,9.424,4.712,4.712,4.712,0,0,1,4.713,9.424" transform="translate(477.498 138.223)"/>
    <path id="Fill_325-6" data-name="Fill 325" d="M4.713,9.424A4.712,4.712,0,1,1,9.424,4.712,4.713,4.713,0,0,1,4.713,9.424" transform="translate(477.498 109.95)"/>
    <path id="Fill_326-7" data-name="Fill 326" d="M4.711,9.424A4.712,4.712,0,1,1,9.424,4.712,4.712,4.712,0,0,1,4.711,9.424" transform="translate(449.225 109.95)"/>
    <path id="Fill_327-11" data-name="Fill 327" d="M4.711,9.424A4.712,4.712,0,1,1,9.424,4.712,4.712,4.712,0,0,1,4.711,9.424" transform="translate(449.225 81.677)"/>
    <path id="Fill_328-9" data-name="Fill 328" d="M4.713,9.424A4.712,4.712,0,1,1,9.424,4.712,4.713,4.713,0,0,1,4.713,9.424" transform="translate(477.498 81.677)"/>
    <path id="Fill_329-7" data-name="Fill 329" d="M4.712,9.424A4.712,4.712,0,1,1,9.424,4.712,4.712,4.712,0,0,1,4.712,9.424" transform="translate(420.952 109.95)"/>
    <path id="Fill_330-11" data-name="Fill 330" d="M4.712,9.424A4.712,4.712,0,1,1,9.424,4.712,4.712,4.712,0,0,1,4.712,9.424" transform="translate(420.952 81.677)"/>
    <path id="Fill_331-11" data-name="Fill 331" d="M4.712,9.424A4.712,4.712,0,1,1,9.424,4.712,4.712,4.712,0,0,1,4.712,9.424" transform="translate(392.679 81.677)"/>
    <path id="Fill_332-7" data-name="Fill 332" d="M4.712,9.424A4.712,4.712,0,1,1,9.424,4.712,4.712,4.712,0,0,1,4.712,9.424" transform="translate(392.679 109.95)"/>
    <path id="Fill_333-7" data-name="Fill 333" d="M4.712,9.424A4.712,4.712,0,1,1,9.424,4.712,4.712,4.712,0,0,1,4.712,9.424" transform="translate(336.133 109.95)"/>
    <path id="Fill_334-7" data-name="Fill 334" d="M4.713,9.424A4.712,4.712,0,1,1,9.424,4.712,4.713,4.713,0,0,1,4.713,9.424" transform="translate(364.406 109.95)"/>
    <path id="Fill_335-11" data-name="Fill 335" d="M4.713,9.424A4.712,4.712,0,1,1,9.424,4.712,4.713,4.713,0,0,1,4.713,9.424" transform="translate(364.406 81.677)"/>
    <path id="Fill_336-11" data-name="Fill 336" d="M4.712,9.424A4.712,4.712,0,1,1,9.424,4.712,4.712,4.712,0,0,1,4.712,9.424" transform="translate(336.133 81.677)"/>
    <path id="Fill_302-8" data-name="Fill 302" d="M4.711,9.424A4.712,4.712,0,1,1,9.424,4.712,4.712,4.712,0,0,1,4.711,9.424" transform="translate(617.815 223.042)"/>
    <path id="Fill_303-8" data-name="Fill 303" d="M4.712,9.424A4.712,4.712,0,1,1,9.424,4.712,4.712,4.712,0,0,1,4.712,9.424" transform="translate(589.542 223.042)"/>
    <path id="Fill_304-8" data-name="Fill 304" d="M4.712,9.424A4.712,4.712,0,1,1,9.424,4.712,4.712,4.712,0,0,1,4.712,9.424" transform="translate(561.269 223.042)"/>
    <path id="Fill_305-8" data-name="Fill 305" d="M4.713,9.424A4.712,4.712,0,1,1,9.424,4.712,4.712,4.712,0,0,1,4.713,9.424" transform="translate(532.996 223.042)"/>
    <path id="Fill_306-8" data-name="Fill 306" d="M4.712,9.424A4.712,4.712,0,1,1,9.424,4.712,4.712,4.712,0,0,1,4.712,9.424" transform="translate(504.723 223.042)"/>
    <path id="Fill_307-8" data-name="Fill 307" d="M4.712,9.424A4.712,4.712,0,1,1,9.424,4.711,4.712,4.712,0,0,1,4.712,9.424" transform="translate(504.723 194.769)"/>
    <path id="Fill_308-8" data-name="Fill 308" d="M4.713,9.424A4.712,4.712,0,1,1,9.424,4.711,4.713,4.713,0,0,1,4.713,9.424" transform="translate(532.996 194.769)"/>
    <path id="Fill_309-8" data-name="Fill 309" d="M4.712,9.424A4.712,4.712,0,1,1,9.424,4.711,4.713,4.713,0,0,1,4.712,9.424" transform="translate(561.269 194.769)"/>
    <path id="Fill_310-8" data-name="Fill 310" d="M4.712,9.424A4.712,4.712,0,1,1,9.424,4.711,4.712,4.712,0,0,1,4.712,9.424" transform="translate(589.542 194.769)"/>
    <path id="Fill_311-8" data-name="Fill 311" d="M4.711,9.424A4.712,4.712,0,1,1,9.424,4.711,4.713,4.713,0,0,1,4.711,9.424" transform="translate(617.815 194.769)"/>
    <path id="Fill_314-8" data-name="Fill 314" d="M4.711,9.424A4.712,4.712,0,1,1,9.424,4.713,4.712,4.712,0,0,1,4.711,9.424" transform="translate(617.815 166.496)"/>
    <path id="Fill_315-8" data-name="Fill 315" d="M4.712,9.424A4.712,4.712,0,1,1,9.424,4.713,4.712,4.712,0,0,1,4.712,9.424" transform="translate(589.542 166.496)"/>
    <path id="Fill_316-8" data-name="Fill 316" d="M4.712,9.424A4.712,4.712,0,1,1,9.424,4.713,4.712,4.712,0,0,1,4.712,9.424" transform="translate(561.269 166.496)"/>
    <path id="Fill_317-8" data-name="Fill 317" d="M4.713,9.424A4.712,4.712,0,1,1,9.424,4.713,4.712,4.712,0,0,1,4.713,9.424" transform="translate(532.996 166.496)"/>
    <path id="Fill_318-8" data-name="Fill 318" d="M4.712,9.424A4.712,4.712,0,1,1,9.424,4.713,4.711,4.711,0,0,1,4.712,9.424" transform="translate(504.723 166.496)"/>
    <path id="Fill_319-8" data-name="Fill 319" d="M4.712,9.424A4.712,4.712,0,1,1,9.424,4.712,4.712,4.712,0,0,1,4.712,9.424" transform="translate(504.723 138.223)"/>
    <path id="Fill_320-8" data-name="Fill 320" d="M4.713,9.424A4.712,4.712,0,1,1,9.424,4.712,4.712,4.712,0,0,1,4.713,9.424" transform="translate(532.996 138.223)"/>
    <path id="Fill_321-8" data-name="Fill 321" d="M4.712,9.424A4.712,4.712,0,1,1,9.424,4.712,4.712,4.712,0,0,1,4.712,9.424" transform="translate(561.269 138.223)"/>
    <path id="Fill_322-8" data-name="Fill 322" d="M4.712,9.424A4.712,4.712,0,1,1,9.424,4.712,4.712,4.712,0,0,1,4.712,9.424" transform="translate(589.542 138.223)"/>
    <path id="Fill_323-8" data-name="Fill 323" d="M4.711,9.424A4.712,4.712,0,1,1,9.424,4.712,4.712,4.712,0,0,1,4.711,9.424" transform="translate(617.815 138.223)"/>
    <path id="Fill_326-8" data-name="Fill 326" d="M4.711,9.424A4.712,4.712,0,1,1,9.424,4.712,4.712,4.712,0,0,1,4.711,9.424" transform="translate(617.815 109.95)"/>
    <path id="Fill_327-12" data-name="Fill 327" d="M4.711,9.424A4.712,4.712,0,1,1,9.424,4.712,4.712,4.712,0,0,1,4.711,9.424" transform="translate(617.815 81.677)"/>
    <path id="Fill_329-8" data-name="Fill 329" d="M4.712,9.424A4.712,4.712,0,1,1,9.424,4.712,4.712,4.712,0,0,1,4.712,9.424" transform="translate(589.542 109.95)"/>
    <path id="Fill_330-12" data-name="Fill 330" d="M4.712,9.424A4.712,4.712,0,1,1,9.424,4.712,4.712,4.712,0,0,1,4.712,9.424" transform="translate(589.542 81.677)"/>
    <path id="Fill_331-12" data-name="Fill 331" d="M4.712,9.424A4.712,4.712,0,1,1,9.424,4.712,4.712,4.712,0,0,1,4.712,9.424" transform="translate(561.269 81.677)"/>
    <path id="Fill_332-8" data-name="Fill 332" d="M4.712,9.424A4.712,4.712,0,1,1,9.424,4.712,4.712,4.712,0,0,1,4.712,9.424" transform="translate(561.269 109.95)"/>
    <path id="Fill_333-8" data-name="Fill 333" d="M4.712,9.424A4.712,4.712,0,1,1,9.424,4.712,4.712,4.712,0,0,1,4.712,9.424" transform="translate(504.723 109.95)"/>
    <path id="Fill_334-8" data-name="Fill 334" d="M4.713,9.424A4.712,4.712,0,1,1,9.424,4.712,4.713,4.713,0,0,1,4.713,9.424" transform="translate(532.996 109.95)"/>
    <path id="Fill_335-12" data-name="Fill 335" d="M4.713,9.424A4.712,4.712,0,1,1,9.424,4.712,4.713,4.713,0,0,1,4.713,9.424" transform="translate(532.996 81.677)"/>
    <path id="Fill_336-12" data-name="Fill 336" d="M4.712,9.424A4.712,4.712,0,1,1,9.424,4.712,4.712,4.712,0,0,1,4.712,9.424" transform="translate(504.723 81.677)"/>
    <path id="Fill_301-7" data-name="Fill 301" d="M4.712,9.424A4.712,4.712,0,1,1,9.424,4.712,4.712,4.712,0,0,1,4.712,9.424" transform="translate(141.364 56.546)"/>
    <path id="Fill_302-9" data-name="Fill 302" d="M4.711,9.424A4.712,4.712,0,1,1,9.424,4.712,4.712,4.712,0,0,1,4.711,9.424" transform="translate(113.092 56.546)"/>
    <path id="Fill_303-9" data-name="Fill 303" d="M4.712,9.424A4.712,4.712,0,1,1,9.424,4.712,4.712,4.712,0,0,1,4.712,9.424" transform="translate(84.819 56.546)"/>
    <path id="Fill_304-9" data-name="Fill 304" d="M4.712,9.424A4.712,4.712,0,1,1,9.424,4.712,4.712,4.712,0,0,1,4.712,9.424" transform="translate(56.546 56.546)"/>
    <path id="Fill_305-9" data-name="Fill 305" d="M4.713,9.424A4.712,4.712,0,1,1,9.424,4.712,4.712,4.712,0,0,1,4.713,9.424" transform="translate(28.273 56.546)"/>
    <path id="Fill_306-9" data-name="Fill 306" d="M4.712,9.424A4.712,4.712,0,1,1,9.424,4.712,4.712,4.712,0,0,1,4.712,9.424" transform="translate(0 56.546)"/>
    <path id="Fill_307-9" data-name="Fill 307" d="M4.712,9.424A4.712,4.712,0,1,1,9.424,4.711,4.712,4.712,0,0,1,4.712,9.424" transform="translate(0 28.273)"/>
    <path id="Fill_308-9" data-name="Fill 308" d="M4.713,9.424A4.712,4.712,0,1,1,9.424,4.711,4.713,4.713,0,0,1,4.713,9.424" transform="translate(28.273 28.273)"/>
    <path id="Fill_309-9" data-name="Fill 309" d="M4.712,9.424A4.712,4.712,0,1,1,9.424,4.711,4.713,4.713,0,0,1,4.712,9.424" transform="translate(56.546 28.273)"/>
    <path id="Fill_310-9" data-name="Fill 310" d="M4.712,9.424A4.712,4.712,0,1,1,9.424,4.711,4.712,4.712,0,0,1,4.712,9.424" transform="translate(84.819 28.273)"/>
    <path id="Fill_311-9" data-name="Fill 311" d="M4.711,9.424A4.712,4.712,0,1,1,9.424,4.711,4.713,4.713,0,0,1,4.711,9.424" transform="translate(113.092 28.273)"/>
    <path id="Fill_312-7" data-name="Fill 312" d="M4.713,9.424A4.712,4.712,0,1,1,9.424,4.711,4.713,4.713,0,0,1,4.713,9.424" transform="translate(141.364 28.273)"/>
    <path id="Fill_313-7" data-name="Fill 313" d="M4.713,9.424A4.712,4.712,0,1,1,9.424,4.713,4.712,4.712,0,0,1,4.713,9.424" transform="translate(141.364)"/>
    <path id="Fill_314-9" data-name="Fill 314" d="M4.711,9.424A4.712,4.712,0,1,1,9.424,4.713,4.712,4.712,0,0,1,4.711,9.424" transform="translate(113.092)"/>
    <path id="Fill_315-9" data-name="Fill 315" d="M4.712,9.424A4.712,4.712,0,1,1,9.424,4.713,4.712,4.712,0,0,1,4.712,9.424" transform="translate(84.819)"/>
    <path id="Fill_316-9" data-name="Fill 316" d="M4.712,9.424A4.712,4.712,0,1,1,9.424,4.713,4.712,4.712,0,0,1,4.712,9.424" transform="translate(56.546)"/>
    <path id="Fill_317-9" data-name="Fill 317" d="M4.713,9.424A4.712,4.712,0,1,1,9.424,4.713,4.712,4.712,0,0,1,4.713,9.424" transform="translate(28.273)"/>
    <path id="Fill_318-9" data-name="Fill 318" d="M4.712,9.424A4.712,4.712,0,1,1,9.424,4.713,4.711,4.711,0,0,1,4.712,9.424"/>
    <path id="Fill_301-8" data-name="Fill 301" d="M4.712,9.424A4.712,4.712,0,1,1,9.424,4.712,4.712,4.712,0,0,1,4.712,9.424" transform="translate(309.955 56.546)"/>
    <path id="Fill_302-10" data-name="Fill 302" d="M4.711,9.424A4.712,4.712,0,1,1,9.424,4.712,4.712,4.712,0,0,1,4.711,9.424" transform="translate(281.682 56.546)"/>
    <path id="Fill_303-10" data-name="Fill 303" d="M4.712,9.424A4.712,4.712,0,1,1,9.424,4.712,4.712,4.712,0,0,1,4.712,9.424" transform="translate(253.409 56.546)"/>
    <path id="Fill_304-10" data-name="Fill 304" d="M4.712,9.424A4.712,4.712,0,1,1,9.424,4.712,4.712,4.712,0,0,1,4.712,9.424" transform="translate(225.136 56.546)"/>
    <path id="Fill_305-10" data-name="Fill 305" d="M4.713,9.424A4.712,4.712,0,1,1,9.424,4.712,4.712,4.712,0,0,1,4.713,9.424" transform="translate(196.863 56.546)"/>
    <path id="Fill_306-10" data-name="Fill 306" d="M4.712,9.424A4.712,4.712,0,1,1,9.424,4.712,4.712,4.712,0,0,1,4.712,9.424" transform="translate(168.59 56.546)"/>
    <path id="Fill_307-10" data-name="Fill 307" d="M4.712,9.424A4.712,4.712,0,1,1,9.424,4.711,4.712,4.712,0,0,1,4.712,9.424" transform="translate(168.59 28.273)"/>
    <path id="Fill_308-10" data-name="Fill 308" d="M4.713,9.424A4.712,4.712,0,1,1,9.424,4.711,4.713,4.713,0,0,1,4.713,9.424" transform="translate(196.863 28.273)"/>
    <path id="Fill_309-10" data-name="Fill 309" d="M4.712,9.424A4.712,4.712,0,1,1,9.424,4.711,4.713,4.713,0,0,1,4.712,9.424" transform="translate(225.136 28.273)"/>
    <path id="Fill_310-10" data-name="Fill 310" d="M4.712,9.424A4.712,4.712,0,1,1,9.424,4.711,4.712,4.712,0,0,1,4.712,9.424" transform="translate(253.409 28.273)"/>
    <path id="Fill_311-10" data-name="Fill 311" d="M4.711,9.424A4.712,4.712,0,1,1,9.424,4.711,4.713,4.713,0,0,1,4.711,9.424" transform="translate(281.682 28.273)"/>
    <path id="Fill_312-8" data-name="Fill 312" d="M4.713,9.424A4.712,4.712,0,1,1,9.424,4.711,4.713,4.713,0,0,1,4.713,9.424" transform="translate(309.955 28.273)"/>
    <path id="Fill_313-8" data-name="Fill 313" d="M4.713,9.424A4.712,4.712,0,1,1,9.424,4.713,4.712,4.712,0,0,1,4.713,9.424" transform="translate(309.955)"/>
    <path id="Fill_314-10" data-name="Fill 314" d="M4.711,9.424A4.712,4.712,0,1,1,9.424,4.713,4.712,4.712,0,0,1,4.711,9.424" transform="translate(281.682)"/>
    <path id="Fill_315-10" data-name="Fill 315" d="M4.712,9.424A4.712,4.712,0,1,1,9.424,4.713,4.712,4.712,0,0,1,4.712,9.424" transform="translate(253.409)"/>
    <path id="Fill_316-10" data-name="Fill 316" d="M4.712,9.424A4.712,4.712,0,1,1,9.424,4.713,4.712,4.712,0,0,1,4.712,9.424" transform="translate(225.136)"/>
    <path id="Fill_317-10" data-name="Fill 317" d="M4.713,9.424A4.712,4.712,0,1,1,9.424,4.713,4.712,4.712,0,0,1,4.713,9.424" transform="translate(196.863)"/>
    <path id="Fill_318-10" data-name="Fill 318" d="M4.712,9.424A4.712,4.712,0,1,1,9.424,4.713,4.711,4.711,0,0,1,4.712,9.424" transform="translate(168.59)"/>
    <path id="Fill_301-9" data-name="Fill 301" d="M4.712,9.424A4.712,4.712,0,1,1,9.424,4.712,4.712,4.712,0,0,1,4.712,9.424" transform="translate(477.498 56.546)"/>
    <path id="Fill_302-11" data-name="Fill 302" d="M4.711,9.424A4.712,4.712,0,1,1,9.424,4.712,4.712,4.712,0,0,1,4.711,9.424" transform="translate(449.225 56.546)"/>
    <path id="Fill_303-11" data-name="Fill 303" d="M4.712,9.424A4.712,4.712,0,1,1,9.424,4.712,4.712,4.712,0,0,1,4.712,9.424" transform="translate(420.952 56.546)"/>
    <path id="Fill_304-11" data-name="Fill 304" d="M4.712,9.424A4.712,4.712,0,1,1,9.424,4.712,4.712,4.712,0,0,1,4.712,9.424" transform="translate(392.679 56.546)"/>
    <path id="Fill_305-11" data-name="Fill 305" d="M4.713,9.424A4.712,4.712,0,1,1,9.424,4.712,4.712,4.712,0,0,1,4.713,9.424" transform="translate(364.406 56.546)"/>
    <path id="Fill_306-11" data-name="Fill 306" d="M4.712,9.424A4.712,4.712,0,1,1,9.424,4.712,4.712,4.712,0,0,1,4.712,9.424" transform="translate(336.133 56.546)"/>
    <path id="Fill_307-11" data-name="Fill 307" d="M4.712,9.424A4.712,4.712,0,1,1,9.424,4.711,4.712,4.712,0,0,1,4.712,9.424" transform="translate(336.133 28.273)"/>
    <path id="Fill_308-11" data-name="Fill 308" d="M4.713,9.424A4.712,4.712,0,1,1,9.424,4.711,4.713,4.713,0,0,1,4.713,9.424" transform="translate(364.406 28.273)"/>
    <path id="Fill_309-11" data-name="Fill 309" d="M4.712,9.424A4.712,4.712,0,1,1,9.424,4.711,4.713,4.713,0,0,1,4.712,9.424" transform="translate(392.679 28.273)"/>
    <path id="Fill_310-11" data-name="Fill 310" d="M4.712,9.424A4.712,4.712,0,1,1,9.424,4.711,4.712,4.712,0,0,1,4.712,9.424" transform="translate(420.952 28.273)"/>
    <path id="Fill_311-11" data-name="Fill 311" d="M4.711,9.424A4.712,4.712,0,1,1,9.424,4.711,4.713,4.713,0,0,1,4.711,9.424" transform="translate(449.225 28.273)"/>
    <path id="Fill_312-9" data-name="Fill 312" d="M4.713,9.424A4.712,4.712,0,1,1,9.424,4.711,4.713,4.713,0,0,1,4.713,9.424" transform="translate(477.498 28.273)"/>
    <path id="Fill_313-9" data-name="Fill 313" d="M4.713,9.424A4.712,4.712,0,1,1,9.424,4.713,4.712,4.712,0,0,1,4.713,9.424" transform="translate(477.498)"/>
    <path id="Fill_314-11" data-name="Fill 314" d="M4.711,9.424A4.712,4.712,0,1,1,9.424,4.713,4.712,4.712,0,0,1,4.711,9.424" transform="translate(449.225)"/>
    <path id="Fill_315-11" data-name="Fill 315" d="M4.712,9.424A4.712,4.712,0,1,1,9.424,4.713,4.712,4.712,0,0,1,4.712,9.424" transform="translate(420.952)"/>
    <path id="Fill_316-11" data-name="Fill 316" d="M4.712,9.424A4.712,4.712,0,1,1,9.424,4.713,4.712,4.712,0,0,1,4.712,9.424" transform="translate(392.679)"/>
    <path id="Fill_317-11" data-name="Fill 317" d="M4.713,9.424A4.712,4.712,0,1,1,9.424,4.713,4.712,4.712,0,0,1,4.713,9.424" transform="translate(364.406)"/>
    <path id="Fill_318-11" data-name="Fill 318" d="M4.712,9.424A4.712,4.712,0,1,1,9.424,4.713,4.711,4.711,0,0,1,4.712,9.424" transform="translate(336.133)"/>
    <path id="Fill_302-12" data-name="Fill 302" d="M4.711,9.424A4.712,4.712,0,1,1,9.424,4.712,4.712,4.712,0,0,1,4.711,9.424" transform="translate(617.815 56.546)"/>
    <path id="Fill_303-12" data-name="Fill 303" d="M4.712,9.424A4.712,4.712,0,1,1,9.424,4.712,4.712,4.712,0,0,1,4.712,9.424" transform="translate(589.542 56.546)"/>
    <path id="Fill_304-12" data-name="Fill 304" d="M4.712,9.424A4.712,4.712,0,1,1,9.424,4.712,4.712,4.712,0,0,1,4.712,9.424" transform="translate(561.269 56.546)"/>
    <path id="Fill_305-12" data-name="Fill 305" d="M4.713,9.424A4.712,4.712,0,1,1,9.424,4.712,4.712,4.712,0,0,1,4.713,9.424" transform="translate(532.996 56.546)"/>
    <path id="Fill_306-12" data-name="Fill 306" d="M4.712,9.424A4.712,4.712,0,1,1,9.424,4.712,4.712,4.712,0,0,1,4.712,9.424" transform="translate(504.723 56.546)"/>
    <path id="Fill_307-12" data-name="Fill 307" d="M4.712,9.424A4.712,4.712,0,1,1,9.424,4.711,4.712,4.712,0,0,1,4.712,9.424" transform="translate(504.723 28.273)"/>
    <path id="Fill_308-12" data-name="Fill 308" d="M4.713,9.424A4.712,4.712,0,1,1,9.424,4.711,4.713,4.713,0,0,1,4.713,9.424" transform="translate(532.996 28.273)"/>
    <path id="Fill_309-12" data-name="Fill 309" d="M4.712,9.424A4.712,4.712,0,1,1,9.424,4.711,4.713,4.713,0,0,1,4.712,9.424" transform="translate(561.269 28.273)"/>
    <path id="Fill_310-12" data-name="Fill 310" d="M4.712,9.424A4.712,4.712,0,1,1,9.424,4.711,4.712,4.712,0,0,1,4.712,9.424" transform="translate(589.542 28.273)"/>
    <path id="Fill_311-12" data-name="Fill 311" d="M4.711,9.424A4.712,4.712,0,1,1,9.424,4.711,4.713,4.713,0,0,1,4.711,9.424" transform="translate(617.815 28.273)"/>
    <path id="Fill_314-12" data-name="Fill 314" d="M4.711,9.424A4.712,4.712,0,1,1,9.424,4.713,4.712,4.712,0,0,1,4.711,9.424" transform="translate(617.815)"/>
    <path id="Fill_315-12" data-name="Fill 315" d="M4.712,9.424A4.712,4.712,0,1,1,9.424,4.713,4.712,4.712,0,0,1,4.712,9.424" transform="translate(589.542)"/>
    <path id="Fill_316-12" data-name="Fill 316" d="M4.712,9.424A4.712,4.712,0,1,1,9.424,4.713,4.712,4.712,0,0,1,4.712,9.424" transform="translate(561.269)"/>
    <path id="Fill_317-12" data-name="Fill 317" d="M4.713,9.424A4.712,4.712,0,1,1,9.424,4.713,4.712,4.712,0,0,1,4.713,9.424" transform="translate(532.996)"/>
    <path id="Fill_318-12" data-name="Fill 318" d="M4.712,9.424A4.712,4.712,0,1,1,9.424,4.713,4.711,4.711,0,0,1,4.712,9.424" transform="translate(504.723)"/>
  </g>
</svg>
