<svg xmlns="http://www.w3.org/2000/svg" width="74.048" height="90" viewBox="0 0 74.048 90">
  <g id="file" transform="translate(-45.375)">
    <path id="Path_97" data-name="Path 97" d="M99.516,84.727H45.375V0H88.793l20.918,20.918V60.293Z" fill="#f2f2f4"/>
    <path id="Path_98" data-name="Path 98" d="M239.625,20.918V0h-11.25V84.727h21.973l10.2-24.434V20.918Z" transform="translate(-150.832)" fill="#dfdfe1"/>
    <g id="Group_99" data-name="Group 99" transform="translate(62.326 35.579)">
      <rect id="Rectangle_32" data-name="Rectangle 32" width="30" height="4" transform="translate(0.049 0.421)" fill="#888890"/>
      <rect id="Rectangle_33" data-name="Rectangle 33" width="30" height="6" transform="translate(0.049 9.421)" fill="#888890"/>
      <rect id="Rectangle_34" data-name="Rectangle 34" width="15" height="5" transform="translate(0.049 20.421)" fill="#888890"/>
    </g>
    <g id="Group_100" data-name="Group 100" transform="translate(77.492 35.579)">
      <rect id="Rectangle_35" data-name="Rectangle 35" width="15" height="4" transform="translate(-0.117 0.421)" fill="#56535a"/>
      <rect id="Rectangle_36" data-name="Rectangle 36" width="15" height="6" transform="translate(-0.117 9.421)" fill="#56535a"/>
    </g>
    <path id="Path_99" data-name="Path 99" d="M329.4,361.164l-9.73-6.433a7.89,7.89,0,0,1-3.548-6.6V328.995h26.455v19.15a7.894,7.894,0,0,1-3.522,6.582Z" transform="translate(-223.156 -271.164)" fill="#8171bf"/>
    <path id="Path_100" data-name="Path 100" d="M391.375,328.995v32.136l.05.033,9.655-6.437a7.894,7.894,0,0,0,3.522-6.582v-19.15Z" transform="translate(-285.18 -271.164)" fill="rgba(101,88,161,0.99)"/>
    <path id="Path_101" data-name="Path 101" d="M346.125,358.995v13.864a2.63,2.63,0,0,0,1.183,2.2l6.809,4.5,6.742-4.495a2.631,2.631,0,0,0,1.174-2.194V358.995Z" transform="translate(-247.884 -295.89)" fill="#6557a4"/>
    <path id="Path_102" data-name="Path 102" d="M391.375,358.995v20.541l.038.025,6.742-4.495a2.631,2.631,0,0,0,1.174-2.194V359Z" transform="translate(-285.18 -295.89)" fill="#6e5fa8"/>
  </g>
</svg>
