<svg xmlns="http://www.w3.org/2000/svg" width="78" height="88.712" viewBox="0 0 78 88.712">
  <g id="shield_1_" data-name="shield (1)" transform="translate(-30.912)">
    <path id="Path_103" data-name="Path 103" d="M69.912,0l-39,11.128V30.68A62.634,62.634,0,0,0,68.872,88.3l1.04.416,1.04-.416a62.634,62.634,0,0,0,37.96-57.616V11.128Z" transform="translate(0)" fill="#f2f2f4"/>
    <path id="Path_104" data-name="Path 104" d="M295,11.128V30.68A62.634,62.634,0,0,1,257.04,88.3l-1.04.416V0Z" transform="translate(-186.088)" fill="#dfdfe1"/>
    <path id="Path_105" data-name="Path 105" d="M119.536,62.425l-28.6,8.164v11.7a52.25,52.25,0,0,0,27.352,45.968l1.248.676,1.248-.676a52.25,52.25,0,0,0,27.352-45.968v-11.7Z" transform="translate(-49.624 -51.609)" fill="#6557a4"/>
    <path id="Path_106" data-name="Path 106" d="M284.6,70.589v11.7a52.25,52.25,0,0,1-27.352,45.968l-1.248.676V62.425Z" transform="translate(-186.088 -51.609)" fill="#6e5fa8"/>
  </g>
</svg>
