<svg xmlns="http://www.w3.org/2000/svg" width="159.904" height="178.579" viewBox="0 0 159.904 178.579">
  <g id="user_1_" data-name="user (1)" transform="translate(-28.048)">
    <path id="Path_130" data-name="Path 130" d="M367.044,134.261h10.522v26.718h18.482V119H348.562v41.976h18.482Z" transform="translate(-208.097 -77.567)" fill="#fff"/>
    <path id="Path_131" data-name="Path 131" d="M359.569,31.217V23.573a13.051,13.051,0,1,1,26.1,0v7.644h10.522V23.573a23.573,23.573,0,1,0-47.147,0v7.644Z" transform="translate(-208.412)" fill="#fff"/>
    <path id="Path_132" data-name="Path 132" d="M129.943,175.21V133.843A67.892,67.892,0,0,0,53.137,245.3v-8.871a34.765,34.765,0,0,1,23.594-32.88,25.671,25.671,0,1,1,38.471,0,34.766,34.766,0,0,1,23.593,32.88V245.3a67.863,67.863,0,0,0,22.818-70.095Z" transform="translate(0 -81.973)" fill="#fff"/>
    <path id="Path_133" data-name="Path 133" d="M193.648,257.909A15.149,15.149,0,1,0,208.8,273.057,15.166,15.166,0,0,0,193.648,257.909Z" transform="translate(-97.682 -168.056)" fill="#fff"/>
    <path id="Path_134" data-name="Path 134" d="M194.194,398.472a24.209,24.209,0,0,0-24.182-24.181h-16.25a24.209,24.209,0,0,0-24.182,24.181V414.4a67.827,67.827,0,0,0,64.613,0V398.472Z" transform="translate(-65.921 -244.012)" fill="#fff"/>
  </g>
</svg>
