<svg xmlns="http://www.w3.org/2000/svg" width="188.646" height="115.487" viewBox="0 0 188.646 115.487">
  <g id="Layer_2" data-name="Layer 2" transform="translate(0 0.002)">
    <g id="OBJECTS" transform="translate(0 -0.002)">
      <path id="Path_3381" data-name="Path 3381" d="M242.875,16.508H241.52v-.8h1.355V14.29h.84v1.42h1.355v.8h-1.355v1.417h-.84Z" transform="translate(-173.891 -10.288)" fill="#fff"/>
      <path id="Path_3382" data-name="Path 3382" d="M383.508,14.545H382.15v-.8h1.358V12.33h.84v1.417H385.7v.8h-1.355v1.42h-.84Z" transform="translate(-275.142 -8.877)" fill="#fff"/>
      <path id="Path_3383" data-name="Path 3383" d="M35.115,46.468H33.76v-.8h1.355V44.25h.84v1.42H37.3v.8H35.944v1.42H35.1Z" transform="translate(-24.307 -31.859)" fill="#fff"/>
      <path id="Path_3384" data-name="Path 3384" d="M112.515,35.283H111.16v-.806h1.355V33.06h.84v1.417h1.355v.806h-1.355v1.4h-.84Z" transform="translate(-80.033 -23.802)" fill="#fff"/>
      <path id="Path_3385" data-name="Path 3385" d="M149.778,13.771a1.915,1.915,0,1,1,1.913-1.915A1.915,1.915,0,0,1,149.778,13.771Zm0-3.139A1.226,1.226,0,1,0,151,11.855,1.226,1.226,0,0,0,149.778,10.632Z" transform="translate(-106.457 -7.156)" fill="#fff"/>
      <path id="Path_3386" data-name="Path 3386" d="M71.075,20.291a1.915,1.915,0,1,1,1.915-1.913A1.915,1.915,0,0,1,71.075,20.291Zm0-3.139A1.226,1.226,0,1,0,72.3,18.378,1.226,1.226,0,0,0,71.075,17.152Z" transform="translate(-49.794 -11.85)" fill="#fff"/>
      <path id="Path_3387" data-name="Path 3387" d="M14.233,16.821a1.915,1.915,0,1,1,1.918-1.915A1.915,1.915,0,0,1,14.233,16.821Zm0-3.139a1.226,1.226,0,1,0,1.224,1.224A1.226,1.226,0,0,0,14.233,13.682Z" transform="translate(-8.87 -9.352)" fill="#fff"/>
      <path id="Path_3388" data-name="Path 3388" d="M35.824,283.125l-1.347.146-.087-.792,1.35-.148-.154-1.4.84-.09.151,1.4,1.35-.148.084.8-1.347.146.154,1.4-.826.09Z" transform="translate(-24.76 -202.2)" fill="#fff"/>
      <path id="Path_3389" data-name="Path 3389" d="M8.971,322.179a1.915,1.915,0,1,1,1.7-2.109A1.915,1.915,0,0,1,8.971,322.179Zm-.339-3.122a1.107,1.107,0,1,0,0-.008Z" transform="translate(-4.931 -229.214)" fill="#fff"/>
      <path id="Path_3390" data-name="Path 3390" d="M25.617,242.443a1.913,1.913,0,1,1,1.286-.7A1.912,1.912,0,0,1,25.617,242.443Zm-.339-3.119a1.226,1.226,0,1,0,1.35,1.089A1.226,1.226,0,0,0,25.278,239.323Z" transform="translate(-16.919 -171.808)" fill="#fff"/>
      <path id="Path_3391" data-name="Path 3391" d="M554.028,18.468H552.67v-.8h1.358V16.25h.84v1.417h1.355v.8h-1.355v1.417h-.84Z" transform="translate(-397.914 -11.699)" fill="#fff"/>
      <path id="Path_3392" data-name="Path 3392" d="M639.369,130.008H638v-.8h1.358v-1.42h.84v1.42h1.355v.8H640.2v1.42h-.84Z" transform="translate(-459.35 -92.006)" fill="#fff"/>
      <path id="Path_3393" data-name="Path 3393" d="M637.535,27.151a1.915,1.915,0,1,1,1.915-1.915A1.915,1.915,0,0,1,637.535,27.151Zm0-3.139a.508.508,0,1,0,0-.011Z" transform="translate(-457.637 -16.79)" fill="#fff"/>
      <path id="Path_3394" data-name="Path 3394" d="M536,108.151a1.915,1.915,0,1,1,1.915-1.915A1.915,1.915,0,0,1,536,108.151Zm0-3.139a.508.508,0,1,0,0-.014Z" transform="translate(-384.529 -75.108)" fill="#fff"/>
      <path id="Path_3411" data-name="Path 3411" d="M94.482,275.578l-.132-1.2a6.052,6.052,0,0,0,3.92-2.982,3.215,3.215,0,0,0,.33-2.918c-.26-.56-.577-.879-.941-.941-.711-.115-1.618.658-1.879.938l-.885-.84c.148-.157,1.5-1.54,2.957-1.3a2.536,2.536,0,0,1,1.848,1.627,4.334,4.334,0,0,1-.375,4.027A7.244,7.244,0,0,1,94.482,275.578Z" transform="translate(-67.931 -178.733)" fill="#5f5098"/>
      <path id="Path_3412" data-name="Path 3412" d="M67.254,269.521l-8.664-.1L56.42,252.88H69.474Z" transform="translate(-40.622 -169.069)" fill="#6e5fa8"/>
      <path id="Path_3413" data-name="Path 3413" d="M60.98,252.88l2.285,16.56,2.548.031-.9-16.591Z" transform="translate(-43.905 -169.069)" fill="#8877cb"/>
      <path id="Path_3414" data-name="Path 3414" d="M89.436,252.9l2.862-.022-2.221,16.641-1.957-.036Z" transform="translate(-63.445 -169.069)" fill="#5f5098"/>
      <path id="Path_3422" data-name="Path 3422" d="M31.2,366.273a4.662,4.662,0,0,0,2.582-4.251h0a4.659,4.659,0,0,0-2.582-4.256v-1.647H69.7a4.573,4.573,0,0,1,4.623,4.514v2.624a4.573,4.573,0,0,1-4.623,4.514H31.2Z" transform="translate(-22.464 -256.4)" fill="#6e5fa8"/>
      <path id="Path_3423" data-name="Path 3423" d="M31.2,366.272a4.662,4.662,0,0,0,2.582-4.251h0a4.659,4.659,0,0,0-2.582-4.256v-1.647H51.546a5.9,5.9,0,0,1,5.967,5.847h0a5.9,5.9,0,0,1-5.967,5.827H31.2Z" transform="translate(-22.464 -256.399)" fill="#5f5098"/>
      <path id="Path_3424" data-name="Path 3424" d="M31.2,369.512a4.662,4.662,0,0,0,2.582-4.251h0a4.659,4.659,0,0,0-2.582-4.256v-.386H50.6a4.693,4.693,0,0,1,4.76,4.634h0a4.7,4.7,0,0,1-4.76,4.637H31.2Z" transform="translate(-22.464 -259.639)" fill="#fefefe"/>
      <path id="Path_3425" data-name="Path 3425" d="M134.742,358.24s1.641.96,1.893,2.178a3.817,3.817,0,0,1,.078,1.75l-14.191.056a5.342,5.342,0,0,0-2.492-4.214Z" transform="translate(-86.42 -257.761)" fill="#8877cb"/>
      <path id="Path_3426" data-name="Path 3426" d="M55.244,367.791,37.39,367.71l.286.487Z" transform="translate(-26.92 -264.745)" fill="#cfd5e5"/>
      <path id="Path_3427" data-name="Path 3427" d="M60.894,377.423,40.33,377.14l.008.314Z" transform="translate(-29.037 -271.534)" fill="#cfd5e5"/>
      <path id="Path_3428" data-name="Path 3428" d="M53.865,387.746l-17.411-.076-.244.322Z" transform="translate(-26.071 -279.116)" fill="#cfd5e5"/>
      <path id="Path_3430" data-name="Path 3430" d="M100.36,209.22v-5.97L97,206.235Z" transform="translate(-69.838 -146.336)" fill="#ffb1a5"/>
      <rect id="Rectangle_568" data-name="Rectangle 568" width="26.515" height="14.096" rx="7" transform="translate(6.494 45.791)" fill="#ffb1a5"/>
      <circle id="Ellipse_243" data-name="Ellipse 243" cx="1.392" cy="1.392" r="1.392" transform="translate(11.24 51.341)" fill="#d5e1f9"/>
      <circle id="Ellipse_244" data-name="Ellipse 244" cx="1.392" cy="1.392" r="1.392" transform="translate(18.333 51.369)" fill="#d5e1f9"/>
      <circle id="Ellipse_245" data-name="Ellipse 245" cx="1.392" cy="1.392" r="1.392" transform="translate(25.428 51.397)" fill="#d5e1f9"/>
      <path id="Path_3431" data-name="Path 3431" d="M621.417,101.553V95.58l-3.357,2.985Z" transform="translate(-444.994 -68.816)" fill="#c98bd2"/>
      <rect id="Rectangle_569" data-name="Rectangle 569" width="18.375" height="14.096" rx="6" transform="translate(160.539 15.645)" fill="#c98bd2"/>
      <circle id="Ellipse_246" data-name="Ellipse 246" cx="1.204" cy="1.204" r="1.204" transform="translate(162.619 21.483)" fill="#d5e1f9"/>
      <circle id="Ellipse_247" data-name="Ellipse 247" cx="1.204" cy="1.204" r="1.204" transform="translate(168.76 21.508)" fill="#d5e1f9"/>
      <circle id="Ellipse_248" data-name="Ellipse 248" cx="1.204" cy="1.204" r="1.204" transform="translate(174.898 21.531)" fill="#d5e1f9"/>
      <path id="Path_3432" data-name="Path 3432" d="M302.926,306.036,284.21,307.57V296.49h21.9v7.877Z" transform="translate(-204.627 -213.468)" fill="#253568"/>
      <rect id="Rectangle_570" data-name="Rectangle 570" width="21.9" height="7.661" transform="translate(77.461 84.35)" fill="#3d3c3c"/>
      <path id="Path_3433" data-name="Path 3433" d="M298.533,301.23l-.011,4.4-21.892-4.4Z" transform="translate(-199.169 -216.88)" fill="#282828"/>
      <path id="Path_3434" data-name="Path 3434" d="M277.7,338.891H234.06l.022-2.333,11.808-7.989h19.971l11.847,7.966Z" transform="translate(-168.52 -236.565)" fill="#282828"/>
      <path id="Path_3435" data-name="Path 3435" d="M294.012,328.57h-21.85l-1.842,1.154,23.785.283Z" transform="translate(-194.626 -236.565)" fill="#535151"/>
      <path id="Path_3436" data-name="Path 3436" d="M354.94,327.163l-.09-1.436,2.12-1.106,9.633,6.69-1.927,2.383Z" transform="translate(-255.486 -233.721)" fill="#2d4175"/>
      <path id="Path_3437" data-name="Path 3437" d="M391.838,348.51l-.067,2.467-1.871,2.271.011-2.355Z" transform="translate(-280.722 -250.921)" fill="#253568"/>
      <path id="Path_3438" data-name="Path 3438" d="M502.89,132.7l2.6-2.52V67.13l-2.6,2.523V132.7" transform="translate(-362.073 -48.332)" fill="#3d3c3c"/>
      <path id="Path_3439" data-name="Path 3439" d="M128.59,69.653l2.6-2.523H236l-2.6,2.523H128.59" transform="translate(-92.583 -48.332)" fill="#3d3c3c"/>
      <rect id="Rectangle_571" data-name="Rectangle 571" width="104.81" height="63.048" transform="translate(36.007 21.321)" fill="#282828"/>
      <rect id="Rectangle_572" data-name="Rectangle 572" width="96.544" height="49.969" transform="translate(40.093 25.065)" fill="#dcf7ff"/>
      <path id="Path_3440" data-name="Path 3440" d="M214.462,81.222l-83.372.02V79.73h80.938Z" transform="translate(-94.383 -57.404)" fill="#3d3c3c"/>
      <path id="Path_3441" data-name="Path 3441" d="M235.253,281.213l-102.133.26v-4.256l102.133-.157Z" transform="translate(-95.844 -199.478)" fill="#3d3c3c"/>
      <circle id="Ellipse_249" data-name="Ellipse 249" cx="2.198" cy="2.198" r="2.198" transform="translate(86.236 77.478)" fill="#6e5fa8"/>
      <rect id="Rectangle_573" data-name="Rectangle 573" width="8.935" height="10.551" transform="translate(84.077 27.19)" fill="#ffb1a5"/>
      <path id="Path_3447" data-name="Path 3447" d="M300.2,99.58l-.022,4.253a14.343,14.343,0,0,0,8.961-3.962Z" transform="translate(-216.125 -71.696)" fill="#2e2e2e"/>
      <path id="Path_3448" data-name="Path 3448" d="M297.633,25.5c-.4-4.388-3.36-1.644-3.36-1.644s2.711-11.987-6.44-14.561a7.792,7.792,0,0,0-5.1-.011c-9.137,2.585-6.44,14.561-6.44,14.561s-2.951-2.744-3.36,1.644,4.284,4.825,4.284,4.825a8.761,8.761,0,0,0,16.154,0S298.03,29.889,297.633,25.5Z" transform="translate(-196.491 -6.368)" fill="#ffb1a5"/>
      <path id="Path_3449" data-name="Path 3449" d="M349.54,67.481s.462-2.134,1.249-1.28-.132,3.159-.84,3.058-.12-.507-.034-1.19S349.54,67.481,349.54,67.481Z" transform="translate(-251.663 -47.518)" fill="#282828"/>
      <path id="Path_3450" data-name="Path 3450" d="M279.812,66.121s-.462-2.134-1.249-1.28.132,3.159.84,3.058.12-.507.034-1.187S279.812,66.121,279.812,66.121Z" transform="translate(-200.344 -46.539)" fill="#282828"/>
      <path id="Path_3451" data-name="Path 3451" d="M314.064,87.97a.224.224,0,0,0-.2.132,1.613,1.613,0,0,1-1.49.787,2.212,2.212,0,0,1-1.784-.84.213.213,0,0,0-.305-.045.238.238,0,0,0-.045.319,2.652,2.652,0,0,0,2.145,1.008,2.041,2.041,0,0,0,1.873-1.05.232.232,0,0,0-.1-.3A.224.224,0,0,0,314.064,87.97Z" transform="translate(-223.339 -63.328)" fill="#282828"/>
      <ellipse id="Ellipse_250" data-name="Ellipse 250" cx="0.596" cy="1.098" rx="0.596" ry="1.098" transform="translate(84.223 17.874)" fill="#282828"/>
      <path id="Path_3452" data-name="Path 3452" d="M296.33,56.777a.49.49,0,0,1,.216-.538,2.445,2.445,0,0,1,2.111-.451c.952.451.619.854.389,1s-.818-.311-1.635.106C296.787,57.2,296.423,57.1,296.33,56.777Z" transform="translate(-213.342 -40.085)" fill="#282828"/>
      <ellipse id="Ellipse_251" data-name="Ellipse 251" cx="0.596" cy="1.098" rx="0.596" ry="1.098" transform="translate(92.8 17.529)" fill="#282828"/>
      <path id="Path_3453" data-name="Path 3453" d="M331.116,56.171a.49.49,0,0,0-.244-.524,2.459,2.459,0,0,0-2.134-.319c-.927.507-.56.89-.333,1.019s.8-.361,1.641,0C330.677,56.625,331.044,56.5,331.116,56.171Z" transform="translate(-236.255 -39.728)" fill="#282828"/>
      <ellipse id="Ellipse_252" data-name="Ellipse 252" cx="1.42" cy="1.341" rx="1.42" ry="1.341" transform="translate(82.731 20.615)" fill="#e691d0"/>
      <ellipse id="Ellipse_253" data-name="Ellipse 253" cx="1.42" cy="1.341" rx="1.42" ry="1.341" transform="translate(92.783 20.615)" fill="#e691d0"/>
      <path id="Path_3454" data-name="Path 3454" d="M314.219,70.913c-.176,0-.344-.02-.412-.174a.232.232,0,0,1,.106-.3.218.218,0,0,1,.207,0,1.677,1.677,0,0,0,.907-.174,20.913,20.913,0,0,0-.179-2.764.224.224,0,0,1,.193-.252.221.221,0,0,1,.241.2,14.818,14.818,0,0,1,.14,3.007c-.171.42-1.067.442-1.168.445ZM314.2,70.552Z" transform="translate(-225.922 -48.416)" fill="#282828"/>
      <path id="Path_3455" data-name="Path 3455" d="M298.986,6.243s.918-1.742.386-2.66a2.259,2.259,0,0,0-1.884-.871s.627-1.12-1.12-1.45-1.68.627-2.369.871S287.225-.578,283.064.1c-1.7.28-2.277,1.436-2.285,2.94a2.371,2.371,0,0,0-.776.12c-3.388,1.218-3.7,4.609-3.881,5.987a24.456,24.456,0,0,0-.073,2.951,29,29,0,0,0,.459,4.575,1.809,1.809,0,0,1,1.145.207c1.422.748,1.518,4.623,2.366,3.229.5-.84-.664-4.018-.28-6.39.266-1.61,3.559-1.179,3.763-2.75.874.51,2.615,1.1,6.079,1.369a19.64,19.64,0,0,0,5.385-.252c1.7,1.854-.437,6.233.241,7.342.736,1.212.666-1.047,1.565-2.148a2.971,2.971,0,0,1,1.439-.633,51.79,51.79,0,0,0,.3-5.917,3.2,3.2,0,0,0,1.666-2.31C300.288,6.389,298.986,6.243,298.986,6.243Z" transform="translate(-198.74 0.002)" fill="#282828"/>
      <path id="Path_3456" data-name="Path 3456" d="M313.978,66.086l-.328-.63a2.691,2.691,0,0,1,2.316-.056l-.342.624A2.017,2.017,0,0,0,313.978,66.086Z" transform="translate(-225.823 -46.907)" fill="#fff"/>
      <path id="Path_3457" data-name="Path 3457" d="M342.293,64.755l-.473-.529,2.165-1.686-.5,1.182Z" transform="translate(-246.105 -45.027)" fill="#fff"/>
      <path id="Path_3458" data-name="Path 3458" d="M286.6,64.666l-1.753-.655-.454-.921,2.447.91Z" transform="translate(-204.756 -45.423)" fill="#fff"/>
      <path id="Path_3459" data-name="Path 3459" d="M298.037,63.6h-6.6V59.1h6.6Zm-6.015-.58h5.455V59.682h-5.455Z" transform="translate(-209.832 -42.551)" fill="#fff"/>
      <path id="Path_3460" data-name="Path 3460" d="M326.913,63.83h-6.6v-4.5h6.6Zm-6.023-.582h5.444V59.91H320.89Z" transform="translate(-230.618 -42.716)" fill="#fff"/>
      <path id="Path_3461" data-name="Path 3461" d="M176.326,11.678s-1.851-4.64-2.215-5.371.235-1.68,1.38-.8,3.36,6.648,3.621,8.1.218,2.937.972,2.851,1.232-1.63,2.055-1.974a5.686,5.686,0,0,1,3.441-.067c.554.37-.725.955-1.717,1.778a7.434,7.434,0,0,0-2.212,3.346c-.213.974-2.162,3.892-3.4,3.951s-4.881-1.26-5.55-2.781-2.82-4.993-2.487-5.735.661-2.036,1.106-2.265S176.326,11.678,176.326,11.678Z" transform="translate(-122.524 -3.711)" fill="#ffb1a5"/>
      <path id="Path_3462" data-name="Path 3462" d="M188.6,51.294a14.6,14.6,0,0,1-1.3-1.448c-.16-.305.608.353,1.378.28s1.352-.879,2.207-.84c0,0-1.226.778-1.4,1.3S189.3,51.84,188.6,51.294Z" transform="translate(-134.842 -35.484)" fill="#304477"/>
      <path id="Path_3463" data-name="Path 3463" d="M180.153,31.073c-.081-.42.61-1.666.538-2.025a11.146,11.146,0,0,0-1.532-2.4,2.565,2.565,0,0,0-.776-.356v1.3a14.413,14.413,0,0,0-1.218-.876,1.12,1.12,0,0,1-.585.112c-.255-.05-1.238.854-1.238.854l.092.442L174,27.931a.816.816,0,0,0,.207.963,1.423,1.423,0,0,1,.227.358c-.112.087-.118.409-.146.666-.07.652.658.8.658.8h0c.389.3,1.229.585,1.439.414.134,0,.325.157.672.372.664.409,1.12-.064,1.35-.118.375-.087.56.162.784.252a2.164,2.164,0,0,0,.428.059C180.024,31.728,180.184,31.215,180.153,31.073Z" transform="translate(-125.222 -18.928)" fill="#304477"/>
      <path id="Path_3464" data-name="Path 3464" d="M185.441,26.541c.333-.932,1.1-.591,1.574-.372a8.014,8.014,0,0,1,1.742,2.59,11.886,11.886,0,0,0-.372,2.069c.076.44-.91.958-1.5.02-.339-.543.07-1.613.05-1.854C186.905,28.6,185.354,26.785,185.441,26.541Z" transform="translate(-133.512 -18.664)" fill="#f09ea4"/>
      <path id="Path_3465" data-name="Path 3465" d="M179.143,29.063a8.69,8.69,0,0,1,1.089,1.54c-.008.224-.378,1.445.3,1.9a1.268,1.268,0,0,0,1.341.154,8.745,8.745,0,0,1,.26-1.817c.213-.367-1.005-2.165-1.518-2.6S178.689,27.831,179.143,29.063Z" transform="translate(-128.916 -20.147)" fill="#f09ea4"/>
      <path id="Path_3466" data-name="Path 3466" d="M176.089,34.042c-.314,0-1.246-.594-1.207-1.008a1.733,1.733,0,0,0-.132-1.014c-.132-.174-.672-.5-.778-.778s.263-.84.56-.9a1.59,1.59,0,0,1,.9.311c0,.042.916,1.4.918,1.52C176.358,32.625,176.641,34.05,176.089,34.042Z" transform="translate(-125.244 -21.844)" fill="#f09ea4"/>
      <path id="Path_3467" data-name="Path 3467" d="M187.618,62.209a3.366,3.366,0,0,0-.28,2.03c.258.93-4.556.823-4.556.823l-1.739-.946a12.2,12.2,0,0,0-.879-2.436C179.674,60.8,187.618,62.209,187.618,62.209Z" transform="translate(-129.7 -44.201)" fill="#ffb1a5"/>
      <path id="Path_3468" data-name="Path 3468" d="M181.316,66.892s4.323.4,7.118-1.232a5.023,5.023,0,0,1,.588,1.767c.162,1.87,2.68,7.474,3.427,11.509s3.226,11.276,1.5,14.561-4.349,4.424-6.972,2.7-4.368-6.278-4.76-11.01c-.235-2.8-1.238-10.977-1.022-15.927C181.234,68,181.316,66.892,181.316,66.892Z" transform="translate(-130.434 -47.274)" fill="#5f5098"/>
      <path id="Path_3469" data-name="Path 3469" d="M329.331,112.49s6.239,1.151,10.013,3.173,4.746,3.492,8.12,9.4c2.148,3.758,6.8,8.68,8.3,11.223,1.338,2.24,1.795,2.568,1.68,4.928-.109,2.128-2.473,3.534-4.99,4.074s-8.305-6.289-11.2-10c-3.122-4.024-3.374-3.15-6.578-6.676C333.17,126.953,323.31,116.22,329.331,112.49Z" transform="translate(-235.724 -80.991)" fill="#5f5098"/>
      <path id="Path_3470" data-name="Path 3470" d="M225.434,110.67a67.9,67.9,0,0,0-11.1,3.049c-5.553,2.153-10.467,5.32-11.951,5.8a8.658,8.658,0,0,0-4.3,3.279s-4.715,5.079,3.08,6.863c4.833,1.106,13.189,2.386,17.3.2S229.13,114.095,225.434,110.67Z" transform="translate(-141.594 -79.68)" fill="#5f5098"/>
      <path id="Path_3471" data-name="Path 3471" d="M258.5,142.194c.146,2.831.56,6.471.434,9.434l28.385.036c1.68-9.507,3.509-23.191,3.509-23.191.675-11.864-11.864-17.193-11.864-17.193s-.862,2.047-5.4,1.845-4.326-2.316-4.326-2.316-11.167,7.686-11.623,11.464S258.318,138.677,258.5,142.194Z" transform="translate(-185.399 -79.781)" fill="#6e5fa8"/>
      <path id="Path_3472" data-name="Path 3472" d="M299.41,110.67s.146,4.427,4.791,17.781a127.11,127.11,0,0,0,4.934-17.271A26.8,26.8,0,0,1,304.2,112.7C301.815,113.14,299.41,110.67,299.41,110.67Z" transform="translate(-215.571 -79.68)" fill="#fff"/>
      <path id="Path_3473" data-name="Path 3473" d="M287.473,110.67l-4.643,7.185,6.239,6.169-3.553,1.232,7.908,13.427-1.159-10.232Z" transform="translate(-203.633 -79.68)" fill="#5f5098"/>
      <path id="Path_3474" data-name="Path 3474" d="M321.454,112.31l4.4,4.357-5.513,8.126,2.806-.291-5.469,15.362-1.159-10.232Z" transform="translate(-227.889 -80.861)" fill="#5f5098"/>
      <path id="Path_3475" data-name="Path 3475" d="M390.026,46.959l1.929-11.929-11.506,3.108-3.069,22.4,11.226-1.809Z" transform="translate(-271.708 -25.221)" fill="#b978c2"/>
      <path id="Path_3476" data-name="Path 3476" d="M383.9,34.7l1.243,1.022,11.506-3.108L395.5,31.67Z" transform="translate(-276.402 -22.801)" fill="#c98bd2"/>
      <path id="Path_3477" data-name="Path 3477" d="M373.76,65.014l1.014.89,3.069-22.4L376.6,42.49Z" transform="translate(-269.101 -30.592)" fill="#915e98"/>
      <path id="Path_3478" data-name="Path 3478" d="M391.748,93.222s3.64.456,3.881-.09,2.375-7.908,2.582-8.784-.56-2.951-.624-5.6c-.056-2.5-.207-2.45-.487-2.5s-.56.322-.56.322a1.627,1.627,0,0,0-.84-.176,1.512,1.512,0,0,0-.876.28c-.062.056-.448,1.68-.448,1.68s-.521-.392-.907-.216-.815.487-.879,1.809a13.909,13.909,0,0,0,0,2.456c.067.336.179,2.24.179,2.24s-.874,4.2-1.14,4.8S390.975,93.141,391.748,93.222Z" transform="translate(-281.724 -54.893)" fill="#ffb1a5"/>
      <path id="Path_3479" data-name="Path 3479" d="M396.888,90.833s-1.6-3.478-1.562-4.7a6.37,6.37,0,0,1,.56-2.8l.28-.339a1.249,1.249,0,0,0-.778.6,7.788,7.788,0,0,0-.28,3.441,17.649,17.649,0,0,1,.476,2.487l1.4,1.518" transform="translate(-284.405 -59.751)" fill="#304477"/>
      <path id="Path_3480" data-name="Path 3480" d="M403.45,76.8s-1-.1-1.176.28a15.3,15.3,0,0,0-.4,4.01,21.3,21.3,0,0,0,1.378,3.887,18.778,18.778,0,0,1-1.014-4.251C402.224,79.278,401.972,76.617,403.45,76.8Z" transform="translate(-289.33 -55.288)" fill="#304477"/>
      <path id="Path_3481" data-name="Path 3481" d="M409.639,77.43a17.573,17.573,0,0,0-.081,4.1,10.175,10.175,0,0,0,.664,2.923S409.216,79.208,409.639,77.43Z" transform="translate(-294.816 -55.748)" fill="#304477"/>
      <path id="Path_3482" data-name="Path 3482" d="M389.446,103.787a11.959,11.959,0,0,1,.56-6.208c.672-1.551-1.078-3.307-1.12-4.777s.745-1.834,1.12-1.568-.017,1.207.773,2.52a18.5,18.5,0,0,1,1.758,3.178,14.435,14.435,0,0,1-.322,3.2C391.93,101.3,392.033,104.831,389.446,103.787Z" transform="translate(-279.991 -65.629)" fill="#ffb1a5"/>
      <path id="Path_3483" data-name="Path 3483" d="M398.254,157.113a5.633,5.633,0,0,0,3.419-4.309c.344-3.15-.918-8.68-2.621-12.99-2.573-6.516-2.9-7.154-4.522-10.624,0,0-3.3,2.419-6.037,1.2,0,0-.182,2.879-.246,3.92-.249,3.979.319,7.84,1.03,13.057C389.913,152.05,393.046,158.818,398.254,157.113Z" transform="translate(-279.489 -93.014)" fill="#6e5fa8"/>
      <rect id="Rectangle_574" data-name="Rectangle 574" width="74.999" height="1.688" transform="translate(50.898 65.715)" fill="#282828"/>
      <rect id="Rectangle_575" data-name="Rectangle 575" width="26.736" height="1.688" transform="translate(50.898 65.715)" fill="#282828"/>
      <rect id="Rectangle_576" data-name="Rectangle 576" width="74.999" height="5.687" transform="translate(50.901 67.397)" fill="#3d3c3c"/>
      <path id="Path_3484" data-name="Path 3484" d="M186.66,247.393V243.24l3.413,2.075Z" transform="translate(-134.392 -175.129)" fill="#dcf7ff"/>
      <path id="Path_3485" data-name="Path 3485" d="M429.879,245.342v-1.033h1.033l0-.689H429.19v1.725Z" transform="translate(-309.01 -175.402)" fill="#dcf7ff"/>
      <path id="Path_3486" data-name="Path 3486" d="M437.81,244.309h1.03v1.022l.689,0V243.62H437.81Z" transform="translate(-315.216 -175.402)" fill="#dcf7ff"/>
      <path id="Path_3487" data-name="Path 3487" d="M430.912,253.263h-1.033V252.23l-.689,0v1.719h1.722Z" transform="translate(-309.01 -181.601)" fill="#dcf7ff"/>
      <path id="Path_3488" data-name="Path 3488" d="M438.833,252.183v1.044H437.8v.689h1.722V252.18Z" transform="translate(-315.209 -181.565)" fill="#dcf7ff"/>
      <path id="Path_3489" data-name="Path 3489" d="M527.536,314.228s-1.011,9.661-.9,12.469-.448,5.166,2.7,4.827,4.267-12.578,3.817-14.376S532.028,311.531,527.536,314.228Z" transform="translate(-379.165 -225.566)" fill="#db9f95"/>
      <path id="Path_3490" data-name="Path 3490" d="M457.636,358.2a62.761,62.761,0,0,0-12.562,1.378c-7.908,1.529-12.357,2.433-12.335,2.881s-.5,3.511.874,3.892,23.944-.216,28.153-1.445S466.767,358.633,457.636,358.2Z" transform="translate(-311.51 -257.895)" fill="#db9f95"/>
      <path id="Path_3491" data-name="Path 3491" d="M531.558,250.66s-2,1.366-4.06,6.681c-.515,1.324-2.848,9.21-2.848,9.21l2.36,1.011,4.6-2.7Z" transform="translate(-377.74 -180.471)" fill="#5f5098"/>
      <path id="Path_3492" data-name="Path 3492" d="M528.752,269.065a14.684,14.684,0,0,1-1.739,4.175c-1.274,2.022-3.727,4.48-3.427,8.067s3.36,5.183,3.576,7.731a66.158,66.158,0,0,1-1.347,12.578c-.448,1.2,5.6,2.394,10.033,2.022s11.231-1.5,11.6-1.873-.56-5.69.787-8.947,6.527-12.805,6.527-12.805-3.817-11-4.715-11.343S528.752,269.065,528.752,269.065Z" transform="translate(-376.955 -193.374)" fill="#6e5fa8"/>
      <path id="Path_3493" data-name="Path 3493" d="M549.184,238.038s0,2.7,3.755,2.473,7.3-4.231,7.3-4.231,4.791,4.267,8.91,7.412c3.313,2.52-15.121,11.906-15.121,11.906l-13.329-8.33s1.089-6.474,2.321-6.981A21.728,21.728,0,0,1,549.184,238.038Z" transform="translate(-389.296 -170.117)" fill="#6e5fa8"/>
      <path id="Path_3494" data-name="Path 3494" d="M620.842,261.69a54.634,54.634,0,0,0-5.021,4.074c-3.3,2.918-2.87,6.272-1.907,10.3a56.41,56.41,0,0,0,2.473,8.087s10.744-2.321,11.117-3.293S624.211,262.737,620.842,261.69Z" transform="translate(-441.509 -188.412)" fill="#5f5098"/>
      <path id="Path_3495" data-name="Path 3495" d="M575.406,374.37s-4.391.12-12.41.854-12.539,1.182-12.562,1.632-.84,3.444.482,3.959S574.76,383,579.072,382.2,584.451,375.711,575.406,374.37Z" transform="translate(-396.11 -269.54)" fill="#ffb1a5"/>
      <path id="Path_3496" data-name="Path 3496" d="M525.368,381.054l.028-.028s-5.023-.616-7.216-.616a12.072,12.072,0,0,0-3.92.672l1.459,3.707,11.063.336Z" transform="translate(-370.259 -273.889)" fill="#ffb1a5"/>
      <path id="Path_3497" data-name="Path 3497" d="M636.937,331.82a76.976,76.976,0,0,1-9.647,2.652c1.014,3.657,2.683,9.6,3.436,11.761,1.12,3.217.9,6.44,4.786,4.858,1.277-.521,2.61-1.347,2.848-4.307A59.93,59.93,0,0,0,636.937,331.82Z" transform="translate(-451.639 -238.905)" fill="#ffb1a5"/>
      <path id="Path_3498" data-name="Path 3498" d="M574.815,225.19c2.587-.154,5.085-2.117,6.381-3.315a7.658,7.658,0,0,1-1.159-1.924l-.02-4.951-8.339.431v6.922a1.563,1.563,0,0,1-.6.633C571.2,223.644,571.788,225.361,574.815,225.19Z" transform="translate(-411.169 -154.796)" fill="#ffb1a5"/>
      <path id="Path_3499" data-name="Path 3499" d="M573.25,216.194v3.92s5.852,2.657,8.3,1.26c1.274-.728.49-2.87.314-6.474Z" transform="translate(-412.731 -154.724)" fill="#2e2e2e"/>
      <path id="Path_3500" data-name="Path 3500" d="M551.722,157.173c-2.022-.087-3.892-2.783-5.026-5.225-1-2.153-1.8-7.423-1.579-10.893.409-6.44,3.36-14.9,11.761-13.32,13.841,2.6,9.061,12.435,7.387,16.367,0,0,2.2-1.369,2.363,1.537.182,3.268-1.574,3.962-3.122,3.685a22.6,22.6,0,0,1-1.005,2.615C562.027,152.723,557.379,157.411,551.722,157.173Z" transform="translate(-392.449 -91.828)" fill="#ffb1a5"/>
      <path id="Path_3501" data-name="Path 3501" d="M563.515,215.356a2.325,2.325,0,0,1-3.64.431c-.252-.28.218-.652.468-.367a1.731,1.731,0,0,0,2.691-.426c.193-.33.664.034.473.361Z" transform="translate(-403.049 -154.699)" fill="#282828"/>
      <path id="Path_3502" data-name="Path 3502" d="M562.135,199.212c-.112,0-1.092.1-1.33-.342a16.764,16.764,0,0,1-.216-3.3.241.241,0,0,1,.238-.249.252.252,0,0,1,.241.252,22.191,22.191,0,0,0,.143,3.044,1.888,1.888,0,0,0,1.014.078.232.232,0,0,1,.224-.042.255.255,0,0,1,.154.316c-.053.176-.235.218-.428.241Zm0-.4Z" transform="translate(-403.616 -140.627)" fill="#282828"/>
      <path id="Path_3503" data-name="Path 3503" d="M572.226,183.589a8.742,8.742,0,0,1,2.31-.053,5.548,5.548,0,0,1,1.291.56c.944.745-1.266-.406-2.767.23-.818.35-1.274.316-1.294-.092A.624.624,0,0,1,572.226,183.589Z" transform="translate(-411.662 -132.104)" fill="#282828"/>
      <ellipse id="Ellipse_254" data-name="Ellipse 254" cx="1.417" cy="0.938" rx="1.417" ry="0.938" transform="translate(160.922 55.868) rotate(-88.854)" fill="#282828"/>
      <ellipse id="Ellipse_255" data-name="Ellipse 255" cx="1.728" cy="1.63" rx="1.728" ry="1.63" transform="translate(161.941 56.356)" fill="#e691d0"/>
      <ellipse id="Ellipse_256" data-name="Ellipse 256" cx="1.417" cy="0.938" rx="1.417" ry="0.938" transform="translate(153.448 55.869) rotate(-89.14)" fill="#282828"/>
      <path id="Path_3504" data-name="Path 3504" d="M547.147,183.815a8.174,8.174,0,0,0-2.472.174c-.081.056-.081.448.154.49a5.116,5.116,0,0,1,1.719.21c.638.154,1.12,0,1.1-.4C547.617,183.927,547.4,183.876,547.147,183.815Z" transform="translate(-392.122 -132.322)" fill="#282828"/>
      <path id="Path_3505" data-name="Path 3505" d="M549.754,203.808a1.68,1.68,0,0,0-1.728-1.63,1.821,1.821,0,0,0-.666.126,17.543,17.543,0,0,0,.868,3.125A1.68,1.68,0,0,0,549.754,203.808Z" transform="translate(-394.091 -145.564)" fill="#e691d0"/>
      <path id="Path_3506" data-name="Path 3506" d="M557.008,136.941s-.2,2.3,4.6,1.778c3.987-.428,5.841.974,6.516,6.664.37,3.142-.521,14.1-.9,16.344s11.077.652,12.724-.994a12.861,12.861,0,0,0,2.845-5.99c.3-1.5-3.36-8.762-4.116-13.029s-1.35-9.621-6.065-12.917a14.015,14.015,0,0,0-11.68-2.506C557.722,126.892,555.022,132.17,557.008,136.941Z" transform="translate(-400.549 -90.677)" fill="#282828"/>
      <path id="Path_3507" data-name="Path 3507" d="M549.091,132.33a5.346,5.346,0,0,0-3.875,1.63c-1.7,1.758-2.8,8.274-2.585,9.453s3.6.767,5.337-1.31S549.435,132.837,549.091,132.33Z" transform="translate(-390.666 -95.275)" fill="#282828"/>
      <path id="Path_3508" data-name="Path 3508" d="M541.805,185.994a19.489,19.489,0,0,1,5.841-2.106,1.673,1.673,0,0,0,.028.26,1.571,1.571,0,0,0,.6-.636v-2.24a10.234,10.234,0,0,1-1.246.028c-2.022-.087-3.892-2.783-5.026-5.225a26.466,26.466,0,0,1-1.562-7.972c-.21-.062-.21-.426-.132-.482a.326.326,0,0,1,.106-.045,22.6,22.6,0,0,1,0-2.394,25.189,25.189,0,0,1,.6-4.113l-1.277,2.221s-1.179,14.732-1.179,18.324C538.56,184.224,540.3,185.252,541.805,185.994Z" transform="translate(-387.755 -115.967)" fill="#282828"/>
      <path id="Path_3509" data-name="Path 3509" d="M535.049,389.83l-18.419.056v3.3h21.564Z" transform="translate(-371.966 -280.671)" fill="#8877cb"/>
      <path id="Path_3510" data-name="Path 3510" d="M351.718,330.689H394.37l-8-27.629H345.11Z" transform="translate(-248.474 -218.198)" fill="#5f5098"/>
      <path id="Path_3511" data-name="Path 3511" d="M492.46,298.395l1.686-1.815,8,27.629-1.686,1.814Z" transform="translate(-354.564 -213.533)" fill="#8877cb"/>
      <path id="Path_3512" data-name="Path 3512" d="M345.11,298.395l1.686-1.815h41.26l-1.686,1.815Z" transform="translate(-248.474 -213.533)" fill="#6e5fa8"/>
      <ellipse id="Ellipse_257" data-name="Ellipse 257" cx="3.066" cy="3.699" rx="3.066" ry="3.699" transform="matrix(0.989, -0.148, 0.148, 0.989, 116.141, 95.796)" fill="#8877cb"/>
      <rect id="Rectangle_577" data-name="Rectangle 577" width="188.646" height="3.103" transform="translate(0 112.385)" fill="#282828"/>
    </g>
  </g>
</svg>
