<svg xmlns="http://www.w3.org/2000/svg" xmlns:xlink="http://www.w3.org/1999/xlink" width="199.695" height="124.42" viewBox="0 0 199.695 124.42">
  <defs>
    <clipPath id="clip-path">
      <rect id="Rectangle_560" data-name="Rectangle 560" width="141.867" height="102.764" fill="none"/>
    </clipPath>
  </defs>
  <g id="Layer_2" data-name="Layer 2" transform="translate(0.005)">
    <g id="OBJECTS" transform="translate(0.98)">
      <line id="Line_35" data-name="Line 35" x2="154.254" transform="translate(21.583 38.109)" fill="none" stroke="#ded8d5" stroke-miterlimit="10" stroke-width="1.97"/>
      <rect id="Rectangle_548" data-name="Rectangle 548" width="154.254" height="95.437" rx="6.52" transform="translate(21.583 27.998)" fill="none" stroke="#ded8d5" stroke-miterlimit="10" stroke-width="1.97"/>
      <path id="Path_3212" data-name="Path 3212" d="M97.443,104.182a1.412,1.412,0,1,1-1.412-1.412,1.412,1.412,0,0,1,1.412,1.412Z" transform="translate(-65.695 -71.025)" fill="#ffb1a5"/>
      <path id="Path_3213" data-name="Path 3213" d="M115.193,104.182a1.412,1.412,0,1,1-1.409-1.412A1.412,1.412,0,0,1,115.193,104.182Z" transform="translate(-77.962 -71.025)" fill="#ead254"/>
      <path id="Path_3214" data-name="Path 3214" d="M132.953,104.182a1.412,1.412,0,1,1-1.412-1.412A1.412,1.412,0,0,1,132.953,104.182Z" transform="translate(-90.236 -71.025)" fill="#00857b"/>
      <rect id="Rectangle_549" data-name="Rectangle 549" width="39.953" height="37.228" rx="5.99" transform="translate(157.772 34.939)" fill="#ededed"/>
      <rect id="Rectangle_550" data-name="Rectangle 550" width="39.953" height="37.228" rx="5.99" transform="translate(157.772 34.939)" fill="none" stroke="#ded8d5" stroke-miterlimit="10" stroke-width="1.97"/>
      <rect id="Rectangle_551" data-name="Rectangle 551" width="22.562" height="19.161" rx="6.02" transform="translate(189.091 62.484) rotate(180)" fill="#c98bd2"/>
      <path id="Path_3215" data-name="Path 3215" d="M569.97,165.954H559.56V158.97h10.41v6.984Z" transform="translate(-387.017 -109.865)" fill="none" stroke="#fff" stroke-linecap="round" stroke-linejoin="round" stroke-width="1.65"/>
      <path id="Path_3216" data-name="Path 3216" d="M559.56,158.97l5.2,4.1,5.2-4.1" transform="translate(-387.017 -109.865)" fill="none" stroke="#fff" stroke-linecap="round" stroke-linejoin="round" stroke-width="1.65"/>
      <rect id="Rectangle_552" data-name="Rectangle 552" width="38.102" height="33.673" rx="5.71" transform="translate(0 66.57)" fill="#ededed"/>
      <rect id="Rectangle_553" data-name="Rectangle 553" width="38.102" height="33.673" rx="5.71" transform="translate(0 66.57)" fill="none" stroke="#ded8d5" stroke-miterlimit="10" stroke-width="1.97"/>
      <rect id="Rectangle_554" data-name="Rectangle 554" width="22.034" height="21.419" rx="6.64" transform="translate(7.948 72.337)" fill="#ffb1a5"/>
      <path id="Path_3217" data-name="Path 3217" d="M44.469,251.179a6.227,6.227,0,1,0,8.807,0A6.227,6.227,0,0,0,44.469,251.179Zm8.788.9h-1.98A12.29,12.29,0,0,0,50.5,250.2a5.646,5.646,0,0,1,2.752,1.872Zm-6.672,3.145a9.943,9.943,0,0,1,.309-2.416h3.985a10.1,10.1,0,0,1,.293,2.416Zm4.55.729a11.989,11.989,0,0,1-.426,2.412H47.036a11.989,11.989,0,0,1-.426-2.412Zm-2.261-5.986a5.48,5.48,0,0,1,.877.071,11.345,11.345,0,0,1,.905,2.042H47.079a11.347,11.347,0,0,1,.927-2.042A5.493,5.493,0,0,1,48.874,249.962Zm-1.634.241a12.292,12.292,0,0,0-.772,1.872H44.481A5.647,5.647,0,0,1,47.24,250.2Zm-3.25,2.6h2.273a10.811,10.811,0,0,0-.309,2.416h-2.69a5.582,5.582,0,0,1,.726-2.416Zm0,5.56a5.56,5.56,0,0,1-.723-2.412h2.69a11.661,11.661,0,0,0,.377,2.412Zm.494.729h2.067a15.48,15.48,0,0,0,.763,1.9,5.619,5.619,0,0,1-2.833-1.9Zm4.393,2.113a5.8,5.8,0,0,1-.738-.046,16.844,16.844,0,0,1-.871-2.066h3.209a16.844,16.844,0,0,1-.871,2.066,5.8,5.8,0,0,1-.732.043Zm1.544-.219a15.48,15.48,0,0,0,.766-1.894h2.07a5.619,5.619,0,0,1-2.826,1.9Zm3.327-2.623H51.4a11.877,11.877,0,0,0,.38-2.412h2.709a5.56,5.56,0,0,1-.735,2.409Zm.744-3.145H51.8a10.984,10.984,0,0,0-.309-2.416h2.273A5.582,5.582,0,0,1,54.493,255.22Z" transform="translate(-29.775 -172.337)" fill="#fff"/>
      <path id="Path_3218" data-name="Path 3218" d="M39.268,56.885H7.931A1.171,1.171,0,0,1,6.76,55.714h0A1.174,1.174,0,0,1,7.931,54.54H39.268a1.174,1.174,0,0,1,1.174,1.174h0A1.174,1.174,0,0,1,39.268,56.885Z" transform="translate(-4.975 -37.693)" fill="#c98bd2"/>
      <path id="Path_3219" data-name="Path 3219" d="M602.585,304.571h-15.2a1.171,1.171,0,0,1-1.171-1.171h0a1.168,1.168,0,0,1,1.171-1.171h15.2a1.171,1.171,0,0,1,1.171,1.165h0A1.174,1.174,0,0,1,602.585,304.571Z" transform="translate(-405.434 -208.872)" fill="#56dfed"/>
      <rect id="Rectangle_555" data-name="Rectangle 555" width="3.626" height="3.512" rx="1.756" transform="translate(183.763 105.742)" fill="#c98bd2"/>
      <rect id="Rectangle_556" data-name="Rectangle 556" width="3.626" height="3.512" rx="1.756" transform="translate(7.676 113.859)" fill="#ffb1a5"/>
      <rect id="Rectangle_557" data-name="Rectangle 557" width="32.777" height="9.409" rx="3.01" transform="translate(120.751 8.572)" fill="#ffb1a5"/>
      <line id="Line_36" data-name="Line 36" x2="21.987" transform="translate(125.214 11.923)" fill="none" stroke="#fff" stroke-miterlimit="10" stroke-width="1.18"/>
      <line id="Line_37" data-name="Line 37" x2="8.955" transform="translate(125.214 14.181)" fill="none" stroke="#fff" stroke-miterlimit="10" stroke-width="1.18"/>
      <path id="Path_3220" data-name="Path 3220" d="M403.44,54.76v3.67l4.612-3.67Z" transform="translate(-279.121 -37.845)" fill="#ffb1a5"/>
      <path id="Path_3221" data-name="Path 3221" d="M194.115,0h15.6a2,2,0,0,1,2,2V16.545a2,2,0,0,1-2,1.989H194.752A2.632,2.632,0,0,1,192.12,15.9V2a2,2,0,0,1,2-2Z" transform="translate(-133.077)" fill="#6e5fa8"/>
      <path id="Path_3222" data-name="Path 3222" d="M219,19.833l-1.124-1.115a.973.973,0,0,0-.717-.34,1.041,1.041,0,0,0-.717.309l-.636.639-.12-.062a1.677,1.677,0,0,1-.2-.1,6.863,6.863,0,0,1-1.656-1.514,3.657,3.657,0,0,1-.516-.815c.158-.142.309-.309.436-.439l.179-.179a.972.972,0,0,0,0-1.477l-.556-.556a1.956,1.956,0,0,1-.179-.2l-.38-.377a1.022,1.022,0,0,0-.717-.309.986.986,0,0,0-.717.309l-.7.695a1.606,1.606,0,0,0-.457.976,3.639,3.639,0,0,0,.259,1.517,8.15,8.15,0,0,0,1.544,2.61,9.724,9.724,0,0,0,3.188,2.49,5.31,5.31,0,0,0,1.792.537h.139a1.578,1.578,0,0,0,1.2-.519l.022-.019a2.8,2.8,0,0,1,.374-.349l.259-.259a1,1,0,0,0,0-1.455Zm-.46,1.035-.238.241c-.139.117-.259.259-.4.4a.954.954,0,0,1-.717.309h-.1a4.182,4.182,0,0,1-1.544-.476,9.094,9.094,0,0,1-2.969-2.332,8.63,8.63,0,0,1-1.452-2.409,2.472,2.472,0,0,1-.241-1.236.846.846,0,0,1,.281-.578l.676-.676a.4.4,0,0,1,.278-.142.374.374,0,0,1,.278.142l.349.334a1.706,1.706,0,0,0,.2.2l.559.559a.469.469,0,0,1,.139.278.414.414,0,0,1-.139.278l-.179.179-.5.5-.019.019a.432.432,0,0,0-.12.5v.022a4.561,4.561,0,0,0,.658,1.075,7.355,7.355,0,0,0,1.813,1.653,1.329,1.329,0,0,0,.259.139,1.659,1.659,0,0,1,.2.1l.022.019a.457.457,0,0,0,.556-.1l.7-.7a.423.423,0,0,1,.278-.139.414.414,0,0,1,.259.139l1.115,1.115a.377.377,0,0,1,0,.59Z" transform="translate(-145.592 -9.192)" fill="#fff"/>
      <g id="Group_1230" data-name="Group 1230" transform="translate(35.792 20.421)" clip-path="url(#clip-path)">
        <path id="Path_3223" data-name="Path 3223" d="M406.534,283.921l-11.278-1.5.09,1.118-9.641,1.285s-6.215,15.59-.744,49.874H392.8l2.823-34.766h1l2.734,34.766h7.84C412.687,300.413,406.534,283.921,406.534,283.921Z" transform="translate(-300.586 -215.603)" fill="#8e716c"/>
        <line id="Line_38" data-name="Line 38" x2="8.183" transform="translate(91.461 84.329)" fill="none" stroke="#282828" stroke-linecap="round" stroke-linejoin="round" stroke-width="1.23"/>
        <path id="Path_3224" data-name="Path 3224" d="M465.24,230.6c-.964-1.544-6.382-1.486-6.669-1.52-1.464-.173.927,11.485,3.988,21.675a3.423,3.423,0,0,0,4.612,2.162l.059-.028a3.423,3.423,0,0,0,2.033-3.756C467.813,241.432,466.355,232.387,465.24,230.6Z" transform="translate(-352.709 -178.735)" fill="#ffb1a5"/>
        <path id="Path_3225" data-name="Path 3225" d="M468.4,242.345l-6.916,2.684-.649-3.28L468,239.96Z" transform="translate(-354.583 -186.258)" fill="#f3978e"/>
        <path id="Path_3226" data-name="Path 3226" d="M482.568,262.437s-3.277,4.4-3.12,4.2,2.57-7.1,2.57-7.1Z" transform="translate(-367.439 -199.783)" fill="#f3978e"/>
        <path id="Path_3227" data-name="Path 3227" d="M482.1,249.79l-9.393,12.171a3.454,3.454,0,0,0,.856,5.007h0a3.45,3.45,0,0,0,4.918-1.236l7.818-14.425Z" transform="translate(-362.29 -193.052)" fill="#ffb1a5"/>
        <path id="Path_3228" data-name="Path 3228" d="M506.6,242.979a3.877,3.877,0,1,1,4.877-2.5A3.877,3.877,0,0,1,506.6,242.979Z" transform="translate(-384.346 -183.115)" fill="#ffb1a5"/>
        <path id="Path_3229" data-name="Path 3229" d="M511.035,235.412s1.06-1.1-.822-1.872-4.207-.6-5.693,3.009Z" transform="translate(-384.77 -181.565)" fill="#ffb1a5"/>
        <path id="Path_3230" data-name="Path 3230" d="M518.827,215.455l3.932,1.705a.4.4,0,0,1,.179.578l-5.174,9.665a.494.494,0,0,1-.618.238l-3.935-1.705a.4.4,0,0,1-.176-.581l5.174-9.665A.494.494,0,0,1,518.827,215.455Z" transform="translate(-390.613 -169.3)" fill="#372f5f"/>
        <path id="Path_3231" data-name="Path 3231" d="M517.614,214.932l3.935,1.705a.408.408,0,0,1,.176.581l-5.174,9.665a.494.494,0,0,1-.618.235L512,225.413a.4.4,0,0,1-.164-.6l5.174-9.665a.5.5,0,0,1,.6-.219Z" transform="translate(-389.777 -168.94)" fill="#261b43"/>
        <path id="Path_3232" data-name="Path 3232" d="M519.826,218.16l3.457,1.5-4.216,7.877-3.456-1.5Z" transform="translate(-392.434 -171.192)" fill="#e6e6e6"/>
        <path id="Path_3233" data-name="Path 3233" d="M523.283,219.658l-7.673,6.379,4.216-7.877Z" transform="translate(-392.434 -171.192)" fill="#fff"/>
        <path id="Path_3234" data-name="Path 3234" d="M512.209,233.33a6.252,6.252,0,0,1,1.665.618.89.89,0,0,1,.429.988h0a.877.877,0,0,1-.747.661l-2.045.259s-1.066,1.853-2.471,2.045l1.279-3.228Z" transform="translate(-387.894 -181.676)" fill="#ffb1a5"/>
        <path id="Path_3235" data-name="Path 3235" d="M394.922,184.4c-.225,0,14.5,2.036,16.931,18.843l-7.642,1.171-1.544,12.665H381.352l-4.232-23.421a26.644,26.644,0,0,1,13.493-9.267Z" transform="translate(-296.723 -147.854)" fill="#69a5ff"/>
        <line id="Line_39" data-name="Line 39" y1="7.33" x2="0.664" transform="translate(107.487 49.213)" fill="none" stroke="#282828" stroke-linecap="round" stroke-linejoin="round" stroke-width="1.23"/>
        <path id="Path_3236" data-name="Path 3236" d="M419.846,172.142V166.31h-6.833v5.9a12.9,12.9,0,0,0-1.853.744l5.332,3.175,5.449-3.175A8.922,8.922,0,0,0,419.846,172.142Z" transform="translate(-320.249 -135.359)" fill="#ffb1a5"/>
        <path id="Path_3237" data-name="Path 3237" d="M417,164.6s1.236,3.259,4.5,2.978c3.012-.259,2.533-4.776,2.533-4.776Z" transform="translate(-324.285 -132.933)" fill="#282828"/>
        <path id="Path_3238" data-name="Path 3238" d="M401.293,145.429c-1.072.97-3.466-2.715-2.431-3.75s1.826.59,1.826.59l.46,1.1.349,1.489.083.392Z" transform="translate(-311.574 -118.098)" fill="#f3978e"/>
        <path id="Path_3239" data-name="Path 3239" d="M401.05,146.56s.809-.365,1.544.809" transform="translate(-313.262 -121.672)" fill="none" stroke="#282828" stroke-linecap="round" stroke-linejoin="round" stroke-width="0.99"/>
        <path id="Path_3240" data-name="Path 3240" d="M447.736,145.424c.985,1.056,3.685-2.412,2.74-3.531s-1.853.432-1.853.432l-.553,1.056-.476,1.455-.114.383Z" transform="translate(-345.349 -118.204)" fill="#f3978e"/>
        <path id="Path_3241" data-name="Path 3241" d="M451.644,146.685s-.775-.432-1.594.68" transform="translate(-347.126 -121.738)" fill="none" stroke="#282828" stroke-linecap="round" stroke-linejoin="round" stroke-width="0.99"/>
        <path id="Path_3242" data-name="Path 3242" d="M401.22,112.728c0,4.877,3.707,7.191,8.306,7.191s8.309-2.314,8.309-7.191a8.309,8.309,0,0,0-16.616,0Z" transform="translate(-313.379 -92.662)" fill="#282828"/>
        <path id="Path_3243" data-name="Path 3243" d="M404.859,115.606a33.321,33.321,0,0,0,.846,7.414,6.445,6.445,0,0,0,3.222,4.062l.309.182a5.656,5.656,0,0,0,5.755.065h0A6.467,6.467,0,0,0,418.4,123a48.362,48.362,0,0,0,.775-7.386s.664-7.562-7.052-7.414S404.859,115.606,404.859,115.606Z" transform="translate(-315.891 -95.201)" fill="#ffb1a5"/>
        <path id="Path_3244" data-name="Path 3244" d="M426.52,146.14v1.044a.454.454,0,0,0,.59.436l.479-.13" transform="translate(-330.864 -121.419)" fill="none" stroke="#282828" stroke-linecap="round" stroke-linejoin="round" stroke-width="1.23"/>
        <path id="Path_3245" data-name="Path 3245" d="M413.966,131.827l-3.836.9s.176-.976,1.745-1.331S413.966,131.827,413.966,131.827Z" transform="translate(-319.537 -111.164)" fill="#282828"/>
        <path id="Path_3246" data-name="Path 3246" d="M433.57,131.827l3.707.9s-.17-.976-1.683-1.331S433.57,131.827,433.57,131.827Z" transform="translate(-335.736 -111.164)" fill="#282828"/>
        <circle id="Ellipse_234" data-name="Ellipse 234" cx="0.646" cy="0.646" r="0.646" transform="translate(92.326 22.834)" fill="#282828"/>
        <path id="Path_3247" data-name="Path 3247" d="M436.877,140.682a.649.649,0,1,1-.649-.642A.649.649,0,0,1,436.877,140.682Z" transform="translate(-337.125 -117.203)" fill="#282828"/>
        <path id="Path_3248" data-name="Path 3248" d="M419.93,154.87h4.986A3.222,3.222,0,0,1,419.93,154.87Z" transform="translate(-326.31 -127.452)" fill="#fff"/>
        <circle id="Ellipse_235" data-name="Ellipse 235" cx="2.749" cy="2.749" r="2.749" transform="translate(88.813 23.731) rotate(-45)" fill="none" stroke="#c98bd2" stroke-miterlimit="10" stroke-width="0.7"/>
        <circle id="Ellipse_236" data-name="Ellipse 236" cx="2.749" cy="2.749" r="2.749" transform="translate(95.572 23.73) rotate(-45)" fill="none" stroke="#c98bd2" stroke-miterlimit="10" stroke-width="0.7"/>
        <path id="Path_3249" data-name="Path 3249" d="M425.86,142.364a.893.893,0,0,1,1.254,0" transform="translate(-330.408 -118.632)" fill="none" stroke="#c98bd2" stroke-miterlimit="10" stroke-width="1"/>
        <line id="Line_40" data-name="Line 40" x1="0.868" y1="0.025" transform="translate(89.083 23.708)" fill="none" stroke="#c98bd2" stroke-miterlimit="10" stroke-width="1.34"/>
        <line id="Line_41" data-name="Line 41" y1="0.025" x2="0.871" transform="translate(102.208 23.708)" fill="none" stroke="#c98bd2" stroke-miterlimit="10" stroke-width="1.34"/>
        <path id="Path_3250" data-name="Path 3250" d="M445.331,121.5s-3.089-4.17-2.372-8.4a6.079,6.079,0,0,1,2.885,4.127C446.44,120.2,445.331,121.5,445.331,121.5Z" transform="translate(-342.15 -98.585)" fill="#282828"/>
        <path id="Path_3251" data-name="Path 3251" d="M403.893,121.158s3.583-4.738,2.873-8.958a7.055,7.055,0,0,0-3.089,4.411A7.462,7.462,0,0,0,403.893,121.158Z" transform="translate(-314.928 -97.963)" fill="#282828"/>
        <path id="Path_3252" data-name="Path 3252" d="M416.882,110.665s-3.96,4.325-14.8,3.592c0,0,1.662-6.363,6.913-7.043C409.005,107.215,415.072,106.5,416.882,110.665Z" transform="translate(-313.973 -94.485)" fill="#282828"/>
        <circle id="Ellipse_237" data-name="Ellipse 237" cx="5.177" cy="5.177" r="5.177" transform="translate(96.707 15.396) rotate(-80.83)" fill="#282828"/>
        <path id="Path_3253" data-name="Path 3253" d="M191.411,281.863l-9.641-1.285.09-1.118-11.278,1.5s-6.153,16.492-.67,50.776h7.843l2.734-34.763h1l2.817,34.763h7.846C197.626,297.453,191.411,281.863,191.411,281.863Z" transform="translate(-151.949 -213.557)" fill="#282828"/>
        <path id="Path_3254" data-name="Path 3254" d="M186.41,113.321a17.774,17.774,0,0,1-3.237-5.841c-.954-2.7-4.074-1.6-4.074-1.6s-2.6-3.345-6.515-2.181-5.273,3.938-5.359,7.262-2.684,3.827-4.689,7.658c-3.54,6.762,2.422,12.458,13.283,10.879v-.108a11.358,11.358,0,0,0,3.975.374C192.838,128.989,191.581,119.4,186.41,113.321Z" transform="translate(-147.718 -91.918)" fill="#282828"/>
        <path id="Path_3255" data-name="Path 3255" d="M227.654,142.469c1.072.97,3.469-2.715,2.434-3.75s-1.826.59-1.826.59l-.463,1.1-.349,1.489-.08.392Z" transform="translate(-193.231 -116.052)" fill="#f3978e"/>
        <path id="Path_3256" data-name="Path 3256" d="M231.094,143.6s-.812-.365-1.544.809" transform="translate(-194.737 -119.627)" fill="none" stroke="#282828" stroke-linecap="round" stroke-linejoin="round" stroke-width="0.99"/>
        <path id="Path_3257" data-name="Path 3257" d="M180.71,142.464c-.985,1.056-3.682-2.412-2.74-3.531s1.869.432,1.869.432l.553,1.056.473,1.455.117.383Z" transform="translate(-158.954 -116.158)" fill="#f3978e"/>
        <path id="Path_3258" data-name="Path 3258" d="M180.38,143.727s.778-.429,1.594.68" transform="translate(-160.756 -119.695)" fill="none" stroke="#282828" stroke-linecap="round" stroke-linejoin="round" stroke-width="0.99"/>
        <path id="Path_3259" data-name="Path 3259" d="M197.2,109.768c0,4.881-3.707,7.191-8.309,7.191s-8.309-2.311-8.309-7.191a8.31,8.31,0,0,1,16.619,0Z" transform="translate(-160.894 -90.617)" fill="#282828"/>
        <rect id="Rectangle_558" data-name="Rectangle 558" width="6.836" height="8.85" transform="translate(24.545 30.037)" fill="#ffb1a5"/>
        <path id="Path_3260" data-name="Path 3260" d="M193.09,161.57s1.9,3.8,4.241,4.389a3.284,3.284,0,0,0,1.9-.111,4.066,4.066,0,0,0,2.187-3.089l.09-.831A8.8,8.8,0,0,1,193.09,161.57Z" transform="translate(-169.54 -132.083)" fill="#282828"/>
        <path id="Path_3261" data-name="Path 3261" d="M198.683,112.646a33.3,33.3,0,0,1-.846,7.414,6.418,6.418,0,0,1-3.222,4.062l-.309.182a5.65,5.65,0,0,1-5.755.065h0a6.4,6.4,0,0,1-3.4-4.325,48.8,48.8,0,0,1-.775-7.386s-.664-7.562,7.055-7.414S198.683,112.646,198.683,112.646Z" transform="translate(-163.509 -93.155)" fill="#ffb1a5"/>
        <path id="Path_3262" data-name="Path 3262" d="M205.81,144.5v.618a.454.454,0,0,0,.034.173.47.47,0,0,0,.556.256l.479-.127" transform="translate(-178.331 -120.286)" fill="none" stroke="#282828" stroke-linecap="round" stroke-linejoin="round" stroke-width="1.23"/>
        <path id="Path_3263" data-name="Path 3263" d="M211,129.966l4.105.97s-.185-1.053-1.853-1.439S211,129.966,211,129.966Z" transform="translate(-181.917 -109.847)" fill="#282828"/>
        <path id="Path_3264" data-name="Path 3264" d="M194.7,129.966l-4.158.97s.188-1.053,1.89-1.439S194.7,129.966,194.7,129.966Z" transform="translate(-167.777 -109.847)" fill="#282828"/>
        <path id="Path_3265" data-name="Path 3265" d="M196.317,138.046a.646.646,0,1,1-.19-.458A.649.649,0,0,1,196.317,138.046Z" transform="translate(-170.874 -115.379)" fill="#282828"/>
        <path id="Path_3266" data-name="Path 3266" d="M216.167,138.046a.646.646,0,1,1-.19-.458A.649.649,0,0,1,216.167,138.046Z" transform="translate(-184.592 -115.379)" fill="#282828"/>
        <path id="Path_3267" data-name="Path 3267" d="M197.83,151.39h5.678s-.4,1.56-2.975,1.56A3.012,3.012,0,0,1,197.83,151.39Z" transform="translate(-172.816 -125.047)" fill="#fff"/>
        <path id="Path_3268" data-name="Path 3268" d="M183.169,118.536s3.089-4.17,2.375-8.4a6.088,6.088,0,0,0-2.888,4.127C182.06,117.242,183.169,118.536,183.169,118.536Z" transform="translate(-162.207 -96.539)" fill="#282828"/>
        <path id="Path_3269" data-name="Path 3269" d="M224.1,117.764s-3.586-4.325-2.873-8.544a7.055,7.055,0,0,1,3.089,4.411C224.909,116.606,224.1,117.764,224.1,117.764Z" transform="translate(-188.922 -95.903)" fill="#282828"/>
        <path id="Path_3270" data-name="Path 3270" d="M185.55,107.707s3.54,4.757,14.382,4.016c0,0-1.236-6.8-6.487-7.463C193.439,104.26,187.372,103.528,185.55,107.707Z" transform="translate(-164.329 -92.441)" fill="#282828"/>
        <path id="Path_3271" data-name="Path 3271" d="M146.953,266.98c-.158.247,9.023-39.943,6.3-39.335-.25.056-5.023.5-5.733,1.94C145.464,233.77,144,266.671,144,266.671Z" transform="translate(-135.613 -177.742)" fill="#ffb1a5"/>
        <path id="Path_3272" data-name="Path 3272" d="M143.6,352.155s-1.48,6.867,4.114,7.617a.788.788,0,0,0,.828-.513v-.046a.788.788,0,0,0-.436-.97,2.857,2.857,0,0,1-1.625-3.778s.809-.1,1.254,1.409a.649.649,0,0,0,.911.4h0a.649.649,0,0,0,.352-.664c-.133-1.056-.664-3.6-2.7-4.281Z" transform="translate(-135.217 -263.226)" fill="#ffb1a5"/>
        <path id="Path_3273" data-name="Path 3273" d="M150.05,251.944s5.291,7.448,5.319,7.3,1.853-10.456,1.853-10.456l-6.419-2.78Z" transform="translate(-139.795 -190.439)" fill="#f3978e"/>
        <path id="Path_3274" data-name="Path 3274" d="M162.95,187.09c.225,0-13.073.238-15.5,17.026l7.642,1.171,1.544,12.665H177.95l4.232-23.421s-3.009-5.06-11.778-7.531Z" transform="translate(-137.998 -149.657)" fill="#fd6eba"/>
        <path id="Path_3275" data-name="Path 3275" d="M176.59,186.127s1.878,2.5,9.576,2.5c7.63,0,9.576-2.626,9.576-2.626a32.866,32.866,0,0,0-9.715-3.327A34.626,34.626,0,0,0,176.59,186.127Z" transform="translate(-158.137 -146.665)" fill="#ffb1a5"/>
        <path id="Path_3276" data-name="Path 3276" d="M261.29,366.06l.019,33.487h16.566l1.273-33.487Z" transform="translate(-216.673 -273.406)" fill="#005683"/>
        <path id="Path_3277" data-name="Path 3277" d="M337.777,366.06l-.019,33.487H321.193L319.92,366.06Z" transform="translate(-257.192 -273.406)" fill="#005683"/>
        <rect id="Rectangle_559" data-name="Rectangle 559" width="17.128" height="11.633" transform="translate(54.409 92.654)" fill="#005683"/>
        <line id="Line_42" data-name="Line 42" x2="11.812" transform="translate(56.803 104.287)" fill="none" stroke="#282828" stroke-linecap="round" stroke-linejoin="round" stroke-width="1.4"/>
        <path id="Path_3278" data-name="Path 3278" d="M386.744,271.46c1.026,11.346-.056,19.615.244,40.493l-9.885.414-1.473-39.082Z" transform="translate(-295.694 -208.028)" fill="#ffb1a5"/>
        <path id="Path_3279" data-name="Path 3279" d="M379.57,287.252s6.122-.559,10.308-3.321l-.111-2.431-10.194,1.39Z" transform="translate(-298.417 -214.967)" fill="#f3978e"/>
        <path id="Path_3280" data-name="Path 3280" d="M347.77,186.88s19.461,4.893,22.97,29.577c0,0-9.517,4.127-19.056,2.351l2.147-8.254Z" transform="translate(-276.44 -149.575)" fill="#6e5fa8"/>
        <path id="Path_3281" data-name="Path 3281" d="M146.5,220.11l14.481,17.1-4.433,12.479s-11.006-15.3-15.951-27.127Z" transform="translate(-133.264 -172.54)" fill="#ffb1a5"/>
        <path id="Path_3282" data-name="Path 3282" d="M137.746,199.562s-5.084,2.873-6.379,1.835c-2.261-1.816-4.127-8.464-4.127-8.464s9.5-3.6,9.418-3.444S137.746,199.562,137.746,199.562Z" transform="translate(-124.031 -151.374)" fill="#ffb1a5"/>
        <path id="Path_3283" data-name="Path 3283" d="M157.394,201.326c-.09-.513,1.884-6.033,2.561-8.105a.908.908,0,0,0-.723-1.149h0a1.05,1.05,0,0,0-1.174.482l-2.388,4.074Z" transform="translate(-143.679 -153.138)" fill="#ffb1a5"/>
        <path id="Path_3284" data-name="Path 3284" d="M152.725,182.7l-1.637-8.146a1.022,1.022,0,0,0-1.183-.812h0a.88.88,0,0,0-.726.995l.714,6.067Z" transform="translate(-139.187 -140.485)" fill="#ffb1a5"/>
        <path id="Path_3285" data-name="Path 3285" d="M140.984,178.551l-2.224-5.82a1.019,1.019,0,0,0-1.263-.618h0a.883.883,0,0,0-.581,1.044l1.65,6.722Z" transform="translate(-130.7 -139.336)" fill="#ffb1a5"/>
        <path id="Path_3286" data-name="Path 3286" d="M131.607,184.411l-2.814-5.718a1.121,1.121,0,0,0-1.427-.547h0a.973.973,0,0,0-.5,1.288l2.243,5.406Z" transform="translate(-123.712 -143.483)" fill="#ffb1a5"/>
        <path id="Path_3287" data-name="Path 3287" d="M122.13,190.278l-2.209-3.5a.791.791,0,0,1,.386-1.056h0a.9.9,0,0,1,1.1.309l2.9,4.016Z" transform="translate(-118.92 -148.719)" fill="#ffb1a5"/>
        <path id="Path_3288" data-name="Path 3288" d="M151.064,200.786s-3.314-.346-3.654,4.071" transform="translate(-137.97 -159.181)" fill="none" stroke="#282828" stroke-linecap="round" stroke-linejoin="round" stroke-width="1.53"/>
        <path id="Path_3289" data-name="Path 3289" d="M182.73,242.265s2.724,9.424,8.152,8.17,13.885-12.844,13.885-12.844L202.873,217.8l-15.232,18.747Z" transform="translate(-162.38 -170.943)" fill="#ffb1a5"/>
        <path id="Path_3290" data-name="Path 3290" d="M213.93,255.833s5.14,7.756,9.529,10.5l2.87-3.626-11.077-8.569Z" transform="translate(-183.942 -196.058)" fill="#f3978e"/>
        <path id="Path_3291" data-name="Path 3291" d="M234.986,185.5s-15.1,3.4-23.146,20.949c0,0,4.862,7.327,12.665,10.583l5.217-6.394Z" transform="translate(-182.498 -148.621)" fill="#6e5fa8"/>
        <path id="Path_3292" data-name="Path 3292" d="M265.277,182.391a37.806,37.806,0,0,0-9.607,7.04l1.165,51.3H294l-.12-51.02a39.041,39.041,0,0,0-9.761-6.82C279.807,180.976,269.468,180.241,265.277,182.391Z" transform="translate(-212.789 -145.567)" fill="#6e5fa8"/>
        <path id="Path_3293" data-name="Path 3293" d="M327,232.77h10.339v5.168a5.171,5.171,0,0,1-5.171,5.171h0A5.171,5.171,0,0,1,327,237.938Z" transform="translate(-262.085 -181.289)" fill="none" stroke="#282828" stroke-linecap="round" stroke-linejoin="round" stroke-width="1.4"/>
        <line id="Line_43" data-name="Line 43" y1="16.779" x2="0.482" transform="translate(81.153 52.645)" fill="none" stroke="#282828" stroke-linecap="round" stroke-linejoin="round" stroke-width="1.4"/>
        <line id="Line_44" data-name="Line 44" x1="0.803" y1="14.546" transform="translate(42.649 52.083)" fill="none" stroke="#282828" stroke-linecap="round" stroke-linejoin="round" stroke-width="1.4"/>
        <path id="Path_3294" data-name="Path 3294" d="M284.329,94.351l-1.544-7.664a5.4,5.4,0,0,1-.034-2.5c.491-1.5,2.3-4.374,5.378-3.055l.667,3.033s-3.2.646-4.485,4.834Z" transform="translate(-231.406 -76.262)" fill="#282828"/>
        <path id="Path_3295" data-name="Path 3295" d="M289.405,87c-.056,1.007-.945,5.415-4.071,7.018C285.334,94.021,282.6,88.152,289.405,87Z" transform="translate(-232.914 -80.547)" fill="#282828"/>
        <path id="Path_3296" data-name="Path 3296" d="M300.381,151.634h0V138.62h-12v13.014l-3.574,1.622s.84,5.4,9.7,5.517,9.749-5.251,9.749-5.251Z" transform="translate(-232.928 -116.222)" fill="#ffb1a5"/>
        <path id="Path_3297" data-name="Path 3297" d="M300.46,73.777s2.2-5.81,8.992-2.721c4.111,1.853,5.251,4.374,5.752,6.15a7.15,7.15,0,0,1,.185,2.073L313.746,87l-6.413-10.682-6.206.491Z" transform="translate(-243.743 -68.902)" fill="#282828"/>
        <path id="Path_3298" data-name="Path 3298" d="M341.86,122.813a1.992,1.992,0,0,1,2.471-.655c1.662.633.927,4.686-1.591,5.2a1.986,1.986,0,0,1-1.6-.417S341.761,123.95,341.86,122.813Z" transform="translate(-271.858 -104.724)" fill="#f3978e"/>
        <path id="Path_3299" data-name="Path 3299" d="M345.071,127.078s-1.4-.466-2.391,1.591" transform="translate(-272.922 -108.214)" fill="none" stroke="#282828" stroke-linecap="round" stroke-linejoin="round" stroke-width="1.4"/>
        <path id="Path_3300" data-name="Path 3300" d="M280.656,122.813a1.992,1.992,0,0,0-2.471-.655c-1.662.633-.927,4.686,1.588,5.2a1.986,1.986,0,0,0,1.6-.417S280.752,123.95,280.656,122.813Z" transform="translate(-227.733 -104.724)" fill="#f3978e"/>
        <path id="Path_3301" data-name="Path 3301" d="M281.23,127.078s1.4-.466,2.388,1.591" transform="translate(-230.454 -108.214)" fill="none" stroke="#282828" stroke-linecap="round" stroke-linejoin="round" stroke-width="1.4"/>
        <path id="Path_3302" data-name="Path 3302" d="M304.993,92.8c0,2.443-.241,7.553-1.742,10.586a7.475,7.475,0,0,1-6.8,4.473c-3.055.09-5.335-1.087-7.16-4.782s-1.736-10.231-1.736-10.231,0-8.726,8.624-8.726C305.264,84.12,304.993,92.8,304.993,92.8Z" transform="translate(-234.827 -78.557)" fill="#ffb1a5"/>
        <path id="Path_3303" data-name="Path 3303" d="M296.67,151.38s1,5.1,5.443,5.687c5.106.673,6.465-5.56,6.465-5.56a8.115,8.115,0,0,1-5.826,2.833A7.8,7.8,0,0,1,296.67,151.38Z" transform="translate(-241.124 -125.04)" fill="#282828"/>
        <path id="Path_3304" data-name="Path 3304" d="M313.79,124v2.02a.637.637,0,0,0,.046.244.652.652,0,0,0,.775.361l.67-.179" transform="translate(-252.956 -106.118)" fill="none" stroke="#282828" stroke-linecap="round" stroke-linejoin="round" stroke-width="1.4"/>
        <path id="Path_3305" data-name="Path 3305" d="M302.025,119.075a.788.788,0,1,1-.788-.785.788.788,0,0,1,.788.785Z" transform="translate(-243.737 -102.172)" fill="#282828"/>
        <path id="Path_3306" data-name="Path 3306" d="M325.855,119.075a.788.788,0,1,1-.788-.785A.788.788,0,0,1,325.855,119.075Z" transform="translate(-260.206 -102.172)" fill="#282828"/>
        <path id="Path_3307" data-name="Path 3307" d="M320.33,106.4l5.279,1.365s-.241-1.483-2.4-2.02S320.33,106.4,320.33,106.4Z" transform="translate(-257.476 -93.408)" fill="#282828"/>
        <path id="Path_3308" data-name="Path 3308" d="M297.9,106.4l-5.279,1.365s.241-1.483,2.4-2.02S297.9,106.4,297.9,106.4Z" transform="translate(-238.325 -93.408)" fill="#282828"/>
        <path id="Path_3309" data-name="Path 3309" d="M306.31,137.08a4.936,4.936,0,0,0,2.826.6,7.154,7.154,0,0,0,3.024-.6" transform="translate(-247.786 -115.158)" fill="none" stroke="#282828" stroke-linecap="round" stroke-linejoin="round" stroke-width="1.4"/>
        <circle id="Ellipse_238" data-name="Ellipse 238" cx="3.336" cy="3.336" r="3.336" transform="translate(53.955 13.795)" fill="none" stroke="#fff" stroke-miterlimit="10" stroke-width="1"/>
        <circle id="Ellipse_239" data-name="Ellipse 239" cx="3.336" cy="3.336" r="3.336" transform="translate(62.15 13.795)" fill="none" stroke="#fff" stroke-miterlimit="10" stroke-width="1"/>
        <path id="Path_3310" data-name="Path 3310" d="M313.12,120.836a1.085,1.085,0,0,1,1.523,0" transform="translate(-252.493 -103.704)" fill="none" stroke="#fff" stroke-miterlimit="10" stroke-width="1"/>
        <line id="Line_45" data-name="Line 45" x1="1.118" y1="0.028" transform="translate(52.837 17.104)" fill="none" stroke="#fff" stroke-miterlimit="10" stroke-width="1.95"/>
        <line id="Line_46" data-name="Line 46" y1="0.019" x2="1.248" transform="translate(68.822 17.113)" fill="none" stroke="#fff" stroke-miterlimit="10" stroke-width="1.95"/>
        <path id="Path_3311" data-name="Path 3311" d="M296.67,83.324s1.6,4.553,8.831,4.414c4.911-.1,6.085,3.46,6.085,3.46s-.856-7.948-1.078-7.874-7.475-1.934-7.475-1.934Z" transform="translate(-241.124 -76.67)" fill="#282828"/>
      </g>
    </g>
  </g>
</svg>
