<svg xmlns="http://www.w3.org/2000/svg" width="76.73" height="53.537" viewBox="0 0 76.73 53.537">
  <g id="mail" transform="translate(0 -49.302)">
    <path id="Path_3513" data-name="Path 3513" d="M129.019,82.217,115.836,50.392a1.764,1.764,0,0,0-2.3-.955L69.635,67.62a1.764,1.764,0,0,0-.955,2.3L81.865,101.75a1.762,1.762,0,0,0,2.3.955l43.894-18.183A1.764,1.764,0,0,0,129.019,82.217Zm-27.512.265L74.674,69.352l36.52-15.127Zm.245,4.048a1.764,1.764,0,0,0,2.444-1.012l3.78-11.027,15.195,8.239L86.362,97.977l4.919-16.571Zm22.165-7.409-14.781-8.015,5.19-15.14ZM73.69,72.8l14.377,7.035-4.785,16.12Z" transform="translate(-52.423)" fill="#6e5fa8"/>
    <path id="Path_3514" data-name="Path 3514" d="M1.764,155.144H12a1.764,1.764,0,1,0,0-3.528H1.764a1.764,1.764,0,1,0,0,3.528Z" transform="translate(0 -78.248)" fill="#6e5fa8"/>
    <path id="Path_3515" data-name="Path 3515" d="M19.305,236.893H1.764a1.764,1.764,0,1,0,0,3.528H19.305a1.764,1.764,0,1,0,0-3.528Z" transform="translate(0 -143.466)" fill="#6e5fa8"/>
    <path id="Path_3516" data-name="Path 3516" d="M1.764,197.782H15.656a1.764,1.764,0,0,0,0-3.528H1.764a1.764,1.764,0,0,0,0,3.528Z" transform="translate(0 -110.856)" fill="#6e5fa8"/>
  </g>
</svg>
