<svg xmlns="http://www.w3.org/2000/svg" xmlns:xlink="http://www.w3.org/1999/xlink" width="138.581" height="133.76" viewBox="0 0 138.581 133.76">
  <defs>
    <linearGradient id="linear-gradient" x1="0.136" y1="1.082" x2="0.58" y2="0.085" gradientUnits="objectBoundingBox">
      <stop offset="0" stop-color="#201b59" stop-opacity="0.91"/>
      <stop offset="0.56" stop-color="#fc0" stop-opacity="0"/>
    </linearGradient>
    <linearGradient id="linear-gradient-2" x1="0.122" y1="0.339" x2="0.816" y2="0.77" xlink:href="#linear-gradient"/>
    <linearGradient id="linear-gradient-3" x1="-0.556" y1="-1.922" x2="-1.631" y2="-0.878" gradientUnits="objectBoundingBox">
      <stop offset="0.27" stop-color="#201b59" stop-opacity="0.91"/>
      <stop offset="0.56" stop-color="#ff735f" stop-opacity="0"/>
    </linearGradient>
    <linearGradient id="linear-gradient-4" x1="0.822" y1="1.348" x2="0.246" y2="0.055" xlink:href="#linear-gradient-3"/>
    <linearGradient id="linear-gradient-5" x1="0.811" y1="0.646" x2="-0.035" y2="-0.005" gradientUnits="objectBoundingBox">
      <stop offset="0" stop-color="#fff"/>
      <stop offset="0.55" stop-color="#fff" stop-opacity="0.302"/>
    </linearGradient>
  </defs>
  <g id="Layer_2" data-name="Layer 2" transform="translate(-3.42 -0.667)">
    <g id="OBJEKTS" transform="translate(0.994 0.667)">
      <path id="Path_3312" data-name="Path 3312" d="M52.09,160.23H79.579a8.43,8.43,0,0,1,8.43,8.43v11.315H52.09a8.43,8.43,0,0,1-8.43-8.43v-2.877A8.43,8.43,0,0,1,52.09,160.23Z" transform="translate(-28.022 -101.747)" fill="none" stroke="#fff" stroke-miterlimit="10" stroke-width="2"/>
      <path id="Path_3313" data-name="Path 3313" d="M102.684,130.289c10.1-3.563,19.877-9.654,26.272-18.531,7.825-10.864,7.155-23.175,8.756-35.864.652-5.157,4.105-8.122,6.161-12.7,4.332-9.643,2.8-24.165-6.315-30.718C131.947,28.447,126.523,28,123.5,20.984c-1.671-3.881-2.646-8.151-5.245-11.487C114.5,4.671,108.12,2.772,102.076,1.8,95.046.7,88.181.939,81.133.73,73.63.525,66.006.727,58.7,2.724c-9.9,2.7-20.771,9.793-22.5,20.588-.733,4.626.227,9.563-1.528,13.906-2.646,6.539-9.695,8.756-14.936,12.616-5.633,4.149-9.3,10.629-10.9,17.348C6.094,78.642,8.1,91.371,13.447,101.77a59.838,59.838,0,0,0,26.221,26.2c8.8,4.365,20.976,5.652,30.909,6.264C81.426,134.9,92.48,133.892,102.684,130.289Z" transform="translate(-5.187 -0.667)" fill="#b3d0fc"/>
      <path id="Path_3314" data-name="Path 3314" d="M160.854,141.567c-.062-16.376-4.593-32.107-17.916-42.66-16.442-13.023-39.427-12.85-56.232-.7-11,7.943-18.693,19.895-23.021,32.749s-5.436,26.6-4.974,40.156l100.061.312,1.25-13.807C160.5,152.343,160.876,146.951,160.854,141.567Z" transform="translate(-37.495 -56.697)" fill="#69a4c9"/>
      <path id="Path_3316" data-name="Path 3316" d="M124.164,49h38.368a11.161,11.161,0,0,1,11.161,11.161V75.126H124.164A11.161,11.161,0,0,1,113,63.958v-3.8A11.161,11.161,0,0,1,124.164,49Z" transform="translate(-71.947 -31.285)" fill="none" stroke="#fff" stroke-miterlimit="10" stroke-width="1" opacity="0.75"/>
      <path id="Path_3325" data-name="Path 3325" d="M123.715,247.529c-.7,2.39-1.3,5.164.114,7.213,1.7,2.474,5.6,2.445,8.063.733s3.779-4.611,4.915-7.389a59.4,59.4,0,0,0,4.259-14.511c.389-2.932.051-6.568-2.61-7.855-4.09-1.979-7.58,1.177-8.9,4.637C127.38,236,125.408,241.716,123.715,247.529Z" transform="translate(-78.263 -142.846)" fill="#ffb1a5"/>
      <path id="Path_3326" data-name="Path 3326" d="M144.843,193.014a24.787,24.787,0,0,0-2.822,3.632,47.343,47.343,0,0,0-2.833,5.633c-.319.671-2.98,6.506-2.386,6.931,3.346,2.393,6.634,5.007,10.464,6.473a22.949,22.949,0,0,1-.671,3.126q-.389,1.561-.707,3.134c-.418,2.086-.733,4.2-1.1,6.3-.205,1.169-.4,2.342-.6,3.511-.088.524,16.567,1.635,18.077,1.657,4.4.066,11.329,1.3,14-3.2a12.146,12.146,0,0,0,1.232-3.5,86.168,86.168,0,0,0,2.2-21.625,18.662,18.662,0,0,0-3.757-11.7c-1.206-1.895-3.1-2.932-5.131-3.9-6.062-2.9-13.363-3.838-19.514-1.125A19.968,19.968,0,0,0,144.843,193.014Z" transform="translate(-86.97 -118.546)" fill="#fd6eba"/>
      <path id="Path_3327" data-name="Path 3327" d="M228.19,234.625c-.165.385-.33.77-.5,1.155-.638,1.466-2.247,4.032-2.247,5.655a15.577,15.577,0,0,0-.671,7.294,19.9,19.9,0,0,0,.792,2.848,11.973,11.973,0,0,0,1.591,3.357c.674.894,2.276,2.309,3.519,1.833,1.3-.5,2.261-2.855,2.756-4.032,2.932-6.9,4.105-14.485,4.82-21.911a3.87,3.87,0,0,0-1.155-3.57,4.415,4.415,0,0,0-2.4-1.833,2.905,2.905,0,0,0-2.628,1.059,8.855,8.855,0,0,0-1.466,2.566Q229.4,231.839,228.19,234.625Z" transform="translate(-142.638 -143.019)" fill="#ff735f"/>
      <path id="Path_3328" data-name="Path 3328" d="M234.335,211.947c-.568-.158-8.467-2.078-8.485-1.1q.088-6.44.711-12.85a14.122,14.122,0,0,1,.8-4.006,5.118,5.118,0,0,1,2.727-2.907,5.293,5.293,0,0,1,2.984-.114,8.76,8.76,0,0,1,6.491,6.3,16.4,16.4,0,0,1,.323,4.065c-.037,4.032-.337,8.063-.575,12.1C237.593,213.405,235.937,212.4,234.335,211.947Z" transform="translate(-143.435 -121.117)" fill="#fd6eba"/>
      <path id="Path_3329" data-name="Path 3329" d="M244.569,181.853a5.5,5.5,0,0,1,.2,1.122c.165,2.566-1.525,4.724-3.222,6.462-.667.682-1.605,1.155-2.2,1.862-.689.806-.656,2.14-1.833,2.5a1.466,1.466,0,0,1-1.671-2.053,10.681,10.681,0,0,1,.9-2.177,4.293,4.293,0,0,1,1.488-1.1,4.193,4.193,0,0,0,1.95-2.877c.312-2.166,0-4.607.751-6.678a2.324,2.324,0,0,1,.594-.964,1.1,1.1,0,0,1,1.056-.264c.531.183.733.8.924,1.33C243.814,179.977,244.294,180.886,244.569,181.853Z" transform="translate(-149.678 -112.781)" fill="#ee9991"/>
      <path id="Path_3330" data-name="Path 3330" d="M231.95,225.5a42.751,42.751,0,0,1-1.067,13.84c-.367,1.341-1,3.262-2.3,4.013-1.466.843-3.764.161-5.131-.616a6.686,6.686,0,0,1-2.327-2.016,7.732,7.732,0,0,1-.843-4.765c.282-4.4,1.371-8.478,2.2-12.755q1.389-6.99,3.247-13.877a7.756,7.756,0,0,1,2.852-4.655c1.169-.88,3.13-2.045,3.236.246C232.166,211.77,231.587,218.631,231.95,225.5Z" transform="translate(-139.884 -129.206)" fill="#ee9991"/>
      <path id="Path_3331" data-name="Path 3331" d="M201.075,173.6a2.654,2.654,0,0,0-.326.773,3.131,3.131,0,0,0,0,1.078c.334,2.679.891,5.326,3.761,6.165a8.166,8.166,0,0,0,6-.616,6.275,6.275,0,0,0,1.55-1.122,2.668,2.668,0,0,0,.781-1.712c1.928.425,3.922-1.539,4.926-2.932a16.685,16.685,0,0,0,2.712-11.186,5.228,5.228,0,0,0-.814-2.731,5.611,5.611,0,0,0-1.547-1.275,8.236,8.236,0,0,0-8.331-.447c-2.617,1.21-4.435,3.8-5.663,6.312-.513,1.052-.6,2.441-1.015,3.566a21.756,21.756,0,0,1-1.833,3.793C201.215,173.366,201.141,173.483,201.075,173.6Z" transform="translate(-127.505 -100.764)" fill="#ffb1a5"/>
      <path id="Path_3332" data-name="Path 3332" d="M207.516,154.921a8.023,8.023,0,0,1,2.547-3.3c1.983-1.374,4.849-1.1,7.078-.619a17.086,17.086,0,0,0,3.9.832c1.206,0,2.452-1.213,3.618-.81a1.638,1.638,0,0,1,1.045,1.173,3.869,3.869,0,0,1-.773,2.518,12.948,12.948,0,0,1-1.037,1.858,3.735,3.735,0,0,1-2.4,1.466,4.374,4.374,0,0,1-.953-.029c-1.891-.2-3.482-.733-4.933.773a19.282,19.282,0,0,0-2.2,3.607,2.115,2.115,0,0,1-.667.759,4.277,4.277,0,0,1-1.3.334c-1.88.436-3.115,3.588-5.1,2.91-1.7-.583-1.316-2.13-.641-3.354.836-1.525.678-3.372.927-5.095A11.685,11.685,0,0,1,207.516,154.921Z" transform="translate(-130.306 -95.653)" fill="#282828"/>
      <path id="Path_3333" data-name="Path 3333" d="M211.338,180.671a4.64,4.64,0,0,0-.814,1.994,3.768,3.768,0,0,0,0,1.833,1.726,1.726,0,0,0,1.279,1.228,1.69,1.69,0,0,0,1.345-.444,6.14,6.14,0,0,0,1.657-4.318C214.454,179.264,212.2,179.561,211.338,180.671Z" transform="translate(-133.655 -114.121)" fill="#ffb1a5"/>
      <path id="Path_3334" data-name="Path 3334" d="M215.1,184a1.968,1.968,0,0,0-1.081,1.056,5.681,5.681,0,0,0-.4,1.5" transform="translate(-135.688 -116.804)" fill="none" stroke="#19034d" stroke-miterlimit="10" stroke-width="1"/>
      <path id="Path_3335" data-name="Path 3335" d="M250.146,184.364a.429.429,0,1,1-.513-.323A.429.429,0,0,1,250.146,184.364Z" transform="translate(-158.29 -116.824)" fill="#19034d"/>
      <path id="Path_3336" data-name="Path 3336" d="M237.016,185.381a.429.429,0,1,1-.495-.352.429.429,0,0,1,.495.352Z" transform="translate(-149.969 -117.453)" fill="#19034d"/>
      <path id="Path_3337" data-name="Path 3337" d="M220.714,282.14c-.187,1.195-.334,2.393-.411,3.6a7.779,7.779,0,0,0,.843,4.765,6.685,6.685,0,0,0,2.327,2.016c1.36.777,3.665,1.466,5.131.616,1.3-.733,1.921-2.672,2.3-4.013a33.026,33.026,0,0,0,1.1-6.964Z" transform="translate(-139.897 -178.974)" fill="url(#linear-gradient)"/>
      <path id="Path_3338" data-name="Path 3338" d="M170.351,252.86l-2-5.71c.051.139-.367.777-.425.927l-.451.99c-.308.678-.616,1.356-.931,2.034a37.539,37.539,0,0,1-1.921,3.793,5.319,5.319,0,0,1-1.613-.865c-.2,1.158-.561,2.243-.792,3.394-.121.6-.227,1.195-.341,1.8-.055.3-.11.6-.169.909-.022.125-.07.773-.165.832a38.763,38.763,0,0,0,8.485-6.722,1.385,1.385,0,0,0,.443-.733A1.426,1.426,0,0,0,170.351,252.86Z" transform="translate(-102.696 -156.808)" fill="url(#linear-gradient-2)"/>
      <path id="Path_3339" data-name="Path 3339" d="M249.067,178.522a2.426,2.426,0,0,0-1.679.389.528.528,0,0,0-.209.7.52.52,0,0,0,.7.209,1.547,1.547,0,0,1,1.144-.268.517.517,0,1,0,.044-1.03Z" transform="translate(-156.91 -113.32)" fill="#19034d"/>
      <path id="Path_3340" data-name="Path 3340" d="M236.647,180.429a3.216,3.216,0,0,0-2.2,0c-.564.154-.425,1.063.143.905a2.5,2.5,0,0,1,1.734-.07C236.889,181.521,237.182,180.674,236.647,180.429Z" transform="translate(-148.654 -114.417)" fill="#19034d"/>
      <path id="Path_3341" data-name="Path 3341" d="M223.142,207.48q-.066,1.44-.106,2.874c0,.5-.026,1-.033,1.5,0,.092-.026.26-.033.436a9.529,9.529,0,0,0,1.734-.495,3.742,3.742,0,0,0,1.928-1.638,5.157,5.157,0,0,0,.33-.964A8.148,8.148,0,0,1,223.142,207.48Z" transform="translate(-141.611 -131.678)" fill="url(#linear-gradient-3)"/>
      <path id="Path_3342" data-name="Path 3342" d="M149.863,295.184c4.966.594,10.435,1.235,15.211-.172a19.426,19.426,0,0,0-2.544-3.137,6.524,6.524,0,0,0-3.544-1.811,8.6,8.6,0,0,0-2.126.062c-1.235.15-2.841.8-4.057.693-1.034-.084-2.386-.971-3.365-1.356-6.645-2.632-14.525-6.213-21.79-4.3-3.665.968-5.886,4.032-3.354,7.492,1.415,1.928,3.706,1.569,5.934,1.605,6.018.1,12.055.051,18.044.733Z" transform="translate(-78.414 -180.545)" fill="#ffb1a5"/>
      <path id="Path_3343" data-name="Path 3343" d="M236.2,196.21l-.367-.092a4.93,4.93,0,0,1,.828-1.833,2.628,2.628,0,0,1,1.748-1.052,1.433,1.433,0,0,1,1.554.924l-.33.158a1.239,1.239,0,0,0-.7-.682,1.2,1.2,0,0,0-.48-.037,2.28,2.28,0,0,0-1.5.913A4.567,4.567,0,0,0,236.2,196.21Z" transform="translate(-149.757 -122.644)" fill="#19034d"/>
      <path id="Path_3344" data-name="Path 3344" d="M152.473,276.707l-.147-.253q-.517-.85-.979-1.734a10.843,10.843,0,0,1-1.448,1.268,12.384,12.384,0,0,0-1.9,1.653c-.367.367-.7.751-1.037,1.14.088.209.176.418.264.634.04.1.088.209.136.312.227-.077.462-.15.7-.22a10.384,10.384,0,0,1,4.032-.623c.07-.715.348-1.4.407-2.111Z" transform="translate(-93.46 -174.273)" fill="url(#linear-gradient-4)"/>
      <path id="Path_3345" data-name="Path 3345" d="M239.7,205.37a.77.77,0,0,0-.619.334.246.246,0,0,0,.033.286.194.194,0,0,0,.147.154.638.638,0,0,0,.652-.271.293.293,0,0,0-.213-.5Z" transform="translate(-151.793 -130.342)" fill="#db6352"/>
      <path id="Path_3346" data-name="Path 3346" d="M240.113,177.462a3.056,3.056,0,0,0-.825-.205c-.235-.029-.231.337,0,.367a2.62,2.62,0,0,1,.733.191C240.23,177.895,240.326,177.55,240.113,177.462Z" transform="translate(-151.837 -112.532)" fill="#db6352"/>
      <path id="Path_3347" data-name="Path 3347" d="M246.831,176.354l-.575.18a.19.19,0,0,0,.1.367l.579-.176C247.153,176.64,247.058,176.285,246.831,176.354Z" transform="translate(-156.279 -111.955)" fill="#db6352"/>
      <path id="Path_3348" data-name="Path 3348" d="M114.164,37h38.368a11.161,11.161,0,0,1,11.161,11.161V63.126H114.164A11.161,11.161,0,0,1,103,51.958v-3.8A11.161,11.161,0,0,1,114.164,37Z" transform="translate(-65.612 -23.683)" fill="#6e5fa8"/>
      <path id="Path_3349" data-name="Path 3349" d="M149.752,65.192H148.63V67.16h-2.709V65.192H141.89V63.176l4.2-6.176h2.536v6.143h1.122Zm-3.83-2.049v-1.18c0-.224,0-.524.026-.9a5.081,5.081,0,0,1,.037-.594h-.077a7.633,7.633,0,0,1-.535,1l-1.125,1.675Z" transform="translate(-90.248 -36.353)" fill="#fff"/>
      <path id="Path_3350" data-name="Path 3350" d="M180.4,61.832a6.817,6.817,0,0,1-.905,3.947,3.6,3.6,0,0,1-5.509-.055,6.7,6.7,0,0,1-.924-3.892,6.935,6.935,0,0,1,.9-3.977,3.585,3.585,0,0,1,5.509.051A6.87,6.87,0,0,1,180.4,61.832Zm-4.607,0A8.71,8.71,0,0,0,176,64.2c.147.432.367.645.733.645s.583-.22.733-.667a8.9,8.9,0,0,0,.213-2.346,8.873,8.873,0,0,0-.216-2.368c-.143-.451-.367-.678-.733-.678s-.579.22-.733.652A8.917,8.917,0,0,0,175.791,61.832Z" transform="translate(-109.994 -36.09)" fill="#fff"/>
      <path id="Path_3351" data-name="Path 3351" d="M210.75,65.192h-1.118V67.16h-2.709V65.192H202.87V63.176L207.1,57h2.536v6.143h1.118Zm-3.826-2.049v-1.18q0-.337.022-.9a5.53,5.53,0,0,1,.04-.594h-.077a7.635,7.635,0,0,1-.535,1l-1.125,1.675Z" transform="translate(-128.878 -36.353)" fill="#fff"/>
      <path id="Path_3352" data-name="Path 3352" d="M79.09,125.23h27.489a8.43,8.43,0,0,1,8.43,8.43v11.315H79.09a8.43,8.43,0,0,1-8.43-8.43v-2.877A8.43,8.43,0,0,1,79.09,125.23Z" transform="translate(-45.126 -79.575)" fill="#fff"/>
      <path id="Path_3353" data-name="Path 3353" d="M105.4,151.293a1.957,1.957,0,0,1-1.429-.506,1.921,1.921,0,0,1-.513-1.429,2.1,2.1,0,0,1,.476-1.466,1.693,1.693,0,0,1,1.312-.517,1.668,1.668,0,0,1,1.25.454,1.734,1.734,0,0,1,.447,1.264v.5H104.5a1,1,0,0,0,.26.689.924.924,0,0,0,.685.246,3.026,3.026,0,0,0,.645-.07,3.44,3.44,0,0,0,.638-.227v.8a2.4,2.4,0,0,1-.579.2A3.614,3.614,0,0,1,105.4,151.293Zm-.147-3.189a.656.656,0,0,0-.513.209.957.957,0,0,0-.213.59h1.466a.854.854,0,0,0-.2-.59A.671.671,0,0,0,105.249,148.1Z" transform="translate(-65.897 -93.601)" fill="#a7286b"/>
      <path id="Path_3354" data-name="Path 3354" d="M119.293,147.368a1.562,1.562,0,0,1,.367.029l-.077.968a1.224,1.224,0,0,0-.3-.033,1.1,1.1,0,0,0-.77.253.909.909,0,0,0-.279.711v1.924H117.2v-3.783h.781l.154.638h.048a1.426,1.426,0,0,1,.476-.513A1.162,1.162,0,0,1,119.293,147.368Z" transform="translate(-74.608 -93.598)" fill="#a7286b"/>
      <path id="Path_3355" data-name="Path 3355" d="M129.763,147.368a1.54,1.54,0,0,1,.367.029l-.077.968a1.207,1.207,0,0,0-.3-.033,1.1,1.1,0,0,0-.77.253.92.92,0,0,0-.275.711v1.924H127.67v-3.783h.784l.15.638h.051a1.393,1.393,0,0,1,.476-.513A1.144,1.144,0,0,1,129.763,147.368Z" transform="translate(-81.24 -93.598)" fill="#a7286b"/>
      <path id="Path_3356" data-name="Path 3356" d="M141.133,149.318a2.038,2.038,0,0,1-.487,1.444,1.767,1.767,0,0,1-1.356.524,1.891,1.891,0,0,1-.964-.242,1.583,1.583,0,0,1-.638-.685,2.269,2.269,0,0,1-.224-1.041,2.027,2.027,0,0,1,.484-1.44,1.77,1.77,0,0,1,1.36-.513,1.9,1.9,0,0,1,.96.235,1.584,1.584,0,0,1,.641.682A2.3,2.3,0,0,1,141.133,149.318Zm-2.617,0a1.609,1.609,0,0,0,.183.85.667.667,0,0,0,.6.286.649.649,0,0,0,.594-.286,1.6,1.6,0,0,0,.183-.85,1.572,1.572,0,0,0-.183-.843.663.663,0,0,0-.6-.279.652.652,0,0,0-.594.279A1.565,1.565,0,0,0,138.516,149.318Z" transform="translate(-87.442 -93.594)" fill="#a7286b"/>
      <path id="Path_3357" data-name="Path 3357" d="M153.833,147.368a1.54,1.54,0,0,1,.367.029l-.077.968a1.207,1.207,0,0,0-.3-.033,1.1,1.1,0,0,0-.77.253.92.92,0,0,0-.275.711v1.924H151.74v-3.783h.784l.15.638h.051a1.393,1.393,0,0,1,.476-.513A1.144,1.144,0,0,1,153.833,147.368Z" transform="translate(-96.488 -93.598)" fill="#a7286b"/>
      <path id="Path_3358" data-name="Path 3358" d="M248.137,213.1l-9.493-35.421a11.593,11.593,0,0,0-10.952-8.591h0a11.6,11.6,0,0,0-9.383,18.755C228.235,200.5,239.2,214.72,239.2,214.72Z" transform="translate(-137.079 -103.926)" opacity="0.82" fill="url(#linear-gradient-5)"/>
      <path id="Path_3359" data-name="Path 3359" d="M277.114,114.81h19.209a6.92,6.92,0,0,1,6.92,6.92v2.36a6.92,6.92,0,0,1-6.92,6.916H270.19V121.73A6.92,6.92,0,0,1,277.114,114.81Z" transform="translate(-171.523 -72.974)" fill="#6e5fa8"/>
      <circle id="Ellipse_240" data-name="Ellipse 240" cx="0.85" cy="0.85" r="0.85" transform="translate(109.446 49.086)" fill="#fff"/>
      <path id="Path_3360" data-name="Path 3360" d="M314.658,135.434a.85.85,0,1,1-.249-.6A.854.854,0,0,1,314.658,135.434Z" transform="translate(-198.611 -85.498)" fill="#fff"/>
      <circle id="Ellipse_241" data-name="Ellipse 241" cx="0.85" cy="0.85" r="0.85" transform="translate(119.239 49.086)" fill="#fff"/>
      <path id="Path_3361" data-name="Path 3361" d="M133.327,290.445a6.962,6.962,0,0,1-1.407-.139l.161-.766c1.605.334,4.222,0,4.963-1.539a1.741,1.741,0,0,0,0-1.514,1.833,1.833,0,0,0-1.144-.953,4.375,4.375,0,0,0-3.126.513l-.385-.685a5.15,5.15,0,0,1,3.739-.579,2.617,2.617,0,0,1,1.616,1.349,2.566,2.566,0,0,1,.018,2.2C137,289.9,135.032,290.445,133.327,290.445Z" transform="translate(-83.933 -180.553)" fill="#bf0a40"/>
      <path id="Path_3362" data-name="Path 3362" d="M104.5,279.84h12.755v5.19a5.018,5.018,0,0,1-5.018,5.018h-2.72a5.018,5.018,0,0,1-5.018-5.018Z" transform="translate(-66.563 -177.517)" fill="#bf0a40"/>
      <path id="Path_3363" data-name="Path 3363" d="M114,307.8H94.38a.59.59,0,0,1-.59-.59h0a.59.59,0,0,1,.59-.586H114a.59.59,0,0,1,.59.586h0a.59.59,0,0,1-.59.59Z" transform="translate(-59.778 -194.481)" fill="#fff"/>
      <rect id="Rectangle_561" data-name="Rectangle 561" width="47.186" height="2.144" rx="1.072" transform="translate(70.628 111.615)" fill="#fff"/>
      <path id="Path_3372" data-name="Path 3372" d="M253.147,268.525H212.83l3.508-23.168a1.635,1.635,0,0,1,1.6-1.407h37.129a1.572,1.572,0,0,1,1.532,1.833Z" transform="translate(-135.187 -154.781)" fill="#fff"/>
      <circle id="Ellipse_242" data-name="Ellipse 242" cx="1.932" cy="1.932" r="1.932" transform="translate(99.546 97.888)" fill="none" stroke="#6e5fa8" stroke-miterlimit="10" stroke-width="2"/>
      <rect id="Rectangle_562" data-name="Rectangle 562" width="119.255" height="2.573" rx="1.286" transform="translate(13.142 112.963)" fill="#6e5fa8"/>
      <path id="Path_3379" data-name="Path 3379" d="M279.08,336.112a61.475,61.475,0,0,0,5.747-2.932" transform="translate(-177.155 -211.307)" fill="none" stroke="#69a4c9" stroke-miterlimit="10" stroke-width="2"/>
      <path id="Path_3380" data-name="Path 3380" d="M206.1,348.922c7.792-.341,14.562-.711,22.966-4.032" transform="translate(-130.924 -218.725)" fill="none" stroke="#69a4c9" stroke-miterlimit="10" stroke-width="2"/>
    </g>
  </g>
</svg>
