<svg xmlns="http://www.w3.org/2000/svg" width="250.527" height="241.649" viewBox="0 0 250.527 241.649">
  <g id="Layer_2" data-name="Layer 2" transform="translate(-19.804 -13.98)">
    <g id="OBJECTS" transform="translate(0 0)">
      <path id="Path_163" data-name="Path 163" d="M153.148,60.432a.738.738,0,0,0-.979-1.1c-.375.333-.743.694-1.1,1.013a.729.729,0,0,0-.16.861.743.743,0,0,0,1.173.215A14.264,14.264,0,0,1,153.148,60.432Zm66.875,169.151a.743.743,0,0,0,.035,1.479h1.492a.736.736,0,0,0,.354-1.388.8.8,0,0,0-.416-.111h-.847Zm5.838-.319a.743.743,0,0,0,.16,1.472l.694-.069.812-.1a.736.736,0,0,0,.333-1.333.75.75,0,0,0-.528-.132l-.777.09-.694.069Zm5.789-.847a.736.736,0,0,0,.292,1.444l.4-.056.694-.146.34-.076a.743.743,0,0,0,.111-1.388.784.784,0,0,0-.437,0l-.326.069-.694.139Zm5.657-1.388a.736.736,0,1,0,.444,1.388l.6-.187.639-.208.194-.062a.739.739,0,0,0-.486-1.4l-.174.056-.618.2-.6.187Zm5.47-2.006a.735.735,0,1,0,.6,1.34l.493-.215.59-.264.278-.132a.743.743,0,0,0-.236-1.388.694.694,0,0,0-.4.069l-.264.118-.569.257-.5.222Zm5.206-2.617a.743.743,0,0,0,.43,1.388.757.757,0,0,0,.319-.1l.215-.125.535-.319.528-.319a.743.743,0,0,0-.444-1.388.694.694,0,0,0-.333.111l-.514.312-.514.305-.222.132Zm4.859-3.214a.736.736,0,0,0,.652,1.291.826.826,0,0,0,.25-.118l.319-.25.479-.368.382-.305a.743.743,0,0,0-.382-1.312.771.771,0,0,0-.548.16l-.368.292-.465.368Zm4.415-3.783a.739.739,0,1,0,1.041,1.048l.3-.292.423-.423.333-.34a.694.694,0,0,0,.2-.611.736.736,0,0,0-1.263-.416l-.326.333-.41.41-.3.292Zm3.922-4.3a.743.743,0,0,0,1.159.923l.215-.271.368-.465.34-.444a.743.743,0,0,0-.6-1.187.763.763,0,0,0-.583.292l-.333.437-.354.451-.215.264Zm3.381-4.741a.736.736,0,0,0,.757,1.118.75.75,0,0,0,.5-.34l.118-.187.305-.5.354-.6a.743.743,0,0,0-1.284-.736l-.333.562-.3.486-.118.194Zm2.777-5.109a.743.743,0,0,0,1.34.632l.285-.618.243-.534.1-.215a.743.743,0,0,0-1.152-.868.812.812,0,0,0-.208.278l-.09.208-.229.521-.285.6Zm2.2-5.394a.743.743,0,0,0,1.173.805.778.778,0,0,0,.229-.333l.174-.521.181-.555.111-.347a.736.736,0,0,0-1.388-.437l-.1.333-.18.541-.174.514Zm1.6-5.609a.743.743,0,0,0,1.263.694.7.7,0,0,0,.181-.347l.1-.43.125-.576.09-.451a.736.736,0,0,0-1.291-.618.694.694,0,0,0-.16.326l-.09.437-.118.562-.1.43Zm1-5.748a.737.737,0,1,0,1.465.174l.049-.375.063-.59.049-.521a.736.736,0,0,0-1.291-.555.778.778,0,0,0-.18.416l-.049.507-.062.576Zm.4-5.817a.736.736,0,1,0,1.472,0V177.2a.743.743,0,1,0-1.479,0v1.465Zm-.187-5.831a.739.739,0,1,0,1.472-.132v-.354l-.056-.6-.056-.528a.743.743,0,0,0-1.472.16l.056.514.056.583Zm-.764-5.789a.738.738,0,1,0,1.451-.271l-.076-.417-.118-.59-.09-.458a.743.743,0,1,0-1.451.3l.1.444.111.583Zm-1.333-5.678a.726.726,0,1,0,1.388-.423l-.146-.5-.174-.59-.111-.34a.736.736,0,0,0-1.43.1.652.652,0,0,0,0,.347l.1.326.173.569.146.507Zm-1.888-5.553a.746.746,0,1,0,1.388-.548l-.264-.646-.236-.569-.076-.167a.738.738,0,1,0-1.354.59l.069.153.229.555.257.632Zm-2.423-5.3a.743.743,0,0,0,1.388-.354.826.826,0,0,0-.09-.333l-.139-.271-.292-.555-.271-.493a.743.743,0,0,0-1.388.375.694.694,0,0,0,.1.34l.257.486.292.535.139.271ZM263,145.5a.757.757,0,0,0,.694.326.743.743,0,0,0,.541-1.152l-.34-.507-.354-.528-.139-.2a.738.738,0,1,0-1.208.847l.125.187.347.514.34.514Zm-3.436-4.72a.743.743,0,0,0,1.3-.6.77.77,0,0,0-.16-.34l-.243-.305-.417-.493-.292-.354a.743.743,0,0,0-1.125.965l.285.333.4.486.243.305Zm-3.887-4.352a.743.743,0,0,0,1.243-.694.694.694,0,0,0-.2-.347l-.187-.2-.472-.465-.4-.389a.743.743,0,0,0-1.229.694.763.763,0,0,0,.208.361l.389.375.458.458.194.194Zm-4.3-3.943a.743.743,0,0,0,1.208-.639.764.764,0,0,0-.271-.507l-.222-.187-.528-.423-.41-.326a.739.739,0,1,0-.916,1.159l.4.319.507.416.229.187Zm-4.665-3.505a.75.75,0,0,0,.861,0,.736.736,0,0,0-.042-1.2l-.4-.271-.583-.382-.264-.174a.743.743,0,0,0-1.062.944.646.646,0,0,0,.264.3l.257.167.569.375.4.271Zm-4.984-3.061a.736.736,0,1,0,.694-1.291l-.139-.076-.632-.347-.548-.285a.736.736,0,0,0-1.007.972.694.694,0,0,0,.326.34l.528.278.618.333.139.076Zm-5.213-2.561a.756.756,0,0,0,.6-1.388l-.694-.305-.694-.285a.75.75,0,1,0-.569,1.388l.653.271.694.305Zm-5.442-2.138a.736.736,0,1,0,.479-1.388l-.1-.042-1.305-.437a.743.743,0,0,0-.889,1.034.694.694,0,0,0,.43.375l1.284.43h.1Zm-5.664-1.784a.736.736,0,1,0,.4-1.388l-1.43-.4a.694.694,0,0,0-.555.069.736.736,0,0,0,.167,1.354l1.388.4Zm-5.685-1.485a.736.736,0,0,0,.694-1.27.694.694,0,0,0-.319-.167c-.465-.083-.979-.229-1.444-.34a.743.743,0,0,0-.771,1.152.756.756,0,0,0,.437.292c.465.1.979.25,1.437.333Zm-5.748-1.256a.736.736,0,0,0,.326-1.423l-1.458-.278a.736.736,0,0,0-.618,1.284.784.784,0,0,0,.34.167l1.451.278Zm-5.8-1.048a.743.743,0,0,0,.625-1.27.694.694,0,0,0-.382-.187l-1.465-.236a.739.739,0,1,0-.507,1.388.638.638,0,0,0,.278.1l1.451.236Zm-5.824-.875a.736.736,0,0,0,.694-1.173.694.694,0,0,0-.493-.292l-1.465-.194a.736.736,0,0,0-.541,1.319.694.694,0,0,0,.347.146l1.465.194Zm-5.852-.694a.743.743,0,1,0,.16-1.472l-1.472-.153a.743.743,0,0,0-.555,1.3.694.694,0,0,0,.4.167Zm-5.866-.576a.743.743,0,0,0,.535-1.312.785.785,0,0,0-.4-.16l-1.479-.125a.738.738,0,1,0-.125,1.472Zm-5.907-.528a.743.743,0,0,0,.167-1.472l-1.465-.16a.737.737,0,0,0-.174,1.465l1.472.167Zm-5.831-.764a.743.743,0,0,0,.694-1.1.694.694,0,0,0-.528-.354l-1.444-.236a.737.737,0,1,0-.257,1.451c.486.09.979.167,1.472.243Zm-5.886-1.1a.736.736,0,0,0,.285-1.444l-1.43-.326a.736.736,0,0,0-.8,1.1.75.75,0,0,0,.458.333l1.458.333Zm-5.782-1.485a.736.736,0,0,0,.791-1.166.791.791,0,0,0-.368-.25c-.465-.132-.93-.278-1.388-.423a.736.736,0,1,0-.458,1.388c.479.153.951.3,1.43.437Zm-5.65-1.944a.75.75,0,0,0,.8-.167.736.736,0,0,0-.25-1.208l-1.347-.555a.736.736,0,0,0-.84,1.173.819.819,0,0,0,.257.18c.458.2.916.389,1.388.576Zm-5.435-2.527a.755.755,0,0,0,.736-1.319q-.646-.347-1.27-.694a.694.694,0,0,0-.652-.049.736.736,0,0,0-.1,1.319c.43.25.868.5,1.312.736Zm-5.081-3.228a.736.736,0,0,0,1.145-.826.757.757,0,0,0-.25-.354c-.389-.285-.771-.583-1.145-.889a.737.737,0,1,0-.937,1.138C150.267,101.311,150.656,101.623,151.058,101.921Zm-4.484-4.005a.743.743,0,0,0,1.27-.653.694.694,0,0,0-.174-.34c-.326-.354-.632-.694-.937-1.09a.743.743,0,1,0-1.145.937C145.908,97.16,146.234,97.541,146.574,97.916Zm-3.554-4.922a.743.743,0,1,0,1.3-.694c-.236-.423-.451-.84-.659-1.277a.737.737,0,1,0-1.333.632c.215.458.451.909.694,1.388Zm-2.242-5.657a.694.694,0,0,0,.458.514.743.743,0,0,0,.979-.868c-.118-.465-.222-.923-.305-1.388a.736.736,0,0,0-1.437-.069.646.646,0,0,0,0,.326c.09.5.194,1,.319,1.492Zm-.694-6.053a.736.736,0,0,0,1.388.382.756.756,0,0,0,.09-.347c0-.472.035-.951.076-1.388a.736.736,0,0,0-1.388-.444.694.694,0,0,0-.1.312c-.042.5-.069,1.013-.076,1.52Zm.972-6.018a.757.757,0,0,0,0,.479.736.736,0,0,0,1.388,0,14.105,14.105,0,0,1,.465-1.388.744.744,0,1,0-1.388-.534c-.18.472-.347.965-.493,1.444Zm2.457-5.553a.739.739,0,1,0,1.277.743c.243-.416.493-.826.75-1.236a.738.738,0,0,0-1.243-.8c-.271.43-.534.861-.784,1.291Zm3.45-4.963a.743.743,0,0,0,.625,1.208.757.757,0,0,0,.521-.271c.305-.375.618-.743.937-1.111a.736.736,0,0,0-.805-1.18.826.826,0,0,0-.305.208C147.608,63.979,147.282,64.361,146.963,64.749Z" transform="translate(-42.84 -18.089)" fill="#fff" fill-rule="evenodd"/>
      <path id="Path_164" data-name="Path 164" d="M164.626,149.2a.479.479,0,0,1,.653-.139.465.465,0,0,1,.139.646c-.049.083-18.61,28.925-3.95,45.738a.472.472,0,0,1-.049.694.465.465,0,0,1-.659-.042C145.634,178.712,164.577,149.287,164.626,149.2Z" transform="translate(-47.377 -45.566)" fill="#000618" fill-rule="evenodd"/>
      <path id="Path_165" data-name="Path 165" d="M246.631,143.194a.468.468,0,1,1,.791-.5c0,.049,10.628,16.507-.555,29.154a.465.465,0,0,1-.694.042.472.472,0,0,1,0-.694C256.884,159.111,246.659,143.235,246.631,143.194Z" transform="translate(-75.245 -43.576)" fill="#000618" fill-rule="evenodd"/>
      <path id="Path_166" data-name="Path 166" d="M167.654,121.057l-7.8,8.594a31.424,31.424,0,0,1,3.374,15.313c-.375,8.691-29.668,56.851,24.455,56.6s24-28.169,24-28.169,17.854-5.775,8.837-31.626S167.654,121.057,167.654,121.057Z" transform="translate(-47.399 -36.898)" fill="#000618" fill-rule="evenodd"/>
      <path id="Path_167" data-name="Path 167" d="M216.252,179.865c-.312-.312-.5-.486-.5-.486a11.861,11.861,0,0,0,1.624-.694A49.137,49.137,0,0,0,222,172.576c7.379-11.474-.472-27.252-.472-27.252l-4.165-1.243s-8.33-2.978-10.551-3.728-28.051.868-35.4,14.647.833,33.757.833,33.757,30.446-.986,32.181-1.111C205.729,187.535,210.734,185.585,216.252,179.865Z" transform="translate(-51.488 -42.88)" fill="#01020e" fill-rule="evenodd"/>
      <path id="Path_168" data-name="Path 168" d="M247.433,208.17c8.691,3.8,9.822,11.745,10.954,20.589,1,7.851,1.312,19.686-.757,37.672S222.7,242.7,222.7,242.7Z" transform="translate(-68.112 -63.668)" fill="#ef8871" fill-rule="evenodd"/>
      <path id="Path_169" data-name="Path 169" d="M166.667,205.928l-8.441-4.318s-8.92,2.221-13.48,7.955S126.371,264.313,125.85,270.3s3.54,28.842,10.968,28.842S147.924,249.2,147.924,249.2l6.067-18.742Z" transform="translate(-38.477 -61.662)" fill="#f4ad85" fill-rule="evenodd"/>
      <path id="Path_170" data-name="Path 170" d="M167.484,205.928l-8.441-4.318a33.227,33.227,0,0,0-6.164,2.367c1.1.528,1.951,1.881,1.853,4.859-.264,7.816-12.189,37.665-14.8,46.008s-4.692,13.3-4.692,13.3l-5.428-11.4c-.493,1.84-.937,3.568-1.333,5.137,2.027,10.954,4.561,25.968,4.9,34.548,1.256,1.673,2.679,2.7,4.255,2.7,7.427,0,11.106-49.944,11.106-49.944l6.067-18.742Z" transform="translate(-39.295 -61.662)" fill="#ef8871" fill-rule="evenodd"/>
      <path id="Path_171" data-name="Path 171" d="M199.652,192.32s22.428,7.99,28.766,11c0,0-1.215,1.263-2.575,8.142s0,16.944-1.43,26.85c-1.041,7.157-5.886,43.371-8.5,62.911l-55.282-4.456c0-.868-.049-1.916-.1-3.1,4.54,3.533,8.892,3.693,6.2-6.636-4.692-17.986-3.776-49.285-2.214-58.656s3.894-19.263,1.68-28.78C167.68,198.255,199.652,192.32,199.652,192.32Z" transform="translate(-49.098 -58.82)" fill="#7c4da1" fill-rule="evenodd"/>
      <path id="Path_172" data-name="Path 172" d="M215.581,200.08c5.616,2.082,11.315,4.318,14.036,5.616,0,0-1.215,1.263-2.575,8.142s0,16.944-1.43,26.85c-.208,1.43-.569,4.033-1.034,7.427-12.495,1.944-49.382,6.171-58.239,5.387a15.463,15.463,0,0,1-1.888-.285,162.259,162.259,0,0,1,1.263-22.47c.042-.243.083-.479.118-.694,3.131,9.225,42.475,14.376,42.475,14.376s6.518-14.425,4.859-19.77-9.552-5.2-9.552-5.2l.2-4.776s7.823-10.593,9.718-13.814C213.749,200.441,214.485,200.2,215.581,200.08Z" transform="translate(-50.296 -61.194)" fill="#8e50bf" fill-rule="evenodd"/>
      <path id="Path_173" data-name="Path 173" d="M219.152,201.088l.465.18c-.993,4.019-2.332,8.732-4.165,11.509a19.8,19.8,0,0,1-6.5,6.49c-2.846,1.652-6.567,2.645-11.8,2.513a17.465,17.465,0,0,1-11-4.165,22.948,22.948,0,0,1-6.942-10.933c-1.43-5-2.777-6.664-3.242-7.115l.548-.118c.639.75,1.9,2.666,3.165,7.094a22.442,22.442,0,0,0,6.81,10.7,16.937,16.937,0,0,0,10.655,4.019c5.1.125,8.739-.84,11.516-2.443a19.436,19.436,0,0,0,6.331-6.31c1.833-2.728,3.151-7.421,4.165-11.419Zm9.218,3.679.41.174c-1.083,1.916-2.6,5.928-4,14.327-1.673,10.065.243,14.577,1.715,16.514,0,.229-.035.458-.056.694-1.576-1.791-3.957-6.407-2.145-17.284,1.388-8.253,2.922-12.37,4.075-14.418Zm-62.64,28.578q.056-.479.1-.916c1.263-2.478,6.06-13.39,3.325-31.237l.472-.146c3.145,20.373-3.471,31.869-3.658,32.132a.27.27,0,0,1-.056.069.25.25,0,0,1-.187.1Z" transform="translate(-50.688 -61.001)" fill="#612b8b" fill-rule="evenodd"/>
      <path id="Path_174" data-name="Path 174" d="M204.655,157.75h.167a8.871,8.871,0,0,1,8.962,8.753l.111,17.958c3.256,1.187,7.15,2.631,10.794,4.026-5.741,12.391-12.495,20.582-23.324,18.235-14.82-3.214-14.293-15.66-18.8-20.248,4.214-.909,9.163-1.9,13.453-2.742l-.1-17.021A8.892,8.892,0,0,1,204.655,157.75Z" transform="translate(-55.835 -48.247)" fill="#ef8871" fill-rule="evenodd"/>
      <path id="Path_175" data-name="Path 175" d="M218.415,164.429a8.608,8.608,0,0,1,.555,2.992l.111,17.958c3.256,1.187,7.15,2.631,10.794,4.026-4.22,9.114-9.024,15.966-15.535,18,10.412-7.011,7.2-15.667,4.984-16.576s-19.8-5.852-19.8-5.852l1.68-.326-.1-17.021a8.9,8.9,0,0,1,3.179-6.879C208.96,160.7,213.632,162.159,218.415,164.429Z" transform="translate(-61.023 -49.164)" fill="#ea745d" fill-rule="evenodd"/>
      <path id="Path_176" data-name="Path 176" d="M240.18,133.25h.514a6.942,6.942,0,1,1-5.553,2.145c.1,2.048.75,4.505,3.367,4.415l-.6-3.943a2.381,2.381,0,0,1,2.27-2.617Z" transform="translate(-71.334 -40.754)" fill="#ea745d" fill-rule="evenodd"/>
      <path id="Path_177" data-name="Path 177" d="M169.74,144.463c-.167.042-.333.1-.493.153h0a6.942,6.942,0,1,0,5.914.618c.444,2,.451,4.554-2.082,5.144l-.451-3.964a2.381,2.381,0,0,0-2.888-1.951Z" transform="translate(-50.346 -44.165)" fill="#ea745d" fill-rule="evenodd"/>
      <path id="Path_178" data-name="Path 178" d="M193.734,89.4h0a23.761,23.761,0,0,1,26.614,20.36l2.846,21.359a23.768,23.768,0,0,1-20.36,26.607h0a23.761,23.761,0,0,1-26.614-20.36l-2.839-21.359A23.761,23.761,0,0,1,193.734,89.4Z" transform="translate(-52.967 -27.281)" fill="#f4ad85" fill-rule="evenodd"/>
      <path id="Path_179" data-name="Path 179" d="M193.734,89.4h0A23.775,23.775,0,0,1,220,107.8a9.863,9.863,0,0,1-1.083,3.471l-10.947-.639s-7.205,13.772-22,17.118c-3.978.9-5.22,4.915-4.408,8.719,1.978,9.281,9.94,22.574,29.55,18.534a23.448,23.448,0,0,1-8.274,2.728h0a23.761,23.761,0,0,1-26.614-20.36l-2.839-21.359A23.761,23.761,0,0,1,193.734,89.4Z" transform="translate(-52.966 -27.282)" fill="#ef8871" fill-rule="evenodd"/>
      <path id="Path_180" data-name="Path 180" d="M195.444,157.284a3.117,3.117,0,1,1-2.61,3.554,3.117,3.117,0,0,1,2.61-3.554Z" transform="translate(-58.966 -48.094)" fill="#ea745d" fill-rule="evenodd"/>
      <path id="Path_181" data-name="Path 181" d="M232.234,151.464a3.117,3.117,0,1,1-2.61,3.554,3.117,3.117,0,0,1,2.61-3.554Z" transform="translate(-70.219 -46.314)" fill="#ea745d" fill-rule="evenodd"/>
      <path id="Path_182" data-name="Path 182" d="M190.913,138.483a.89.89,0,1,0-.25,1.763,8.954,8.954,0,0,0,2.548-.069,7.15,7.15,0,0,0,4.456-2.45.9.9,0,0,0-1.388-1.131A6.014,6.014,0,0,1,190.913,138.483Z" transform="translate(-58.079 -41.676)" fill="#01020e" fill-rule="evenodd"/>
      <path id="Path_183" data-name="Path 183" d="M244.293,215.146s.909-.132,1.111.576-2.777,4.519-2.992,4.651-6.136-.618-6.136-.618-.319-.292-.25-.521a1.18,1.18,0,0,1,.285-.423Z" transform="translate(-72.185 -65.799)" fill="#000618" fill-rule="evenodd"/>
      <path id="Path_184" data-name="Path 184" d="M230.982,128.665a6.241,6.241,0,0,0-5.553,1.444.888.888,0,1,1-1.27-1.243,7.108,7.108,0,0,1,4.637-2.082,8.975,8.975,0,0,1,2.548.132.9.9,0,0,1,.694,1.055.882.882,0,0,1-1.055.694Z" transform="translate(-68.481 -38.765)" fill="#01020e" fill-rule="evenodd"/>
      <path id="Path_185" data-name="Path 185" d="M174.6,122.062l.4,3.027c.194,1.458-2.6,5.359-3.721,5.512l-.694-5.324a3.316,3.316,0,0,0-3.811-1.971c-10.662-9.4-11.69-26.426-2.985-36.492s29.849-13.439,33.687-12.7,8.51,6.511,8.51,6.511,2.777-3.221,5.873-2.152,15.313,18.159,15.924,22.754-7.073,14.89-7.073,14.89a3.318,3.318,0,0,0-3.158,2.909l.437,3.3c-1.118.153-1.944-1.263-2.138-2.721l-.4-3.027c-9.829-2.888-15.16-14.89-15.16-14.89S190.039,122.27,174.6,122.062Z" transform="translate(-48.307 -22.638)" fill="#000618" fill-rule="evenodd"/>
      <path id="Path_186" data-name="Path 186" d="M157.93,103.63a26.017,26.017,0,0,1,3.04-12.446c9.635,7.469,25.2,12.495,38.178-16.174a13.882,13.882,0,0,1,2.457,1.6C196.573,91.17,183.745,116.6,157.93,103.63Z" transform="translate(-48.302 -22.942)" fill="#0f1630" fill-rule="evenodd"/>
      <path id="Path_187" data-name="Path 187" d="M174.924,132.957l.4,3.026c.194,1.458-2.6,5.359-3.721,5.512l-.694-5.324A3.316,3.316,0,0,0,167.1,134.2a26.163,26.163,0,0,1-8.1-13.668s18.256,12.682,40.719-10.891c0,0,10.273,16.021,25.309,11.245a69.1,69.1,0,0,1-4.005,6.129,3.318,3.318,0,0,0-3.158,2.909l.437,3.3c-1.118.153-1.944-1.263-2.138-2.721l-.4-3.027c-9.829-2.888-15.16-14.89-15.16-14.89S190.362,133.165,174.924,132.957Z" transform="translate(-48.63 -33.533)" fill="#01020e" fill-rule="evenodd"/>
      <path id="Path_188" data-name="Path 188" d="M246.038,180.926l1.541.417s.9-8.024.889-8.8a9.273,9.273,0,0,0-.993-3.207c-.6-1.312-2.777-6.247-2.888-6.421s-1.52,1.062-.889,3.235,1.708,5.1,1.7,5.734-1.451,6.185-1.451,6.185Z" transform="translate(-74.485 -49.821)" fill="#ef8871" fill-rule="evenodd"/>
      <path id="Path_189" data-name="Path 189" d="M241.817,185.777a3.422,3.422,0,0,0-1.791-2.985c-1.541-.93-5.178-3.811-5.956-4.165a2.693,2.693,0,0,0-2.582.4,45.217,45.217,0,0,0-4.45,3.228c-.611.639-2.138,4.561-2.325,4.977s1.347.784,2.575-.146c0,0-.646,1.291-.847,1.728a31.929,31.929,0,0,0-.521,4.429c0,.694,1.84.333,2.471-1.215,0,0-.1,1.118-.1,1.465s1.062.215,1.062.215,1.229,6.657,1.506,7.49S241.7,240.074,241.7,240.074l15.271-.923s-16.66-37.3-16.792-37.852C239.256,196.564,241.838,189.7,241.817,185.777Z" transform="translate(-68.723 -54.582)" fill="#f4ad85" fill-rule="evenodd"/>
      <path id="Path_190" data-name="Path 190" d="M231.4,197.763l.069.347h0v.132h0v.076h0v.076h0v.076c.326,1.756,1.145,6.095,1.388,6.761s6.067,21.671,9.086,32.514a44.212,44.212,0,0,0,5.838-2.874s-11.8-27.537-12.106-28.62.375-1.944.146-2.235-1.145-.694-1.388-1.5-.784-3.554-.423-4.665c.271-.854,1.173-.75,1.569-.694a9.024,9.024,0,0,0,1.159.292c.59.083.548-.278.548-.278a8.775,8.775,0,0,1,1.319-2.978,7.857,7.857,0,0,1-1.652-2.02c-.659-.285-1.18-.652-1.7-.292a13.042,13.042,0,0,0-1.958,1.992,20.508,20.508,0,0,1-.4,2.582C232.719,197.472,231.4,197.763,231.4,197.763Z" transform="translate(-70.773 -58.641)" fill="#ef8871" fill-rule="evenodd"/>
      <path id="Path_191" data-name="Path 191" d="M131.515,348.777H242.358a3.235,3.235,0,0,0,3.1-3.332h0a3.228,3.228,0,0,0-3.1-3.325H131.515a3.228,3.228,0,0,0-3.1,3.325h0a3.228,3.228,0,0,0,3.1,3.332Z" transform="translate(-39.276 -104.636)" fill="#000618" fill-rule="evenodd"/>
      <path id="Path_192" data-name="Path 192" d="M243.665,249.94H128.817a2.617,2.617,0,0,0-2.638,3.11l8.781,58.309a3.748,3.748,0,0,0,3.568,3.11h95.425a3.755,3.755,0,0,0,3.575-3.11l8.774-58.309a2.61,2.61,0,0,0-2.638-3.11Z" transform="translate(-38.577 -76.443)" fill="#000618" fill-rule="evenodd"/>
      <path id="Path_193" data-name="Path 193" d="M242.282,253.91H132.53a2.5,2.5,0,0,0-2.52,2.971l8.385,55.713a3.589,3.589,0,0,0,3.415,2.964H233a3.582,3.582,0,0,0,3.415-2.964l8.392-55.713a2.506,2.506,0,0,0-2.527-2.971Z" transform="translate(-39.749 -77.657)" fill="#0f1630" fill-rule="evenodd"/>
      <path id="Path_194" data-name="Path 194" d="M139,298.365l2.152,14.293a3.589,3.589,0,0,0,3.415,2.964h91.2a3.582,3.582,0,0,0,3.415-2.964l8.392-55.713a2.506,2.506,0,0,0-1.624-2.825C233.4,275.791,202.508,311.29,139,298.365Z" transform="translate(-42.513 -77.722)" fill="#000618" fill-rule="evenodd"/>
      <path id="Path_195" data-name="Path 195" d="M207.34,312.4c6.719,0,12.2-4.581,12.2-10.19S214.06,292,207.34,292s-12.21,4.574-12.21,10.19S200.593,312.4,207.34,312.4Z" transform="translate(-59.68 -89.307)" fill="#000618" fill-rule="evenodd"/>
      <path id="Path_196" data-name="Path 196" d="M208.631,295.544a9.718,9.718,0,0,1,8,3.839l-14.189,9.663a7.226,7.226,0,0,1-3.1-5.768c0-4.276,4.165-7.747,9.281-7.747Zm7.532,12.259-4.262-2.346-7.108,4.859a10.836,10.836,0,0,0,3.839.694,9.906,9.906,0,0,0,7.532-3.207Z" transform="translate(-60.971 -90.387)" fill="#fff" fill-rule="evenodd"/>
      <path id="Path_197" data-name="Path 197" d="M229.774,138.749h0a1.978,1.978,0,0,0-1.645,2.263l.41,2.554a1.985,1.985,0,0,0,2.263,1.645h0a1.985,1.985,0,0,0,1.645-2.27l-.41-2.548A1.978,1.978,0,0,0,229.774,138.749Z" transform="translate(-69.765 -42.428)" fill="#01020e" fill-rule="evenodd"/>
      <path id="Path_198" data-name="Path 198" d="M195.606,143.927h0a1.978,1.978,0,0,0-1.617,2.263l.4,2.554a1.992,1.992,0,0,0,2.27,1.638h0a1.985,1.985,0,0,0,1.645-2.263l-.41-2.554a1.971,1.971,0,0,0-2.291-1.638Z" transform="translate(-59.323 -44.01)" fill="#01020e" fill-rule="evenodd"/>
      <path id="Path_199" data-name="Path 199" d="M223.705,163.678a.674.674,0,1,1-.84,1.048s-2.374-2.082-6.594,1.812a.73.73,0,0,1-.993-1.069C220.366,160.784,223.7,163.665,223.705,163.678Z" transform="translate(-65.778 -49.789)" fill="#ef8871" fill-rule="evenodd"/>
      <path id="Path_200" data-name="Path 200" d="M244.833,215.265a.444.444,0,0,1,.354.43c.049.389-2.318,3.471-8.927,3.693,0,0-.16-.049-.187-.153s.083-.215.083-.215V218.9a.562.562,0,0,0-.236.375c0,.2.972,4.283,1.173,5.31s2.2.791,3.9.382,5.755-1.833,6.817-4.026a2.145,2.145,0,0,0,0-1.027c-.167-.472-2.221-4.276-2.325-4.505a.632.632,0,0,0-.694-.3Z" transform="translate(-72.155 -65.786)" fill="#0f1630" fill-rule="evenodd"/>
      <path id="Path_201" data-name="Path 201" d="M239.4,220.7a19.06,19.06,0,0,1-3.138.361s-.16-.049-.187-.153.083-.215.083-.215v-.118a.562.562,0,0,0-.236.375c0,.2.972,4.283,1.173,5.31s2.2.791,3.9.382c.243-.062.534-.139.854-.236l-2.416-5.706Z" transform="translate(-72.155 -67.464)" fill="#000618" fill-rule="evenodd"/>
      <path id="Path_202" data-name="Path 202" d="M78.835,356.26h183.1a4.165,4.165,0,0,1,4.165,4.165h0a4.165,4.165,0,0,1-4.165,4.165H78.835a4.165,4.165,0,0,1-4.165-4.165h0A4.165,4.165,0,0,1,78.835,356.26Z" transform="translate(-22.838 -108.961)" fill="#000618" fill-rule="evenodd"/>
      <rect id="Rectangle_93" data-name="Rectangle 93" width="211.564" height="10.669" rx="5.335" transform="translate(41.76 240.809)" fill="#be865e"/>
      <rect id="Rectangle_94" data-name="Rectangle 94" width="11.1" height="10.669" transform="translate(168.867 240.809)" fill="#915e40"/>
      <rect id="Rectangle_95" data-name="Rectangle 95" width="5.768" height="10.669" transform="translate(185.728 240.809)" fill="#915e40"/>
      <rect id="Rectangle_96" data-name="Rectangle 96" width="2.881" height="10.669" transform="translate(197.549 240.809)" fill="#915e40"/>
      <rect id="Rectangle_97" data-name="Rectangle 97" width="12.411" height="10.669" transform="translate(210.301 240.809)" fill="#915e40"/>
      <rect id="Rectangle_98" data-name="Rectangle 98" width="6.206" height="10.669" transform="translate(232.076 240.809)" fill="#915e40"/>
      <rect id="Rectangle_99" data-name="Rectangle 99" width="103.984" height="6.345" rx="3.172" transform="translate(44.356 242.544)" fill="#d49d80"/>
      <path id="Path_204" data-name="Path 204" d="M165,49.386,176.426,40.2a17.815,17.815,0,0,1,.528-2.325l-9.593,2.575Z" transform="translate(-50.465 -11.582)" fill="#ecf6fc" fill-rule="evenodd"/>
      <path id="Path_205" data-name="Path 205" d="M190.04,20.14l-40.06,7.407,8.156,3.276Z" transform="translate(-45.871 -6.16)" fill="#fff" fill-rule="evenodd"/>
      <path id="Path_206" data-name="Path 206" d="M195.679,20.14l-18,23.914-9.26-9.031Z" transform="translate(-51.511 -6.16)" fill="#fff" fill-rule="evenodd"/>
      <path id="Path_207" data-name="Path 207" d="M59.62,191.484a52.25,52.25,0,0,1,12.134-1.423h0a10.607,10.607,0,0,0,10.579-10.579h0a10.565,10.565,0,0,0-.1-1.492H98.958a4.609,4.609,0,0,1,4.588,4.588v32.375a.514.514,0,0,1-.875.361l-7.823-7.823H64.208A4.6,4.6,0,0,1,59.62,202.9Z" transform="translate(-18.235 -54.438)" fill="#a6cae4" fill-rule="evenodd"/>
      <path id="Path_208" data-name="Path 208" d="M61.7,175.48H96.438a4.6,4.6,0,0,1,4.588,4.588v32.368a.493.493,0,0,1-.312.472.5.5,0,0,1-.562-.111L92.335,205H61.7a4.609,4.609,0,0,1-4.6-4.588V180.068a4.6,4.6,0,0,1,4.6-4.588Z" transform="translate(-17.464 -53.67)" fill="#c072fe" fill-rule="evenodd"/>
      <path id="Path_209" data-name="Path 209" d="M90.3,185.053h5.755a5.234,5.234,0,0,1,3.748,1.624,5.609,5.609,0,0,1,1.548,3.866h0v.069a5.477,5.477,0,0,1-1.562,3.762,5.213,5.213,0,0,1-3.748,1.6H90.276l-10.169,5.1a1.388,1.388,0,0,1-1.86-.6,1.437,1.437,0,0,1-.167-.694l.069-18.617a1.4,1.4,0,0,1,.653-1.215,1.319,1.319,0,0,1,.694-.222,1.388,1.388,0,0,1,.694.146h.056L90.29,185Zm5.755,1.465H90.13a.694.694,0,0,1-.326-.083l-10.2-5.206-.062,18.555,10.211-5.116a.736.736,0,0,1,.347-.09h5.97a3.8,3.8,0,0,0,2.714-1.159,4.061,4.061,0,0,0,1.152-2.777v-.076a4.116,4.116,0,0,0-1.138-2.86,3.762,3.762,0,0,0-2.728-1.187Z" transform="translate(-23.88 -54.969)" fill="#fff" fill-rule="evenodd"/>
      <path id="Path_210" data-name="Path 210" d="M103.78,201.88v6.49a2.325,2.325,0,0,1-2.318,2.318h0a2.318,2.318,0,0,1-2.312-2.318v-6.31h3.318A4.352,4.352,0,0,0,103.78,201.88Z" transform="translate(-30.325 -61.744)" fill="#fff" fill-rule="evenodd"/>
      <rect id="Rectangle_100" data-name="Rectangle 100" width="1.083" height="9.51" transform="translate(67.326 130.813)" fill="#fff"/>
      <rect id="Rectangle_101" data-name="Rectangle 101" width="1.083" height="9.51" transform="translate(70.804 130.813)" fill="#fff"/>
      <path id="Path_211" data-name="Path 211" d="M72.282,188.062a.7.7,0,1,1-.243,1.388l-5.553-.965a.722.722,0,1,1,.243-1.423l5.553.965Zm-.437,8.962a.722.722,0,1,1,.632,1.3l-3.658,1.77a.725.725,0,0,1-.632-1.305Zm.632-13.085a.725.725,0,0,1-.632,1.305l-4.165-2.02a.723.723,0,0,1,.625-1.305l4.165,2.02Zm-.437,8.844a.722.722,0,1,1,.243,1.423l-5.553.965a.7.7,0,1,1-.243-1.388Z" transform="translate(-20.151 -55.617)" fill="#fff" fill-rule="evenodd"/>
      <path id="Path_212" data-name="Path 212" d="M324.53,56.31H288.379a4.783,4.783,0,0,0-4.769,4.769v33.68a.528.528,0,0,0,.909.375L292.655,87H324.53a4.783,4.783,0,0,0,4.776-4.769V61.079a4.783,4.783,0,0,0-4.776-4.769Z" transform="translate(-86.741 -17.222)" fill="#a6cae4" fill-rule="evenodd"/>
      <path id="Path_213" data-name="Path 213" d="M321.54,56.31H285.4a4.783,4.783,0,0,0-4.776,4.769v33.68a.528.528,0,0,0,.909.375L289.665,87H321.54a4.783,4.783,0,0,0,4.776-4.769V61.079a4.783,4.783,0,0,0-4.776-4.769Z" transform="translate(-85.827 -17.222)" fill="#c072fe" fill-rule="evenodd"/>
      <path id="Path_214" data-name="Path 214" d="M299.016,74.412a3.471,3.471,0,1,0-3.436-3.471,3.471,3.471,0,0,0,3.436,3.471Z" transform="translate(-90.402 -20.636)" fill="#7c4da1" fill-rule="evenodd"/>
      <path id="Path_215" data-name="Path 215" d="M298.383,79h0a4.859,4.859,0,0,1,4.859,4.859v4.755a.555.555,0,0,1-.548.548h-8.642a.548.548,0,0,1-.541-.548V83.908A4.859,4.859,0,0,1,298.383,79Z" transform="translate(-89.769 -24.162)" fill="#7c4da1" fill-rule="evenodd"/>
      <path id="Path_216" data-name="Path 216" d="M325.011,74.412a3.471,3.471,0,1,0-3.471-3.471,3.471,3.471,0,0,0,3.471,3.471Z" transform="translate(-98.342 -20.635)" fill="#7c4da1" fill-rule="evenodd"/>
      <path id="Path_217" data-name="Path 217" d="M324.39,79h0a4.859,4.859,0,0,1,4.859,4.859v4.755a.548.548,0,0,1-.542.548h-8.649a.555.555,0,0,1-.548-.548V83.908A4.859,4.859,0,0,1,324.39,79Z" transform="translate(-97.721 -24.162)" fill="#7c4da1" fill-rule="evenodd"/>
      <path id="Path_218" data-name="Path 218" d="M311.7,70.51a4.165,4.165,0,1,0-4.165-4.165A4.165,4.165,0,0,0,311.7,70.51Z" transform="translate(-94.06 -19.018)" fill="#fff" fill-rule="evenodd"/>
      <path id="Path_219" data-name="Path 219" d="M310.943,76.07h0a5.886,5.886,0,0,1,5.872,5.866v5.72a.694.694,0,0,1-.659.659H305.71a.694.694,0,0,1-.659-.659v-5.72A5.886,5.886,0,0,1,310.943,76.07Z" transform="translate(-93.299 -23.266)" fill="#fff" fill-rule="evenodd"/>
      <path id="Path_221" data-name="Path 221" d="M36.828,117.55a4.415,4.415,0,0,1,1.763-1.84,2.735,2.735,0,0,0,1.333-1.791,11.467,11.467,0,0,0,.271-3.006.694.694,0,0,1,.694-.694h1.173a1.18,1.18,0,0,1,.354.056,2.548,2.548,0,0,1,1.256,1.18,4.45,4.45,0,0,1,.555,2.18A4.963,4.963,0,0,1,44,115.128a3.894,3.894,0,0,0-.257,1.645.639.639,0,0,0,.2,0h2.95a3.776,3.776,0,0,1,1.007.125,2.4,2.4,0,0,1,1.187.694,2.3,2.3,0,0,1,.535,1.555,4.255,4.255,0,0,1-.1.889,3.175,3.175,0,0,1-.354,3.36,2.735,2.735,0,0,1-.944,2.443,2.888,2.888,0,0,1-2.839,2.082H39.966a4.575,4.575,0,0,1-2.6-1.055,1.541,1.541,0,0,1-.4.694h0a1.513,1.513,0,0,1-1.048.417H33.427a1.52,1.52,0,0,1-1.527-1.527v-7.774a1.534,1.534,0,0,1,.458-1.09h0a1.513,1.513,0,0,1,1.048-.416h2.464a1.5,1.5,0,0,1,.916.305Zm.618,7.636a4.325,4.325,0,0,0,2.541,1.451H45.4a1.6,1.6,0,0,0,1.562-1.3.694.694,0,0,1,.361-.479c.5-.25.514-1.069.444-1.527a.694.694,0,0,1,.264-.694c.652-.486.437-1.527.153-2.152a.694.694,0,0,1-.056-.5,3.131,3.131,0,0,0,.118-.764.979.979,0,0,0-.194-.646,1.048,1.048,0,0,0-.514-.285,2.526,2.526,0,0,0-.646-.076h-2.95a1.388,1.388,0,0,1-1.465-.861,4.332,4.332,0,0,1,.208-2.6,3.6,3.6,0,0,0,.167-1.083,3.033,3.033,0,0,0-.375-1.506,1.7,1.7,0,0,0-.472-.548h-.458a10.863,10.863,0,0,1-.319,2.686,4.061,4.061,0,0,1-2.006,2.631,4.165,4.165,0,0,0-1.8,2.985V125.2Zm-1.534-6.56H33.427a.125.125,0,0,0-.09,0h0a.125.125,0,0,0-.049.1V126.5a.146.146,0,0,0,.049.111.139.139,0,0,0,.1.042h2.464a.118.118,0,0,0,.09,0h0a.173.173,0,0,0,.042-.111v-7.775a.146.146,0,0,0-.153-.153Z" transform="translate(-9.757 -33.71)" fill="#fff" fill-rule="evenodd"/>
      <rect id="Rectangle_102" data-name="Rectangle 102" width="3.908" height="3.908" rx="1.31" transform="translate(222.032 26.989)" fill="#fff"/>
      <rect id="Rectangle_106" data-name="Rectangle 106" width="3.908" height="3.908" rx="1.31" transform="translate(250.971 26.989)" fill="#fff"/>
      <rect id="Rectangle_107" data-name="Rectangle 107" width="3.908" height="3.908" rx="1.31" transform="translate(258.204 26.989)" fill="#fff"/>
      <rect id="Rectangle_108" data-name="Rectangle 108" width="3.908" height="3.908" rx="1.31" transform="translate(265.437 26.989)" fill="#fff"/>
      <rect id="Rectangle_109" data-name="Rectangle 109" width="3.908" height="3.908" rx="1.31" transform="translate(243.995 19.103)" fill="#fff"/>
      <rect id="Rectangle_111" data-name="Rectangle 111" width="3.908" height="3.908" rx="1.31" transform="translate(258.468 19.103)" fill="#fff"/>
      <rect id="Rectangle_112" data-name="Rectangle 112" width="3.908" height="3.908" rx="1.31" transform="translate(250.971 35.464)" fill="#fff"/>
      <path id="Path_222" data-name="Path 222" d="M109.315,129.769h0a5.366,5.366,0,0,1,7.58,0l.514.514.514-.514a5.366,5.366,0,0,1,7.58,0h0a5.366,5.366,0,0,1,0,7.58l-.514.514-7.594,7.552-7.58-7.58-.514-.514a5.38,5.38,0,0,1,.014-7.552Z" transform="translate(-32.958 -39.21)" fill="#fff" fill-rule="evenodd"/>
      <path id="Path_223" data-name="Path 223" d="M91.2,257.842c-5.553-5.664-9.718,1.527-9.121,8.746.548,6.844,6.449,30.328,5.352,40.205H89.69C95.194,294.118,98.311,265.089,91.2,257.842Z" transform="translate(-25.085 -78.237)" fill="#63a9ba" fill-rule="evenodd"/>
      <path id="Path_224" data-name="Path 224" d="M90.952,308.152c5.38-19.964-1.43-47.563-1.451-47.661a.319.319,0,0,0-.389-.236.326.326,0,0,0-.236.389c0,.09,6.844,27.725,1.423,47.508Z" transform="translate(-27.18 -79.595)" fill="#80b9c9" fill-rule="evenodd"/>
      <path id="Path_225" data-name="Path 225" d="M72.8,276.366c-5.886-3.1-7.337,3.672-5.053,9.274,1.9,4.644,10.253,18.381,13.418,27.2h2.978C84.393,300.648,79.714,280.038,72.8,276.366Z" transform="translate(-20.406 -84.287)" fill="#fff" fill-rule="evenodd"/>
      <path id="Path_226" data-name="Path 226" d="M84.328,314.008c-1.937-16.493-12.9-34.423-12.946-34.486a.266.266,0,0,0-.458.271c.042.069,10.94,17.881,12.877,34.215Z" transform="translate(-21.68 -85.451)" fill="#b8b8c1" fill-rule="evenodd"/>
      <path id="Path_227" data-name="Path 227" d="M105.565,287.758c5.678-2.478,6.581,3.936,4.061,9.024-1.708,3.422-7.865,12.2-12,19.652H92.89C94.507,305.112,99.7,290.312,105.565,287.758Z" transform="translate(-28.41 -87.842)" fill="#3a7f80" fill-rule="evenodd"/>
      <path id="Path_228" data-name="Path 228" d="M95.33,317.5c4.033-13.668,13.314-26.551,13.356-26.607a.25.25,0,0,1,.4.292c-.035.049-9.225,12.8-13.244,26.315Z" transform="translate(-29.156 -88.943)" fill="#51a5a5" fill-rule="evenodd"/>
      <rect id="Rectangle_114" data-name="Rectangle 114" width="21.769" height="6.983" rx="1.54" transform="translate(53.519 223.233)" fill="#2f365c"/>
      <path id="Path_229" data-name="Path 229" d="M82.007,327.27H94.9l3.367,3.04L95.522,340.9H81.389L78.64,330.31Z" transform="translate(-24.052 -100.094)" fill="#2f365c" fill-rule="evenodd"/>
      <path id="Path_230" data-name="Path 230" d="M98.271,331.65l-.562,2.18H79.2l-.562-2.18Z" transform="translate(-24.052 -101.434)" fill="#121c39" fill-rule="evenodd"/>
      <circle id="Ellipse_17" data-name="Ellipse 17" cx="1.826" cy="1.826" r="1.826" transform="translate(165.792 25.226)" fill="#a6cae4"/>
      <circle id="Ellipse_18" data-name="Ellipse 18" cx="1.826" cy="1.826" r="1.826" transform="translate(195.508 129.765)" fill="#a6cae4"/>
      <circle id="Ellipse_19" data-name="Ellipse 19" cx="1.826" cy="1.826" r="1.826" transform="translate(232.527 205.886)" fill="#a6cae4"/>
      <circle id="Ellipse_20" data-name="Ellipse 20" cx="1.826" cy="1.826" r="1.826" transform="translate(19.804 191.288)" fill="#a6cae4"/>
      <path id="Path_231" data-name="Path 231" d="M345.819,119.991a1.826,1.826,0,1,0-1.819-1.8A1.826,1.826,0,0,0,345.819,119.991Z" transform="translate(-105.211 -35.582)" fill="#a6cae4" fill-rule="evenodd"/>
      <circle id="Ellipse_21" data-name="Ellipse 21" cx="1.826" cy="1.826" r="1.826" transform="translate(74.545 68.763)" fill="#a6cae4"/>
      <circle id="Ellipse_22" data-name="Ellipse 22" cx="1.826" cy="1.826" r="1.826" transform="translate(70.116 173.559)" fill="#fff"/>
      <circle id="Ellipse_23" data-name="Ellipse 23" cx="1.826" cy="1.826" r="1.826" transform="translate(244.522 164.438)" fill="#fff"/>
      <path id="Path_232" data-name="Path 232" d="M301.506,129.391a1.826,1.826,0,1,0-1.826-1.819,1.826,1.826,0,0,0,1.826,1.819Z" transform="translate(-91.656 -38.457)" fill="#fff" fill-rule="evenodd"/>
      <circle id="Ellipse_24" data-name="Ellipse 24" cx="1.826" cy="1.826" r="1.826" transform="translate(193.162 19.756)" fill="#fff"/>
      <circle id="Ellipse_25" data-name="Ellipse 25" cx="1.826" cy="1.826" r="1.826" transform="translate(266.68 65.632)" fill="#fff"/>
      <path id="Path_233" data-name="Path 233" d="M342.223,321.61a5.97,5.97,0,1,1-4.213,1.749A5.97,5.97,0,0,1,342.223,321.61ZM344.8,325a3.637,3.637,0,1,0,.574,4.388A3.644,3.644,0,0,0,344.8,325Z" transform="translate(-102.845 -98.363)" fill="#7c4da1" fill-rule="evenodd"/>
      <path id="Path_234" data-name="Path 234" d="M327.047,338.228h0a9.385,9.385,0,0,0,9.357-9.357v-9.725a.826.826,0,0,0-.826-.826H318.516a.826.826,0,0,0-.826.826V328.9a9.385,9.385,0,0,0,9.357,9.329Z" transform="translate(-97.164 -97.357)" fill="#c072fe" fill-rule="evenodd"/>
      <path id="Path_235" data-name="Path 235" d="M335.2,327.726a9.189,9.189,0,0,1-.451,2.874,10.137,10.137,0,0,1-.618,1.472,9.51,9.51,0,0,1-4.706,4.3,9.317,9.317,0,0,1-3.582.694,9.183,9.183,0,0,1-1.527-.125,9.339,9.339,0,0,0,12.863-3.443,8.862,8.862,0,0,0,.694-1.388,9.393,9.393,0,0,0,.562-3.193v-9.774a.826.826,0,0,0-.826-.826H335.2Z" transform="translate(-99.192 -97.357)" fill="#7c4da1" fill-rule="evenodd"/>
      <path id="Path_236" data-name="Path 236" d="M318.939,345.9h16.215a1.256,1.256,0,0,0,1.249-1.25h0a1.256,1.256,0,0,0-1.249-1.249H318.939a1.256,1.256,0,0,0-1.249,1.249h0A1.256,1.256,0,0,0,318.939,345.9Z" transform="translate(-97.164 -105.028)" fill="#c072fe" fill-rule="evenodd"/>
      <rect id="Rectangle_115" data-name="Rectangle 115" width="3.151" height="8.795" rx="1.576" transform="translate(221.949 222.74)" fill="#d7a6fe"/>
      <path id="Path_237" data-name="Path 237" d="M317.443,298.568h7.129a.993.993,0,0,0,.986-.986h0a.993.993,0,0,0-.986-.986h-9.593a2.568,2.568,0,0,1-2.568-2.568h0a2.575,2.575,0,0,1,2.568-2.568h24.955a2.582,2.582,0,0,1,2.568,2.568h0a2.575,2.575,0,0,1-2.568,2.568h-8.7a.993.993,0,0,0-.986.986h0a.993.993,0,0,0,.986.986h3.346a1.985,1.985,0,0,1,1.985,1.978h0a1.992,1.992,0,0,1-1.985,1.985h-5.553a3.943,3.943,0,0,0-3.936,3.936v1.812a.937.937,0,0,1-.93.93h0a.93.93,0,0,1-.93-.93v-3.436a2.319,2.319,0,0,0-2.312-2.312h-3.471a1.992,1.992,0,0,1-1.985-1.985h0A1.985,1.985,0,0,1,317.443,298.568Z" transform="translate(-95.55 -89.142)" fill="#fff" fill-rule="evenodd"/>
    </g>
  </g>
</svg>
