<svg xmlns="http://www.w3.org/2000/svg" width="40.435" height="54.613" viewBox="0 0 40.435 54.613">
  <g id="notepad" transform="translate(-29.606)">
    <path id="Path_3517" data-name="Path 3517" d="M68.245,5.544H61.511V4.136a1.8,1.8,0,0,0-1.8-1.8H57.268V1.8a1.8,1.8,0,0,0-1.8-1.8H44.054a1.8,1.8,0,0,0-1.8,1.8V2.34H39.813a1.8,1.8,0,0,0-1.8,1.8V5.544H31.4a1.8,1.8,0,0,0-1.8,1.8V52.817a1.8,1.8,0,0,0,1.8,1.8H68.245a1.8,1.8,0,0,0,1.8-1.8V7.34A1.8,1.8,0,0,0,68.245,5.544Zm-26.636.388h2.445a1.8,1.8,0,0,0,1.8-1.8V3.592h7.826v.545a1.8,1.8,0,0,0,1.8,1.8h2.447v6H41.609Zm24.84,45.089H33.2V9.136h4.819v4.591a1.8,1.8,0,0,0,1.8,1.8h19.9a1.8,1.8,0,0,0,1.8-1.8V9.136h4.938Z" transform="translate(0 0)" fill="#585858"/>
    <path id="Path_3518" data-name="Path 3518" d="M86.508,90.422H66.449a1.8,1.8,0,0,0,0,3.592H86.508a1.8,1.8,0,1,0,0-3.592Z" transform="translate(-26.655 -68.771)" fill="#585858"/>
    <path id="Path_3519" data-name="Path 3519" d="M86.508,141.968H66.449a1.8,1.8,0,1,0,0,3.592H86.508a1.8,1.8,0,1,0,0-3.592Z" transform="translate(-26.655 -107.974)" fill="#585858"/>
    <path id="Path_3520" data-name="Path 3520" d="M86.508,116.191H66.449a1.8,1.8,0,0,0,0,3.592H86.508a1.8,1.8,0,1,0,0-3.592Z" transform="translate(-26.655 -88.369)" fill="#585858"/>
    <path id="Path_3521" data-name="Path 3521" d="M86.508,167.744H66.449a1.8,1.8,0,1,0,0,3.592H86.508a1.8,1.8,0,1,0,0-3.592Z" transform="translate(-26.655 -127.578)" fill="#585858"/>
  </g>
</svg>
