<svg xmlns="http://www.w3.org/2000/svg" width="48.824" height="48.824" viewBox="0 0 48.824 48.824">
  <g id="team" transform="translate(0)">
    <g id="Group_1359" data-name="Group 1359" transform="translate(0 0)">
      <path id="Path_3584" data-name="Path 3584" d="M48.109,27.167a.715.715,0,0,0,.715-.715V24.7a4.574,4.574,0,0,0-4.569-4.569h-.53a5.532,5.532,0,1,0-7.416,0h-.53a4.568,4.568,0,0,0-4.039,2.43q-.144-.045-.291-.085l-3.817-1.022V19.424a6.3,6.3,0,0,0,3.079-5.278h.83a2.256,2.256,0,0,0,.522-4.451V7.747a7.747,7.747,0,0,0-15.495,0v2a2.256,2.256,0,0,0,.715,4.4h.83a6.3,6.3,0,0,0,3.079,5.278v2.032l-3.817,1.022q-.147.039-.291.085a4.569,4.569,0,0,0-4.039-2.43h-.53a5.532,5.532,0,1,0-7.416,0h-.53A4.574,4.574,0,0,0,0,24.7v1.751a.715.715,0,1,0,1.43,0V24.7a3.142,3.142,0,0,1,3.138-3.138h8.477a3.137,3.137,0,0,1,2.713,1.561,7.472,7.472,0,0,0-3.909,6.558v3.841H1.43V29.789a.715.715,0,1,0-1.43,0v4.449a.715.715,0,0,0,.715.715H16.807A8.932,8.932,0,0,0,15.57,38a.715.715,0,0,0,1.4.285,7.592,7.592,0,1,1,0,3.036.715.715,0,0,0-1.4.285,9.022,9.022,0,1,0,16.447-6.652H48.109a.715.715,0,0,0,.715-.715V29.789a.715.715,0,1,0-1.43,0v3.733H36.976V29.682a7.472,7.472,0,0,0-3.909-6.558,3.137,3.137,0,0,1,2.713-1.561h8.477A3.142,3.142,0,0,1,47.394,24.7v1.751a.715.715,0,0,0,.715.715ZM4.706,16.031a4.1,4.1,0,1,1,4.116,4.1H8.792a4.106,4.106,0,0,1-4.087-4.1Zm18.189,8.811-.692.577a1.211,1.211,0,0,1-1.943-.607L19.84,23.3l1.481-.4a3.234,3.234,0,0,0,1.573,1.941ZM27.5,22.9l1.481.4-.419,1.513a1.211,1.211,0,0,1-1.943.607l-.692-.577A3.234,3.234,0,0,0,27.5,22.9Zm4.863-11.013a.827.827,0,0,1-.826.826h-.826V11.063h.826A.827.827,0,0,1,32.367,11.889ZM18,7.747a6.317,6.317,0,1,1,12.634,0V9.633H28.265a1.213,1.213,0,0,1-1.211-1.211.715.715,0,0,0-1.43,0,1.213,1.213,0,0,1-1.211,1.211H18Zm-1.541,4.142a.827.827,0,0,1,.826-.826h.826v1.652h-.826A.827.827,0,0,1,16.458,11.889Zm3.083,2.119V11.063h4.872a2.635,2.635,0,0,0,1.927-.836,2.635,2.635,0,0,0,1.927.836h1.019v2.945a4.872,4.872,0,0,1-9.744,0Zm4.872,6.3a6.281,6.281,0,0,0,1.789-.26V22a1.789,1.789,0,0,1-3.579,0V20.051A6.281,6.281,0,0,0,24.412,20.311Zm11.133,9.371v3.841H30.884a9,9,0,0,0-12.941,0H13.279V29.682a6.037,6.037,0,0,1,4.467-5.822l.712-.191.422,1.525a2.641,2.641,0,0,0,4.237,1.324l1.295-1.079,1.295,1.079a2.642,2.642,0,0,0,4.237-1.324l.422-1.525.712.191A6.037,6.037,0,0,1,35.545,29.682Zm.371-13.65a4.1,4.1,0,1,1,4.116,4.1H40A4.106,4.106,0,0,1,35.916,16.031Z" transform="translate(0 0)" fill="#666"/>
      <path id="Path_3585" data-name="Path 3585" d="M206.828,381.432a2.382,2.382,0,0,0,1.7-.7l3.68-3.68a2.4,2.4,0,0,0-3.391-3.391l-1.985,1.985a2.4,2.4,0,0,0-3.378,3.4l1.683,1.683A2.382,2.382,0,0,0,206.828,381.432Zm-2.366-4.764a.969.969,0,0,1,1.368,0l.493.493a.715.715,0,0,0,1.012,0l2.491-2.491a.967.967,0,1,1,1.368,1.368l-3.68,3.68a.967.967,0,0,1-1.368,0l-1.683-1.682a.968.968,0,0,1,0-1.368Z" transform="translate(-183.415 -337.392)" fill="#666"/>
    </g>
  </g>
</svg>
