<svg xmlns="http://www.w3.org/2000/svg" width="46.449" height="46.449" viewBox="0 0 46.449 46.449">
  <path id="worldwide" d="M39.935,31.887A18.825,18.825,0,0,0,40.2,15.075a5.44,5.44,0,0,0-7.342-8.027,18.847,18.847,0,0,0-18.293-.54,7.3,7.3,0,1,0-8.055,8.054q-.359.692-.662,1.416A.68.68,0,0,0,7.1,16.5,17.611,17.611,0,0,1,9.4,12.549a23.936,23.936,0,0,0,3.094,1.028,26.217,26.217,0,0,0-1.747,8.97H5.776A17.547,17.547,0,0,1,6.227,19.2.68.68,0,1,0,4.9,18.887a18.915,18.915,0,0,0-.5,4.338,18.653,18.653,0,0,0,1.6,7.6,5.442,5.442,0,1,0,6.685,8,18.817,18.817,0,0,0,19.2,1.111,7.3,7.3,0,0,0,.811,2.643.68.68,0,1,0,1.2-.64,5.95,5.95,0,0,1-.694-2.758A18.935,18.935,0,0,0,39.179,33.2a5.942,5.942,0,1,1-3.6,10.694.68.68,0,1,0-.818,1.087,7.3,7.3,0,1,0,5.175-13.1ZM37.04,33.895a24,24,0,0,0-3.078-1.022,26.223,26.223,0,0,0,1.747-8.965h4.966a17.373,17.373,0,0,1-3.634,9.987ZM18.9,23.908c.02,2.773.164,5.44.42,7.844a41.8,41.8,0,0,0-5.493.8A24.74,24.74,0,0,1,12.1,23.908ZM33.185,15.45a25.258,25.258,0,0,1,1.161,7.1H31.931a.68.68,0,1,0,0,1.361h2.416a24.744,24.744,0,0,1-1.721,8.643,41.727,41.727,0,0,0-5.493-.8c.255-2.4.4-5.071.42-7.844h1.466a.68.68,0,0,0,0-1.361H27.553c-.02-2.775-.164-5.444-.42-7.849a42.1,42.1,0,0,0,4.758-.647,5.482,5.482,0,0,0,1.294,1.4Zm-1.9-2.669a41.232,41.232,0,0,1-4.315.565,25.867,25.867,0,0,0-1.807-7.319,10.637,10.637,0,0,1,5.869,4.787c-.006.1-.009.2-.009.3a5.418,5.418,0,0,0,.262,1.667Zm-6.15-2.252c.18.894.338,1.867.474,2.9-1.588.078-3.189.078-4.776,0,.136-1.036.294-2.009.474-2.9.783-3.892,1.666-4.768,1.914-4.768s1.131.876,1.914,4.768Zm-3.86-4.5a25.9,25.9,0,0,0-1.8,7.312,40.744,40.744,0,0,1-5.085-.717c1.71-3.5,4.174-5.833,6.888-6.6Zm-.6,8.752a49.6,49.6,0,0,0,5.1,0c.254,2.37.4,5.011.418,7.761H20.258c.02-2.75.164-5.39.418-7.761Zm5.516,9.122c-.021,2.749-.164,5.387-.418,7.756a50.334,50.334,0,0,0-5.1,0c-.254-2.369-.4-5.007-.418-7.756Zm-6.715,9.2a25.892,25.892,0,0,0,1.8,7.312c-2.715-.762-5.178-3.1-6.888-6.6a40.753,40.753,0,0,1,5.085-.717Zm1.835,2.816c-.18-.894-.338-1.867-.474-2.9,1.588-.078,3.188-.078,4.776,0-.136,1.036-.294,2.009-.474,2.9-.783,3.892-1.666,4.768-1.914,4.768s-1.131-.876-1.914-4.768Zm3.86,4.5a25.9,25.9,0,0,0,1.8-7.312,40.726,40.726,0,0,1,5.085.717c-1.71,3.5-4.174,5.833-6.888,6.6Zm15.5-17.869H35.708a27.04,27.04,0,0,0-.855-6.235,5.443,5.443,0,0,0,4.225-.421,17.229,17.229,0,0,1,1.6,6.656Zm-.122-11.433A4.082,4.082,0,1,1,36.47,7.031a4.087,4.087,0,0,1,4.082,4.082ZM31.946,8.092a5.462,5.462,0,0,0-.5.933,14.093,14.093,0,0,0-1.934-2.1,17.342,17.342,0,0,1,2.435,1.164ZM1.361,7.3a5.942,5.942,0,0,1,11.883-.043q-.293.184-.581.379a18.843,18.843,0,0,0-5.4,5.6A5.948,5.948,0,0,1,1.361,7.3Zm15.606-.39a16.269,16.269,0,0,0-3.934,5.4,23.872,23.872,0,0,1-2.718-.861,17.4,17.4,0,0,1,6.653-4.539ZM13.824,13.9a41.785,41.785,0,0,0,5.493.8c-.256,2.405-.4,5.074-.42,7.849H12.1A24.752,24.752,0,0,1,13.824,13.9ZM5.776,23.908h4.966a26.476,26.476,0,0,0,1.522,8.371,5.441,5.441,0,0,0-4.943-1.832,17.254,17.254,0,0,1-1.545-6.539Zm2.366,16a4.082,4.082,0,1,1,4.082-4.082A4.087,4.087,0,0,1,8.142,39.911Zm5.149-2.322a5.372,5.372,0,0,0,.249-2.45,15.644,15.644,0,0,0,3.427,4.4,17.39,17.39,0,0,1-3.676-1.947ZM29.5,39.522a16.283,16.283,0,0,0,3.918-5.385,24.01,24.01,0,0,1,2.7.854,17.53,17.53,0,0,1-6.62,4.531Zm0,0" transform="translate(-0.001 0)" fill="#8878BF"/>
</svg>
