<svg xmlns="http://www.w3.org/2000/svg" width="43.332" height="51.998" viewBox="0 0 43.332 51.998">
  <g id="earn" transform="translate(-39.999)">
    <g id="Group_828" data-name="Group 828" transform="translate(39.999)">
      <g id="Group_827" data-name="Group 827" transform="translate(0)">
        <path id="Path_2125" data-name="Path 2125" d="M83.077,50.519,71.811,39.253A.866.866,0,0,0,71.2,39h-.1a12.705,12.705,0,0,0,.168-16.967L67.908,18.2h.69a.866.866,0,0,0,.867-.867V6.066A.866.866,0,0,0,68.6,5.2H66.534l1.973-3.946A.867.867,0,0,0,67.731,0H55.6a.867.867,0,0,0-.775,1.254l1.454,2.908L53.506,6.933H40.866A.866.866,0,0,0,40,7.8v9.533a.866.866,0,0,0,.867.867H55.422l-3.354,3.833A12.711,12.711,0,0,0,52.24,39H49.532a.866.866,0,0,0-.867.867V41.6a.866.866,0,0,0,.347.693l10.4,7.8a.868.868,0,0,0,.707.153l7.335-1.63,3.131,3.13A.866.866,0,0,0,71.2,52H82.464a.867.867,0,0,0,.613-1.479ZM50.4,16.466H41.732v-7.8H50.4ZM66.329,1.733,64.6,5.2h-2.1l.037-.828a.866.866,0,0,0-.866-.906h-3.8L57,1.733Zm-14.2,14.733v-7.8h1.733a.866.866,0,0,0,.613-.254L57.691,5.2h3.068l-.037.828a.866.866,0,0,0,.866.906h6.144v9.533h-15.6Zm-1.49,13.962a11.038,11.038,0,0,1,2.732-7.256L57.725,18.2H65.6l4.353,4.973a10.991,10.991,0,0,1-.715,15.258c-.224.212-.443.4-.652.569H61.665a.866.866,0,0,0-.867.867v.867H57.755a10.936,10.936,0,0,1-3.666-2.3A11.076,11.076,0,0,1,50.642,30.428Zm18.775,17.7-1.072-1.072a.871.871,0,0,0-.8-.234l-7.41,1.647-9.734-7.3v-.433h2.433L57.01,42.4a.873.873,0,0,0,.322.062h3.626A2.6,2.6,0,0,0,63.4,44.2H66V42.465H63.4a.867.867,0,0,1-.867-.867v-.867h8.308l2.646,2.646Zm2.141,2.141-.912-.912,4.069-4.747,5.659,5.659Z" transform="translate(-39.999)" fill="#fff"/>
      </g>
    </g>
    <g id="Group_830" data-name="Group 830" transform="translate(57.332 19.066)">
      <g id="Group_829" data-name="Group 829" transform="translate(0)">
        <path id="Path_2126" data-name="Path 2126" d="M204.332,184.666a2.6,2.6,0,1,1,2.6-2.6h1.733a4.34,4.34,0,0,0-3.467-4.246V176h-1.733v1.821a4.333,4.333,0,0,0,.867,8.579,2.6,2.6,0,1,1-2.6,2.6H200a4.34,4.34,0,0,0,3.467,4.246v1.821H205.2v-1.821a4.333,4.333,0,0,0-.867-8.579Z" transform="translate(-199.999 -176)" fill="#fff"/>
      </g>
    </g>
    <g id="Group_832" data-name="Group 832" transform="translate(54.083 27.082)">
      <g id="Group_831" data-name="Group 831" transform="translate(0 0)">
        <rect id="Rectangle_213" data-name="Rectangle 213" width="3" height="2" transform="translate(-0.418 -0.083)" fill="#fff"/>
      </g>
    </g>
    <g id="Group_834" data-name="Group 834" transform="translate(67.08 27.082)">
      <g id="Group_833" data-name="Group 833" transform="translate(0 0)">
        <rect id="Rectangle_214" data-name="Rectangle 214" width="3" height="2" transform="translate(-0.415 -0.083)" fill="#fff"/>
      </g>
    </g>
  </g>
</svg>
