<svg xmlns="http://www.w3.org/2000/svg" width="65.353" height="64.664" viewBox="0 0 65.353 64.664">
  <g id="startup_1_" data-name="startup (1)" transform="matrix(0.695, 0.719, -0.719, 0.695, -39.695, -85.744)">
    <g id="Group_1358" data-name="Group 1358" transform="translate(119.199 0)">
      <path id="Path_3581" data-name="Path 3581" d="M150.782,34.759l-4.593-2.641a40.835,40.835,0,0,0,1.723-9.959,27.51,27.51,0,0,0-.341-4.348.878.878,0,0,0-1.734.278,25.749,25.749,0,0,1,.319,4.07c0,6.713-4.774,19.088-5.863,21.823H130.128c-.258-.646-.722-1.831-1.277-3.342a.878.878,0,0,0-1.648.605c.409,1.114.77,2.054,1.037,2.737h-7.285V36.028l3.778-2.173q.5,1.671,1.106,3.5a.878.878,0,0,0,1.666-.555c-2.12-6.363-3.24-11.425-3.24-14.639a23.833,23.833,0,0,1,2.543-10.946h16.8a22.97,22.97,0,0,1,1.286,3.047.878.878,0,1,0,1.663-.563A25.51,25.51,0,0,0,135.628.105a.878.878,0,0,0-.834,0,21.788,21.788,0,0,0-3.987,3A.878.878,0,0,0,132,4.39,22.377,22.377,0,0,1,135.211,1.9a24.433,24.433,0,0,1,7.4,7.559H127.8A24.378,24.378,0,0,1,129.316,7.3a.878.878,0,1,0-1.381-1.084,25.218,25.218,0,0,0-5.426,15.948,39.717,39.717,0,0,0,1.724,9.958l-4.594,2.641a.878.878,0,0,0-.44.761v9.34a.878.878,0,0,0,.878.878h7.588a7.944,7.944,0,0,0-1.348,4.367c0,3.592,3.105,6.3,3.238,6.417a.878.878,0,0,0,1.32-.206l.322-.523,3.354,3.833a.878.878,0,0,0,1.321,0l3.354-3.833.322.523a.878.878,0,0,0,1.32.206c.132-.114,3.238-2.825,3.238-6.417a7.945,7.945,0,0,0-1.348-4.367h7.588a.878.878,0,0,0,.878-.878V35.52a.878.878,0,0,0-.44-.761Zm-12.9,14.121c0,1.85-1.877,3.076-2.671,3.511-.8-.433-2.667-1.649-2.667-3.511a5.291,5.291,0,0,1,1.067-3.142h3.2A5.289,5.289,0,0,1,137.88,48.881Zm2.572,5.556-.355-.578a.878.878,0,0,0-1.408-.118l-3.477,3.974-3.478-3.974a.878.878,0,0,0-1.408.118l-.355.577a7.042,7.042,0,0,1-1.9-4.332,6.565,6.565,0,0,1,1.821-4.367h1.654a6.911,6.911,0,0,0-.761,3.142c0,3.492,3.909,5.226,4.076,5.3a.878.878,0,0,0,.7,0c.166-.072,4.076-1.806,4.076-5.3a6.911,6.911,0,0,0-.761-3.142h1.653a6.564,6.564,0,0,1,1.821,4.367A7.042,7.042,0,0,1,140.452,54.437Zm9.015-10.454h-7.283c.754-1.92,2.239-5.851,3.508-10.126l3.775,2.171v7.955Z" transform="translate(-119.199 0)" fill="#666"/>
      <path id="Path_3582" data-name="Path 3582" d="M187.89,150.4a7.972,7.972,0,1,0,7.972-7.972A7.981,7.981,0,0,0,187.89,150.4Zm14.188,0a6.216,6.216,0,1,1-6.216-6.216A6.223,6.223,0,0,1,202.078,150.4Z" transform="translate(-179.85 -125.762)" fill="#666"/>
      <path id="Path_3583" data-name="Path 3583" d="M220.215,178.946a4.188,4.188,0,1,0,4.188-4.188A4.193,4.193,0,0,0,220.215,178.946Zm6.621,0a2.433,2.433,0,1,1-2.433-2.433A2.435,2.435,0,0,1,226.836,178.946Z" transform="translate(-208.392 -154.304)" fill="#666"/>
    </g>
  </g>
</svg>
