<svg id="XMLID_340_" xmlns="http://www.w3.org/2000/svg" width="86.545" height="86.545" viewBox="0 0 86.545 86.545">
  <g id="Group_1602" data-name="Group 1602">
    <g id="Group_1601" data-name="Group 1601">
      <path id="Path_4275" data-name="Path 4275" d="M43.273,0A43.273,43.273,0,1,0,86.545,43.273,43.267,43.267,0,0,0,43.273,0Zm0,81.543a38.27,38.27,0,1,1,38.27-38.27A38.27,38.27,0,0,1,43.273,81.543Z" fill="#8878bf"/>
      <path id="Path_4276" data-name="Path 4276" d="M141.03,102.795a2.5,2.5,0,0,0-3.537,0l-2.919,2.919a28.431,28.431,0,1,0-28.426,28.866,2.5,2.5,0,1,0,0-5A23.429,23.429,0,1,1,129.559,105.3l-2.5-2.5a2.5,2.5,0,0,0-3.537,3.537l6.987,6.987a2.5,2.5,0,0,0,3.537,0l6.987-6.987A2.5,2.5,0,0,0,141.03,102.795Z" transform="translate(-62.875 -62.875)" fill="#8878bf"/>
      <path id="Path_4277" data-name="Path 4277" d="M146.852,194.319a12.946,12.946,0,0,0-.2,2.4h14.2v-4.106H153.1c1.7-1.884,5.883-2.7,7.142-5.817a4.835,4.835,0,0,0-1.34-5.3,7.291,7.291,0,0,0-4.719-1.34c-3.529,0-6.4,1.477-7.5,2.709l2.908,3.364c1.567-1.783,2.678-2.11,3.792-2.11a2.442,2.442,0,0,1,1.625.485,1.6,1.6,0,0,1,.57,1.283C155.577,188.259,147.889,188.825,146.852,194.319Z" transform="translate(-118.647 -145.746)" fill="#8878bf"/>
      <path id="Path_4278" data-name="Path 4278" d="M242.517,181.641h-3.108l-9.295,11.918v4.077h7.841v3.906h4.562v-3.906h2.509v-4.106h-2.509Zm-4.02,11.89h-3.878l3.878-5.047Z" transform="translate(-186.17 -146.954)" fill="#8878bf"/>
    </g>
  </g>
</svg>
