<svg xmlns="http://www.w3.org/2000/svg" width="86.52" height="86.545" viewBox="0 0 86.52 86.545">
  <path id="planet-earth" d="M73.924,12.674a43.266,43.266,0,0,0-61.179,61.2,43.266,43.266,0,0,0,61.179-61.2ZM80.517,34.5h-5.01a3.1,3.1,0,0,1-1.372-.322L64.6,29.449a3.069,3.069,0,0,1-1.715-2.765V25.149a3.09,3.09,0,0,1,1.311-2.524l3.894-2.74a8.139,8.139,0,0,0,2.678-3.19A37.93,37.93,0,0,1,80.517,34.5ZM16.33,16.259a37.934,37.934,0,0,1,27-11.189,38.623,38.623,0,0,1,6.763.6v5.391a3.327,3.327,0,0,1-2.667,3.253l-2.811.562A8.41,8.41,0,0,0,37.877,23.1v3.8a3.307,3.307,0,0,1-.895,2.267l-3.795,4.055a8.331,8.331,0,0,0-2.158,7.056,3.317,3.317,0,0,1-4.6,3.566l-5.508-2.4a8.337,8.337,0,0,0-3.35-.7H10.793A34.855,34.855,0,0,1,6.954,31.6,38.03,38.03,0,0,1,16.33,16.259ZM5.145,43.273c0-.723.022-1.442.062-2.159A39.973,39.973,0,0,0,7.269,44.66a2.535,2.535,0,0,0,2.121,1.148h8.181a3.3,3.3,0,0,1,1.325.276l5.508,2.4a8.444,8.444,0,0,0,3.379.714,8.416,8.416,0,0,0,8.252-9.729,3.34,3.34,0,0,1,.853-2.791l3.795-4.055a8.359,8.359,0,0,0,2.263-5.731V23.1a3.327,3.327,0,0,1,2.667-3.253l2.811-.562a8.41,8.41,0,0,0,6.742-8.224V6.931a37.822,37.822,0,0,1,11.709,6.254,8.151,8.151,0,0,0-.631,1.211,3.081,3.081,0,0,1-1.075,1.342l-3.894,2.74a8.165,8.165,0,0,0-3.463,6.671v1.535a8.109,8.109,0,0,0,4.531,7.307l9.538,4.733a8.2,8.2,0,0,0,3.625.85h5.841q.175,1.833.177,3.7a38.889,38.889,0,0,1-.228,4.19,9.35,9.35,0,0,0-6.41-1.011l-4.342.871a4.314,4.314,0,0,1-3.676-.985,9.359,9.359,0,0,0-13.9,1.731l-4.678,6.814a4.312,4.312,0,0,1-2.216,1.654l-3.02.977a9.39,9.39,0,0,0-6.42,9.946l.427,3.808a4.276,4.276,0,0,1-.049,1.278l-1.542,8.123a38.225,38.225,0,0,1-30.33-37.4ZM70.339,70.286a37.934,37.934,0,0,1-27,11.189q-1.426,0-2.834-.1L42,73.491A9.349,9.349,0,0,0,42.1,70.7l-.427-3.808a4.3,4.3,0,0,1,2.942-4.559l3.02-.977a9.407,9.407,0,0,0,4.835-3.608l4.677-6.814a4.289,4.289,0,0,1,6.369-.793,9.414,9.414,0,0,0,8.021,2.148l4.342-.871a4.287,4.287,0,0,1,3.475.819l.023.018.911.691a37.974,37.974,0,0,1-9.954,17.338Z" transform="translate(-0.075)" fill="#8878bf"/>
</svg>
