<svg id="surface1" xmlns="http://www.w3.org/2000/svg" width="71.645" height="86.545" viewBox="0 0 71.645 86.545">
  <path id="Path_4272" data-name="Path 4272" d="M71.561,23.481l0-.067c-.037-.831-.061-1.711-.076-2.689a9.06,9.06,0,0,0-8.4-8.986c-9.673-.555-17.156-3.8-23.55-10.211l-.055-.053a5.275,5.275,0,0,0-7.318,0l-.055.053C25.716,7.938,18.233,11.183,8.56,11.739a9.06,9.06,0,0,0-8.4,8.986C.15,21.7.125,22.576.088,23.414l0,.156C-.1,33.717-.337,46.345,3.769,57.806A43.741,43.741,0,0,0,13.934,74.092a52.893,52.893,0,0,0,19.891,12.1,6.028,6.028,0,0,0,.815.228,5.856,5.856,0,0,0,2.367,0,6.045,6.045,0,0,0,.819-.23A52.93,52.93,0,0,0,57.7,74.085,43.8,43.8,0,0,0,67.86,57.795C71.982,46.3,71.749,33.647,71.561,23.481ZM63.228,56.038C58.9,68.118,50.054,76.415,36.2,81.4a1.212,1.212,0,0,1-.157.044,1.077,1.077,0,0,1-.434,0,1.2,1.2,0,0,1-.155-.043C21.578,76.424,12.73,68.132,8.4,56.051,4.617,45.486,4.831,33.894,5.02,23.667V23.61c.039-.879.064-1.8.078-2.811a4.027,4.027,0,0,1,3.735-3.99,42.3,42.3,0,0,0,14.7-3.327A38.415,38.415,0,0,0,35.518,5.2a.446.446,0,0,1,.611,0,38.43,38.43,0,0,0,11.981,8.28,42.3,42.3,0,0,0,14.7,3.327A4.026,4.026,0,0,1,66.547,20.8c.015,1.017.04,1.937.079,2.81C66.815,33.849,67.024,45.45,63.228,56.038Zm0,0" transform="translate(0 0.001)" fill="#8878bf"/>
  <path id="Path_4273" data-name="Path 4273" d="M111.366,128.41a20.968,20.968,0,1,0,20.967,20.967A20.991,20.991,0,0,0,111.366,128.41Zm0,37a16.031,16.031,0,1,1,16.03-16.031A16.049,16.049,0,0,1,111.366,165.408Zm0,0" transform="translate(-75.544 -106.103)" fill="#8878bf"/>
  <path id="Path_4274" data-name="Path 4274" d="M170.269,212.715l-9.739,9.739-2.643-2.643A2.468,2.468,0,1,0,154.4,223.3l4.389,4.389a2.468,2.468,0,0,0,3.491,0l11.485-11.485a2.468,2.468,0,1,0-3.491-3.491Zm0,0" transform="translate(-128.421 -175.915)" fill="#8878bf"/>
</svg>
