<svg xmlns="http://www.w3.org/2000/svg" width="52.201" height="45" viewBox="0 0 52.201 45">
  <g id="chat" transform="translate(0 -32.003)">
    <path id="Path_4068" data-name="Path 4068" d="M14.5,101.154A16.245,16.245,0,1,0,11.252,97.9L8,104.4Z" transform="translate(-7.102 -35.5)" fill="#d2d2d2"/>
    <g id="Group_1450" data-name="Group 1450" transform="translate(0 32.003)">
      <path id="Path_4069" data-name="Path 4069" d="M.1,64.9A.9.9,0,0,0,1.3,66.108l6.009-3A16.928,16.928,0,0,0,17.1,66.2a17.254,17.254,0,0,0,2.069-.138A17.051,17.051,0,0,0,44.889,73.9l6.009,3A.9.9,0,0,0,52.106,75.7l-3-6.009A16.928,16.928,0,0,0,52.2,59.9,17.119,17.119,0,0,0,35.1,42.8H32.983A17.091,17.091,0,0,0,0,49.1a16.928,16.928,0,0,0,3.1,9.788ZM35.1,44.6A15.317,15.317,0,0,1,50.4,59.9a15.161,15.161,0,0,1-3.068,9.162.9.9,0,0,0-.086.943l2.042,4.083-4.083-2.042a.9.9,0,0,0-.943.086,15.257,15.257,0,0,1-23.289-6.391A17.013,17.013,0,0,0,33.58,44.6ZM1.8,49.1A15.3,15.3,0,1,1,17.1,64.4a15.161,15.161,0,0,1-9.162-3.068A.9.9,0,0,0,7,61.249L2.912,63.291l2.042-4.083a.9.9,0,0,0-.085-.943A15.161,15.161,0,0,1,1.8,49.1Z" transform="translate(0 -32.003)" fill="#8b8b8b"/>
      <path id="Path_4070" data-name="Path 4070" d="M66.7,165.4a2.7,2.7,0,1,0-2.7-2.7A2.7,2.7,0,0,0,66.7,165.4Zm0-3.6a.9.9,0,1,1-.9.9A.9.9,0,0,1,66.7,161.8Z" transform="translate(-56.803 -145.603)" fill="#8b8b8b"/>
      <path id="Path_4071" data-name="Path 4071" d="M130.7,165.4a2.7,2.7,0,1,0-2.7-2.7A2.7,2.7,0,0,0,130.7,165.4Zm0-3.6a.9.9,0,1,1-.9.9A.9.9,0,0,1,130.7,161.8Z" transform="translate(-113.603 -145.603)" fill="#8b8b8b"/>
      <path id="Path_4072" data-name="Path 4072" d="M194.7,165.4a2.7,2.7,0,1,0-2.7-2.7A2.7,2.7,0,0,0,194.7,165.4Zm0-3.6a.9.9,0,1,1-.9.9A.9.9,0,0,1,194.7,161.8Z" transform="translate(-170.403 -145.603)" fill="#8b8b8b"/>
      <path id="Path_4073" data-name="Path 4073" d="M288,258.7a2.7,2.7,0,1,0,2.7-2.7A2.7,2.7,0,0,0,288,258.7Zm2.7-.9a.9.9,0,1,1-.9.9A.9.9,0,0,1,290.7,257.8Z" transform="translate(-255.603 -230.803)" fill="#8b8b8b"/>
      <path id="Path_4074" data-name="Path 4074" d="M354.7,261.4a2.7,2.7,0,1,0-2.7-2.7A2.7,2.7,0,0,0,354.7,261.4Zm0-3.6a.9.9,0,1,1-.9.9A.9.9,0,0,1,354.7,257.8Z" transform="translate(-312.403 -230.803)" fill="#8b8b8b"/>
    </g>
  </g>
</svg>
