<svg xmlns="http://www.w3.org/2000/svg" width="43.526" height="37.108" viewBox="0 0 43.526 37.108">
  <g id="speed" transform="translate(0 -0.001)">
    <path id="Path_4080" data-name="Path 4080" d="M72.8,73.705a.847.847,0,0,0,.6-.249l0,0a.85.85,0,0,0-1.19-1.215l-.018.018a.85.85,0,0,0,.6,1.45Zm0,0" transform="translate(-65.835 -65.875)" fill="#8b8b8b"/>
    <path id="Path_4081" data-name="Path 4081" d="M43.342,18.938A21.89,21.89,0,0,0,37.16,6.379,21.782,21.782,0,0,0,9.177,4a.85.85,0,0,0,.984,1.387q.411-.292.834-.561l2.115,3.663a15.907,15.907,0,0,0-4.628,4.636L4.82,11.012A19.9,19.9,0,0,1,6.062,9.267a.85.85,0,0,0-1.33-1.06A21.788,21.788,0,0,0,2.912,32.65,3.8,3.8,0,1,0,9.5,28.862,14.156,14.156,0,0,1,31.768,11.771a14.168,14.168,0,0,1,3.925,12.577l-8.784-3.323A5.194,5.194,0,1,0,25.845,25l9.266,1.514a14.317,14.317,0,0,1-1.088,2.348,3.8,3.8,0,0,0,6.589,3.789,21.866,21.866,0,0,0,2.73-13.713ZM8.028,29.711A2.1,2.1,0,1,1,4.386,31.8a19.883,19.883,0,0,1-2.674-9.176H5.929a15.945,15.945,0,0,0,2.1,7.084ZM6.04,19.7c-.054.407-.09.815-.112,1.223H1.715q.039-.881.154-1.765a20.159,20.159,0,0,1,2.1-6.674L7.632,14.6A15.8,15.8,0,0,0,6.04,19.7Zm13.249,4.55a3.5,3.5,0,1,1,5.636-3.977L22.5,19.358a2.265,2.265,0,0,0-1.854.121,2.6,2.6,0,0,0-1,3.731,2.266,2.266,0,0,0,1.545,1.032l2.558.418a3.505,3.505,0,0,1-4.461-.406ZM25.6,23.237h-.007l-4.123-.673a.587.587,0,0,1-.392-.276.9.9,0,0,1,.347-1.3.657.657,0,0,1,.295-.076.512.512,0,0,1,.182.033l3.9,1.474.025.009,3.92,1.483ZM22.613,5.949V1.72a19.937,19.937,0,0,1,8.446,2.254L28.943,7.638a15.742,15.742,0,0,0-6.331-1.689ZM12.467,3.975a19.918,19.918,0,0,1,8.445-2.256v4.23a15.742,15.742,0,0,0-6.331,1.689ZM30.414,8.491,32.53,4.826a20.289,20.289,0,0,1,6.18,6.183l-3.667,2.118a15.91,15.91,0,0,0-4.628-4.636ZM35.894,14.6l3.667-2.117a20.085,20.085,0,0,1,2.1,6.679q.116.884.154,1.765H37.6q-.032-.613-.112-1.223a15.8,15.8,0,0,0-1.592-5.1Zm3.245,17.2A2.1,2.1,0,0,1,35.5,29.712a15.76,15.76,0,0,0,1.309-2.921l1.036.169a.85.85,0,0,0,.438-1.634l-.984-.372a16.056,16.056,0,0,0,.3-2.328h4.218A19.88,19.88,0,0,1,39.139,31.8Zm0,0" transform="translate(0 0)" fill="#8b8b8b"/>
    <path id="Path_4082" data-name="Path 4082" d="M197.045,354.5h-10.2a.85.85,0,0,0-.85.85v2.721a.85.85,0,0,0,.85.85h10.2a.85.85,0,0,0,.85-.85v-2.721A.85.85,0,0,0,197.045,354.5Zm-.85,2.721h-8.5V356.2h8.5Zm0,0" transform="translate(-170.181 -324.359)" fill="#8b8b8b"/>
    <path id="Path_4083" data-name="Path 4083" d="M99.026,246.145a.85.85,0,1,0,0,1.7h.02a.85.85,0,1,0,0-1.7Zm0,0" transform="translate(-89.83 -225.219)" fill="#8b8b8b"/>
    <path id="Path_4084" data-name="Path 4084" d="M173.7,118.571l-.01-.018a.85.85,0,1,0-1.472.851l.01.017a.85.85,0,1,0,1.472-.85Zm0,0" transform="translate(-157.471 -108.086)" fill="#8b8b8b"/>
    <path id="Path_4085" data-name="Path 4085" d="M320.656,119.864a.849.849,0,0,0,.737-.425l.01-.018a.85.85,0,1,0-1.472-.85l-.01.018a.851.851,0,0,0,.736,1.275Zm0,0" transform="translate(-292.62 -108.102)" fill="#8b8b8b"/>
    <path id="Path_4086" data-name="Path 4086" d="M394.456,247.877a.85.85,0,0,0,0-1.7h-.02a.85.85,0,1,0,0,1.7Zm0,0" transform="translate(-360.127 -225.248)" fill="#8b8b8b"/>
    <path id="Path_4087" data-name="Path 4087" d="M211.866,416.5h-.02a.85.85,0,1,0,0,1.7h.02a.85.85,0,1,0,0-1.7Zm0,0" transform="translate(-193.059 -381.096)" fill="#8b8b8b"/>
    <path id="Path_4088" data-name="Path 4088" d="M244.3,416.5h-3.489a.85.85,0,0,0,0,1.7H244.3a.85.85,0,0,0,0-1.7Zm0,0" transform="translate(-219.566 -381.096)" fill="#8b8b8b"/>
  </g>
</svg>
