<svg xmlns="http://www.w3.org/2000/svg" width="42.57" height="44.696" viewBox="0 0 42.57 44.696">
  <g id="encryption" transform="translate(-16.523 -14.15)">
    <path id="Path_4075" data-name="Path 4075" d="M59.955,30.363H58.884V23.715a9.565,9.565,0,1,0-19.13,0v6.648H38.683a3.612,3.612,0,0,0-3.607,3.607v.7H25.408a.785.785,0,0,0,0,1.569h9.669V38.33H28.818a.785.785,0,0,0,0,1.569h6.258v2.092H25.408a.785.785,0,0,0,0,1.569h9.669v2.092H28.818a.785.785,0,0,0,0,1.569h6.258v2.092H25.408a.785.785,0,1,0,0,1.569h9.669v2.092H28.818a.785.785,0,1,0,0,1.569h6.258v.695a3.612,3.612,0,0,0,3.607,3.607H59.955a3.612,3.612,0,0,0,3.607-3.607V33.97a3.612,3.612,0,0,0-3.607-3.607ZM41.323,23.715a8,8,0,1,1,15.992,0v6.648H55.573V23.714a6.254,6.254,0,0,0-12.508,0v6.649H41.323Zm3.311,6.648V23.714a4.685,4.685,0,1,1,9.37,0v6.649ZM61.993,55.239a2.04,2.04,0,0,1-2.038,2.038H38.683a2.04,2.04,0,0,1-2.038-2.038V50.883h3.893a.785.785,0,1,0,0-1.569H36.645V43.56h3.893a.785.785,0,0,0,0-1.569H36.645V36.238h3.893a.785.785,0,1,0,0-1.569H36.645v-.7a2.041,2.041,0,0,1,2.038-2.038H59.955a2.041,2.041,0,0,1,2.038,2.038Z" transform="translate(-4.469)" fill="#8b8b8b"/>
    <path id="Path_4076" data-name="Path 4076" d="M77.258,67.5a4.086,4.086,0,1,0-5.223,6.284v3.682a2.626,2.626,0,1,0,5.253,0V73.785a4.087,4.087,0,0,0-.03-6.285Zm-1.194,5.245a.784.784,0,0,0-.347.651v4.072a1.057,1.057,0,0,1-2.114,0V73.395a.785.785,0,0,0-.346-.651,2.518,2.518,0,0,1,.891-4.556,2.725,2.725,0,0,1,.517-.05,2.481,2.481,0,0,1,1.6.574,2.517,2.517,0,0,1-.2,4.035Z" transform="translate(-29.811 -28.911)" fill="#8b8b8b"/>
    <path id="Path_4077" data-name="Path 4077" d="M17.308,69.652h3.631a.785.785,0,0,0,0-1.569H17.308a.785.785,0,1,0,0,1.569Z" transform="translate(0 -29.753)" fill="#8b8b8b"/>
    <path id="Path_4078" data-name="Path 4078" d="M17.308,85.986h3.631a.785.785,0,1,0,0-1.569H17.308a.785.785,0,1,0,0,1.569Z" transform="translate(0 -38.765)" fill="#8b8b8b"/>
    <path id="Path_4079" data-name="Path 4079" d="M20.939,100.75H17.308a.785.785,0,0,0,0,1.569h3.631a.785.785,0,1,0,0-1.569Z" transform="translate(0 -47.775)" fill="#8b8b8b"/>
  </g>
</svg>
