<svg id="Group_1449" data-name="Group 1449" xmlns="http://www.w3.org/2000/svg" width="40.897" height="40.897" viewBox="0 0 40.897 40.897">
  <path id="Path_4067" data-name="Path 4067" d="M20.448,0A20.448,20.448,0,1,0,40.9,20.448,20.437,20.437,0,0,0,20.448,0ZM12.536,4.214a46.645,46.645,0,0,0-1.558,5.136A32.314,32.314,0,0,1,7.365,8.011,18.1,18.1,0,0,1,12.536,4.214ZM5.778,9.924a34.746,34.746,0,0,0,4.7,1.778,47.288,47.288,0,0,0-.792,7.549H2.436A17.881,17.881,0,0,1,5.778,9.924Zm0,21.049a17.881,17.881,0,0,1-3.342-9.326H9.683a47.288,47.288,0,0,0,.792,7.549A34.75,34.75,0,0,0,5.778,30.973Zm1.587,1.913a32.276,32.276,0,0,1,3.614-1.339,46.662,46.662,0,0,0,1.558,5.136A18.1,18.1,0,0,1,7.365,32.887ZM19.25,38.461a18.058,18.058,0,0,1-3.685-.625,44.4,44.4,0,0,1-2.268-6.9,32.534,32.534,0,0,1,5.953-.76Zm0-10.681a34.933,34.933,0,0,0-6.45.813,44.913,44.913,0,0,1-.72-6.945h7.17Zm0-8.529H12.08A44.913,44.913,0,0,1,12.8,12.3a34.933,34.933,0,0,0,6.45.813Zm0-8.53A32.534,32.534,0,0,1,13.3,9.96a44.4,44.4,0,0,1,2.268-6.9,18.058,18.058,0,0,1,3.685-.625Zm15.869-.8a17.881,17.881,0,0,1,3.342,9.326H31.214a47.288,47.288,0,0,0-.792-7.549A34.75,34.75,0,0,0,35.119,9.924ZM33.532,8.01a32.276,32.276,0,0,1-3.614,1.339,46.663,46.663,0,0,0-1.558-5.136A18.1,18.1,0,0,1,33.532,8.01ZM21.647,2.436a18.058,18.058,0,0,1,3.685.625A44.4,44.4,0,0,1,27.6,9.96a32.535,32.535,0,0,1-5.953.76Zm0,10.681A34.933,34.933,0,0,0,28.1,12.3a44.912,44.912,0,0,1,.72,6.945h-7.17Zm3.685,24.718a18.051,18.051,0,0,1-3.685.625V30.177a32.535,32.535,0,0,1,5.953.76A44.394,44.394,0,0,1,25.332,37.835ZM21.647,27.779V21.647h7.17a44.912,44.912,0,0,1-.72,6.945A34.933,34.933,0,0,0,21.647,27.779Zm6.714,8.9a46.645,46.645,0,0,0,1.558-5.136,32.315,32.315,0,0,1,3.614,1.339A18.1,18.1,0,0,1,28.361,36.683Zm6.758-5.71a34.747,34.747,0,0,0-4.7-1.778,47.288,47.288,0,0,0,.792-7.549h7.247A17.881,17.881,0,0,1,35.119,30.973Z" fill="#8b8b8b"/>
</svg>
