<svg id="Group_1536" data-name="Group 1536" xmlns="http://www.w3.org/2000/svg" width="19.864" height="19.507" viewBox="0 0 19.864 19.507">
  <path id="Path_4216" data-name="Path 4216" d="M262.065,90.9h-.9a9.079,9.079,0,0,0-8.85-8.1c-.1,0-.208,0-.312,0v3.155l.158,0a5.909,5.909,0,0,1,5.823,4.951h-.987a.794.794,0,0,0-.673,1.217l2.536,4.043a.8.8,0,0,0,1.346,0l2.536-4.043A.794.794,0,0,0,262.065,90.9Z" transform="translate(-242.997 -81.397)" fill="#1c3aa9"/>
  <path id="Path_4217" data-name="Path 4217" d="M94.989,58.853l-4.043-2.536a.794.794,0,0,0-1.217.673v.853a9.069,9.069,0,0,0-6.939,8.917,8.609,8.609,0,0,0,.278,2.062h3.293a5.843,5.843,0,0,1-.417-2.087,5.908,5.908,0,0,1,3.784-5.594v.922a.794.794,0,0,0,1.217.673L94.989,60.2A.8.8,0,0,0,94.989,58.853Z" transform="translate(-82.684 -56.194)" fill="#4285f4"/>
  <path id="Path_4218" data-name="Path 4218" d="M93.336,258.583a1.585,1.585,0,0,0-1.609-.383,5.886,5.886,0,0,1-6.235-1.74l.827-.535a.8.8,0,0,0-.1-1.387L81.9,252.523a.794.794,0,0,0-1.13.732l.069,4.772a.794.794,0,0,0,1.226.655l.807-.523A8.94,8.94,0,0,0,92.72,261.2,1.576,1.576,0,0,0,93.336,258.583Z" transform="translate(-80.766 -242.129)" fill="#d6d6d6"/>
</svg>
