<svg id="user_1_" data-name="user (1)" xmlns="http://www.w3.org/2000/svg" width="52.65" height="52.65" viewBox="0 0 52.65 52.65">
  <g id="Group_1551" data-name="Group 1551">
    <path id="Path_4248" data-name="Path 4248" d="M26.325,0A26.311,26.311,0,0,0,6.032,43.075c.01.013.011.03.021.042a26.318,26.318,0,0,0,9.94,7.418l.131.057c.308.13.62.25.932.368.123.047.246.094.37.139q.4.145.813.276c.175.056.349.111.526.164q.362.108.727.207c.214.058.43.111.646.163s.438.105.658.152c.246.053.494.1.743.145.2.037.4.075.6.108.276.045.555.08.834.116.18.023.359.049.54.068.316.033.634.057.954.079.148.011.3.026.445.034q.7.039,1.412.04c.475,0,.946-.014,1.414-.039.149-.008.3-.024.445-.034.319-.023.638-.046.954-.079.181-.019.36-.046.54-.068.279-.036.557-.071.834-.116.2-.032.4-.071.6-.108.248-.046.5-.092.743-.145.22-.047.439-.1.658-.152s.432-.106.646-.163c.244-.065.486-.135.727-.207.176-.053.351-.108.526-.164q.409-.132.813-.276c.124-.045.247-.092.37-.139.313-.118.624-.239.932-.368l.131-.057a26.325,26.325,0,0,0,9.94-7.418c.011-.012.011-.03.021-.042A26.314,26.314,0,0,0,26.325,0ZM36.993,48.456l-.039.019c-.313.151-.632.293-.953.432L35.784,49q-.421.176-.851.336c-.119.045-.239.089-.359.131-.254.09-.508.177-.765.26-.16.051-.32.1-.481.147-.228.068-.457.134-.689.2-.195.052-.391.1-.588.146s-.412.1-.62.143c-.227.048-.456.09-.684.131-.185.034-.369.07-.556.1-.257.04-.517.073-.776.105-.164.021-.327.046-.493.063-.3.032-.594.052-.892.073-.133.009-.264.024-.4.031q-.652.034-1.307.035t-1.306-.035c-.133-.007-.265-.021-.4-.031-.3-.02-.6-.041-.892-.073-.166-.018-.329-.042-.493-.063-.259-.032-.519-.065-.776-.105-.187-.03-.371-.066-.556-.1-.229-.041-.458-.083-.684-.131-.208-.044-.414-.094-.62-.143s-.393-.094-.588-.146c-.231-.061-.461-.128-.689-.2-.161-.047-.321-.1-.481-.147q-.386-.124-.765-.26l-.359-.131q-.429-.161-.851-.336c-.073-.03-.144-.061-.217-.092-.321-.138-.64-.281-.954-.432l-.039-.019A24.689,24.689,0,0,1,7.7,42.32,19.368,19.368,0,0,1,20.373,29.035c.122.075.249.141.375.211.074.041.147.085.221.125.261.139.527.269.8.385.208.091.423.168.637.247l.126.047a11.2,11.2,0,0,0,7.59,0L30.246,30c.214-.079.429-.156.637-.247.271-.117.536-.247.8-.385.075-.04.147-.083.221-.125.125-.07.254-.137.376-.212A19.373,19.373,0,0,1,44.954,42.319,24.714,24.714,0,0,1,36.993,48.456ZM16.673,19.305a9.653,9.653,0,1,1,14.9,8.088,9.3,9.3,0,0,1-1.075.6c-.044.021-.087.043-.131.063a9.873,9.873,0,0,1-8.091,0c-.044-.02-.088-.042-.131-.063a9.222,9.222,0,0,1-1.075-.6A9.646,9.646,0,0,1,16.673,19.305Zm29.6,21.344A21.143,21.143,0,0,0,33.944,27.772a11.408,11.408,0,1,0-15.236,0A21.146,21.146,0,0,0,6.381,40.649,24.564,24.564,0,1,1,50.9,26.325,24.431,24.431,0,0,1,46.27,40.649Z" fill="#fff"/>
  </g>
</svg>
