<svg xmlns="http://www.w3.org/2000/svg" width="56.451" height="52.435" viewBox="0 0 56.451 52.435">
  <g id="earnings" transform="translate(-10 -27.5)">
    <path id="Path_4262" data-name="Path 4262" d="M60.173,265.914l-.319.175a3.923,3.923,0,0,0-4.727-1.225l-.015.008-.708.387a5.1,5.1,0,0,0-5.939-.561l-3.7,2.046H39.839a7.038,7.038,0,0,1-3.088-.719l-.676-.333a11.4,11.4,0,0,0-12.027,1.193.56.56,0,0,0-.044.036L22.372,268.4a5.682,5.682,0,0,1-2.19,1.234l-.943-3.142A.688.688,0,0,0,18.58,266H10.689a.688.688,0,0,0-.683.77l2.63,21.921a.688.688,0,0,0,.683.606H25.156a.688.688,0,0,0,.659-.886l-1.57-5.234,4.882-3.136a2.911,2.911,0,0,1,2.154-.284l.044.01,9.852,1.843a12.532,12.532,0,0,0,7.855-1.127.692.692,0,0,0,.084-.05l17.04-11.89a.688.688,0,0,0,.2-.915A4.594,4.594,0,0,0,60.173,265.914Zm-4.409.17a2.518,2.518,0,0,1,2.856.681l-6.539,3.585-.422.226a5.661,5.661,0,0,0-.94-1.73Zm-6.626-.185.016-.009a3.724,3.724,0,0,1,3.928.093l-3.4,1.86a5.5,5.5,0,0,0-2.257-1ZM13.93,287.921l-2.465-20.544h6.6l6.163,20.544Zm34.44-8.645a11.145,11.145,0,0,1-6.942.981L31.6,278.417a4.283,4.283,0,0,0-3.168.436l-.032.019-4.565,2.932-3.256-10.854a7.056,7.056,0,0,0,2.718-1.532l1.61-1.457a10.035,10.035,0,0,1,10.561-1.034l.676.332a8.424,8.424,0,0,0,3.7.861h6.554a4.214,4.214,0,0,1,4.124,3.54l-4.81-.221a27.973,27.973,0,0,0-5.163.242.688.688,0,0,0,.192,1.363,26.579,26.579,0,0,1,4.908-.23l5.59.257h.032a.688.688,0,0,0,.688-.688c0-.133-.006-.265-.015-.4l.8-.428,8.1-4.44a3.213,3.213,0,0,1,3.96.694Z" transform="translate(0 -209.363)" fill="#2d2d2d"/>
    <path id="Path_4263" data-name="Path 4263" d="M65.35,427.384a2.267,2.267,0,1,0,2.267-2.292A2.267,2.267,0,0,0,65.35,427.384Zm2.267-.915a.916.916,0,1,1-.89.915.9.9,0,0,1,.89-.915Z" transform="translate(-48.999 -351.974)" fill="#2d2d2d"/>
    <path id="Path_4264" data-name="Path 4264" d="M188.294,27.5A12.5,12.5,0,1,0,200.809,40a12.521,12.521,0,0,0-12.515-12.5Zm0,23.622A11.123,11.123,0,1,1,199.432,40,11.123,11.123,0,0,1,188.294,51.122Z" transform="translate(-146.758)" fill="#2d2d2d"/>
    <path id="Path_4265" data-name="Path 4265" d="M257.736,69.785a2.323,2.323,0,0,1,2.245,1.71.688.688,0,0,0,1.34-.319,3.719,3.719,0,0,0-3.029-2.716v-.871a.688.688,0,0,0-1.377,0v.873a3.061,3.061,0,0,0-1.647.812,3.775,3.775,0,0,0-1.024,2.671,3.227,3.227,0,0,0,2.706,3.062l.138.027.35.07c.051.01.183.05.239.067a.494.494,0,0,1,.058.022l.028.011.216.084a.57.57,0,0,1,.056.025c.1.053.127.067.2.111l.113.067.023.015.024.015a2.793,2.793,0,0,1,1.38,1.952,1.912,1.912,0,0,1-.507,1.516,2.543,2.543,0,0,1-3.221.18,1.758,1.758,0,0,1-.808-1.218.688.688,0,1,0-1.369.15,3.6,3.6,0,0,0,3.043,2.885v.737a.688.688,0,1,0,1.377,0v-.776a3.77,3.77,0,0,0,1.951-.984,3.3,3.3,0,0,0,.91-2.547,4.091,4.091,0,0,0-2.035-3.069l-.063-.04-.116-.068c-.09-.053-.139-.082-.271-.15a1.951,1.951,0,0,0-.189-.085l-.2-.079a1.873,1.873,0,0,0-.2-.072c-.135-.041-.266-.08-.379-.1l-.343-.068-.14-.028a1.836,1.836,0,0,1-1.6-1.731,2.357,2.357,0,0,1,.607-1.665,1.957,1.957,0,0,1,1.509-.476Z" transform="translate(-215.886 -34.879)" fill="#2d2d2d"/>
  </g>
</svg>
