<svg xmlns="http://www.w3.org/2000/svg" width="52.65" height="52.65" viewBox="0 0 52.65 52.65">
  <g id="dashboard" transform="translate(-1 -1)">
    <path id="Path_4249" data-name="Path 4249" d="M48.555,29.474V12.821a5.941,5.941,0,1,0-6.794-5.876H1V40.912H26.519A13.578,13.578,0,1,0,48.555,29.474ZM47.706,2.7A4.246,4.246,0,1,1,43.46,6.944,4.251,4.251,0,0,1,47.706,2.7ZM2.7,8.643H42.012a5.941,5.941,0,0,0,.94,1.856l-5.194,5.194a2.459,2.459,0,0,0-2.183,0l-1.711-1.711a2.524,2.524,0,0,0,.255-1.092,2.548,2.548,0,1,0-5.1,0,2.506,2.506,0,0,0,.256,1.091L25.02,18.239a2.524,2.524,0,0,0-1.092-.255,2.548,2.548,0,1,0,2.548,2.548,2.506,2.506,0,0,0-.256-1.091l4.259-4.259a2.463,2.463,0,0,0,2.183,0l1.711,1.711a2.524,2.524,0,0,0-.255,1.092,2.548,2.548,0,1,0,5.1,0,2.506,2.506,0,0,0-.256-1.091L44.153,11.7a5.908,5.908,0,0,0,2.7,1.123V28.315a13.5,13.5,0,0,0-16.984,2.791V27.325h-5.1v10.19h1.946a13.623,13.623,0,0,0-.2,1.7H2.7Zm33.968,8.492a.849.849,0,1,1-.849.849A.85.85,0,0,1,36.666,17.135Zm-5.944-4.246a.849.849,0,1,1,.849.849A.85.85,0,0,1,30.722,12.889Zm-5.944,7.643a.849.849,0,1,1-.849-.849A.85.85,0,0,1,24.778,20.532ZM40.063,46.857a6.794,6.794,0,1,1,6.794-6.794A6.8,6.8,0,0,1,40.063,46.857ZM28.174,33.5a13.485,13.485,0,0,0-1.01,2.317h-.689V29.024h1.7Zm11.04-5.282v3.4a8.474,8.474,0,0,0-6.886,11.934l-2.946,1.7a11.848,11.848,0,0,1,9.832-17.032Zm.849,23.734a11.883,11.883,0,0,1-9.841-5.227l2.958-1.708a8.464,8.464,0,0,0,13.766,0L49.9,46.725A11.883,11.883,0,0,1,40.063,51.952Zm10.681-6.7-2.946-1.7a8.474,8.474,0,0,0-6.886-11.934v-3.4a11.848,11.848,0,0,1,9.832,17.032Z" fill="#fff"/>
    <path id="Path_4250" data-name="Path 4250" d="M46.1,41a5.1,5.1,0,1,0,5.1,5.1A5.1,5.1,0,0,0,46.1,41Zm0,8.492a3.4,3.4,0,1,1,3.4-3.4A3.4,3.4,0,0,1,46.1,49.492Z" transform="translate(-6.032 -6.032)" fill="#fff"/>
    <path id="Path_4251" data-name="Path 4251" d="M5,12H6.7v1.7H5Z" transform="translate(-0.603 -1.659)" fill="#fff"/>
    <path id="Path_4252" data-name="Path 4252" d="M9,12H20.889v1.7H9Z" transform="translate(-1.206 -1.659)" fill="#fff"/>
    <path id="Path_4253" data-name="Path 4253" d="M5,16H6.7v1.7H5Z" transform="translate(-0.603 -2.262)" fill="#fff"/>
    <path id="Path_4254" data-name="Path 4254" d="M9,16H20.889v1.7H9Z" transform="translate(-1.206 -2.262)" fill="#fff"/>
    <path id="Path_4255" data-name="Path 4255" d="M5,20H6.7v1.7H5Z" transform="translate(-0.603 -2.865)" fill="#fff"/>
    <path id="Path_4256" data-name="Path 4256" d="M9,20H20.889v1.7H9Z" transform="translate(-1.206 -2.865)" fill="#fff"/>
    <path id="Path_4257" data-name="Path 4257" d="M5,24H6.7v1.7H5Z" transform="translate(-0.603 -3.468)" fill="#fff"/>
    <path id="Path_4258" data-name="Path 4258" d="M9,24H20.889v1.7H9Z" transform="translate(-1.206 -3.468)" fill="#fff"/>
    <path id="Path_4259" data-name="Path 4259" d="M5,42.492h5.1V34H5ZM6.7,35.7H8.4v5.1H6.7Z" transform="translate(-0.603 -4.976)" fill="#fff"/>
    <path id="Path_4260" data-name="Path 4260" d="M13,42.794h5.1V36H13Zm1.7-5.1h1.7v3.4H14.7Z" transform="translate(-1.81 -5.278)" fill="#fff"/>
    <path id="Path_4261" data-name="Path 4261" d="M21,41.587h5.1V28H21ZM22.7,29.7h1.7v10.19H22.7Z" transform="translate(-3.016 -4.072)" fill="#fff"/>
  </g>
</svg>
