<svg xmlns="http://www.w3.org/2000/svg" width="212" height="260.646" viewBox="0 0 212 260.646">
  <g id="placeholder" transform="translate(-47.592)">
    <path id="Path_53" data-name="Path 53" d="M301.578,175.546l40.9,40.714a102.339,102.339,0,0,1-102.135,98.168L232.768,208.6l7.576-98.6Z" transform="translate(-90.538 -53.782)" fill="#5a4fa0"/>
    <path id="Path_54" data-name="Path 54" d="M149.806,110V314.428a102.039,102.039,0,0,1-25.553-3.234L49.159,230.1A102.419,102.419,0,0,1,63.8,156.957l.7-1.083,50.933-39.955,1.227-.419a101.993,101.993,0,0,1,33.148-5.5Z" transform="translate(0 -53.782)" fill="#e6f5fd"/>
    <path id="Path_55" data-name="Path 55" d="M343.431,0a40.885,40.885,0,0,0-40.839,40.839c0,33.1,34.961,57.9,36.449,58.94l4.729,3.3,4.483-3.63c1.471-1.19,36.016-29.49,36.016-58.613A40.885,40.885,0,0,0,343.431,0Z" transform="translate(-124.677)" fill="#ec328d"/>
    <path id="Path_56" data-name="Path 56" d="M367.408,67.937H382.74V83.269H367.408Z" transform="translate(-156.368 -33.216)" fill="#9ee2f8"/>
    <path id="Path_57" data-name="Path 57" d="M93.615,77.063A40.885,40.885,0,0,0,52.776,117.9c0,33.1,34.961,57.9,36.449,58.94l4.729,3.3,4.483-3.63c1.471-1.19,36.016-29.49,36.016-58.613A40.885,40.885,0,0,0,93.615,77.063Z" transform="translate(-2.535 -37.678)" fill="#f83795"/>
    <path id="Path_58" data-name="Path 58" d="M87.213,345H50.662a102.533,102.533,0,0,0,75.092,81.093V383.541A38.541,38.541,0,0,0,87.213,345Z" transform="translate(-1.501 -168.681)" fill="#34bc9f"/>
    <path id="Path_59" data-name="Path 59" d="M117.592,145h15.332v15.332H117.592Z" transform="translate(-34.225 -70.895)" fill="#e7f9fb"/>
    <path id="Path_60" data-name="Path 60" d="M247.592,216.27H349.719v-.01q.038-.956.06-1.916c.015-.709.027-1.418.027-2.13A102.33,102.33,0,0,0,247.592,110V216.27Z" transform="translate(-97.786 -53.782)" fill="#34bc9f"/>
    <path id="Path_61" data-name="Path 61" d="M309.772,275.84c0,29.121-34.548,57.424-36.015,58.615l-4.487,3.629-4.727-3.307a109.987,109.987,0,0,1-23.673-23.663l-7.027-33.728,7.027-31.194a40.822,40.822,0,0,1,68.9,29.647Z" transform="translate(-91.063 -114.899)" fill="#ec328d"/>
    <path id="Path_62" data-name="Path 62" d="M235.369,256.9v64.921c-6.976-9.685-12.777-21.787-12.777-35.274A40.734,40.734,0,0,1,235.369,256.9Z" transform="translate(-85.563 -125.606)" fill="#f83795"/>
    <path id="Path_63" data-name="Path 63" d="M287.408,302.937H302.74v15.332H287.408Z" transform="translate(-117.253 -148.115)" fill="#9ee2f8"/>
  </g>
</svg>
