<svg id="Group_23" data-name="Group 23" xmlns="http://www.w3.org/2000/svg" xmlns:xlink="http://www.w3.org/1999/xlink" width="32.831" height="36.934" viewBox="0 0 32.831 36.934">
  <defs>
    <clipPath id="clip-path">
      <path id="Clip_2" data-name="Clip 2" d="M0,0H32.759V36.626H0Z" fill="none"/>
    </clipPath>
    <clipPath id="clip-path-2">
      <path id="Clip_15" data-name="Clip 15" d="M0,35.908H32.831V0H0Z" fill="none"/>
    </clipPath>
  </defs>
  <g id="Group_3" data-name="Group 3" transform="translate(0 0.309)">
    <path id="Clip_2-2" data-name="Clip 2" d="M0,0H32.759V36.626H0Z" fill="none"/>
    <g id="Group_3-2" data-name="Group 3" clip-path="url(#clip-path)">
      <path id="Fill_1" data-name="Fill 1" d="M31.035,30.958a4.2,4.2,0,0,1-1.724-3.488,20.045,20.045,0,0,0-5.776-14.127l-3.707-3.75V6.977l3.017-3.837a2.1,2.1,0,0,0,.431-1.221A1.925,1.925,0,0,0,21.38,0H18.1l-.862,1.744L15.518,0H11.379a1.925,1.925,0,0,0-1.9,1.918,2.1,2.1,0,0,0,.431,1.221l3.017,3.837V9.593l-3.707,3.75A20.044,20.044,0,0,0,3.448,27.469a4.2,4.2,0,0,1-1.724,3.488A4.2,4.2,0,0,0,0,34.446a2.147,2.147,0,0,0,2.155,2.18H30.6a2.147,2.147,0,0,0,2.155-2.18,4.2,4.2,0,0,0-1.724-3.488" fill="#c97629"/>
    </g>
  </g>
  <path id="Fill_4" data-name="Fill 4" d="M31.1,30.424a4.366,4.366,0,0,1-1.733-3.514A20.175,20.175,0,0,0,23.129,12.6L19.837,9.427V6.856l3.032-3.771A1.908,1.908,0,0,0,23.042.857,1.931,1.931,0,0,0,21.309,0a.906.906,0,0,0-.779,1.2,1.605,1.605,0,0,1,.173.686,2.032,2.032,0,0,1-.433,1.2L17.238,6.856V9.427H12.907l-.866.857H18.1l3.205,3.171a16.526,16.526,0,0,1,4.591,13.2,4.269,4.269,0,0,0,1.646,3.685c.087.086.173.171.26.171a2.248,2.248,0,0,1-1.819,3.685H0a2.132,2.132,0,0,0,2.079,1.714H30.665a2.133,2.133,0,0,0,2.166-2.142v-.171A3.973,3.973,0,0,0,31.1,30.424" transform="translate(0 0)" fill="#b06328"/>
  <path id="Fill_6" data-name="Fill 6" d="M8.977,3.078H1.282A1.465,1.465,0,0,1,0,1.539,1.465,1.465,0,0,1,1.282,0H8.977A1.465,1.465,0,0,1,10.26,1.539,1.465,1.465,0,0,1,8.977,3.078" transform="translate(11.286 7.182)" fill="#ffcb5b"/>
  <path id="Fill_8" data-name="Fill 8" d="M.428,0H4.7c.257,0,.428.205.428.513s-.171.513-.428.513H.428C.171,1.026,0,.821,0,.513S.171,0,.428,0" transform="translate(12.311 7.182)" fill="#ffe278"/>
  <path id="Fill_10" data-name="Fill 10" d="M8.966,0H8.535V1.026c0,.616-.345,1.026-.862,1.026H0A1.334,1.334,0,0,0,1.207,3.078H8.966A1.469,1.469,0,0,0,10.26,1.539,1.469,1.469,0,0,0,8.966,0" transform="translate(11.286 7.182)" fill="#f6b545"/>
  <path id="Fill_12" data-name="Fill 12" d="M.385,0H2.693c.231,0,.385.205.385.513s-.154.513-.385.513H.385C.154,1.026,0,.821,0,.513S.154,0,.385,0" transform="translate(17.441 8.208)" fill="#f19920"/>
  <path id="Clip_15-2" data-name="Clip 15" d="M0,35.908H32.831V0H0Z" transform="translate(0 1.026)" fill="none"/>
  <g id="Mask_Group_1" data-name="Mask Group 1" transform="translate(0 1.026)" clip-path="url(#clip-path-2)">
    <path id="Fill_14" data-name="Fill 14" d="M0,7.182H2.052V0H0Z" transform="translate(15.389 8.208)" fill="#f6b545"/>
    <path id="Fill_16" data-name="Fill 16" d="M0,0V.9H1.026V7.182H2.052V0Z" transform="translate(15.389 8.208)" fill="#f19920"/>
    <path id="Fill_17" data-name="Fill 17" d="M7.182,0A7.182,7.182,0,1,1,0,7.182,7.182,7.182,0,0,1,7.182,0" transform="translate(9.234 14.363)" fill="#f6b545"/>
    <path id="Fill_18" data-name="Fill 18" d="M9.779,0a6.678,6.678,0,0,1,1.659,4.453,7.006,7.006,0,0,1-6.985,6.985A6.678,6.678,0,0,1,0,9.779a6.928,6.928,0,0,0,5.326,2.532,7.006,7.006,0,0,0,6.985-6.985A6.67,6.67,0,0,0,9.779,0" transform="translate(11.286 17.441)" fill="#b06328"/>
    <path id="Fill_19" data-name="Fill 19" d="M6.156,0A6.156,6.156,0,1,1,0,6.156,6.156,6.156,0,0,1,6.156,0" transform="translate(10.26 15.389)" fill="#ffcb5b"/>
    <path id="Fill_20" data-name="Fill 20" d="M6.284,0A6.245,6.245,0,0,1,0,6.284v.9A7.2,7.2,0,0,0,7.182,0Z" transform="translate(16.415 21.545)" fill="#f19920"/>
    <path id="Fill_21" data-name="Fill 21" d="M7.182.9V0A7.2,7.2,0,0,0,0,7.182H.9A6.245,6.245,0,0,1,7.182.9" transform="translate(9.234 14.363)" fill="#ffe27a"/>
    <path id="Fill_22" data-name="Fill 22" d="M4.489,4.275h-1.8a.829.829,0,0,1-.9-.855.829.829,0,0,1,.9-.855H5.386a.828.828,0,0,0,.9-.855.828.828,0,0,0-.9-.855h-.9A.829.829,0,0,0,3.591,0a.829.829,0,0,0-.9.855A2.584,2.584,0,0,0,0,3.42,2.584,2.584,0,0,0,2.693,5.985h1.8a.856.856,0,1,1,0,1.71H1.8a.856.856,0,1,0,0,1.71h.9a.828.828,0,0,0,.9.855.829.829,0,0,0,.9-.855,2.568,2.568,0,1,0,0-5.13" transform="translate(12.311 16.415)" fill="#e78825"/>
  </g>
</svg>
