<svg xmlns="http://www.w3.org/2000/svg" width="34.4" height="34.4" viewBox="0 0 34.4 34.4">
  <g id="map" transform="translate(0.2 0.2)">
    <path id="Shape" d="M34,34H11.355V28.023H0V0H22.645V5.977H34V34ZM22.645,7.969v19.6l-6.9,4.436H32.008V7.969Zm-9.3,20.055V31.18l4.909-3.156ZM1.993,1.993V26.032h18.66V1.993Z" fill="#fff" stroke="#333433" stroke-miterlimit="10" stroke-width="0.4"/>
    <path id="Shape-2" data-name="Shape" d="M7.5,18h0L2.2,12.728A7.386,7.386,0,0,1,0,7.456a7.5,7.5,0,0,1,15,0,7.386,7.386,0,0,1-2.2,5.272L7.5,18Zm0-15.976A5.454,5.454,0,0,0,2.036,7.456a5.38,5.38,0,0,0,1.6,3.841L7.5,15.137l3.864-3.84a5.38,5.38,0,0,0,1.6-3.841A5.454,5.454,0,0,0,7.5,2.024Z" transform="translate(4 5)" fill="#fff"/>
    <path id="Shape-3" data-name="Shape" d="M3.5,7A3.5,3.5,0,1,1,7,3.5,3.5,3.5,0,0,1,3.5,7Zm0-4.921A1.421,1.421,0,1,0,4.921,3.5,1.423,1.423,0,0,0,3.5,2.079Z" transform="translate(8 9)" fill="#fff"/>
  </g>
</svg>
