<svg xmlns="http://www.w3.org/2000/svg" width="40" height="34" viewBox="0 0 40 34">
  <path id="Shape" d="M38.7,34H24.782a1.307,1.307,0,0,1-1.3-1.308V28.769H18.261v2.615h1.3a1.308,1.308,0,0,1,0,2.615H9.13a1.308,1.308,0,0,1,0-2.615h1.3V28.769H3.913A3.923,3.923,0,0,1,0,24.846V9.154A3.923,3.923,0,0,1,3.913,5.231H23.478V1.308A1.307,1.307,0,0,1,24.782,0H38.7A1.307,1.307,0,0,1,40,1.308V32.693A1.307,1.307,0,0,1,38.7,34Zm-10-15.692v6.539a3.932,3.932,0,0,1-2.608,3.7v2.84h11.3V2.615h-11.3v2.84a3.933,3.933,0,0,1,.382.158,1.294,1.294,0,0,1,.923-.383h6.087a1.308,1.308,0,0,1,0,2.615H28.472A3.912,3.912,0,0,1,28.7,9.154v1.308h4.783a1.308,1.308,0,0,1,0,2.615H28.7v2.615h4.783a1.308,1.308,0,0,1,0,2.615ZM13.044,28.769v2.615h2.608V28.769ZM3.913,7.846a1.307,1.307,0,0,0-1.3,1.308V24.846a1.307,1.307,0,0,0,1.3,1.308H24.782a1.308,1.308,0,0,0,1.305-1.308V9.154a1.308,1.308,0,0,0-1.305-1.308Z" transform="translate(0 0)" fill="#fff"/>
</svg>
