<svg xmlns="http://www.w3.org/2000/svg" width="37" height="36" viewBox="0 0 37 36">
  <g id="browser" transform="translate(0 0)">
    <path id="Shape" d="M16.549,35H5.782A5.865,5.865,0,0,1,0,29.068V4.45A4.4,4.4,0,0,1,4.336,0H32.664A4.4,4.4,0,0,1,37,4.45v10.6a1.446,1.446,0,1,1-2.891,0V8.972H2.891v20.1a2.932,2.932,0,0,0,2.891,2.965H16.549a1.484,1.484,0,0,1,0,2.966ZM4.336,2.966A1.466,1.466,0,0,0,2.891,4.45V6.007H22.749a4.553,4.553,0,0,1-.026-3.04Zm28.256,0A1.483,1.483,0,1,0,34.037,4.45,1.466,1.466,0,0,0,32.592,2.966Zm-5.782,0A1.483,1.483,0,1,0,28.256,4.45,1.466,1.466,0,0,0,26.81,2.966Z" fill="#fff"/>
    <path id="Shape-2" data-name="Shape" d="M8.6,20H8.4a7.843,7.843,0,0,1-6-3.013A10.341,10.341,0,0,1,0,10.45V4.766A1.5,1.5,0,0,1,.839,3.4L7.792.131A1.339,1.339,0,0,1,8.368,0c.044,0,.088,0,.131.007S8.588,0,8.631,0a1.34,1.34,0,0,1,.576.131L16.161,3.4A1.5,1.5,0,0,1,17,4.766V10.45a10.341,10.341,0,0,1-2.4,6.537A7.843,7.843,0,0,1,8.6,20ZM8.5,3.066,2.833,5.734V10.45c0,3.1,2.382,6.565,5.571,6.565H8.6c3.189,0,5.571-3.466,5.571-6.565V5.734L8.5,3.066Z" transform="translate(20 16)" fill="#fff"/>
  </g>
</svg>
