<svg xmlns="http://www.w3.org/2000/svg" width="27.75" height="33.052" viewBox="0 0 27.75 33.052">
  <g id="android">
    <path id="Path_3212" data-name="Path 3212" d="M142.882,192.374a1.343,1.343,0,0,1-1.343,1.345H125.985a1.344,1.344,0,0,1-1.344-1.345v-13.9c4.077-.015,13.589-.015,18.241,0Z" transform="translate(-119.881 -167.32)"/>
    <path id="Path_3213" data-name="Path 3213" d="M173.473,22.3a.311.311,0,0,1-.134.417h0a.311.311,0,0,1-.416-.135l-1.966-3.832a.31.31,0,0,1,.136-.416h0a.309.309,0,0,1,.416.134l1.965,3.832Z" transform="translate(-162.951 -18.267)"/>
    <path id="Path_3214" data-name="Path 3214" d="M303.131,22.035a.307.307,0,0,1-.423.112h0a.306.306,0,0,1-.112-.421L304.749,18a.307.307,0,0,1,.422-.113h0a.307.307,0,0,1,.114.421l-2.154,3.73Z" transform="translate(-285.448 -17.841)"/>
    <path id="Path_3215" data-name="Path 3215" d="M403.392,183.4a1.958,1.958,0,0,1-1.958,1.958h0a1.959,1.959,0,0,1-1.96-1.958v-8.57a1.957,1.957,0,0,1,1.96-1.958h0a1.956,1.956,0,0,1,1.958,1.958Z" transform="translate(-375.642 -162.113)"/>
    <path id="Path_3216" data-name="Path 3216" d="M59.96,183.4A1.96,1.96,0,0,1,58,185.357h0a1.958,1.958,0,0,1-1.96-1.958v-8.57A1.956,1.956,0,0,1,58,172.871h0a1.958,1.958,0,0,1,1.958,1.958Z" transform="translate(-56.043 -162.113)"/>
    <path id="Path_3217" data-name="Path 3217" d="M182.862,324.713a1.959,1.959,0,0,1-1.961,1.958h0a1.957,1.957,0,0,1-1.956-1.958v-8.57a1.959,1.959,0,0,1,1.956-1.96h0a1.962,1.962,0,0,1,1.961,1.96Z" transform="translate(-170.417 -293.619)"/>
    <path id="Path_3218" data-name="Path 3218" d="M280.748,324.713a1.959,1.959,0,0,1-1.96,1.958h0a1.959,1.959,0,0,1-1.958-1.958v-8.57a1.961,1.961,0,0,1,1.958-1.96h0a1.961,1.961,0,0,1,1.96,1.96Z" transform="translate(-261.508 -293.619)"/>
    <path id="Path_3219" data-name="Path 3219" d="M132.552,46.663a9.3,9.3,0,0,0-9.211,8.285h18.422a9.3,9.3,0,0,0-9.21-8.285ZM128.4,51.686a.765.765,0,1,1,.764-.765A.766.766,0,0,1,128.4,51.686Zm8.329,0a.765.765,0,1,1,.765-.765A.765.765,0,0,1,136.725,51.686Z" transform="translate(-118.671 -44.663)"/>
  </g>
</svg>
