<svg xmlns="http://www.w3.org/2000/svg" width="23.552" height="29.001" viewBox="0 0 23.552 29.001">
  <g id="tv">
    <g id="Group_1229" data-name="Group 1229" transform="translate(0 9.989)">
      <g id="Group_1228" data-name="Group 1228" transform="translate(0)">
        <path id="Path_3222" data-name="Path 3222" d="M66.683,185.435a.425.425,0,0,0-.425.425v7.265a1.393,1.393,0,0,1-1.391,1.391H50.337a1.393,1.393,0,0,1-1.391-1.391V178.6a1.393,1.393,0,0,1,1.391-1.391H63.05a.425.425,0,0,0,0-.85H50.337A2.244,2.244,0,0,0,48.1,178.6v14.53a2.244,2.244,0,0,0,2.241,2.241h14.53a2.244,2.244,0,0,0,2.241-2.241V185.86A.425.425,0,0,0,66.683,185.435Z" transform="translate(-48.096 -176.354)"/>
      </g>
    </g>
    <g id="Group_1231" data-name="Group 1231" transform="translate(16.346)">
      <g id="Group_1230" data-name="Group 1230" transform="translate(0)">
        <path id="Path_3223" data-name="Path 3223" d="M342.551,0H338.01a1.334,1.334,0,0,0-1.333,1.333V14.5a3.6,3.6,0,0,0,7.206,0V1.333A1.334,1.334,0,0,0,342.551,0Zm.483,14.5h0a2.754,2.754,0,0,1-5.507,0V1.333A.484.484,0,0,1,338.01.85h4.541a.484.484,0,0,1,.483.483V14.5Z" transform="translate(-336.677)"/>
      </g>
    </g>
    <g id="Group_1233" data-name="Group 1233" transform="translate(18.165 2.724)">
      <g id="Group_1232" data-name="Group 1232" transform="translate(0)">
        <path id="Path_3224" data-name="Path 3224" d="M369.209,48.1h0a.425.425,0,1,0,.429.425A.423.423,0,0,0,369.2,48.1Z" transform="translate(-368.782 -48.097)"/>
      </g>
    </g>
    <g id="Group_1235" data-name="Group 1235" transform="translate(19.527 2.724)">
      <g id="Group_1234" data-name="Group 1234" transform="translate(0)">
        <path id="Path_3225" data-name="Path 3225" d="M393.258,48.1h0a.425.425,0,1,0,.429.425A.423.423,0,0,0,393.254,48.1Z" transform="translate(-392.831 -48.097)"/>
      </g>
    </g>
    <g id="Group_1237" data-name="Group 1237" transform="translate(20.884 2.724)">
      <g id="Group_1236" data-name="Group 1236" transform="translate(0)">
        <path id="Path_3226" data-name="Path 3226" d="M417.225,48.1h0a.425.425,0,1,0,.429.425A.423.423,0,0,0,417.221,48.1Z" transform="translate(-416.798 -48.097)"/>
      </g>
    </g>
    <g id="Group_1239" data-name="Group 1239" transform="translate(18.165 4.086)">
      <g id="Group_1238" data-name="Group 1238" transform="translate(0)">
        <path id="Path_3227" data-name="Path 3227" d="M369.209,72.145h0a.425.425,0,1,0,.429.425A.423.423,0,0,0,369.2,72.145Z" transform="translate(-368.782 -72.145)"/>
      </g>
    </g>
    <g id="Group_1241" data-name="Group 1241" transform="translate(19.527 4.086)">
      <g id="Group_1240" data-name="Group 1240" transform="translate(0)">
        <path id="Path_3228" data-name="Path 3228" d="M393.258,72.145h0a.425.425,0,1,0,.429.425A.423.423,0,0,0,393.254,72.145Z" transform="translate(-392.831 -72.145)"/>
      </g>
    </g>
    <g id="Group_1243" data-name="Group 1243" transform="translate(20.884 4.086)">
      <g id="Group_1242" data-name="Group 1242" transform="translate(0)">
        <path id="Path_3229" data-name="Path 3229" d="M417.225,72.145h0a.425.425,0,1,0,.429.425A.423.423,0,0,0,417.221,72.145Z" transform="translate(-416.798 -72.145)"/>
      </g>
    </g>
    <g id="Group_1245" data-name="Group 1245" transform="translate(18.165 5.449)">
      <g id="Group_1244" data-name="Group 1244" transform="translate(0)">
        <path id="Path_3230" data-name="Path 3230" d="M369.209,96.194h0a.425.425,0,1,0,.429.425A.423.423,0,0,0,369.2,96.194Z" transform="translate(-368.782 -96.194)"/>
      </g>
    </g>
    <g id="Group_1247" data-name="Group 1247" transform="translate(19.527 5.449)">
      <g id="Group_1246" data-name="Group 1246" transform="translate(0)">
        <path id="Path_3231" data-name="Path 3231" d="M393.258,96.194h0a.425.425,0,1,0,.429.425A.423.423,0,0,0,393.254,96.194Z" transform="translate(-392.831 -96.194)"/>
      </g>
    </g>
    <g id="Group_1249" data-name="Group 1249" transform="translate(20.884 5.449)">
      <g id="Group_1248" data-name="Group 1248" transform="translate(0)">
        <path id="Path_3232" data-name="Path 3232" d="M417.225,96.194h0a.425.425,0,1,0,.429.425A.423.423,0,0,0,417.221,96.194Z" transform="translate(-416.798 -96.194)"/>
      </g>
    </g>
    <g id="Group_1251" data-name="Group 1251" transform="translate(18.165 7.265)">
      <g id="Group_1250" data-name="Group 1250" transform="translate(0)">
        <path id="Path_3233" data-name="Path 3233" d="M369.209,128.258h0a.425.425,0,1,0,.429.425A.423.423,0,0,0,369.2,128.258Z" transform="translate(-368.782 -128.258)"/>
      </g>
    </g>
    <g id="Group_1253" data-name="Group 1253" transform="translate(20.884 7.265)">
      <g id="Group_1252" data-name="Group 1252" transform="translate(0)">
        <path id="Path_3234" data-name="Path 3234" d="M417.225,128.258h0a.425.425,0,1,0,.429.425A.423.423,0,0,0,417.221,128.258Z" transform="translate(-416.798 -128.258)"/>
      </g>
    </g>
    <g id="Group_1255" data-name="Group 1255" transform="translate(18.165 12.714)">
      <g id="Group_1254" data-name="Group 1254" transform="translate(0)">
        <path id="Path_3235" data-name="Path 3235" d="M369.209,224.452h0a.425.425,0,1,0,.429.425A.423.423,0,0,0,369.2,224.452Z" transform="translate(-368.782 -224.452)"/>
      </g>
    </g>
    <g id="Group_1257" data-name="Group 1257" transform="translate(20.884 12.714)">
      <g id="Group_1256" data-name="Group 1256" transform="translate(0)">
        <path id="Path_3236" data-name="Path 3236" d="M417.225,224.452h0a.425.425,0,1,0,.429.425A.423.423,0,0,0,417.221,224.452Z" transform="translate(-416.798 -224.452)"/>
      </g>
    </g>
    <g id="Group_1259" data-name="Group 1259" transform="translate(18.162 8.627)">
      <g id="Group_1258" data-name="Group 1258" transform="translate(0)">
        <path id="Path_3237" data-name="Path 3237" d="M370.528,152.306a1.787,1.787,0,1,0,1.787,1.787A1.789,1.789,0,0,0,370.528,152.306Zm0,2.724a.937.937,0,1,1,.937-.937A.938.938,0,0,1,370.528,155.03Z" transform="translate(-368.741 -152.306)"/>
      </g>
    </g>
    <g id="Group_1261" data-name="Group 1261" transform="translate(4.995 16.8)">
      <g id="Group_1260" data-name="Group 1260">
        <path id="Path_3238" data-name="Path 3238" d="M140.33,296.6H136.7a.425.425,0,1,0,0,.85h1.391v3.662a.425.425,0,0,0,.85,0v-3.662h1.391a.425.425,0,1,0,0-.85Z" transform="translate(-136.273 -296.597)"/>
      </g>
    </g>
    <g id="Group_1263" data-name="Group 1263" transform="translate(9.989 16.8)">
      <g id="Group_1262" data-name="Group 1262" transform="translate(0)">
        <path id="Path_3239" data-name="Path 3239" d="M228.64,296.616a.425.425,0,0,0-.537.269l-1.219,3.656a.205.205,0,0,1-.389,0l-1.219-3.656a.425.425,0,0,0-.806.269l1.219,3.656a1.055,1.055,0,0,0,2,0l1.219-3.656A.425.425,0,0,0,228.64,296.616Z" transform="translate(-224.448 -296.594)"/>
      </g>
    </g>
    <g id="Group_1265" data-name="Group 1265" transform="translate(8.627 26.335)">
      <g id="Group_1264" data-name="Group 1264" transform="translate(0)">
        <path id="Path_3240" data-name="Path 3240" d="M201.735,464.936h-.908a.425.425,0,1,0,0,.85h.908a.425.425,0,1,0,0-.85Z" transform="translate(-200.402 -464.936)"/>
      </g>
    </g>
    <g id="Group_1267" data-name="Group 1267" transform="translate(11.351 26.335)">
      <g id="Group_1266" data-name="Group 1266" transform="translate(0)">
        <path id="Path_3241" data-name="Path 3241" d="M249.833,464.936h-.908a.425.425,0,1,0,0,.85h.908a.425.425,0,1,0,0-.85Z" transform="translate(-248.5 -464.936)"/>
      </g>
    </g>
    <g id="Group_1269" data-name="Group 1269" transform="translate(5.903 26.335)">
      <g id="Group_1268" data-name="Group 1268" transform="translate(0)">
        <path id="Path_3242" data-name="Path 3242" d="M153.639,464.936h-.908a.425.425,0,1,0,0,.85h.908a.425.425,0,1,0,0-.85Z" transform="translate(-152.306 -464.936)"/>
      </g>
    </g>
  </g>
</svg>
