<svg xmlns="http://www.w3.org/2000/svg" width="25.979" height="30.765" viewBox="0 0 25.979 30.765">
  <g id="linux" >
    <path id="Path_3221" data-name="Path 3221" d="M8.1,20.639a7.32,7.32,0,0,1-.239-1.3,7.589,7.589,0,0,1,1.358-4.048c.016-.026.056-.035.084-.053a1.829,1.829,0,0,1-.208.5A7.788,7.788,0,0,0,8,19.167a2.323,2.323,0,0,0,.7,1.873c-.007-.145-.02-.244-.018-.348.016-.484,0-.973.06-1.45A9.989,9.989,0,0,1,9.911,15.86,2.544,2.544,0,0,1,11.5,14.449a2.136,2.136,0,0,0,.372-.2c-.219-.138-.383-.234-.539-.341a.727.727,0,0,1-.265-1,2.392,2.392,0,0,1,.324-.579,2.662,2.662,0,0,0,.749-2.065.233.233,0,0,1,.007-.06.6.6,0,0,0-.163-.546,1.254,1.254,0,0,1,.131-1.96c.166-.142.159-.243.085-.432a3.007,3.007,0,0,1-.085-2.19.815.815,0,0,1,1.337-.394,1.68,1.68,0,0,1,.609,1.054c.027.207.038.417.055.624h1.2a2.461,2.461,0,0,0,0-.3,1.716,1.716,0,0,1,.335-1.168,1.334,1.334,0,0,1,2.066-.265,2.386,2.386,0,0,1,.642,2.036c-.05.283-.152.557-.234.847a.9.9,0,0,1,.5.859,9.845,9.845,0,0,1-.219,1,.837.837,0,0,0-.028.419c.135.377.311.742.475,1.11.185.413.387.821.564,1.236.458,1.075.906,2.155,1.356,3.234a12.138,12.138,0,0,1,.5,1.3,11.713,11.713,0,0,1,.338,4.176c-.014.166.014.245.183.313a.781.781,0,0,1,.513.784,2.787,2.787,0,0,0-.011.453.74.74,0,0,0,.166.408,1.234,1.234,0,0,0,1.436.082A3.9,3.9,0,0,0,25.1,21.5a2.688,2.688,0,0,0-3.063-.35c.121-.127.246-.29.389-.311.427-.054.538-.352.638-.688.058-.2.127-.4.181-.609a4.273,4.273,0,0,0-.911-4.107,9.528,9.528,0,0,0-.922-.835,4.117,4.117,0,0,1,1.727,1.585c.882,1.488.554,3,.048,4.513,1.189.083,1.6.227,2.065.727a4.636,4.636,0,0,0,.484-.06.289.289,0,0,0,.189-.135,5.68,5.68,0,0,0,.244-.84,5.23,5.23,0,0,0-.276-2.477,15.81,15.81,0,0,0-2.368-4.682,31.5,31.5,0,0,1-1.853-2.769,8.718,8.718,0,0,1-1.153-4.494,8.5,8.5,0,0,0-.129-1.741A4.842,4.842,0,0,0,14.138.2,3.646,3.646,0,0,0,11.8,1.764a4.314,4.314,0,0,0-.6,2.321c.013,1.494.013,3,.168,4.48a4.106,4.106,0,0,1-.985,3.42,14.275,14.275,0,0,0-.982,1.271,24.328,24.328,0,0,0-2.935,5.926,2.429,2.429,0,0,0-.095,1.633A1.486,1.486,0,0,1,8.1,20.639ZM19.492,9.129a5.744,5.744,0,0,1,.834.513c.1.074.134.235.166.294,0,.377-.256.548-.513.4a1.4,1.4,0,0,1-.687-1.013C19.263,9.174,19.353,9.06,19.492,9.129ZM17.311,3.943a1.11,1.11,0,0,1,1.1.914A1.894,1.894,0,0,0,17.311,3.943ZM17.5,1.5c.312.005.42.243.513.481s-.133.276-.258.375a.563.563,0,0,1-.109.052c-.418.178-.526.107-.522-.348C17.133,1.628,17.22,1.494,17.5,1.5ZM14.145,4.842l-.9-.731A1.015,1.015,0,0,1,14.145,4.842ZM12.767,28.723a1.082,1.082,0,0,1-.573,1.151,2.311,2.311,0,0,0-.389.337,1.785,1.785,0,0,1-1.838.479A7.737,7.737,0,0,1,8.9,30.352a23.079,23.079,0,0,0-4.042-1.146,9.969,9.969,0,0,1-1.4-.384.961.961,0,0,1-.718-1.27,8.077,8.077,0,0,0,.049-2.891c-.121-.758.067-1.027.811-1.222.283-.074.565-.16.852-.21a1.893,1.893,0,0,0,1.235-.8,9.655,9.655,0,0,1,.858-1.095c.57-.586,1.078-.61,1.612-.008a20.71,20.71,0,0,1,1.634,2.138A43.786,43.786,0,0,0,12.314,27.2,1.979,1.979,0,0,1,12.767,28.723Zm15.548-1.93a6.785,6.785,0,0,1-.909.6,18.841,18.841,0,0,0-3.775,2.669,2.6,2.6,0,0,1-1.942.691c-.21-.014-.424-.012-.635-.04a1.524,1.524,0,0,1-1.395-1.3,4.334,4.334,0,0,1,.042-1.863,24.625,24.625,0,0,0,.4-5.065c.012-.769.195-1,1.051-.971.6.019.674.1.61.681a1.24,1.24,0,0,0,1.267,1.333,2.288,2.288,0,0,0,2-1.035,5.124,5.124,0,0,0,.287-.427.481.481,0,0,1,.866.062,1.6,1.6,0,0,1,.119.762,1.548,1.548,0,0,0,.549,1.376A13.589,13.589,0,0,0,28.229,25.4.8.8,0,0,1,28.314,26.793ZM14.13,10.942a2.769,2.769,0,0,0,2.127-.486,5.445,5.445,0,0,1,1.1-.631,1.32,1.32,0,0,0,.94-1.239c.039-.515-.057-.707-.55-.9-.242-.1-.494-.181-.791-.288a.859.859,0,0,0,.682-.753,1.251,1.251,0,0,0-.325-.977.743.743,0,0,0-1.254.571c-.022.263,0,.528,0,.793A2.628,2.628,0,0,0,13.576,6.9a6.161,6.161,0,0,0-.112-.9.655.655,0,0,0-.7-.5c-.273.044-.452.316-.465.7a1.621,1.621,0,0,0,.586,1.26c-.189.162-.368.309-.541.461a.97.97,0,0,0-.081,1.59c.428.441.9.845,1.367,1.242A1.082,1.082,0,0,0,14.13,10.942Zm2.835-5.227a1.178,1.178,0,0,1,.28.2c.045.057.019.167.029.256l-.1.02c-.094-.129-.19-.259-.285-.388Zm-2,1.291a2.309,2.309,0,0,1,.458.078c.056.02.073.149.107.23l-.088.069c-.171-.085-.342-.166-.511-.251C14.939,7.087,14.951,7.047,14.963,7.006Zm-1.181.1a.9.9,0,0,1,.278-.045c.012.029.022.057.034.085a.915.915,0,0,1-.22.169.691.691,0,0,1-.252,0C13.674,7.24,13.713,7.143,13.782,7.1Zm-.909-1.278c.016-.021.031-.043.047-.064.079.031.2.044.227.1a2.105,2.105,0,0,1,.092.422c-.036,0-.071,0-.106,0C13.047,6.127,12.961,5.975,12.874,5.825Zm-.853,3.108.09-.083a2.482,2.482,0,0,1,.28.2,2.6,2.6,0,0,0,3.065.377c.658-.3,1.278-.688,1.921-1.025a2.545,2.545,0,0,1,.44-.138c.015.033.026.064.04.1a.794.794,0,0,1-.15.169A9.54,9.54,0,0,1,14.88,9.947a2.659,2.659,0,0,1-2.6-.671A2.279,2.279,0,0,1,12.021,8.933Zm7.409,16.808c-.155,1.224-.3,2.381-.452,3.581-1.842-.463-3.757-.05-5.641-.055-.042-.524-.084-1.057-.127-1.594A7.311,7.311,0,0,0,19.429,25.741ZM11.4,23.513c.3.25.6.507.887.778a1.064,1.064,0,0,1,.3.946.642.642,0,0,1-.618.561c-.089,0-.2-.119-.253-.207-.665-1.035-1.321-2.078-1.986-3.113-.152-.238-.327-.461-.492-.689l.022-.036C9.972,22.338,10.689,22.922,11.4,23.513Z" transform="translate(-2.703 0.001)"/>
  </g>
</svg>
