<svg xmlns="http://www.w3.org/2000/svg" width="27" height="26.998" viewBox="0 0 27 26.998">
  <g id="XMLID_16_">
    <path id="XMLID_17_" d="M95.506,100.563a5.045,5.045,0,1,0,5.045-5.045A5.051,5.051,0,0,0,95.506,100.563Z" transform="translate(-87.051 -87.063)"/>
    <path id="XMLID_18_" d="M54.957,6.852a.221.221,0,0,0,0-.222A13.493,13.493,0,0,0,43.34.012,13.441,13.441,0,0,0,32.786,5.094a.221.221,0,0,0-.019.249l3.8,6.582a.221.221,0,0,0,.192.111l.03,0a.221.221,0,0,0,.184-.164A6.573,6.573,0,0,1,43.34,6.938c.186,0,.378.008.571.025H54.765A.221.221,0,0,0,54.957,6.852Z" transform="translate(-29.84 -0.012)"/>
    <path id="XMLID_19_" d="M15.495,89.612a.221.221,0,0,0-.234-.078,6.574,6.574,0,0,1-7.714-3.549l-.009-.017L2.117,76.58a.221.221,0,0,0-.192-.111h0a.221.221,0,0,0-.192.113,13.5,13.5,0,0,0,9.754,19.969l.033,0a.222.222,0,0,0,.192-.111l3.8-6.584A.222.222,0,0,0,15.495,89.612Z" transform="translate(0 -69.701)"/>
    <path id="XMLID_20_" d="M164.138,95.226h-7.611a.221.221,0,0,0-.155.379,6.56,6.56,0,0,1,.8,8.436l-.01.016-5.431,9.406a.221.221,0,0,0,.192.332h0a13.506,13.506,0,0,0,12.418-18.429A.221.221,0,0,0,164.138,95.226Z" transform="translate(-138.273 -86.797)"/>
  </g>
</svg>
