<svg xmlns="http://www.w3.org/2000/svg" width="19.541" height="24.002" viewBox="0 0 19.541 24.002">
  <path id="Path_3220" data-name="Path 3220" d="M16.46,5.79l.3.01a5.6,5.6,0,0,1,4.38,2.38,5.454,5.454,0,0,0-2.59,4.57,5.341,5.341,0,0,0,3.22,4.86,12.831,12.831,0,0,1-1.66,3.41c-1,1.46-2.04,2.92-3.67,2.95-1.6.03-2.13-.96-3.96-.96s-2.42.93-3.94.99c-1.57.06-2.78-1.58-3.78-3.04-2.07-2.98-3.64-8.42-1.53-12.1a5.87,5.87,0,0,1,4.97-3c1.55-.03,3.01,1.04,3.96,1.04s2.73-1.29,4.6-1.1ZM16.78,0a5.3,5.3,0,0,1-1.25,3.83,4.46,4.46,0,0,1-3.56,1.7,5.03,5.03,0,0,1,1.27-3.71A5.38,5.38,0,0,1,16.78,0Z" transform="translate(-2.229)"/>
</svg>
