<svg xmlns="http://www.w3.org/2000/svg" width="19.541" height="21.457" viewBox="0 0 19.541 21.457">
  <path id="Path_10" data-name="Path 10" d="M16.46,5.176l.3.009a5.8,5.8,0,0,1,4.38,2.128A4.871,4.871,0,0,0,18.55,11.4a4.89,4.89,0,0,0,3.22,4.345,10.955,10.955,0,0,1-1.66,3.049c-1,1.305-2.04,2.61-3.67,2.637-1.6.027-2.13-.858-3.96-.858s-2.42.831-3.94.885c-1.57.054-2.78-1.413-3.78-2.718C2.69,16.074,1.12,11.211,3.23,7.921A6,6,0,0,1,8.2,5.239c1.55-.027,3.01.93,3.96.93s2.73-1.153,4.6-.983ZM16.78,0a4.421,4.421,0,0,1-1.25,3.424,4.678,4.678,0,0,1-3.56,1.52,4.21,4.21,0,0,1,1.27-3.317A5.616,5.616,0,0,1,16.78,0Z" transform="translate(-2.229)"/>
</svg>
