<svg xmlns="http://www.w3.org/2000/svg" width="60" height="59" viewBox="0 0 60 59">
  <g id="Group_79" data-name="Group 79" transform="translate(0.197 -0.377)">
    <ellipse id="Ellipse_12" data-name="Ellipse 12" cx="30" cy="29.5" rx="30" ry="29.5" transform="translate(-0.197 0.377)" fill="#8878bf"/>
    <g id="security" transform="translate(16.046 13.769)">
      <path id="Path_75" data-name="Path 75" d="M43.233,8.015c-.016-.84-.031-1.634-.031-2.4a1.089,1.089,0,0,0-1.09-1.09c-4.659,0-8.207-1.339-11.164-4.214a1.089,1.089,0,0,0-1.519,0c-2.957,2.875-6.5,4.214-11.163,4.214a1.09,1.09,0,0,0-1.09,1.09c0,.768-.015,1.562-.031,2.4C17,15.836,16.792,26.547,29.832,31.067a1.088,1.088,0,0,0,.714,0C43.587,26.547,43.383,15.836,43.233,8.015ZM30.189,28.881C19,24.819,19.174,15.919,19.324,8.057c.009-.472.018-.929.024-1.377A16.8,16.8,0,0,0,30.189,2.571,16.8,16.8,0,0,0,41.031,6.68c.006.448.015.905.024,1.377C41.2,15.918,41.373,24.819,30.189,28.881Z" transform="translate(-17.112 0)" fill="#fff"/>
      <path id="Path_76" data-name="Path 76" d="M77.872,79.2l-5.259,5.258-2.244-2.244a1.09,1.09,0,0,0-1.541,1.541l3.014,3.014a1.09,1.09,0,0,0,1.541,0l6.029-6.029A1.089,1.089,0,1,0,77.872,79.2Z" transform="translate(-61.043 -67.426)" fill="#fff"/>
    </g>
  </g>
</svg>
