<svg xmlns="http://www.w3.org/2000/svg" width="60" height="59" viewBox="0 0 60 59">
  <g id="Group_79" data-name="Group 79" transform="translate(0.109 -0.377)">
    <ellipse id="Ellipse_12" data-name="Ellipse 12" cx="30" cy="29.5" rx="30" ry="29.5" transform="translate(-0.109 0.377)" fill="#8878bf"/>
    <g id="support" transform="translate(13.849 11.99)">
      <g id="Group_74" data-name="Group 74" transform="translate(23.596 28.316)">
        <g id="Group_73" data-name="Group 73">
          <path id="Path_80" data-name="Path 80" d="M356.715,396a.715.715,0,1,0,.715.715A.715.715,0,0,0,356.715,396Z" transform="translate(-356 -396)" fill="#fff"/>
        </g>
      </g>
      <g id="Group_76" data-name="Group 76">
        <g id="Group_75" data-name="Group 75">
          <path id="Path_81" data-name="Path 81" d="M52.072,26l-3.4-1.133-1.22-2.44a7.832,7.832,0,0,0,2.12-4.143l.152-.912h1.3a2.148,2.148,0,0,0,2.145-2.145v-4.5a10.726,10.726,0,1,0-21.451,0v4.5a2.149,2.149,0,0,0,1.43,2.022v.838A2.148,2.148,0,0,0,35.3,20.236h.628a7.757,7.757,0,0,0,1.2,1.857c.1.116.207.229.315.339l-1.219,2.439L32.82,26A10.539,10.539,0,0,0,26,35.9a.715.715,0,0,0,.715.715H58.177a.715.715,0,0,0,.715-.715A10.539,10.539,0,0,0,52.072,26Zm-.33-10.773a.716.716,0,0,1-.715.715H49.935c.182-1.408.3-2.906.352-4.382,0-.042,0-.082,0-.123h1.451Zm-17.876.715a.716.716,0,0,1-.715-.715v-3.79H34.6q0,.112.008.225v.008h0c.05,1.435.17,2.895.347,4.271H33.865Zm1.43,2.86a.716.716,0,0,1-.715-.715v-.715h.586l.152.912c.029.173.065.346.106.518Zm-.714-8.8h-1.4a9.3,9.3,0,0,1,18.537,0h-1.4a7.242,7.242,0,0,0-7.224-7.15h-1.28A7.242,7.242,0,0,0,34.582,10.011Zm7.224-5.72h1.28a5.814,5.814,0,0,1,5.8,5.821c0,.225,0,.421-.006.6,0,0,0,0,0,.007l-.894-.128a11.49,11.49,0,0,1-6.46-3.23.715.715,0,0,0-.506-.209A6.469,6.469,0,0,0,36.042,9.5,5.812,5.812,0,0,1,41.806,4.29Zm-4.9,14.515a40.871,40.871,0,0,1-.858-6.94l.962-1.283a5.033,5.033,0,0,1,3.722-1.994,12.933,12.933,0,0,0,7.046,3.417l1.053.15c-.07,1.493-.214,2.992-.42,4.37h0c-.065.443-.117.728-.249,1.525a6.074,6.074,0,0,1-4.311,4.885,5.626,5.626,0,0,1-6.316-2.7h1.458a2.149,2.149,0,0,0,2.022,1.43h1.43a2.145,2.145,0,1,0,0-4.29h-1.43a2.146,2.146,0,0,0-2.023,1.43Zm4.049,5.578a7.172,7.172,0,0,0,2.66.06L42.352,25.78Zm.413,2.436-2.268,2.4a27.244,27.244,0,0,1-1.6-3.712l.852-1.7Zm5.05-3.26.973,1.946a27.236,27.236,0,0,1-1.6,3.713l-2.427-2.427ZM40.3,19.521a.715.715,0,0,1,.715-.715h1.43a.715.715,0,1,1,0,1.43h-1.43A.716.716,0,0,1,40.3,19.521ZM27.459,35.18a9.036,9.036,0,0,1,5.813-7.82l3.01-1a28.665,28.665,0,0,0,2.035,4.415l0,.007h0a28.673,28.673,0,0,0,1.957,2.989l.88,1.412Zm14.987-.637-.97-1.557q-.016-.026-.035-.051a27.262,27.262,0,0,1-1.611-2.407l2.55-2.7,2.687,2.687a27.231,27.231,0,0,1-1.617,2.417C43.416,32.982,43.465,32.908,42.446,34.543Zm1.288.637.88-1.412a28.661,28.661,0,0,0,1.971-3.013l.011-.019v0a28.641,28.641,0,0,0,2.014-4.377l3.01,1a9.036,9.036,0,0,1,5.814,7.82Z" transform="translate(-26)" fill="#fff"/>
        </g>
      </g>
      <g id="Group_78" data-name="Group 78" transform="translate(26.109 29.681)">
        <g id="Group_77" data-name="Group 77">
          <path id="Path_82" data-name="Path 82" d="M394.314,417.694a7.15,7.15,0,0,0-2.024-2.457.715.715,0,1,0-.872,1.133,5.711,5.711,0,0,1,1.617,1.963.715.715,0,0,0,1.279-.639Z" transform="translate(-391.139 -415.088)" fill="#fff"/>
        </g>
      </g>
    </g>
  </g>
</svg>
