<svg xmlns="http://www.w3.org/2000/svg" xmlns:xlink="http://www.w3.org/1999/xlink" width="162" height="118" viewBox="0 0 162 118">
  <defs>
    <clipPath id="clip-path">
      <rect id="Rectangle_485" data-name="Rectangle 485" width="89.708" height="62.527" rx="18.08" fill="none"/>
    </clipPath>
    <clipPath id="clip-path-2">
      <rect id="Rectangle_503" data-name="Rectangle 503" width="76.49" height="41.856" rx="11.42" fill="none"/>
    </clipPath>
    <clipPath id="clip-path-3">
      <path id="Path_3115" data-name="Path 3115" d="M498.372,235.48s-3.863,3.4-5.956,1.045a67.653,67.653,0,0,0-4.507,18.457s3.706,3.7,13.407,2.616C501.325,257.606,511.107,238.208,498.372,235.48Z" transform="translate(-487.91 -235.48)" fill="none"/>
    </clipPath>
    <clipPath id="clip-path-4">
      <rect id="Rectangle_507" data-name="Rectangle 507" width="89.708" height="62.527" rx="4" fill="none"/>
    </clipPath>
    <clipPath id="clip-path-5">
      <rect id="Rectangle_525" data-name="Rectangle 525" width="162" height="107" transform="translate(0 -0.227)" fill="none"/>
    </clipPath>
    <clipPath id="clip-path-6">
      <path id="Path_3166" data-name="Path 3166" d="M17.19,297.567c3.1-2.513,10.282-4.837,13.909-6.1s8.43-3.565,8.43-3.565a10.55,10.55,0,0,1,3.174-3.614,5.316,5.316,0,0,1,3.537-.736s4.745-2.417,6.368-3.168,2.6-.7,2.925.376-1.369,2.985-3.975,4.367c0,0,2.4-.927,2.99.38a1.577,1.577,0,0,1-.483,2.011s1.717,1.809-.676,3.352c0,0,1.522,1.818-.858,3.082s-3.569.442-3.569.442-3.14,2.088-5.342,1.762a236.983,236.983,0,0,1-21.734,10.879Z" transform="translate(-17.19 -279.873)" fill="none"/>
    </clipPath>
    <clipPath id="clip-path-7">
      <path id="Path_3176" data-name="Path 3176" d="M697.48,325.613c-3.983-.24-10.849-3.38-14.379-4.9s-8.623-3.069-8.623-3.069a10.7,10.7,0,0,1-4.784.528,5.31,5.31,0,0,1-3.1-1.848s-5.131-1.423-6.835-1.966-2.391-1.236-1.9-2.253,3.024-1.275,5.878-.534c0,0-2.4-.94-1.947-2.3a1.582,1.582,0,0,1,1.717-1.159s-.045-2.494,2.762-2.013c0,0,.107-2.361,2.711-1.7s2.93,2.088,2.93,2.088,3.726.579,5.129,2.307a237.8,237.8,0,0,1,23.378,6.67Z" transform="translate(-657.702 -304.286)" fill="none"/>
    </clipPath>
    <clipPath id="clip-path-8">
      <path id="Path_3186" data-name="Path 3186" d="M17.584,4.9c3.912.792,10.273,4.857,13.561,6.85s8.112,4.239,8.112,4.239a10.541,10.541,0,0,1,4.807.148,5.3,5.3,0,0,1,2.814,2.26s4.885,2.125,6.5,2.9,2.193,1.556,1.569,2.5-3.172.843-5.893-.288c0,0,2.243,1.264,1.61,2.547a1.58,1.58,0,0,1-1.859.908s-.3,2.477-3.017,1.612c0,0-.429,2.329-2.919,1.3S40.253,27.4,40.253,27.4s-3.61-1.092-4.758-3A235.926,235.926,0,0,1,13.27,14.547Z" transform="translate(-13.27 -4.9)" fill="none"/>
    </clipPath>
  </defs>
  <g id="Group_1202" data-name="Group 1202" transform="translate(-0.001 0.227)">
    <g id="Asset_1" data-name="Asset 1" transform="translate(0 11)">
      <g id="Layer_2" data-name="Layer 2" transform="translate(0 0)">
        <g id="OBJECTS" transform="translate(0 0)">
          <rect id="Rectangle_483" data-name="Rectangle 483" width="89.708" height="62.527" rx="4" transform="translate(35.141 12.68)" fill="#5e67e8"/>
          <g id="Group_1176" data-name="Group 1176" transform="translate(35.141 12.68)" clip-path="url(#clip-path)">
            <rect id="Rectangle_484" data-name="Rectangle 484" width="96.947" height="17.154" transform="translate(-3.29 50.85)" fill="#3023b2"/>
          </g>
          <path id="Path_3102" data-name="Path 3102" d="M369.137,360.743V353.96H343.343v6.783L336.4,365.9h39.68Z" transform="translate(-275.295 -279.09)" fill="#100544"/>
          <rect id="Rectangle_486" data-name="Rectangle 486" width="76.49" height="41.856" rx="2" transform="translate(41.749 17.401)" fill="#fff"/>
          <rect id="Rectangle_487" data-name="Rectangle 487" width="99.043" height="3.676" transform="translate(27.132 85.91)" fill="#3023b2"/>
          <rect id="Rectangle_496" data-name="Rectangle 496" width="44.513" height="35.284" rx="3" transform="translate(44.011 20.198)" fill="#100544"/>
          <rect id="Rectangle_497" data-name="Rectangle 497" width="40.467" height="26.762" transform="translate(46.032 25.473)" fill="#fff"/>
          <rect id="Rectangle_498" data-name="Rectangle 498" width="26.912" height="8.114" transform="translate(47.724 27.615)" fill="#8690ef"/>
          <rect id="Rectangle_499" data-name="Rectangle 499" width="29.398" height="8.863" transform="translate(54.862 39.058)" fill="#8690ef"/>
          <line id="Line_31" data-name="Line 31" x2="24.313" transform="translate(49.067 29.342)" fill="none" stroke="#0f0252" stroke-miterlimit="10" stroke-width="3"/>
          <line id="Line_32" data-name="Line 32" x2="24.313" transform="translate(49.067 30.86)" fill="none" stroke="#0f0252" stroke-miterlimit="10" stroke-width="3"/>
          <line id="Line_33" data-name="Line 33" x2="24.313" transform="translate(49.067 32.375)" fill="none" stroke="#0f0252" stroke-miterlimit="10" stroke-width="3"/>
          <line id="Line_34" data-name="Line 34" x2="10.055" transform="translate(49.067 33.892)" fill="none" stroke="#0f0252" stroke-miterlimit="10" stroke-width="3"/>
          <text id="_" data-name="$%&amp;”@!" transform="translate(58.22 44.41)" fill="#fff" font-size="5" font-family="SegoeUI-BoldItalic, Segoe UI" font-weight="700" font-style="italic"><tspan x="0" y="0">$%&amp;”@!</tspan></text>
          <path id="Path_3104" data-name="Path 3104" d="M270.457,136.178a.858.858,0,1,1-.858-.858A.858.858,0,0,1,270.457,136.178Z" transform="translate(-222.156 -113.403)" fill="#8690ef"/>
          <path id="Path_3105" data-name="Path 3105" d="M280.867,136.178a.858.858,0,1,1-.858-.858A.858.858,0,0,1,280.867,136.178Z" transform="translate(-230.332 -113.403)" fill="#8690ef"/>
          <path id="Path_3106" data-name="Path 3106" d="M291.267,136.178a.858.858,0,1,1-.858-.858A.858.858,0,0,1,291.267,136.178Z" transform="translate(-238.5 -113.403)" fill="#8690ef"/>
          <g id="Group_1179" data-name="Group 1179" transform="translate(41.749 17.401)" opacity="0.8">
            <g id="Group_1178" data-name="Group 1178" clip-path="url(#clip-path-2)">
              <path id="Path_3107" data-name="Path 3107" d="M561.433,181c-.3,2.258.773,4.466,2.026,6.365s2.745,3.7,3.462,5.861.429,4.87-1.382,6.243" transform="translate(-493.743 -166.681)" fill="none" stroke="#0f0252" stroke-miterlimit="10" stroke-width="2"/>
              <path id="Path_3108" data-name="Path 3108" d="M489.391,126.924a7.082,7.082,0,0,0-4.988-1.107,8.758,8.758,0,0,0-4.616,2.264,5.53,5.53,0,0,0-1.466,2,2.962,2.962,0,0,0,.058,2.427" transform="translate(-428.325 -123.278)" fill="none" stroke="#0f0252" stroke-miterlimit="10" stroke-width="2"/>
              <path id="Path_3109" data-name="Path 3109" d="M478.093,157.083a5.52,5.52,0,0,1-4.857-4.2c-.391-1.783.144-3.623.285-5.443.315-4.045-1.309-8.168-.358-12.113a9.525,9.525,0,0,1,12.6-6.692,9.675,9.675,0,0,1,5.747,5.058,24.82,24.82,0,0,1,1.275,7.7A18.809,18.809,0,0,0,494.451,149c1.245,2.361,3.434,4.245,4.028,6.842.77,3.4-1.76,6.986-5.08,8.037s-7.056-.088-9.761-2.283" transform="translate(-424.219 -125.075)" fill="#0f0252"/>
              <rect id="Rectangle_500" data-name="Rectangle 500" width="6.005" height="13.424" transform="matrix(-0.958, 0.287, -0.287, -0.958, 63.172, 28.82)" fill="#ea8787"/>
              <path id="Path_3110" data-name="Path 3110" d="M453.824,224.736h.1c1.369-.036,3.788-.552,8.971-4.61,2.6-2.035,4.721-4.03,4.8-4.116l-3.863-4.078a48.792,48.792,0,0,1-8.439,6.548,73.557,73.557,0,0,1,2.824-13.639l-5.385-1.582c-.045.157-1.142,3.889-2.009,8.007-1.736,8.239-1.007,10.636.041,12A3.7,3.7,0,0,0,453.824,224.736Z" transform="translate(-406.092 -184.164)" fill="#86bde2"/>
              <rect id="Rectangle_501" data-name="Rectangle 501" width="13.021" height="17.028" rx="6.511" transform="translate(61.353 23.889) rotate(-164.291)" fill="#ff9c9a"/>
              <path id="Path_3111" data-name="Path 3111" d="M517.308,162c.144.3.266.564.4.82s.268.5.419.732.307.464.481.691.365.453.571.713a1.848,1.848,0,0,1-.916-.343,2.52,2.52,0,0,1-1.034-1.637A1.856,1.856,0,0,1,517.308,162Z" transform="translate(-459.039 -151.759)" fill="#0f0252"/>
              <path id="Path_3112" data-name="Path 3112" d="M507.464,211.2s-2.826,2.623-5.994.951l.732,2.412s2.857,2.065,5.9-1.219Z" transform="translate(-446.688 -190.4)" fill="#231f20" opacity="0.5"/>
              <rect id="Rectangle_502" data-name="Rectangle 502" width="4.44" height="5.118" rx="2.22" transform="translate(64.393 19.572) rotate(-160.61)" fill="#ff9c9a"/>
              <path id="Path_3113" data-name="Path 3113" d="M498.372,235.48s-3.863,3.4-5.956,1.045a67.653,67.653,0,0,0-4.507,18.457s3.706,3.7,13.407,2.616C501.325,257.606,511.107,238.208,498.372,235.48Z" transform="translate(-436.038 -209.469)" fill="#86bde2"/>
              <g id="Group_1177" data-name="Group 1177" transform="translate(51.872 26.011)" clip-path="url(#clip-path-3)">
                <path id="Path_3114" data-name="Path 3114" d="M495.843,232.2a211.622,211.622,0,0,0-6.486,21.528l-4.668-.891V240.068l4.618-8.758Z" transform="translate(-485.381 -232.205)" fill="#dbddfe"/>
              </g>
              <path id="Path_3116" data-name="Path 3116" d="M504.983,255.742l-1.073-.157c1.395-9.443,6.857-21.7,6.908-21.815l.771.53C511.55,234.418,506.357,246.428,504.983,255.742Z" transform="translate(-448.604 -208.126)" fill="#86bde2"/>
              <path id="Path_3117" data-name="Path 3117" d="M496.611,143.116s-2.4-.957-3.573-5.237c0,0-5.951-.09-6.771-1.79,0,0-1.773,3.095-2.717,3.483,0,0,1.906-7.174,7.911-6.346S498.2,140.779,496.611,143.116Z" transform="translate(-432.614 -129.108)" fill="#0f0252"/>
              <path id="Path_3118" data-name="Path 3118" d="M471.968,165.152l.03-.094c.215.054.414-.236.513-.444a8.958,8.958,0,0,0,.858-4.807c-.122-1.2.667-2.288.916-3.464a1.594,1.594,0,0,0,.049-.644.429.429,0,0,0-.1-.215.365.365,0,0,0-.47.019,1.073,1.073,0,0,0-.27.429,5.579,5.579,0,0,0,.348-1.558.719.719,0,0,0-.032-.4.343.343,0,0,0-.283-.18c.015-.242.114-.534-.1-.738a.567.567,0,0,0-.693,0,1.661,1.661,0,0,0-.455.586c-.036-.1-.187-.077-.281-.028a2.513,2.513,0,0,0-1.039,1.024,27.471,27.471,0,0,0-2.771,7.129,2.308,2.308,0,0,0,.24,2.131l-.034.185" transform="translate(-420.439 -144.642)" fill="#ffb0b0"/>
              <path id="Path_3119" data-name="Path 3119" d="M489.748,167.963l.47-2.022a7.322,7.322,0,0,0,2.68-3.056c.343-.77,1.313-1.264,1.837-1.932a1.932,1.932,0,0,0,.429-.766.71.71,0,0,0-.29-.773,1.056,1.056,0,0,0-.843.043,4.683,4.683,0,0,0-2.221,1.288c.2-1.167.481-2.4.68-3.571a8.915,8.915,0,0,0,.15-3.219.676.676,0,0,0-.152-.356.5.5,0,0,0-.6-.036,1.468,1.468,0,0,0-.429.466,2.107,2.107,0,0,0,.215-1,.612.612,0,0,0-.667-.532c-.356.084-.464.534-.725.788.086-.249-.228-.494-.485-.444a1.034,1.034,0,0,0-.594.487,7.038,7.038,0,0,0-.983,2.056c0-.056.045-.311.039-.367a.564.564,0,0,0-.519.185,1.6,1.6,0,0,0-.285.5,16.787,16.787,0,0,0-1.1,4.013c-.144.992-.612,2.039-.7,3.037a3.1,3.1,0,0,0,.386,2.2c-.23.609-.35,1.3-.579,1.914" transform="translate(-434.114 -144.287)" fill="#ffb0b0"/>
              <path id="Path_3120" data-name="Path 3120" d="M537.2,182.45a12.407,12.407,0,0,0-.858,2.163,3.665,3.665,0,0,1,.968-.749,1.146,1.146,0,0,1,1.131.041" transform="translate(-474.075 -167.82)" fill="none" stroke="#ea8787" stroke-linejoin="bevel" stroke-width="1"/>
              <path id="Path_3121" data-name="Path 3121" d="M472.915,230.564h.1c1.367-.034,3.786-.552,8.969-4.608,2.6-2.037,4.721-4.033,4.8-4.116l-3.794-5.419a49.889,49.889,0,0,1-8.2,6.548c.225-3.11,1.361-7.951,3.176-13.95L472.6,207.39c-.054.174-1.3,4.292-2.318,8.818-1.914,8.488-1.492,11.3-.266,12.9A3.623,3.623,0,0,0,472.915,230.564Z" transform="translate(-421.163 -187.407)" fill="#68addb"/>
              <path id="Path_3122" data-name="Path 3122" d="M496.2,255.619a6.216,6.216,0,0,0,2.766-1.419c.816-.659,1.558-1.4,2.419-2,.418-.292,2.605-2.406,2.99-2.738" transform="translate(-442.549 -220.449)" fill="none" stroke="#86bde2" stroke-miterlimit="10" stroke-width="2"/>
              <path id="Path_3123" data-name="Path 3123" d="M488.6,291.025a8.178,8.178,0,0,0,3.4-1.1,52.932,52.932,0,0,0,8.408-5.342" transform="translate(-436.58 -248.031)" fill="none" stroke="#86bde2" stroke-miterlimit="10" stroke-width="2"/>
              <path id="Path_3124" data-name="Path 3124" d="M486.718,164.18a4.189,4.189,0,0,0-1.178,1.807,19.879,19.879,0,0,0-1.324,5.185,3.444,3.444,0,0,0,.371,2.429" transform="translate(-433.093 -153.471)" fill="none" stroke="#ea8787" stroke-miterlimit="10" stroke-width="1"/>
              <path id="Path_3125" data-name="Path 3125" d="M497.046,154.41a1.932,1.932,0,0,0-.781.858,13.522,13.522,0,0,0-1.595,4.292" transform="translate(-441.347 -145.798)" fill="none" stroke="#ea8787" stroke-miterlimit="10" stroke-width="1"/>
              <path id="Path_3126" data-name="Path 3126" d="M503.694,152.757a.564.564,0,0,0-.592.133,1.543,1.543,0,0,0-.337.543,20.336,20.336,0,0,0-1.515,5.271" transform="translate(-446.515 -144.473)" fill="none" stroke="#ea8787" stroke-miterlimit="10" stroke-width="1"/>
              <path id="Path_3127" data-name="Path 3127" d="M508.971,156.89c-.056-.107-.215-.019-.294.077a13.018,13.018,0,0,0-2.037,5.3" transform="translate(-450.749 -147.707)" fill="none" stroke="#ea8787" stroke-miterlimit="10" stroke-width="1"/>
              <path id="Path_3128" data-name="Path 3128" d="M486.457,156.458c-.429-.017-.747.416-.944.809a11.014,11.014,0,0,0-1.034,3.185c0,.032-.041.06-.032.092s.056-.026.026-.013" transform="translate(-433.316 -147.406)" fill="none" stroke="#ea8787" stroke-miterlimit="10" stroke-width="1"/>
              <path id="Path_3129" data-name="Path 3129" d="M482.878,153c-.429,0-.749.391-.977.755a12.763,12.763,0,0,0-1.552,3.681" transform="translate(-430.101 -144.69)" fill="none" stroke="#ea8787" stroke-miterlimit="10" stroke-width="1"/>
            </g>
          </g>
          <g id="Group_1183" data-name="Group 1183" transform="translate(35.141 12.68)" opacity="0.5">
            <g id="Group_1182" data-name="Group 1182" clip-path="url(#clip-path-4)">
              <path id="Path_3130" data-name="Path 3130" d="M294.315,78.4a58.3,58.3,0,0,1-4.078,24.266,44.078,44.078,0,0,1-15.059,19.281,57.317,57.317,0,0,1-17.5,7.786,107.092,107.092,0,0,1-47.464,2.451,7.431,7.431,0,0,1-4-1.588c1,4.977,1.112,9.911,1.41,14.978,32.331,1.311,64.5.294,96.79-1.839.661-15.974.949-32.391.049-48.352-.365-6.481-.985-13.016,0-19.433.045-.3.054-.674-.215-.807s-.468.472-.176.406" transform="translate(-208.187 -78.803)" fill="#1b0687"/>
            </g>
          </g>
          <rect id="Rectangle_510" data-name="Rectangle 510" width="160.959" height="2.362" rx="1.181" transform="translate(0.466 88.834)" fill="#bfbff0"/>
          <rect id="Rectangle_511" data-name="Rectangle 511" width="29.653" height="11.776" rx="5.888" transform="translate(157.498 41.573) rotate(180)" fill="#b8c2ff"/>
          <path id="Path_3132" data-name="Path 3132" d="M664.749,215.43l-2.859,8.531h2.859l-2.859,7.808,8.576-10.638-3.494-.212,3.494-5.488Z" transform="translate(-530.931 -176.321)" fill="#b8c2ff"/>
          <text id="LOSER_" data-name="LOSER!" transform="translate(130.199 36.156)" fill="#fff" font-size="5" font-family="SegoeUI-BoldItalic, Segoe UI" font-weight="700" font-style="italic"><tspan x="0" y="0" letter-spacing="-0.04em">L</tspan><tspan y="0">OSER!</tspan></text>
          <rect id="Rectangle_512" data-name="Rectangle 512" width="26.955" height="11.776" rx="5.888" transform="translate(3.857 23.41)" fill="#b8c2ff"/>
          <path id="Path_3133" data-name="Path 3133" d="M146.507,185.67l2.861,8.531h-2.861l2.861,7.808L140.79,191.37l3.494-.212-3.494-5.488Z" transform="translate(-121.666 -152.948)" fill="#b8c2ff"/>
          <text id="STUPID_" data-name="STUPID!" transform="translate(5.55 29.454)" fill="#fff" font-size="4" font-family="SegoeUI-BoldItalic, Segoe UI" font-weight="700" font-style="italic"><tspan x="0" y="0">STUPID!</tspan></text>
          <path id="Path_3134" data-name="Path 3134" d="M730.208,254.854h-1.219s-.262-.644-1.919-.644h-4.024c-.481,0-.6,1.17.215,1.17a.663.663,0,0,0-.594.7.652.652,0,0,0,.5.719s-.5.073-.5.528.5.6.5.6-.5.178-.5.609.429.644.906.644h2.713s-.12.5-.24,1.225.167,1.534.768,1.5.264-1.2.858-1.775,1.247-1.056,1.247-1.44h1.116" transform="translate(-578.663 -206.778)" fill="none" stroke="#0f0252" stroke-linejoin="bevel" stroke-width="1"/>
          <rect id="Rectangle_513" data-name="Rectangle 513" width="2.897" height="4.666" rx="1.449" transform="translate(150.924 47.569)" fill="#5e67e8"/>
          <path id="Path_3136" data-name="Path 3136" d="M252.56,51.762h1.034s.215-.552,1.627-.552h3.412c.408,0,.509.992-.182.992a.622.622,0,0,1,.075,1.2s.429.06.429.446-.429.509-.429.509.429.152.429.519-.363.539-.77.539h-2.3s.1.429.2,1.039-.142,1.3-.644,1.288-.215-1.019-.732-1.5-1.06-.895-1.06-1.221h-.936" transform="translate(-209.448 -47.344)" fill="none" stroke="#0f0252" stroke-linejoin="bevel" stroke-width="1"/>
          <rect id="Rectangle_515" data-name="Rectangle 515" width="2.457" height="3.955" rx="1.229" transform="translate(43.64 7.943) rotate(180)" fill="#5e67e8"/>
          <path id="Path_3137" data-name="Path 3137" d="M98.6,388.459h.974s.215-.519,1.532-.519h3.219c.384,0,.481.936-.172.936a.528.528,0,0,1,.474.556.519.519,0,0,1-.4.575s.4.058.4.429a.536.536,0,0,1-.4.479s.4.144.4.489-.341.509-.723.509h-2.172s.094.4.191.979-.133,1.228-.614,1.208-.215-.959-.689-1.421-1-.843-1-1.15h-.882" transform="translate(-88.53 -311.808)" fill="none" stroke="#0f0252" stroke-linejoin="bevel" stroke-width="1"/>
          <rect id="Rectangle_516" data-name="Rectangle 516" width="2.316" height="3.728" rx="1.158" transform="translate(10.566 79.976) rotate(180)" fill="#5e67e8"/>
          <path id="Path_3138" data-name="Path 3138" d="M140.474,255.944c-2.032-.794-2.575,1.839-2.575,1.839s-.549-2.633-2.575-1.839c-1.977.775-.052,4.709,2.575,6.041C140.526,260.652,142.451,256.719,140.474,255.944Z" transform="translate(-116.733 -208.023)" fill="#f86482"/>
          <path id="Path_3139" data-name="Path 3139" d="M149.489,258.79l-.609,1.989.927.9-.927,1.06.464,1.938" transform="translate(-128.019 -210.375)" fill="none" stroke="#fff" stroke-miterlimit="10" stroke-width="2"/>
          <path id="Path_3140" data-name="Path 3140" d="M337.754,51.351c-2.03-.8-2.575,1.837-2.575,1.837s-.552-2.633-2.575-1.837c-1.977.775-.052,4.709,2.575,6.039C337.806,56.06,339.733,52.126,337.754,51.351Z" transform="translate(-271.675 -47.337)" fill="#f86482"/>
          <path id="Path_3141" data-name="Path 3141" d="M346.779,54.2l-.609,1.989.927.9-.927,1.06.464,1.936" transform="translate(-282.969 -49.693)" fill="none" stroke="#fff" stroke-miterlimit="10" stroke-width="2"/>
          <path id="Path_3142" data-name="Path 3142" d="M757.861,293.208c-1.788-.7-2.273,1.618-2.273,1.618s-.487-2.318-2.275-1.618c-1.738.682-.045,4.144,2.275,5.316C757.906,297.353,759.6,293.891,757.861,293.208Z" transform="translate(-602.172 -237.304)" fill="#f86482"/>
          <path id="Path_3143" data-name="Path 3143" d="M765.846,295.72l-.537,1.749.816.794-.816.934.408,1.7" transform="translate(-612.156 -239.379)" fill="none" stroke="#fff" stroke-miterlimit="10" stroke-width="2"/>
          <path id="Path_3144" data-name="Path 3144" d="M657.981,129.018c-1.788-.7-2.273,1.618-2.273,1.618s-.487-2.318-2.275-1.618c-1.738.682-.045,4.146,2.275,5.318C658.026,133.165,659.721,129.7,657.981,129.018Z" transform="translate(-523.728 -108.351)" fill="#f86482"/>
          <path id="Path_3145" data-name="Path 3145" d="M665.966,131.53l-.536,1.751.815.792-.815.936.408,1.7" transform="translate(-533.711 -110.427)" fill="none" stroke="#fff" stroke-miterlimit="10" stroke-width="2"/>
          <circle id="Ellipse_217" data-name="Ellipse 217" cx="3.52" cy="3.52" r="3.52" transform="translate(7.066 47.708) rotate(-76.72)" fill="#f86482"/>
          <circle id="Ellipse_218" data-name="Ellipse 218" cx="0.425" cy="0.425" r="0.425" transform="translate(9.782 44.346)" fill="#072c59"/>
          <path id="Path_3146" data-name="Path 3146" d="M108.268,240.239a.429.429,0,1,1-.429-.429A.429.429,0,0,1,108.268,240.239Z" transform="translate(-95.449 -195.468)" fill="#072c59"/>
          <rect id="Rectangle_517" data-name="Rectangle 517" width="0.434" height="1.485" transform="matrix(0.377, -0.926, 0.926, 0.377, 9.448, 44.293)" fill="#072c59"/>
          <rect id="Rectangle_518" data-name="Rectangle 518" width="1.485" height="0.434" transform="matrix(0.926, -0.377, 0.377, 0.926, 11.616, 44.449)" fill="#072c59"/>
          <path id="Path_3147" data-name="Path 3147" d="M98.769,247.274h2.075a.2.2,0,0,0,.185-.281,1.288,1.288,0,0,0-2.442,0,.2.2,0,0,0,.182.281Z" transform="translate(-88.506 -200.419)" fill="#072c59"/>
          <circle id="Ellipse_221" data-name="Ellipse 221" cx="3.52" cy="3.52" r="3.52" transform="matrix(0.231, -0.973, 0.973, 0.231, 117.875, 8.752)" fill="#f86482"/>
          <circle id="Ellipse_222" data-name="Ellipse 222" cx="0.425" cy="0.425" r="0.425" transform="translate(120.591 5.392)" fill="#072c59"/>
          <path id="Path_3150" data-name="Path 3150" d="M624.588,58.729a.429.429,0,1,1-.429-.429A.429.429,0,0,1,624.588,58.729Z" transform="translate(-500.961 -52.913)" fill="#072c59"/>
          <rect id="Rectangle_521" data-name="Rectangle 521" width="0.434" height="1.485" transform="matrix(0.377, -0.926, 0.926, 0.377, 120.264, 5.339)" fill="#072c59"/>
          <rect id="Rectangle_522" data-name="Rectangle 522" width="1.485" height="0.434" transform="matrix(0.926, -0.377, 0.377, 0.926, 122.424, 5.497)" fill="#072c59"/>
          <path id="Path_3151" data-name="Path 3151" d="M615.085,65.754h2.075a.2.2,0,0,0,.182-.281,1.288,1.288,0,0,0-2.442,0,.2.2,0,0,0,.185.281Z" transform="translate(-494.013 -57.856)" fill="#072c59"/>
          <circle id="Ellipse_223" data-name="Ellipse 223" cx="3.52" cy="3.52" r="3.52" transform="matrix(0.231, -0.973, 0.973, 0.231, 144.163, 81.073)" fill="#f86482"/>
          <circle id="Ellipse_224" data-name="Ellipse 224" cx="0.425" cy="0.425" r="0.425" transform="translate(146.877 77.709)" fill="#072c59"/>
          <path id="Path_3152" data-name="Path 3152" d="M747.068,395.7a.429.429,0,1,1-.429-.429A.429.429,0,0,1,747.068,395.7Z" transform="translate(-597.155 -317.565)" fill="#072c59"/>
          <rect id="Rectangle_523" data-name="Rectangle 523" width="0.434" height="1.485" transform="matrix(0.377, -0.926, 0.926, 0.377, 146.549, 77.663)" fill="#072c59"/>
          <rect id="Rectangle_524" data-name="Rectangle 524" width="1.485" height="0.434" transform="matrix(0.926, -0.377, 0.377, 0.926, 148.71, 77.814)" fill="#072c59"/>
          <path id="Path_3153" data-name="Path 3153" d="M737.592,402.727h2.082a.2.2,0,0,0,.185-.281,1.284,1.284,0,0,0-2.442,0,.2.2,0,0,0,.176.281Z" transform="translate(-590.235 -322.505)" fill="#072c59"/>
          <g id="Group_1194" data-name="Group 1194" transform="translate(0)" clip-path="url(#clip-path-5)">
            <path id="Path_3164" data-name="Path 3164" d="M17.19,296.861c3.1-2.513,10.282-4.837,13.909-6.1s8.43-3.565,8.43-3.565a10.551,10.551,0,0,1,3.174-3.614,5.316,5.316,0,0,1,3.535-.736,6.008,6.008,0,0,0,1.352-.577c.8-.322,1.582-.7,2.374-1.045q2.466-1.073,4.966-2.05a1.649,1.649,0,0,1,1.017-.165,1.054,1.054,0,0,1,.691,1.047,2.015,2.015,0,0,1-.53,1.21,7.762,7.762,0,0,1-2.417,1.7,8.738,8.738,0,0,0-1.47.822c.429.8,1.882-.084,2.326,1.013a1.577,1.577,0,0,1-.483,2.011s1.717,1.809-.676,3.352c0,0,1.522,1.818-.858,3.082s-3.569.442-3.569.442-3.14,2.088-5.342,1.762a237.276,237.276,0,0,1-21.734,10.877Z" transform="translate(-24.592 -226.227)" fill="#ff9c9a"/>
            <g id="Group_1189" data-name="Group 1189" transform="translate(-7.402 52.94)" opacity="0.3">
              <g id="Group_1188" data-name="Group 1188" clip-path="url(#clip-path-6)">
                <path id="Path_3165" data-name="Path 3165" d="M61.353,328.885a5.872,5.872,0,0,1-6.589,1.159,1.011,1.011,0,0,1,.135-.792,1.408,1.408,0,0,1-.685-1.371c.013-.105.174-.26.234-.345-.114-.082-.2-.2-.311-.285a5.58,5.58,0,0,0-1.06,2.234,1.717,1.717,0,0,1-.172.605,1.192,1.192,0,0,1-.3.309,4.662,4.662,0,0,1-3.567.9c-2.96,3.219-7.22,5.211-11.3,6.8S29.434,341.161,26,343.854c1.043,1.129,1.434,2.556,2.408,3.743a212.661,212.661,0,0,1,23.178-7.758,28.768,28.768,0,0,0,7.419-2.612,8.975,8.975,0,0,0,4.61-6.08" transform="translate(-24.109 -317.082)" fill="#231f20"/>
              </g>
            </g>
            <path id="Path_3167" data-name="Path 3167" d="M148.795,297.34a15.915,15.915,0,0,1,3.324,1.882,1.729,1.729,0,0,1,.625.6,1.11,1.11,0,0,1-.27,1.243,2.24,2.24,0,0,1-1.219.556,4.844,4.844,0,0,1-3.764-.921" transform="translate(-126.928 -240.652)" fill="none" stroke="#ed6b6b" stroke-miterlimit="10" stroke-width="1"/>
            <path id="Path_3168" data-name="Path 3168" d="M161.078,338.277a4.631,4.631,0,0,1-1.414-.53,1.571,1.571,0,0,1-.764-1.241.958.958,0,0,1,.936-.974" transform="translate(-135.889 -270.646)" fill="none" stroke="#ed6b6b" stroke-miterlimit="10" stroke-width="1"/>
            <path id="Path_3169" data-name="Path 3169" d="M163.664,318.764c.043.144-.118.262-.255.324a10.2,10.2,0,0,1-3.545.9c-.79.054-1.745-.082-2.086-.8a1.453,1.453,0,0,1,.227-1.455,3.408,3.408,0,0,1,1.223-.923,11.192,11.192,0,0,1,4.194-1.18,2.4,2.4,0,0,1,1.028.088" transform="translate(-134.928 -255.004)" fill="none" stroke="#ed6b6b" stroke-miterlimit="10" stroke-width="1"/>
            <path id="Path_3170" data-name="Path 3170" d="M155.431,317.332c.075.086-.105.159-.215.131a2.7,2.7,0,0,1-1.135-.468.925.925,0,0,1-.29-1.105" transform="translate(-131.809 -255.221)" fill="none" stroke="#ed6b6b" stroke-miterlimit="10" stroke-width="2"/>
            <path id="Path_3171" data-name="Path 3171" d="M173.576,303.43a5.087,5.087,0,0,0-4.586.118" transform="translate(-143.814 -245.051)" fill="none" stroke="#ed6b6b" stroke-miterlimit="10" stroke-width="1"/>
            <path id="Path_3172" data-name="Path 3172" d="M138.3,320.73a6.35,6.35,0,0,1-4.657,2.183" transform="translate(-116.05 -259.022)" fill="none" stroke="#ed6b6b" stroke-miterlimit="10" stroke-width="1"/>
            <path id="Path_3173" data-name="Path 3173" d="M122.13,328.61a22.5,22.5,0,0,0,1.474,4.1" transform="translate(-107.01 -265.211)" fill="none" stroke="#ed6b6b" stroke-miterlimit="10" stroke-width="1"/>
            <path id="Path_3174" data-name="Path 3174" d="M693.917,325.613c-3.983-.24-10.849-3.38-14.379-4.9s-8.623-3.069-8.623-3.069a10.7,10.7,0,0,1-4.784.528,5.288,5.288,0,0,1-3.1-1.848,6.115,6.115,0,0,0-1.386-.485c-.809-.3-1.642-.549-2.457-.833q-2.537-.882-5.046-1.846a1.623,1.623,0,0,1-.858-.564,1.056,1.056,0,0,1,.2-1.238,2.011,2.011,0,0,1,1.21-.532,7.637,7.637,0,0,1,2.93.376,8.611,8.611,0,0,0,1.64.386c.23-.878-1.442-1.206-1.03-2.316a1.582,1.582,0,0,1,1.717-1.159s-.045-2.494,2.762-2.013c0,0,.107-2.361,2.71-1.7s2.929,2.088,2.929,2.088,3.726.579,5.129,2.307a237.8,237.8,0,0,1,23.378,6.67Z" transform="translate(-524.079 -246.107)" fill="#ff9c9a"/>
            <g id="Group_1191" data-name="Group 1191" transform="translate(130.06 58.179)" opacity="0.3">
              <g id="Group_1190" data-name="Group 1190" clip-path="url(#clip-path-7)">
                <path id="Path_3175" data-name="Path 3175" d="M696.026,289.041a5.876,5.876,0,0,1,5.64,3.6,1.011,1.011,0,0,1-.644.491,1.4,1.4,0,0,1-.429,1.472c-.079.069-.3.075-.4.1.026.137,0,.285.036.429a5.579,5.579,0,0,0,2.292-.931,1.649,1.649,0,0,1,.534-.331,1.213,1.213,0,0,1,.429-.021,4.651,4.651,0,0,1,3.241,1.745c4.361-.38,8.844,1.034,12.924,2.614s8.183,3.352,12.546,3.7c0-1.537.67-2.852.753-4.387a212.758,212.758,0,0,1-22.32-9.934,28.879,28.879,0,0,0-7.235-3.088,8.976,8.976,0,0,0-7.511,1.369" transform="translate(-687.687 -288.534)" fill="#231f20"/>
              </g>
            </g>
            <path id="Path_3177" data-name="Path 3177" d="M693.968,340.308a15.972,15.972,0,0,1-1.18-3.636,1.747,1.747,0,0,1-.056-.858,1.118,1.118,0,0,1,1.041-.734,2.266,2.266,0,0,1,1.275.414,4.839,4.839,0,0,1,2.146,3.219" transform="translate(-555.131 -270.292)" fill="none" stroke="#ed6b6b" stroke-miterlimit="10" stroke-width="1"/>
            <path id="Path_3178" data-name="Path 3178" d="M718.2,311.38a4.609,4.609,0,0,1,.685,1.346,1.566,1.566,0,0,1-.275,1.431.961.961,0,0,1-1.348.088" transform="translate(-574.418 -251.679)" fill="none" stroke="#ed6b6b" stroke-miterlimit="10" stroke-width="1"/>
            <path id="Path_3179" data-name="Path 3179" d="M687.623,313.134c.067-.135.264-.114.406-.066a10.231,10.231,0,0,1,3.219,1.732c.62.494,1.232,1.238,1,2a1.455,1.455,0,0,1-1.148.919,3.434,3.434,0,0,1-1.528-.146,11.16,11.16,0,0,1-3.884-1.968,2.361,2.361,0,0,1-.7-.76" transform="translate(-549.074 -252.976)" fill="none" stroke="#ed6b6b" stroke-miterlimit="10" stroke-width="1"/>
            <path id="Path_3180" data-name="Path 3180" d="M709.64,335.057c0-.112.185-.045.247.049a2.7,2.7,0,0,1,.519,1.112.924.924,0,0,1-.53,1.011" transform="translate(-568.434 -270.228)" fill="none" stroke="#ed6b6b" stroke-miterlimit="10" stroke-width="1"/>
            <path id="Path_3181" data-name="Path 3181" d="M676.79,328.77a5.091,5.091,0,0,0,3.462,3" transform="translate(-542.633 -265.337)" fill="none" stroke="#ed6b6b" stroke-miterlimit="10" stroke-width="1"/>
            <path id="Path_3182" data-name="Path 3182" d="M713.09,340.846a6.348,6.348,0,0,1,4.917,1.534" transform="translate(-571.143 -274.788)" fill="none" stroke="#ed6b6b" stroke-miterlimit="10" stroke-width="1"/>
            <path id="Path_3183" data-name="Path 3183" d="M742.91,342.941a22.67,22.67,0,0,0,1.687-4.011" transform="translate(-594.563 -273.316)" fill="none" stroke="#ed6b6b" stroke-miterlimit="10" stroke-width="1"/>
            <path id="Path_3184" data-name="Path 3184" d="M17.584,4.9c3.912.792,10.273,4.857,13.561,6.85s8.112,4.239,8.112,4.239a10.541,10.541,0,0,1,4.807.148,5.3,5.3,0,0,1,2.814,2.26c.1.193,1.073.549,1.3.674.758.414,1.549.773,2.318,1.165q2.389,1.228,4.741,2.528a1.658,1.658,0,0,1,.775.68,1.052,1.052,0,0,1-.367,1.2A2,2,0,0,1,54.377,25a7.567,7.567,0,0,1-2.848-.779,8.437,8.437,0,0,0-1.571-.612c-.348.837,1.262,1.4.7,2.438a1.58,1.58,0,0,1-1.859.908s-.3,2.477-3.017,1.612c0,0-.429,2.329-2.919,1.3s-2.61-2.474-2.61-2.474-3.61-1.092-4.758-3A235.926,235.926,0,0,1,13.27,14.547Z" transform="translate(-20.009 -3.452)" fill="#ff9c9a"/>
            <g id="Group_1193" data-name="Group 1193" transform="translate(-6.739 1.448)" opacity="0.3">
              <g id="Group_1192" data-name="Group 1192" transform="translate(0 0)" clip-path="url(#clip-path-8)">
                <path id="Path_3185" data-name="Path 3185" d="M35.411,56.349A5.876,5.876,0,0,1,30.325,52a1.015,1.015,0,0,1,.7-.4,1.406,1.406,0,0,1,.622-1.4,1.2,1.2,0,0,1,.414-.039c0-.142.03-.283.024-.429a5.559,5.559,0,0,0-2.4.6,1.74,1.74,0,0,1-.575.253,1.223,1.223,0,0,1-.429-.039,4.668,4.668,0,0,1-2.968-2.178c-4.37-.232-8.612-2.253-12.435-4.387s-7.647-4.451-11.92-5.4C1.15,40.112.3,41.32,0,42.829A212.738,212.738,0,0,1,20.727,55.77a28.939,28.939,0,0,0,6.737,4.063,8.961,8.961,0,0,0,7.623-.311" transform="translate(-2.848 -31.36)" fill="#231f20"/>
              </g>
            </g>
            <path id="Path_3187" data-name="Path 3187" d="M157.735,68.78a15.477,15.477,0,0,1,.663,3.762,1.738,1.738,0,0,1-.064.858,1.118,1.118,0,0,1-1.133.582,2.254,2.254,0,0,1-1.2-.588,4.854,4.854,0,0,1-1.687-3.487" transform="translate(-130.78 -53.622)" fill="none" stroke="#ed6b6b" stroke-miterlimit="10" stroke-width="1"/>
            <path id="Path_3188" data-name="Path 3188" d="M138.92,102.069a4.626,4.626,0,0,1-.489-1.429,1.562,1.562,0,0,1,.47-1.378.962.962,0,0,1,1.348.1" transform="translate(-118.293 -77.384)" fill="none" stroke="#ed6b6b" stroke-miterlimit="10" stroke-width="1"/>
            <path id="Path_3189" data-name="Path 3189" d="M149.905,96.048c-.084.124-.275.075-.41,0a10.215,10.215,0,0,1-2.953-2.163c-.543-.575-1.047-1.4-.71-2.114a1.449,1.449,0,0,1,1.264-.751,3.4,3.4,0,0,1,1.492.358,11.134,11.134,0,0,1,3.578,2.483,2.376,2.376,0,0,1,.588.858" transform="translate(-124.036 -71.089)" fill="none" stroke="#ed6b6b" stroke-miterlimit="10" stroke-width="1"/>
            <path id="Path_3190" data-name="Path 3190" d="M153.817,83.185c-.017.109-.189.019-.238-.082a2.708,2.708,0,0,1-.358-1.174.921.921,0,0,1,.665-.929" transform="translate(-129.924 -63.22)" fill="none" stroke="#ed6b6b" stroke-miterlimit="10" stroke-width="2"/>
            <path id="Path_3191" data-name="Path 3191" d="M176.6,89.512a5.084,5.084,0,0,0-3-3.462" transform="translate(-145.93 -67.186)" fill="none" stroke="#ed6b6b" stroke-miterlimit="10" stroke-width="1"/>
            <path id="Path_3192" data-name="Path 3192" d="M136.348,76.958a6.346,6.346,0,0,1-4.648-2.2" transform="translate(-113.022 -58.319)" fill="none" stroke="#ed6b6b" stroke-miterlimit="10" stroke-width="1"/>
            <path id="Path_3193" data-name="Path 3193" d="M117.98,64.42a22.734,22.734,0,0,0-2.23,3.736" transform="translate(-100.495 -50.198)" fill="none" stroke="#ed6b6b" stroke-miterlimit="10" stroke-width="1"/>
          </g>
        </g>
      </g>
    </g>
    <g id="Rectangle_526" data-name="Rectangle 526" transform="translate(0.001 -0.227)" fill="none" stroke="#bfbff0" stroke-width="1">
      <rect width="162" height="102" rx="12" stroke="none"/>
      <rect x="0.5" y="0.5" width="161" height="101" rx="11.5" fill="none"/>
    </g>
  </g>
</svg>
