<svg xmlns="http://www.w3.org/2000/svg" width="100" height="107.095" viewBox="0 0 100 107.095">
  <g id="Group_1195" data-name="Group 1195" transform="translate(0 1.503)">
    <g id="Asset_1" data-name="Asset 1" transform="translate(0)">
      <g id="Layer_2" data-name="Layer 2">
        <g id="OBJECTS">
          <g id="Group_1149" data-name="Group 1149" transform="translate(6.558 5.306)" opacity="0.7">
            <path id="Path_2819" data-name="Path 2819" d="M114.512,43.168c-4.1-8.829-12.394-18.675-23.15-19.658-6.085-.554-12.126,1.656-17.724,4.158A25.951,25.951,0,0,1,56.5,29.445c-5.613-1.3-9.9-3.647-15.856-1.138a21.3,21.3,0,0,0-11.112,11.7c-2.81,7.162-1.193,14.415-.484,21.563a34.512,34.512,0,0,1-.143,10.347c-.886,4.32-2.457,8.212-1.566,12.605,1.9,9.342,9.725,13.312,18.591,15.427,6.82,1.631,13.653,3.34,20.019,6.114,9.664,4.211,22.531,9.226,30.757-1.8,2.832-3.793,4.315-8.3,5.85-12.629C107,79.108,116.3,67.418,116.838,54A23.447,23.447,0,0,0,114.512,43.168Z" transform="translate(-27.077 -23.425)" fill="#a4a5ea"/>
          </g>
          <g id="Group_1150" data-name="Group 1150" transform="translate(86.675 39.222)" opacity="0.71">
            <path id="Path_2820" data-name="Path 2820" d="M370.005,164.082a65.183,65.183,0,0,1-4.913,15.732,69.323,69.323,0,0,1-3.725,6.944,24.214,24.214,0,0,0-3.253,6.978c-.208.91,1.191,1.3,1.4.387a24.947,24.947,0,0,1,3.425-7.159,66.077,66.077,0,0,0,8.464-22.5c.165-.915-1.234-1.307-1.4-.387Z" transform="translate(-358.093 -163.553)" fill="#bfbff0"/>
          </g>
          <g id="Group_1151" data-name="Group 1151" transform="translate(3.844 8.532)" opacity="0.15">
            <path id="Path_2821" data-name="Path 2821" d="M28.183,36.763c-1.677.409-3.05,2-4.26,3.146a34.045,34.045,0,0,0-4.156,4.662,19.066,19.066,0,0,0-3.9,11.436.727.727,0,0,0,1.452,0,17.621,17.621,0,0,1,3.471-10.364,30.254,30.254,0,0,1,3.56-4.115c1.121-1.106,2.662-2.97,4.223-3.355.908-.22.523-1.622-.387-1.4Z" transform="translate(-15.861 -36.751)" fill="#bfbff0"/>
          </g>
          <path id="Path_2822" data-name="Path 2822" d="M197.035,65.726c-.373-.259-.753-.506-1.145-.726Z" transform="translate(-148.473 -49.631)" fill="#72442d"/>
          <path id="Path_2823" data-name="Path 2823" d="M233.027,43.378a.041.041,0,0,1,0,.017,14.6,14.6,0,0,1-.762,2.9,4.826,4.826,0,0,0-.332,1.317c-.022.506,0,1.021,0,1.527a1.694,1.694,0,0,1-.189.9.726.726,0,0,1-.692.329.485.485,0,0,1-.138-.046.789.789,0,0,1-.315-.392c-.407-.917-.2-2.074-.886-2.834-.956-1.058-2.81-.772-4.006-1.452a9.276,9.276,0,0,1-3.192-3.851,6.818,6.818,0,0,0-1.118-1.675,1.515,1.515,0,0,0-.7-.431,1.876,1.876,0,0,0-.7,0c-1.658.213-3.352.753-4.959.317a4.139,4.139,0,0,1-1.808-1.036,9.644,9.644,0,0,0-1.317-1.046,15.424,15.424,0,0,1-3.146-3.2c-2.108-2.74-3.894-5.7-5.983-8.452a26.978,26.978,0,0,0-6.46-6.375l14.764,9a12.68,12.68,0,0,0-5.4-4.659c-1.641-.748-3.451-1.159-5.027-2.031-3.759-2.072-6.627-6.225-5.429-10.19A13.3,13.3,0,0,1,200.8,4.822a16.027,16.027,0,0,1,8.178-2.442h.92A11.535,11.535,0,0,1,215.017,3.6c3.05,1.646,4.686,4.988,5.238,8.275.353,2.118.382,4.4,1.67,6.169.995,1.367,2.6,2.2,3.873,3.335a9.546,9.546,0,0,1,3.011,9.159,15.552,15.552,0,0,0-.835,3.873,4.63,4.63,0,0,0,1.622,3.226c.673.593,1.5,1.019,2.125,1.653A4.982,4.982,0,0,1,233.027,43.378Z" transform="translate(-147.769 -2.167)" fill="#72442d"/>
          <path id="Path_2824" data-name="Path 2824" d="M251.608,290.768a7.636,7.636,0,0,1,.825-1.982,19.755,19.755,0,0,1,4.1-5.831c.629-.554,1.537-1.046,2.263-.627a2.266,2.266,0,0,1,.77.968l1.813,3.444a28.126,28.126,0,0,1,1.878,4.081,21.211,21.211,0,0,1,.816,7.864c-.075,1.4-1.227,1.6-2.4,1.256a11.178,11.178,0,0,1-3.018-1.491,14.79,14.79,0,0,1-2.321-1.629c-1.363-1.343-2.728-2.682-4.083-4.03A2.1,2.1,0,0,1,251.608,290.768Z" transform="translate(-190.667 -214.24)" fill="#efb8b2"/>
          <path id="Path_2825" data-name="Path 2825" d="M85.171,293.856a7.658,7.658,0,0,0-.825-1.98,19.761,19.761,0,0,0-4.1-5.831c-.629-.554-1.539-1.046-2.263-.627a2.27,2.27,0,0,0-.772.968L75.4,289.833a27.857,27.857,0,0,0-1.873,4.078,20.957,20.957,0,0,0-.818,7.864c.075,1.4,1.227,1.6,2.4,1.256a11.229,11.229,0,0,0,3.021-1.491,14.785,14.785,0,0,0,2.319-1.631c1.363-1.343,2.73-2.679,4.083-4.03A2.1,2.1,0,0,0,85.171,293.856Z" transform="translate(-55.065 -216.582)" fill="#efb8b2"/>
          <path id="Path_2826" data-name="Path 2826" d="M134.913,242.5a2.648,2.648,0,0,1-.7.6,17.2,17.2,0,0,0-3.258,2.873,5.194,5.194,0,0,0-.663.9,2.38,2.38,0,0,0-.14.3,4.808,4.808,0,0,0,.056,2.336,18.593,18.593,0,0,1,.259,2.452c.022,1.856.019,5.066,0,8.556-.048,5.325-.162,11.325-.353,14.159-.087,1.355-25.987.758-29.753.726l-4.6-.053c-1.21-.014-2.357-.019-3.582-.073a.378.378,0,0,1-.455-.438v-.624c-.039-1.975-.044-7.457-.073-12.67-.029-5.518-.087-10.732-.242-11.146a11.388,11.388,0,0,0-1.489-2.043c-.324-.484-.612-1-.9-1.525a13.6,13.6,0,0,0-1.184-1.881,26.962,26.962,0,0,0-3.352-2.953c-1.537-1.351,1.813-4.778,2.662-5.835q.653-.816,1.326-1.626a33.134,33.134,0,0,1,6.489-6.2l.027-.019c2.42-1.651,8.183-3.047,11.119-3.219,1.452-.082-.194.484,1.246.416,1.694-.092,3.4-.278,5.114-.278a24.545,24.545,0,0,1,10.806,2.507,22.642,22.642,0,0,1,7.02,5.364h0a26.626,26.626,0,0,1,2.9,4.151,13.915,13.915,0,0,1,1.21,2.178c.2.554.5,1.089.67,1.656A1.626,1.626,0,0,1,134.913,242.5Z" transform="translate(-63.729 -170.971)" fill="#68addb"/>
          <path id="Path_2827" data-name="Path 2827" d="M145.627,241.406c-.242.254-.506.511-.753.765a35.97,35.97,0,0,1-3.962,3.63,8.17,8.17,0,0,1-.835.552,6.63,6.63,0,0,1-1.5.627,21.791,21.791,0,0,1-2.662.411,9.359,9.359,0,0,0-3.691,1.721,51.336,51.336,0,0,0-6.172,4.666c-1.452,1.336-2.8,2.81-4.17,4.236a92.736,92.736,0,0,1-9.911,8.887,18.9,18.9,0,0,1-4.04,2.568,10.422,10.422,0,0,1-1,.361c-.029-5.518-.087-10.732-.242-11.146a11.387,11.387,0,0,0-1.488-2.043c-.324-.484-.612-1-.9-1.525.322-.213.653-.411.99-.6,4.536-2.52,9.28-4.628,14-6.777,3.747-1.694,7.522-3.328,11.288-5a13.215,13.215,0,0,0,1.9-.968A8.734,8.734,0,0,0,134,240.379a33.769,33.769,0,0,1,2.752-2.861c.6-.506,1.21-1.012,1.847-1.489a22.642,22.642,0,0,1,7.019,5.363Z" transform="translate(-79.051 -179.266)" fill="#538baf"/>
          <path id="Path_2828" data-name="Path 2828" d="M183.565,159.706l-.044.051a4.577,4.577,0,0,1-1.532,1.084c-2.357,1.1-5.543,1.334-7.774-.165a1.578,1.578,0,0,1-.658-1.038,14.131,14.131,0,0,1-.152-2.239c0-.777-.075-1.554-.075-2.333,0-4.5-.261-9.018-.4-13.518l.012-.015c0-.1-.017-.2-.017-.288v-.373a4.052,4.052,0,0,1,1.147-2.638c.782-.862-.433-1.452.68-1.837,1.82-.651-.1-.775,1.808-.428a11.158,11.158,0,0,1,4.87,2.166,1.122,1.122,0,0,1,.155.116c1.065.862,1.994-.564,2.067.8.061,1.556.136,3.1.2,4.654.046,1.029.092,2.072.138,3.1.1,2.324.242,9.217.162,10.337A4.085,4.085,0,0,1,183.565,159.706Z" transform="translate(-131.063 -103.281)" fill="#efb8b2"/>
          <path id="Path_2829" data-name="Path 2829" d="M149.2,71.567a17.453,17.453,0,0,1-4.809,6.353c-6.891,5.693-18.879,6.361-25.832-.4-4.933-4.8-5.284-16.027-2.551-23.477a23.226,23.226,0,0,1,9.374-11.622,17.71,17.71,0,0,1,3.817-1.733,15.594,15.594,0,0,1,14.563,2.7c.1.085.208.174.31.266.3.266.6.552.888.852.1.1.194.206.286.312a22.059,22.059,0,0,1,3.444,5.407C151.645,56.534,152.151,65,149.2,71.567Z" transform="translate(-86.633 -30.639)" fill="#efb8b2"/>
          <g id="Group_1152" data-name="Group 1152" transform="translate(34.177 9.848)" opacity="0.34">
            <path id="Path_2830" data-name="Path 2830" d="M169.576,73.272a17.5,17.5,0,0,1-4.807,6.353c-6.2,5.117-16.5,6.174-23.579,1.418a21.078,21.078,0,0,0,18.862-3.63,17.473,17.473,0,0,0,4.812-6.356c2.953-6.569,2.447-15.033-.511-21.355a22.193,22.193,0,0,0-3.444-5.409c-.092-.1-.189-.211-.286-.312q-.431-.45-.888-.852c-.1-.092-.206-.179-.31-.264q-.431-.356-.879-.675a14.822,14.822,0,0,1,5.591,2.887c.1.085.208.172.31.264q.462.407.888.852c.1.1.194.208.288.315a22.09,22.09,0,0,1,3.442,5.409C172.027,58.237,172.531,66.7,169.576,73.272Z" transform="translate(-141.19 -42.19)" fill="#efb8b2"/>
          </g>
          <path id="Path_2831" data-name="Path 2831" d="M166.581,138.6c-.044.332-.419,1.839-.557,2.253l-.842,2.488a.184.184,0,0,0,.1.286,3.064,3.064,0,0,0,1.421.324" transform="translate(-125.171 -105.418)" fill="none" stroke="#3a2b28" stroke-linecap="round" stroke-linejoin="round" stroke-width="2"/>
          <path id="Path_2832" data-name="Path 2832" d="M167.06,176.383c1.418.37,2.716-.673,4.824-.409" transform="translate(-126.621 -133.713)" fill="none" stroke="#3a2b28" stroke-linecap="round" stroke-linejoin="round" stroke-width="2"/>
          <path id="Path_2833" data-name="Path 2833" d="M143.611,142.345c0,1.174-.678,2.125-1.51,2.125s-1.51-.951-1.51-2.125.675-2.125,1.51-2.125S143.611,141.169,143.611,142.345Z" transform="translate(-106.558 -106.646)" fill="#3a2b28"/>
          <ellipse id="Ellipse_211" data-name="Ellipse 211" cx="1.51" cy="2.125" rx="1.51" ry="2.125" transform="translate(47.441 33.572)" fill="#3a2b28"/>
          <ellipse id="Ellipse_212" data-name="Ellipse 212" cx="2.224" cy="1.447" rx="2.224" ry="1.447" transform="translate(49.832 37.996)" fill="#e68cbf"/>
          <path id="Path_2834" data-name="Path 2834" d="M133.289,162.212c0,.8-1,1.452-2.224,1.452s-2.224-.649-2.224-1.452,1-1.452,2.224-1.452S133.289,161.413,133.289,162.212Z" transform="translate(-97.652 -122.214)" fill="#e68cbf"/>
          <path id="Path_2835" data-name="Path 2835" d="M209.659,161.55l-.559,1.263" transform="translate(-158.486 -122.813)" fill="none" stroke="#e465a4" stroke-linecap="round" stroke-linejoin="round" stroke-width="1"/>
          <path id="Path_2836" data-name="Path 2836" d="M213.544,162.58a9.1,9.1,0,0,0-.484,1.181" transform="translate(-161.488 -123.594)" fill="none" stroke="#e465a4" stroke-linecap="round" stroke-linejoin="round" stroke-width="1"/>
          <path id="Path_2837" data-name="Path 2837" d="M216.667,163.27a6.726,6.726,0,0,0-.467,1.21" transform="translate(-163.868 -124.117)" fill="none" stroke="#e465a4" stroke-linecap="round" stroke-linejoin="round" stroke-width="1"/>
          <path id="Path_2838" data-name="Path 2838" d="M132.989,163.18l-.559,1.263" transform="translate(-100.373 -124.049)" fill="none" stroke="#e465a4" stroke-linecap="round" stroke-linejoin="round" stroke-width="1"/>
          <path id="Path_2839" data-name="Path 2839" d="M136.874,164.21a8.616,8.616,0,0,0-.484,1.179" transform="translate(-103.374 -124.829)" fill="none" stroke="#e465a4" stroke-linecap="round" stroke-linejoin="round" stroke-width="1"/>
          <path id="Path_2840" data-name="Path 2840" d="M140,164.9a6.7,6.7,0,0,0-.467,1.21" transform="translate(-105.754 -125.352)" fill="none" stroke="#e465a4" stroke-linecap="round" stroke-linejoin="round" stroke-width="1"/>
          <path id="Path_2841" data-name="Path 2841" d="M143.726,150.633a.484.484,0,1,1-.484-.532.508.508,0,0,1,.484.532Z" transform="translate(-108.203 -114.134)" fill="#fff" opacity="0.92"/>
          <path id="Path_2842" data-name="Path 2842" d="M200.376,150.533a.484.484,0,1,1-.484-.532.508.508,0,0,1,.484.532Z" transform="translate(-151.141 -114.059)" fill="#fff" opacity="0.92"/>
          <path id="Path_2843" data-name="Path 2843" d="M124.989,220.45a.787.787,0,0,0-.4-.453.16.16,0,0,1-.09-.073.138.138,0,0,1,0-.063,4.13,4.13,0,0,0-.029-.83.99.99,0,0,0-.424-.687,1.169,1.169,0,0,0-.777-.1,3.11,3.11,0,0,0-.779.242.242.242,0,0,1-.116.031.174.174,0,0,1-.131-.133c-.017-.065-.017-.133-.034-.2a.416.416,0,0,0-.283-.259.915.915,0,0,0-.4-.017,2.752,2.752,0,0,0-1.06.356c-.145.082-.286.225-.455.131s-.242-.242-.445-.276a1.42,1.42,0,0,0-.6.056c-2.336.588-4.267,2.178-6.114,3.72a32.725,32.725,0,0,0-2.754,2.861,8.626,8.626,0,0,1-1.518,1.392,13.468,13.468,0,0,1-1.9.968c-3.768,1.67-7.542,3.3-11.288,5-4.72,2.144-9.463,4.255-14,6.777a16.093,16.093,0,0,0-5.671,5.3,15.706,15.706,0,0,0-1.718,3.563,8.914,8.914,0,0,0-.516,4.052,2.861,2.861,0,0,0,1.121,1.663c2.379,1.871,6.816,1.493,9.422.38a18.794,18.794,0,0,0,4.042-2.57,92.7,92.7,0,0,0,9.887-8.909c1.375-1.426,2.706-2.9,4.168-4.236a51.476,51.476,0,0,1,6.172-4.666A9.294,9.294,0,0,1,112,231.748a22.006,22.006,0,0,0,2.662-.411,6.536,6.536,0,0,0,1.5-.627,7.345,7.345,0,0,0,.835-.554,35.474,35.474,0,0,0,3.962-3.616,20.86,20.86,0,0,0,3.456-4.073c.082-.145.16-.293.242-.44A2.332,2.332,0,0,0,124.989,220.45Z" transform="translate(-55.647 -165.526)" fill="#efb8b2"/>
          <g id="Group_1153" data-name="Group 1153" transform="translate(17.852 52.694)" opacity="0.34">
            <path id="Path_2844" data-name="Path 2844" d="M124.9,223.018a3.413,3.413,0,0,1-.242.44,20.653,20.653,0,0,1-3.459,4.076,35.689,35.689,0,0,1-3.96,3.616,7.485,7.485,0,0,1-.837.554,6.365,6.365,0,0,1-1.5.624,21.653,21.653,0,0,1-2.662.414,9.409,9.409,0,0,0-3.691,1.721,51.321,51.321,0,0,0-6.169,4.666c-1.452,1.336-2.8,2.808-4.173,4.236a92.428,92.428,0,0,1-9.88,8.9,18.863,18.863,0,0,1-4.042,2.57c-2.607,1.113-7.043,1.491-9.422-.38a2.861,2.861,0,0,1-1.121-1.663c2.42,1.752,6.724,1.367,9.282.276a18.938,18.938,0,0,0,4.042-2.568,93.21,93.21,0,0,0,9.894-8.9c1.377-1.426,2.706-2.9,4.17-4.236A51.087,51.087,0,0,1,107.3,232.7a9.283,9.283,0,0,1,3.691-1.723,21.6,21.6,0,0,0,2.662-.409,6.424,6.424,0,0,0,1.5-.629,7.023,7.023,0,0,0,.835-.552,35.71,35.71,0,0,0,3.962-3.616,20.873,20.873,0,0,0,3.459-4.073c.08-.145.157-.293.228-.441a2.377,2.377,0,0,0,.336-1.578.782.782,0,0,0-.39-.443,1.072,1.072,0,0,1,.7.107,1.012,1.012,0,0,1,.424.687,4.528,4.528,0,0,1,.027.83.167.167,0,0,0,0,.061.182.182,0,0,0,.092.077.784.784,0,0,1,.4.45A2.281,2.281,0,0,1,124.9,223.018Z" transform="translate(-73.74 -219.214)" fill="#d1aba7"/>
          </g>
          <g id="Group_1154" data-name="Group 1154" transform="translate(24.692 57.33)" opacity="0.42">
            <path id="Path_2845" data-name="Path 2845" d="M144.031,270.582a12.862,12.862,0,0,1-5.54-.762,19.148,19.148,0,0,1-4.115-2.466,92.556,92.556,0,0,1-10.11-8.636c-1.409-1.392-2.779-2.829-4.279-4.127a51.487,51.487,0,0,0-6.293-4.5,9.516,9.516,0,0,0-3.737-1.624,22.123,22.123,0,0,1-2.682-.341,6.452,6.452,0,0,1-1.513-.588,7.379,7.379,0,0,1-.859-.54,29.564,29.564,0,0,1-2.9-2.406,33.135,33.135,0,0,1,6.489-6.2l.027-.019.322.257a33.07,33.07,0,0,1,2.829,2.788,8.581,8.581,0,0,0,1.549,1.351,13.4,13.4,0,0,0,1.936.922c3.807,1.571,7.624,3.1,11.412,4.7,4.773,2.021,9.572,4.006,14.171,6.4a16.194,16.194,0,0,1,3.137,2.147,2.375,2.375,0,0,0-.14.3,4.808,4.808,0,0,0,.056,2.336,18.592,18.592,0,0,1,.259,2.452C144.065,263.883,144.063,267.082,144.031,270.582Z" transform="translate(-102 -238.37)" fill="#538baf"/>
          </g>
          <path id="Path_2846" data-name="Path 2846" d="M86.5,221.265a.782.782,0,0,1,.39-.46.177.177,0,0,0,.09-.077.138.138,0,0,0,0-.063,4.528,4.528,0,0,1,0-.83,1.012,1.012,0,0,1,.407-.7,1.167,1.167,0,0,1,.774-.114,3.052,3.052,0,0,1,.787.211.2.2,0,0,0,.116.027.169.169,0,0,0,.126-.136c.017-.065.015-.133.031-.2a.412.412,0,0,1,.276-.266.954.954,0,0,1,.4-.029,2.814,2.814,0,0,1,1.067.329c.148.08.29.218.457.119s.242-.242.438-.288a1.472,1.472,0,0,1,.6.041c2.35.528,4.323,2.065,6.208,3.56a32.7,32.7,0,0,1,2.827,2.788,8.612,8.612,0,0,0,1.559,1.351,13.252,13.252,0,0,0,1.924.922c3.807,1.571,7.624,3.1,11.412,4.7,4.775,2.021,9.572,4.006,14.171,6.4a16.063,16.063,0,0,1,5.809,5.148,15.629,15.629,0,0,1,1.808,3.514,8.935,8.935,0,0,1,.624,4.04,2.873,2.873,0,0,1-1.077,1.694c-2.331,1.936-6.777,1.67-9.413.624a19.028,19.028,0,0,1-4.115-2.461,93.078,93.078,0,0,1-10.127-8.638c-1.411-1.389-2.779-2.827-4.277-4.115a51.426,51.426,0,0,0-6.293-4.507,9.5,9.5,0,0,0-3.737-1.624,22.19,22.19,0,0,1-2.682-.341,6.451,6.451,0,0,1-1.513-.588,7.7,7.7,0,0,1-.852-.53,35.642,35.642,0,0,1-4.054-3.514,20.769,20.769,0,0,1-3.563-3.981c-.085-.143-.165-.288-.242-.433A2.565,2.565,0,0,1,86.5,221.265Z" transform="translate(-65.53 -166.073)" fill="#efb8b2"/>
          <g id="Group_1155" data-name="Group 1155" transform="translate(20.92 52.983)" opacity="0.34">
            <path id="Path_2847" data-name="Path 2847" d="M138.822,251.819a4.5,4.5,0,0,1-.051.8,2.873,2.873,0,0,1-1.077,1.694c-2.331,1.936-6.777,1.67-9.413.624a19.039,19.039,0,0,1-4.115-2.464,92.517,92.517,0,0,1-10.127-8.636c-1.411-1.392-2.779-2.829-4.277-4.115a51.414,51.414,0,0,0-6.293-4.5,9.52,9.52,0,0,0-3.732-1.626,21.544,21.544,0,0,1-2.682-.344,6.477,6.477,0,0,1-1.518-.583,7.71,7.71,0,0,1-.85-.535,35.578,35.578,0,0,1-4.054-3.512,20.85,20.85,0,0,1-3.563-3.981c-.085-.14-.165-.286-.242-.433a2.394,2.394,0,0,1-.375-1.566.772.772,0,0,1,.39-.462.179.179,0,0,0,.087-.075.153.153,0,0,0,0-.065,4.527,4.527,0,0,1,0-.83,1.012,1.012,0,0,1,.407-.7.8.8,0,0,1,.208-.092,3.081,3.081,0,0,0,.414,1.288c.075.148.157.293.242.433a20.782,20.782,0,0,0,3.563,3.984,35.353,35.353,0,0,0,4.052,3.512,7.723,7.723,0,0,0,.852.532,6.423,6.423,0,0,0,1.515.586,20.786,20.786,0,0,0,2.682.344,9.3,9.3,0,0,1,3.735,1.624,52.123,52.123,0,0,1,6.293,4.5c1.5,1.3,2.866,2.735,4.279,4.127a92.484,92.484,0,0,0,10.124,8.636,18.481,18.481,0,0,0,4.115,2.461C132.059,253.469,136.486,253.735,138.822,251.819Z" transform="translate(-86.416 -220.41)" fill="#d1aba7"/>
          </g>
          <path id="Path_2848" data-name="Path 2848" d="M140,126.72a7.089,7.089,0,0,1,4.357,1.9" transform="translate(-106.111 -96.413)" fill="none" stroke="#3a2b28" stroke-linecap="round" stroke-linejoin="round" stroke-width="2"/>
          <path id="Path_2849" data-name="Path 2849" d="M190.79,131.2a9.139,9.139,0,0,1,5.484-1.232" transform="translate(-144.608 -98.831)" fill="none" stroke="#3a2b28" stroke-linecap="round" stroke-linejoin="round" stroke-width="2"/>
          <path id="Path_2850" data-name="Path 2850" d="M130.234,37.521a56.519,56.519,0,0,1-3.572,8.432c-.167.319-.341.641-.532.946a5.047,5.047,0,0,1-.75.944,6.861,6.861,0,0,1-2.365,1.336c-4.342,1.694-8.955,2.52-13.476,3.66-3.807.968-4.194,6.327-5.008,9.422-.109.4-.162,1.14-.518,1.433A.653.653,0,0,1,103,63.638a5.176,5.176,0,0,1-.791-2.44,45.1,45.1,0,0,0-.266-5.547c-.123-.644-.349-1.261-.513-1.9a10.037,10.037,0,0,1-.167-4.115c.356-2.178,1.593-3.58,2.51-5.465a24.116,24.116,0,0,1,3.238-5,22.124,22.124,0,0,1,9.664-6.712,12.713,12.713,0,0,1,7.564-.5,7.151,7.151,0,0,1,5.175,5.163Z" transform="translate(-76.641 -24.311)" fill="#804f34"/>
          <path id="Path_2851" data-name="Path 2851" d="M184.219,48.143a55.426,55.426,0,0,0,3.447,8.287,9.439,9.439,0,0,0,.854,1.423,12,12,0,0,0,2.936,2.372,8.511,8.511,0,0,1,2.19,1.936,10.858,10.858,0,0,1,1.1,3.091,2.6,2.6,0,0,0,.528,1.067c1.549,1.617,3.1-3.63,3.34-4.524,2.161-8.248.242-17.109-6.419-23.025a12.471,12.471,0,0,0-8.747-3.439,10.8,10.8,0,0,0-3.594.612,4.8,4.8,0,0,0-2.662,2.273" transform="translate(-134.299 -27.14)" fill="#804f34"/>
          <path id="Path_2852" data-name="Path 2852" d="M259.62,142.875a3.444,3.444,0,0,1-2.626,1.549c-.465.044-2.837.094-2.742-.612a1.162,1.162,0,0,1,.191-.416,4.874,4.874,0,0,0,.576-2.3c.039-.8,0-1.6.111-2.389a2.076,2.076,0,0,1,.242-.772,1.985,1.985,0,0,1,1.549-.743,2.946,2.946,0,0,1,2.839.922A4.408,4.408,0,0,1,259.62,142.875Z" transform="translate(-192.707 -104.332)" fill="#efb8b2"/>
          <g id="Group_1156" data-name="Group 1156" transform="translate(60.288 0.217)" opacity="0.1">
            <path id="Path_2853" data-name="Path 2853" d="M274.041,43.393a.041.041,0,0,1,0,.017,14.606,14.606,0,0,1-.762,2.9,4.828,4.828,0,0,0-.332,1.317c-.022.506,0,1.021,0,1.527a1.694,1.694,0,0,1-.189.9.6.6,0,0,1-.77.269,4.128,4.128,0,0,0-.109-1.513c-.048-.557-.051-1.116-.065-1.672a8.773,8.773,0,0,0-.516-3.234c-1.138-2.662-4.115-3.919-5.4-6.535-.83-1.694-.825-3.679-1.237-5.528a12.443,12.443,0,0,0-3.63-6.353c-1.433-1.341-3.238-2.4-4.115-4.153-.857-1.694-.668-3.718-.569-5.622a17.823,17.823,0,0,0-1.084-8.14c-1.116-2.527-3.437-4.691-6.189-4.935l.925-.242h.92a11.466,11.466,0,0,1,5.117,1.217c3.05,1.646,4.686,4.988,5.238,8.275.353,2.118.382,4.4,1.67,6.169.995,1.367,2.6,2.2,3.873,3.335a9.546,9.546,0,0,1,3.011,9.159,15.552,15.552,0,0,0-.835,3.873,4.63,4.63,0,0,0,1.622,3.226c.673.593,1.5,1.019,2.125,1.653A4.982,4.982,0,0,1,274.041,43.393Z" transform="translate(-249.07 -2.4)" fill="#72442d"/>
          </g>
          <path id="Path_2854" data-name="Path 2854" d="M185.18,237.569a13.413,13.413,0,0,0,5.55.109,7.877,7.877,0,0,0,3.56-2.379,3.226,3.226,0,0,0,.629-1.249" transform="translate(-140.356 -177.766)" fill="none" stroke="#538baf" stroke-linecap="round" stroke-linejoin="round" stroke-width="3"/>
          <path id="Path_2855" data-name="Path 2855" d="M168.73,238.69a6.005,6.005,0,0,0,.75.908s1.351.8,1.5.845" transform="translate(-127.887 -181.283)" fill="none" stroke="#538baf" stroke-linecap="round" stroke-linejoin="round" stroke-width="3"/>
          <path id="Path_2856" data-name="Path 2856" d="M277.675,295.655c-.039.019-.034-.061,0-.087.833-.678,1.612-1.3,2.355-1.888" transform="translate(-210.443 -222.963)" fill="#538baf" stroke="#538baf" stroke-linecap="round" stroke-linejoin="round" stroke-width="3"/>
          <path id="Path_2857" data-name="Path 2857" d="M91.64,288.4c.893.745,1.813,1.544,2.774,2.42" transform="translate(-69.455 -218.961)" fill="#538baf" stroke="#538baf" stroke-linecap="round" stroke-linejoin="round" stroke-width="3"/>
          <path id="Path_2858" data-name="Path 2858" d="M254.442,221.7a23.437,23.437,0,0,0-3.052,2.633" transform="translate(-190.541 -168.405)" fill="none" stroke="#e89528" stroke-linecap="round" stroke-linejoin="round" stroke-width="1" opacity="0.4"/>
          <path id="Path_2859" data-name="Path 2859" d="M257.264,222.45a.726.726,0,0,0-.358.179q-2.57,1.936-4.986,4.064" transform="translate(-190.942 -168.973)" fill="none" stroke="#e89528" stroke-linecap="round" stroke-linejoin="round" stroke-width="1" opacity="0.51"/>
          <path id="Path_2860" data-name="Path 2860" d="M267.543,228a17.732,17.732,0,0,0-3.923,3.35" transform="translate(-199.811 -173.18)" fill="none" stroke="#e89528" stroke-linecap="round" stroke-linejoin="round" stroke-width="1" opacity="0.51"/>
          <path id="Path_2861" data-name="Path 2861" d="M108.76,222.42q1.985,1.532,3.873,3.19" transform="translate(-82.432 -168.951)" fill="none" stroke="#e89528" stroke-linecap="round" stroke-linejoin="round" stroke-width="1" opacity="0.46"/>
          <path id="Path_2862" data-name="Path 2862" d="M99.48,224q2.326,2.113,4.616,4.267" transform="translate(-75.398 -170.148)" fill="none" stroke="#e89528" stroke-linecap="round" stroke-linejoin="round" stroke-width="1" opacity="0.46"/>
          <path id="Path_2863" data-name="Path 2863" d="M91,229.639c.111-.046.23.039.319.116l2.553,2.215a10.279,10.279,0,0,0,2.113,1.542" transform="translate(-68.97 -174.413)" fill="none" stroke="#e89528" stroke-linecap="round" stroke-linejoin="round" stroke-width="1" opacity="0.46"/>
          <g id="Group_1157" data-name="Group 1157" transform="translate(26.357 12.575)" opacity="0.1">
            <path id="Path_2864" data-name="Path 2864" d="M133.083,57.3a32.727,32.727,0,0,1-.7,4.722c-.109.484-.228.968-.373,1.452a5.046,5.046,0,0,1-.75.944,6.861,6.861,0,0,1-2.365,1.336c-4.342,1.694-8.955,2.52-13.476,3.66-3.807.968-4.194,6.327-5.008,9.422-.109.4-.162,1.14-.518,1.433a.653.653,0,0,1-1.017-.056l.421-3.582c.411-3.5.932-7.261,3.309-9.858a14.131,14.131,0,0,1,6.252-3.536,45.973,45.973,0,0,0,6.845-2.386,12.642,12.642,0,0,0,3.63-2.7,16.163,16.163,0,0,0,2.788-4.081,1.063,1.063,0,0,1,.484-.591C133.514,53.118,133.112,56.809,133.083,57.3Z" transform="translate(-108.88 -53.456)" fill="#72442d"/>
          </g>
          <path id="Path_2865" data-name="Path 2865" d="M124.57,420.059s25.392,1.646,34.562-.549" transform="translate(-94.415 -318.338)" fill="none" stroke="#538baf" stroke-linecap="round" stroke-linejoin="round" stroke-width="3"/>
          <path id="Path_2866" data-name="Path 2866" d="M214.88,5.09a11.524,11.524,0,0,1,8.045-3.585,8.519,8.519,0,0,1,7.295,4.611c1.583,2.916.646,6.494,1.147,9.749a6.833,6.833,0,0,0,1.246,3.241c1.3,1.66,3.231,1.06,4.62,2.481a9.711,9.711,0,0,1,2.333,3.94c.925,3.042.4,6.646,2.394,9.129.455.571,1.021,1.043,1.527,1.571a9.727,9.727,0,0,1,2.539,8.033" transform="translate(-162.867 -1.502)" fill="none" stroke="#72442d" stroke-linecap="round" stroke-miterlimit="10" stroke-width="3" opacity="0.1"/>
          <path id="Path_2867" data-name="Path 2867" d="M218.13,20.386c1.837-.3,6.7-1.142,8.176,0,4.192,3.253,2.774,9.388,3.115,10.841a7.065,7.065,0,0,0,2.091,3.873c1.092.91,2.58,1.283,3.568,2.3a6.643,6.643,0,0,1,1.44,4.357,11.794,11.794,0,0,0,.753,4.6,11.709,11.709,0,0,0,3.509,3.584C242.1,51,243.4,52.3,243.618,53.975" transform="translate(-165.331 -15.374)" fill="none" stroke="#72442d" stroke-linecap="round" stroke-miterlimit="10" stroke-width="3" opacity="0.1"/>
          <path id="Path_2868" data-name="Path 2868" d="M214.26,60.36a25.775,25.775,0,0,0,1.334,5.238,8.508,8.508,0,0,0,.968,1.965c1.084,1.564,2.96,2.391,4.182,3.843,2.091,2.461,1.919,6.051,2.856,9.146" transform="translate(-162.397 -46.114)" fill="none" stroke="#72442d" stroke-linecap="round" stroke-miterlimit="10" stroke-width="3"/>
          <path id="Path_2869" data-name="Path 2869" d="M129.091,42.29c-1.561,3.113-5.179,4.528-8.541,5.448s-7,1.694-9.381,4.255c-2.263,2.42-2.88,6-2.616,9.3" transform="translate(-82.231 -32.418)" fill="none" stroke="#72442d" stroke-linecap="round" stroke-miterlimit="10" stroke-width="3"/>
          <rect id="Rectangle_467" data-name="Rectangle 467" width="1.486" height="6.218" transform="translate(10.886 56.152) rotate(-47.23)" fill="#fff"/>
          <rect id="Rectangle_468" data-name="Rectangle 468" width="6.218" height="1.486" transform="translate(11.016 59.497) rotate(-47.23)" fill="#fff"/>
          <rect id="Rectangle_469" data-name="Rectangle 469" width="1.486" height="6.218" transform="translate(77.783 54.359) rotate(-47.23)" fill="#fff"/>
          <rect id="Rectangle_470" data-name="Rectangle 470" width="6.218" height="1.486" transform="translate(77.911 57.704) rotate(-47.23)" fill="#fff"/>
          <g id="Group_1158" data-name="Group 1158" transform="translate(4.117 32.991)" opacity="0.56">
            <rect id="Rectangle_471" data-name="Rectangle 471" width="2.229" height="8.878" transform="translate(0 1.821) rotate(-47.23)" fill="#fff"/>
            <rect id="Rectangle_472" data-name="Rectangle 472" width="8.878" height="2.229" transform="translate(0.183 6.517) rotate(-47.23)" fill="#fff"/>
          </g>
          <g id="Group_1159" data-name="Group 1159" transform="translate(81.952 8.243)" opacity="0.6">
            <path id="Path_2870" data-name="Path 2870" d="M342.905,44.21a4.325,4.325,0,1,1,4.325-4.323A4.325,4.325,0,0,1,342.905,44.21Zm0-6.915a2.592,2.592,0,1,0,2.592,2.592A2.592,2.592,0,0,0,342.905,37.3Z" transform="translate(-338.58 -35.56)" fill="#fff"/>
          </g>
          <g id="Group_1160" data-name="Group 1160" transform="translate(0 45.824)" opacity="0.71">
            <path id="Path_2871" data-name="Path 2871" d="M2.354,195.574A2.372,2.372,0,1,1,4.724,193.2,2.372,2.372,0,0,1,2.354,195.574Zm0-3.5a1.128,1.128,0,1,1,0,.01Z" transform="translate(0.02 -190.83)" fill="#bfbff0"/>
          </g>
          <g id="Group_1161" data-name="Group 1161" transform="translate(92.122 69.432)" opacity="0.71">
            <path id="Path_2872" data-name="Path 2872" d="M383.863,294.9a3.263,3.263,0,1,1,3.263-3.263A3.263,3.263,0,0,1,383.863,294.9Zm0-5.286a2.023,2.023,0,1,0,2.023,2.023A2.023,2.023,0,0,0,383.863,289.609Z" transform="translate(-380.6 -288.37)" fill="#bfbff0"/>
          </g>
        </g>
      </g>
    </g>
    <rect id="Rectangle_473" data-name="Rectangle 473" width="76" height="2" rx="1" transform="translate(9 103.592)" fill="#bfbff0"/>
    <g id="tik-tok" transform="translate(38.135 78.714)">
      <path id="Path_2873" data-name="Path 2873" d="M47.516,4.979a4.618,4.618,0,0,1-2.79-.932A4.619,4.619,0,0,1,42.881.39H39.889V8.567l0,4.479a2.713,2.713,0,1,1-1.861-2.57V7.437a5.888,5.888,0,0,0-.863-.064A5.738,5.738,0,0,0,32.85,9.3a5.623,5.623,0,0,0,.254,7.754,5.838,5.838,0,0,0,.541.472,5.739,5.739,0,0,0,3.517,1.189,5.888,5.888,0,0,0,.863-.063,5.719,5.719,0,0,0,3.195-1.6A5.6,5.6,0,0,0,42.9,13.069l-.015-6.688a7.583,7.583,0,0,0,4.64,1.577V4.978h-.009Z" transform="translate(-31.423 -0.39)" fill="#fff"/>
    </g>
  </g>
</svg>
