<svg xmlns="http://www.w3.org/2000/svg" width="27" height="29.925" viewBox="0 0 27 29.925">
  <path id="play-store_1_" data-name="play-store (1)" d="M36.338,12.106,15.917.434A3.29,3.29,0,0,0,11,3.29V26.636a3.289,3.289,0,0,0,4.922,2.856L36.338,17.819a3.29,3.29,0,0,0,0-5.712Zm-8.849-2.76-2.8,3.906L17.978,3.91ZM14.156,27.919a1.283,1.283,0,0,1-.521-.164,1.3,1.3,0,0,1-.645-1.12V3.289A1.289,1.289,0,0,1,14.154,2l9.3,12.959Zm3.823-1.9,6.707-9.342,2.8,3.906Zm17.37-9.929-6.118,3.5-3.317-4.621,3.317-4.621,6.118,3.5a1.294,1.294,0,0,1,0,2.248Z" transform="translate(-10.995)" fill="#fff"/>
</svg>
