<svg xmlns="http://www.w3.org/2000/svg" width="27.2" height="34.003" viewBox="0 0 27.2 34.003">
  <g id="apple_1_" data-name="apple (1)" transform="translate(-46.233 1.502)">
    <g id="Group_130" data-name="Group 130" transform="translate(46.744 7.65)">
      <g id="Group_129" data-name="Group 129" transform="translate(0)">
        <path id="Path_119" data-name="Path 119" d="M72.391,137.4a6.374,6.374,0,0,1-3.454-4.554.469.469,0,0,0-.923.162,7.306,7.306,0,0,0,3.949,5.226A16.859,16.859,0,0,1,70,142.147c-1.148,1.679-2.45,3.582-4.383,3.619s-2.642-1.236-5.126-1.236-3.275,1.2-5.114,1.274c-1.731.066-3.12-1.729-4.508-3.734-2.564-3.709-4.6-10.579-1.951-15.173a7.2,7.2,0,0,1,5.027-3.573.469.469,0,1,0-.155-.925,8.137,8.137,0,0,0-5.685,4.03c-2.829,4.91-.79,12.151,1.992,16.175,1.145,1.655,2.864,4.141,5.191,4.14,2.1,0,2.885-1.276,5.2-1.276,2.26,0,2.925,1.277,5.143,1.236,2.416-.046,3.926-2.253,5.139-4.027a17.82,17.82,0,0,0,2.08-4.138A.933.933,0,0,0,72.391,137.4Z" transform="translate(-46.744 -122.392)" fill="none" stroke="#fff" stroke-width="1"/>
      </g>
    </g>
    <g id="Group_132" data-name="Group 132" transform="translate(59.326 -1)">
      <g id="Group_131" data-name="Group 131" transform="translate(0)">
        <path id="Path_120" data-name="Path 120" d="M255.288.907a.931.931,0,0,0-1.073-.9,7.451,7.451,0,0,0-6.162,7.17.928.928,0,0,0,.923.891H249C252.411,7.975,255.362,4.433,255.288.907Zm-6.3,6.227a6.266,6.266,0,0,1,1.574-4.048A6.72,6.72,0,0,1,254.351.938C254.407,3.92,251.9,7.041,248.988,7.134Z" transform="translate(-248.048 0)" fill="none" stroke="#fff" stroke-width="1"/>
      </g>
    </g>
    <g id="Group_134" data-name="Group 134" transform="translate(55.584 7.457)">
      <g id="Group_133" data-name="Group 133">
        <path id="Path_121" data-name="Path 121" d="M204.407,122.188a7.728,7.728,0,0,0-5.74-2.869c-2.663-.2-4.933,1.429-5.981,1.429-.858,0-2.336-.907-3.934-1.232a.469.469,0,0,0-.187.919c1.564.318,2.984,1.251,4.121,1.251,1.367,0,3.461-1.613,5.912-1.432a6.8,6.8,0,0,1,5.065,2.5,7.562,7.562,0,0,0-3.1,5.029.469.469,0,0,0,.4.526.476.476,0,0,0,.062,0,.469.469,0,0,0,.464-.408,6.619,6.619,0,0,1,2.722-4.392A.93.93,0,0,0,204.407,122.188Z" transform="translate(-188.19 -119.303)" fill="none" stroke="#fff" stroke-width="1"/>
      </g>
    </g>
  </g>
</svg>
