<svg xmlns="http://www.w3.org/2000/svg" width="22" height="22" viewBox="0 0 22 22">
  <path id="Path_139" data-name="Path 139" d="M15.559,0a6.323,6.323,0,0,1,4.655,1.814,6.36,6.36,0,0,1,1.778,4.618v9.127a6.374,6.374,0,0,1-1.814,4.7,6.543,6.543,0,0,1-4.655,1.732H6.469A6.469,6.469,0,0,1,1.86,20.26,6.378,6.378,0,0,1,0,15.523V6.432A6.07,6.07,0,0,1,6.432,0Zm.046,2.043H6.469A4.524,4.524,0,0,0,3.234,3.189,4.417,4.417,0,0,0,2.043,6.432v9.09A4.469,4.469,0,0,0,3.234,18.8a4.582,4.582,0,0,0,3.235,1.145h9.054A4.582,4.582,0,0,0,18.757,18.8a4.334,4.334,0,0,0,1.283-3.244V6.432a4.582,4.582,0,0,0-1.191-3.2,4.417,4.417,0,0,0-3.244-1.191ZM11,5.278a5.681,5.681,0,1,1-5.681,5.681A5.716,5.716,0,0,1,11,5.278Zm0,2.034a3.638,3.638,0,1,0,3.638,3.638A3.656,3.656,0,0,0,11,7.312Zm5.9-3.455A1.283,1.283,0,1,1,15.614,5.14,1.283,1.283,0,0,1,16.9,3.858Z" transform="translate(0.005 0.004)" fill="#9b9d9e"/>
</svg>
