<svg xmlns="http://www.w3.org/2000/svg" width="23" height="16.311" viewBox="0 0 23 16.311">
  <path id="Path_141" data-name="Path 141" d="M11.538,3.5c.565,0,7.226.019,8.951.479a2.894,2.894,0,0,1,2.032,2.06A30.8,30.8,0,0,1,23,11.645v.038a29.759,29.759,0,0,1-.479,5.558,2.894,2.894,0,0,1-2.032,2.07c-1.687.46-8.1.479-8.913.489h-.163c-.815,0-7.226-.029-8.9-.479a2.894,2.894,0,0,1-2.032-2.08A29.024,29.024,0,0,1,0,11.875V11.4A29.024,29.024,0,0,1,.479,6.03,2.894,2.894,0,0,1,2.511,3.979c1.725-.47,8.385-.489,8.951-.489Zm-2.4,4.7v6.881l6.018-3.431L9.142,8.2Z" transform="translate(0 -3.49)" fill="#9b9d9e"/>
</svg>
