<svg xmlns="http://www.w3.org/2000/svg" width="22" height="22" viewBox="0 0 22 22">
  <path id="Path_140" data-name="Path 140" d="M20.378,0H1.623A1.6,1.6,0,0,0,0,1.577V20.423A1.6,1.6,0,0,0,1.623,22H20.378A1.6,1.6,0,0,0,22,20.423V1.577A1.6,1.6,0,0,0,20.378,0ZM6.664,18.425H3.346V8.47H6.664ZM5.014,7.113H4.987a1.72,1.72,0,1,1,.046-3.428,1.72,1.72,0,1,1-.027,3.428ZM18.645,18.425H15.317V13.108c0-1.329-.477-2.246-1.677-2.246a1.838,1.838,0,0,0-1.714,1.21,2.161,2.161,0,0,0-.1.807v5.546H8.507s.046-9,0-9.937h3.328V9.9a3.3,3.3,0,0,1,2.988-1.65c2.191,0,3.832,1.43,3.832,4.483v5.692Z" fill="#9b9d9e"/>
</svg>
